<svg xmlns="http://www.w3.org/2000/svg" xmlns:xlink="http://www.w3.org/1999/xlink" width="531.359" height="92.845" viewBox="0 0 531.359 92.845">
  <defs>
    <clipPath id="clip-path">
      <rect id="Rectangle_3331" data-name="Rectangle 3331" width="531.359" height="92.845" fill="#fff"/>
    </clipPath>
  </defs>
  <g id="Group_8541" data-name="Group 8541" clip-path="url(#clip-path)">
    <path id="Path_6481" data-name="Path 6481" d="M5682.452,329.589l3.333-.523c22.021-15.815,8.223-58.6-27.98-53.7l2.429,1.75c23-1.764,45.155,23.918,22.219,52.476" transform="translate(-5179.438 -251.725)" fill="#f7c300"/>
    <path id="Path_6482" data-name="Path 6482" d="M5022.392,890.124a19.005,19.005,0,0,1-6.273-1.666s-9.149,3.79-11.306,6.241c0,0,1.111.948,1.111,1.144s.131,1.9.131,1.9l1.667.13s11.892-3.3,13.363-4.313c0,0-.849-1.6,1.307-3.431" transform="translate(-4581.657 -813.339)" fill="#0093db"/>
    <path id="Path_6483" data-name="Path 6483" d="M5082.77,49.486c-.722-.055-1,.068-1.181.7a2.715,2.715,0,0,1-.462.99c-.47.565-.888,1.356-1.865.84a.855.855,0,0,0-.482-.677c-.069-.326-.618-.512-.1-1.01.8-.781.688-1.489-.177-2.2-1.646-1.354-2.406-1.42-4.247-.368a7.517,7.517,0,0,0-1.025.637c-1.054.856-1.961,1.8-1.685,3.337a1.881,1.881,0,0,0,.347.454c.309.342.594.684-.057,1a2.936,2.936,0,0,1-.33.13c-.4.7-.739,1.526-1.707.534-.142-.143-.586-.095-.843,0a2.616,2.616,0,0,1-2.309-.3c-.2-.053-.4-.106-.6-.157l0,0-1.154-.3c.014-.022.024-.044.041-.066,0,0,0,0,0,0,.432-.737,1.237-1.167,1.7-1.879a2.054,2.054,0,0,0,.235-.468c.023-.254.06-.507.072-.761a3.47,3.47,0,0,0-2.429-3.593,3.413,3.413,0,0,0-4.068,1.95c-.157.311-.122.73-.511.959-.42-.543-.771-1.16-1.467-1.4a2.789,2.789,0,0,0-3.965.388s0,0,0,0c-.413.071-.553.421-.761.719a3.519,3.519,0,0,0,3.407,5.247c.244-.084.486-.165.72-.26a2.89,2.89,0,0,0,1.978-1.912c.274-.265.084-.739.463-.995.195.183.394.368.591.556.263.706,1.037.884,1.473,1.407a1.119,1.119,0,0,1,.086.115c-.5.088-.995.2-1.5.256-1.645.172-1.765.168-1.7,1.769,0,.126.005.243,0,.355,0,.055-.007.11-.014.163a1.449,1.449,0,0,1-.021.152,1,1,0,0,1-.025.143,1.128,1.128,0,0,1-.036.135c-.013.044-.025.086-.042.128a1.326,1.326,0,0,1-.147.285c-.016.024-.033.049-.051.071s-.051.062-.078.09a.8.8,0,0,1-.075.075.937.937,0,0,1-.088.077,1.573,1.573,0,0,1-.241.154,1.434,1.434,0,0,1-.143.071l-.017.007a1.556,1.556,0,0,1-.15.06c-.045.018-.091.031-.14.046-.029.009-.06.018-.092.024a.031.031,0,0,1-.013,0c-.039.011-.082.022-.124.031a10.79,10.79,0,0,0-1.027.335q-.952.424-1.9.849c-.459.205-.677.082-.673-.446.007-.988-.084-1.983-.007-2.964s-.285-1.414-1.259-1.418a4.3,4.3,0,0,1-2.267-.739,3.85,3.85,0,0,1-1.625-2.5c-.1-.377-.167-.845-.671-.9-.542-.055-.746.379-.922.787a3.349,3.349,0,0,1-.645,1.107.1.1,0,0,1-.015.018c-.137.128-.271.258-.408.386a.161.161,0,0,1-.031.011l-1.875.708h0c-.186.068-.368.139-.553.207a8.244,8.244,0,0,1-4.207-.485c-.427-.216-.932-.39-1.126-.838-.366-.845-.74-1.42-1.867-1.191-.6.123-.606-.615-.6-1.074.031-1.835.044-1.831-1.866-1.833a14.519,14.519,0,0,1-4.03-.4,3.373,3.373,0,0,1-2.786-3.573,6.917,6.917,0,0,1,.156-1.745c.493-2.055,1.279-2.708,3.359-2.719,1.247-.007,2.492.022,3.737-.024a3.668,3.668,0,0,0,2.611-2.239c.1-.437-.2-.415-.421-.45-1.922-.289-3.359-1.753-5.233-2.155a.065.065,0,0,0,.011-.022.078.078,0,0,0-.015.011,1.328,1.328,0,0,1,.709-2.018,4.9,4.9,0,0,0,1.787-2.186,8.274,8.274,0,0,1,1.721-2.106l.005-.007a11.631,11.631,0,0,1,2.8-.271c1.054-.073,1.867-.373,2.039-1.648.151-1.114.937-1.478,1.932-1.442.08,0,.162.009.243.015.179-.086.187-.254.191-.421a1.81,1.81,0,0,0-.372-.346c-.239-.188-.462-.382-.39-.726a.886.886,0,0,1,.087-.249,2.249,2.249,0,0,1-2.485-1.723,3.564,3.564,0,0,1-.095-.578,7.354,7.354,0,0,1,.713-3.079,6.862,6.862,0,0,0,.907-3.663,1.383,1.383,0,0,1,1.239-1.535c1.286-.267,2.576-.525,3.86-.792s1.77-1.312,2.218-2.371c.15-.346.006-.505-.361-.62-1.471-.468-1.474-.5-.666-1.762.082-.066.161-.13.24-.2a6.866,6.866,0,0,0,3.633-2.336,3,3,0,0,1,2.863-.959c1.451.216,1.735.013,2.329-1.363.725-1.681,1.577-1.932,3.125-.9a7.145,7.145,0,0,1,.9.8c1.09,1.021,1.626,2.428,2.516,3.591a3.3,3.3,0,0,0,2.8,1.652,3.243,3.243,0,0,1,2.238.787,9.418,9.418,0,0,0,2.207,1.427,1.776,1.776,0,0,1,1.15,2.3c-.172.567.014.768.547.7.949-.123,1.221.412,1.248,1.218.007.148.02.293.018.441-.013.957.31,1.48,1.414,1.436a6.475,6.475,0,0,1,3.275.816,2.623,2.623,0,0,1,1.521,2.261,19.739,19.739,0,0,0,.548,3.467c.181.756.356,1.535-.523,2.161-.659.47-.1.686.388.774l.133.066,2.054,1.019a2.408,2.408,0,0,1,.588,1.723c0,.7.28.913.954,1.01,1.731.249,2.151.7,2.5,2.4.075.357.112.721.167,1.081-.009.549-.021,1.1-.024,1.647-.011,1.553-.316,1.956-1.858,2.38-.881.24-1.781.415-2.653.677-.53.161-.958.379-.4,1.074,1.167,1.467,1.11,1.895-.2,3.136-1.148,1.092-1.04,1.568.464,2.031.141.042.288.053.432.082a3.625,3.625,0,0,1,2.862,1.789,1.162,1.162,0,0,0,1.078.657c.6-.013.688.39.74.876.28,2.713-1.684,3.582-4.179,3.394" transform="translate(-4602.324 0.001)" fill="#86c127"/>
    <path id="Path_6484" data-name="Path 6484" d="M5349.344,570.152a2.418,2.418,0,1,1-2.418-2.418,2.417,2.417,0,0,1,2.418,2.418" transform="translate(-4892.632 -519.732)" fill="#fff"/>
    <path id="Path_6485" data-name="Path 6485" d="M5213.7,917.928a2.418,2.418,0,1,1-2.418-2.418,2.418,2.418,0,0,1,2.418,2.418" transform="translate(-4768.453 -838.104)" fill="#fff"/>
    <path id="Path_6486" data-name="Path 6486" d="M5286.737,917.928a2.418,2.418,0,1,1-2.418-2.418,2.418,2.418,0,0,1,2.418,2.418" transform="translate(-4835.318 -838.104)" fill="#fff"/>
    <path id="Path_6487" data-name="Path 6487" d="M5687.878,881.987a2.418,2.418,0,1,1-2.417-2.418,2.417,2.417,0,0,1,2.417,2.418" transform="translate(-5202.542 -805.202)" fill="#fff"/>
    <path id="Path_6488" data-name="Path 6488" d="M5763.237,881.987a2.417,2.417,0,1,1-2.417-2.418,2.418,2.418,0,0,1,2.417,2.418" transform="translate(-5271.531 -805.202)" fill="#fff"/>
    <path id="Path_6489" data-name="Path 6489" d="M5882.652,881.987a2.418,2.418,0,1,1-2.418-2.418,2.418,2.418,0,0,1,2.418,2.418" transform="translate(-5380.849 -805.202)" fill="#fff"/>
    <path id="Path_6490" data-name="Path 6490" d="M5432.044,559.718a2.418,2.418,0,1,1-2.418-2.418,2.418,2.418,0,0,1,2.418,2.418" transform="translate(-4968.339 -510.181)" fill="#fff"/>
    <path id="Path_6491" data-name="Path 6491" d="M5107.373,649.436l-5.049,1.666s7.157,10.146,1.423,12.4-7.426-13.38-7.426-13.38l-4.706,1.666s5.563,11.3-.563,11.936-7.229-13.9-7.229-13.9l-4.8,1.936s5.417,10.876-.562,11.981-6.813-14.309-6.813-14.309-17.2,3.8-19.948,8.822V661.1s11.908-1.25,12.888.76c0,0-5.7,8.406-20.143,3.472a18.966,18.966,0,0,1-9.933-9.541l-4.574,4.444a20.731,20.731,0,0,0,16.893,9.966c12.187.817,18-5.064,18-5.064s2.776-2.516,2.841-5.13c0,0-.653-2.712-9.9-2.418,0,0,2.843-2.679,11.109-4.248,0,0,.131,13.1,9.737,12.743a6.6,6.6,0,0,0,5.065-3.169,7.545,7.545,0,0,0,6.566,3.3,6.54,6.54,0,0,0,5.851-3.4s3.464,4.738,7.68,3.5,11.385-4.574,3.593-16.876" transform="translate(-4604.653 -594.526)" fill="#fff"/>
    <path id="Path_6492" data-name="Path 6492" d="M5268.183,912.032l.735,1.054.614-1.054Z" transform="translate(-4822.76 -834.92)" fill="#0093db"/>
    <path id="Path_6493" data-name="Path 6493" d="M5336.876,833.289l.785.637s11.026-2.107,12.964-.858c0,0-5.294,8.8-4.412,11.444s3.088,5.146,5.98,5.146,22.741-5.931,22.741-5.931,19.507-4.411,24.212-2.892c0,0-2.107-4.636-32.005.329,0,0-14.311,3.984-15.34,3.151s5.783-9.427,5-12.384-4.413-5.653-8.969-5.163a14.922,14.922,0,0,1-10.956,6.519" transform="translate(-4885.645 -756.814)" fill="#0093db"/>
    <path id="Path_6494" data-name="Path 6494" d="M5562.815,568.28l1.74,1.1s-4.485,1.348-2.965,2.181l2.843.417s1.813,1.96-2.72,3.161l-2.818-.613s3.846-1.47,3.969-1.911c0,0-3.333.441-3.405-.907-.564-1.617,3.356-3.431,3.356-3.431" transform="translate(-5088.891 -520.232)" fill="#fff"/>
    <path id="Path_6495" data-name="Path 6495" d="M5691.623,101.315s.147-3.43-4.559-3.233l-3.438.033-.384,11.729h2.351v-4.46s6.569.931,6.029-4.069m-5.643,2.369V99.746s3.308-.384,3.308,1.789-3.308,2.148-3.308,2.148" transform="translate(-5202.726 -89.781)" fill="#fff"/>
    <path id="Path_6496" data-name="Path 6496" d="M6156.3,686.005l.1,0-11.836-.388v2.353h4.46s-.93,6.568,4.067,6.028c0,0,3.43.148,3.237-4.559Zm-3.423,5.659c-2.173,0-2.149-3.308-2.149-3.308h3.938s.383,3.308-1.79,3.308" transform="translate(-5625.044 -627.65)" fill="#fff"/>
    <path id="Path_6497" data-name="Path 6497" d="M6031.49,279.888l-9.141,7.254,4.829,6.151,1.347-1.127-3.357-4.142,2.867-2.108,2.428,3.112,1.3-1.1-2.426-3.088,2.547-2.3,3.188,4.048,1.225-1.164Z" transform="translate(-5513.161 -256.223)" fill="#fff"/>
    <path id="Path_6498" data-name="Path 6498" d="M6128.776,473.1l-11.324,2.822,1.851,7.6,1.692-.469-1.341-5.16,3.481-.732.921,3.837,1.638-.467-.931-3.815,3.269-1.035,1.227,5,1.6-.553Z" transform="translate(-5600.223 -433.101)" fill="#fff"/>
    <path id="Path_6499" data-name="Path 6499" d="M5851.444,149.558l-9.575,8.789,1.73.785,2.518-2.386,4.313,2.32-.392,3.432,2.532,1.176,1.127-12.858Zm-.817,7.841-3.433-1.861,3.659-3.136Z" transform="translate(-5347.941 -136.913)" fill="#fff"/>
    <path id="Path_6500" data-name="Path 6500" d="M5578.053,381.708s22.822-1.7,17.676,21.484l-4.78,1.372s-3.309.98.907,4.583c0,0-.759,1.617-4.265,3.112,0,0-.538-8.308-2.229-8.651,0,0-4.19.98-6.347,2.573a39.305,39.305,0,0,0,2.426,7.131s-5.231-.817-6.642-2.083c0,0-.366-7.131-1.787-7.572,0,0-6.592,1.274-6.5,3.431l2.328,5.685s-4.9-4.509-5.023-7.646l2.891.172s1.911-.172,3.774-3.112l1.4-.27a3.974,3.974,0,0,0,1.372-2.524s4.338,1,5.22-2.353c0,0,.98-3.352-1.4-3.1,0,0-1.176-2.1-2.817-2.343s-1.912-.588-1.912-.588l1.886-1.642a10.439,10.439,0,0,0-1-3.014s3.65-.147,4.411-1.74l.411-.686Z" transform="translate(-5093.402 -349.409)" fill="#f7c300"/>
    <path id="Path_6501" data-name="Path 6501" d="M5707.775,761.7s3.072,2.091,5.163,1.732a1.861,1.861,0,0,1-1.731,1.9c-1.733.1-3.431-3.627-3.431-3.627" transform="translate(-5225.184 -697.299)" fill="#f7c300"/>
    <path id="Path_6502" data-name="Path 6502" d="M5856.174,732.664l1.438,2.026,3.463-2.353-.849-2.712Z" transform="translate(-5361.036 -667.936)" fill="#f7c300"/>
    <path id="Path_6503" data-name="Path 6503" d="M5965.492,626.055l-1.11,2.189.85,1.4Z" transform="translate(-5460.095 -573.122)" fill="#f7c300"/>
    <path id="Path_6504" data-name="Path 6504" d="M9.949,322.668q-.168-1.01-.316-1.967a12.944,12.944,0,0,1-.147-1.968l3.83-.779a15.071,15.071,0,0,0,.179,3.957,48.355,48.355,0,0,0,.979,4.819,12.781,12.781,0,0,0,1.915,4.23,4.721,4.721,0,0,0,2.778,2.147v1.747q-3.263.21-6.187-2.862a6.423,6.423,0,0,1-3.957,2.725,5.85,5.85,0,0,1-5.177-1.084,8.146,8.146,0,0,1-2.578-10.217,4.175,4.175,0,0,1,4.409-2.431,6.991,6.991,0,0,1,2.273.484,9.429,9.429,0,0,1,2,1.2m.8,4.167a5.883,5.883,0,0,0-1.463-2.862,3.448,3.448,0,0,0-3.062-.968,3.452,3.452,0,0,0-2.589,2.41,6.03,6.03,0,0,0,.348,3.746,5.341,5.341,0,0,0,2.525,2.915,4.148,4.148,0,0,0,3.1.505,4.895,4.895,0,0,0-.158-2.6A11.548,11.548,0,0,0,8.16,327.74Z" transform="translate(-0.389 -291.071)" fill="#fff"/>
    <path id="Path_6505" data-name="Path 6505" d="M217.6,337.892a2.311,2.311,0,0,0,2.041-1.441q.778-1.442-.168-4.094a14.654,14.654,0,0,0-1.284-3.03l3.515-1.305a32.957,32.957,0,0,0,.526,3.662,8.82,8.82,0,0,0,1.894,4.5,4.861,4.861,0,0,0,2.652,1.7v1.747a7.234,7.234,0,0,1-2.578-.442,7.045,7.045,0,0,1-2.578-2.063,3.38,3.38,0,0,1-1.589,1.82,4.821,4.821,0,0,1-2.431.684Zm2.42-12.4a3.2,3.2,0,0,1-.947.042,1.347,1.347,0,0,1-.884-.316q-.821-.841,1.684-2.041a4.337,4.337,0,0,1,.557.263q.516.263.516.389-1.831.3-1.831,1.01,0,.274,1.641.379.631.485-.4,1.158t-1.242.505l-1.368-.274a3.413,3.413,0,0,1,1.1-.4q1.105-.316,1.168-.716" transform="translate(-199.204 -295.856)" fill="#fff"/>
    <path id="Path_6506" data-name="Path 6506" d="M317.916,395.751a1.617,1.617,0,0,1,.442-1.1,1.54,1.54,0,0,1,2.252-.011,1.447,1.447,0,0,1,.484,1.116,1.545,1.545,0,0,1-.463,1.136,1.52,1.52,0,0,1-1.115.463,1.581,1.581,0,0,1-1.6-1.6m.526-5.451a2.312,2.312,0,0,0,2.041-1.441q.778-1.442-.169-4.094a14.646,14.646,0,0,0-1.284-3.03l3.515-1.3a32.963,32.963,0,0,0,.526,3.662,8.821,8.821,0,0,0,1.894,4.5,4.863,4.863,0,0,0,2.652,1.7v1.747a7.233,7.233,0,0,1-2.578-.442,7.04,7.04,0,0,1-2.578-2.063,3.382,3.382,0,0,1-1.589,1.82,4.819,4.819,0,0,1-2.431.684Zm2.862,5.451a1.549,1.549,0,0,1,.473-1.116,1.54,1.54,0,0,1,2.241,0,1.446,1.446,0,0,1,.484,1.116,1.527,1.527,0,0,1-.473,1.136,1.6,1.6,0,0,1-2.252,0,1.527,1.527,0,0,1-.473-1.136" transform="translate(-291.036 -348.265)" fill="#fff"/>
    <path id="Path_6507" data-name="Path 6507" d="M423.95,390.3a2.312,2.312,0,0,0,2.041-1.441q.778-1.442-.168-4.094a14.658,14.658,0,0,0-1.284-3.03l3.515-1.3a32.919,32.919,0,0,0,.526,3.662,8.818,8.818,0,0,0,1.894,4.5,4.863,4.863,0,0,0,2.652,1.7v1.747a7.233,7.233,0,0,1-2.578-.442,7.038,7.038,0,0,1-2.578-2.062,3.381,3.381,0,0,1-1.589,1.82,4.822,4.822,0,0,1-2.431.684Zm1.726,3.851a1.649,1.649,0,0,1,.778.2,1.469,1.469,0,0,1,.6.589,1.618,1.618,0,0,1,.221.81,1.589,1.589,0,0,1-.21.779,1.591,1.591,0,0,1-2.778,0,1.584,1.584,0,0,1-.21-.779,1.68,1.68,0,0,1,.21-.81,1.389,1.389,0,0,1,.6-.589,1.711,1.711,0,0,1,.79-.2" transform="translate(-388.105 -348.264)" fill="#fff"/>
    <path id="Path_6508" data-name="Path 6508" d="M506.659,290.421v-1.663a2.008,2.008,0,0,0,1.862-.874,4.865,4.865,0,0,0,.337-2.894,30,30,0,0,0-1.021-4.956,88.77,88.77,0,0,0-3.241-8.828l3.01-1.789a87.905,87.905,0,0,1,3.272,11.722,18.313,18.313,0,0,1,.284,5.4,4.069,4.069,0,0,1-1.536,2.747,3.762,3.762,0,0,1-2.967,1.136" transform="translate(-461.933 -246.639)" fill="#fff"/>
    <path id="Path_6509" data-name="Path 6509" d="M594.323,288.857a48.964,48.964,0,0,1-3.273-9.723q-1.21-5.283-2.073-10.712l2.715.8a23.2,23.2,0,0,0,.663,3.7q.642,2.778,1.568,6.019t1.989,6.229a18.706,18.706,0,0,0,1.989,4.293Z" transform="translate(-539.179 -245.727)" fill="#fff"/>
    <path id="Path_6510" data-name="Path 6510" d="M827.865,322.668q-.168-1.01-.315-1.967a12.928,12.928,0,0,1-.147-1.968l3.83-.779a15.071,15.071,0,0,0,.179,3.957,48.307,48.307,0,0,0,.979,4.819,12.782,12.782,0,0,0,1.915,4.23,4.722,4.722,0,0,0,2.778,2.147v1.747q-3.263.21-6.187-2.862a6.424,6.424,0,0,1-3.957,2.725,5.85,5.85,0,0,1-5.177-1.084,8.146,8.146,0,0,1-2.578-10.217,4.175,4.175,0,0,1,4.409-2.431,6.99,6.99,0,0,1,2.273.484,9.422,9.422,0,0,1,2,1.2m.8,4.167a5.884,5.884,0,0,0-1.463-2.862,3.35,3.35,0,0,0-5.651,1.442,6.029,6.029,0,0,0,.348,3.746,5.341,5.341,0,0,0,2.525,2.915,4.148,4.148,0,0,0,3.1.505,4.895,4.895,0,0,0-.158-2.6,11.548,11.548,0,0,0-1.294-2.241Z" transform="translate(-749.151 -291.071)" fill="#fff"/>
    <path id="Path_6511" data-name="Path 6511" d="M1031.784,391.649a1.618,1.618,0,0,1,.442-1.1,1.479,1.479,0,0,1,1.158-.495,1.464,1.464,0,0,1,1.094.484,1.445,1.445,0,0,1,.484,1.116,1.546,1.546,0,0,1-.463,1.136,1.521,1.521,0,0,1-1.116.463,1.582,1.582,0,0,1-1.6-1.6m.232-3.7V386.2a3.875,3.875,0,0,0,3.03-1.368,3.317,3.317,0,0,0,.484-2.609,9.34,9.34,0,0,0-1.158-2.9,11.652,11.652,0,0,0-1.684-2.273l3.494-1.094a9.109,9.109,0,0,1,2.568,7.6q-.505,4.4-6.734,4.4m3.157,3.7a1.549,1.549,0,0,1,.473-1.116,1.54,1.54,0,0,1,2.242,0,1.446,1.446,0,0,1,.484,1.116,1.528,1.528,0,0,1-.474,1.136,1.6,1.6,0,0,1-2.252,0,1.528,1.528,0,0,1-.473-1.136" transform="translate(-944.547 -344.163)" fill="#fff"/>
    <path id="Path_6512" data-name="Path 6512" d="M1127.276,270.087l3.136-1.915a25.614,25.614,0,0,0-.126,4.546,40.287,40.287,0,0,0,.653,5.493,24.87,24.87,0,0,0,1.5,5.135,7.493,7.493,0,0,0,2.357,3.294,4.511,4.511,0,0,0,2.557.979v1.663a14.462,14.462,0,0,1-1.494-.126,5.559,5.559,0,0,1-2.209-.831,10.887,10.887,0,0,1-2.768-3.01,17.178,17.178,0,0,1-2.462-5.672,36.649,36.649,0,0,1-1.021-5.177,40.872,40.872,0,0,1-.126-4.377" transform="translate(-1031.958 -245.498)" fill="#fff"/>
    <path id="Path_6513" data-name="Path 6513" d="M1259.642,381.332a5.716,5.716,0,0,1-3.346-.874,6.326,6.326,0,0,1-1.957-2.2,3.216,3.216,0,0,1-.884,2.294q-.9.99-3.272.674T1246,377.376q-1.979,4.188-5.135,3.957v-1.7h.189a3.076,3.076,0,0,0,.863-.263,3.537,3.537,0,0,0,1.41-1.578A15.081,15.081,0,0,0,1244.7,374a9.791,9.791,0,0,1,1.841-3.956,4.387,4.387,0,0,1,3.925-1.295,7.193,7.193,0,0,1,3.22,3.788,31.682,31.682,0,0,0,2.557,4.767,5,5,0,0,0,3.4,2.283Zm-10.565-10.859q-1.326.316-2.02,4.041l1.326-.779a12.522,12.522,0,0,0,1.957,4.619,3.548,3.548,0,0,0,1.831,1.357,6.251,6.251,0,0,0-.01-5.135,7.82,7.82,0,0,0-3.083-4.1" transform="translate(-1135.954 -337.55)" fill="#fff"/>
    <path id="Path_6514" data-name="Path 6514" d="M1441.827,288.445a6.243,6.243,0,0,0,1.989-.326,14.968,14.968,0,0,0,1.968-.821,16.314,16.314,0,0,0,1.873-1.095,5.076,5.076,0,0,0,1.178-1q-3.7-1.284-4.977-1.9a12.413,12.413,0,0,1-2.283-1.421,3.83,3.83,0,0,1-1.326-1.726,7.519,7.519,0,0,1,.968-2.052q.842-1.4,1.516-1.526a6.975,6.975,0,0,0,2.262,3.22,14.446,14.446,0,0,0,3.662,2.21,16.614,16.614,0,0,0,4.03,1.137,10.012,10.012,0,0,0,3.367.021l-.968,2.946a5.9,5.9,0,0,0-2.125-.189,9.514,9.514,0,0,0-2.021.442,10.7,10.7,0,0,0,3.83,1.841,7.42,7.42,0,0,0,4.1.116,10.1,10.1,0,0,0,.105-4.188,32.6,32.6,0,0,0-1.168-4.809,94.68,94.68,0,0,0-3.715-8.786l3.094-1.368q1.453,3.515,2.746,7.639a39.22,39.22,0,0,1,1.652,7.471,5.1,5.1,0,0,1-1.105,4.135,5.858,5.858,0,0,1-3.43,1.81,10.23,10.23,0,0,1-8.429-2.7q-1.746.947-3.63,1.81a7.976,7.976,0,0,1-2.536.863l-.631.021Z" transform="translate(-1318.475 -246.41)" fill="#fff"/>
    <path id="Path_6515" data-name="Path 6515" d="M1825.49,322.668q-.168-1.01-.316-1.967a12.936,12.936,0,0,1-.147-1.968l3.831-.779a15.051,15.051,0,0,0,.178,3.957,48.411,48.411,0,0,0,.979,4.819,12.792,12.792,0,0,0,1.915,4.23,4.723,4.723,0,0,0,2.778,2.147v1.747q-3.262.21-6.187-2.862a6.424,6.424,0,0,1-3.957,2.725,5.849,5.849,0,0,1-5.177-1.084,8.146,8.146,0,0,1-2.578-10.217,4.175,4.175,0,0,1,4.409-2.431,6.984,6.984,0,0,1,2.272.484,9.418,9.418,0,0,1,2,1.2m.8,4.167a5.88,5.88,0,0,0-1.462-2.862,3.351,3.351,0,0,0-5.651,1.442,6.031,6.031,0,0,0,.348,3.746,5.342,5.342,0,0,0,2.526,2.915,4.147,4.147,0,0,0,3.1.505,4.893,4.893,0,0,0-.158-2.6,11.557,11.557,0,0,0-1.294-2.241Z" transform="translate(-1662.427 -291.071)" fill="#fff"/>
    <path id="Path_6516" data-name="Path 6516" d="M2029.414,391.649a1.617,1.617,0,0,1,.442-1.1,1.54,1.54,0,0,1,2.252-.011,1.447,1.447,0,0,1,.484,1.116,1.547,1.547,0,0,1-.463,1.136,1.522,1.522,0,0,1-1.115.463,1.581,1.581,0,0,1-1.6-1.6m.232-3.7V386.2a3.874,3.874,0,0,0,3.03-1.368,3.316,3.316,0,0,0,.484-2.609,9.343,9.343,0,0,0-1.157-2.9,11.672,11.672,0,0,0-1.684-2.273l3.494-1.094a9.109,9.109,0,0,1,2.568,7.6q-.505,4.4-6.734,4.4m3.156,3.7a1.55,1.55,0,0,1,.473-1.116,1.54,1.54,0,0,1,2.242,0,1.446,1.446,0,0,1,.484,1.116,1.527,1.527,0,0,1-.473,1.136,1.6,1.6,0,0,1-2.252,0,1.528,1.528,0,0,1-.473-1.136" transform="translate(-1857.828 -344.163)" fill="#fff"/>
    <path id="Path_6517" data-name="Path 6517" d="M2133.2,393.941a2.7,2.7,0,0,1-1.484-.084,5.332,5.332,0,0,1-1.526-.821,6.387,6.387,0,0,1-3.146,4.2,10.154,10.154,0,0,1-6.534,1.5q2.083-1.094,4.125-2.178a6.74,6.74,0,0,0,3.052-3.441v-.168a.105.105,0,0,0-.136.021.239.239,0,0,1-.158.063,3.534,3.534,0,0,1-2.431.242,4.1,4.1,0,0,1-1.894-1.189,6.17,6.17,0,0,1-1.231-2.073,7.041,7.041,0,0,1-.442-2.431,8.15,8.15,0,0,1,.979-3.23,3.594,3.594,0,0,1,2.746-1.842,3.834,3.834,0,0,1,2.936.842,6.149,6.149,0,0,1,1.642,2.41,18.48,18.48,0,0,1,.895,4.177,2.6,2.6,0,0,0,1.231,1.757,3.631,3.631,0,0,0,1.379.494Zm-5.325-7.576a2.838,2.838,0,0,0-.853-1.673,1.853,1.853,0,0,0-1.694-.705,3.484,3.484,0,0,0-1.431,1.884,5.4,5.4,0,0,0-.243,2.42,4.531,4.531,0,0,0,.854,2.147,2.489,2.489,0,0,0,1.852,1.042,4.65,4.65,0,0,0,.431-2.515,8.91,8.91,0,0,0-.642-2.326Z" transform="translate(-1941.225 -350.158)" fill="#fff"/>
    <path id="Path_6518" data-name="Path 6518" d="M2264.883,387.945V386.2q2.251-.21,2.61-1.368a5.251,5.251,0,0,0,.063-2.61,11,11,0,0,0-1.052-2.9,9.272,9.272,0,0,0-1.579-2.273l3.494-1.094a9.415,9.415,0,0,1,2.346,7.608q-.494,4.388-5.882,4.388m2.02,2.1a1.65,1.65,0,0,1,.779.2,1.466,1.466,0,0,1,.6.589,1.624,1.624,0,0,1,.221.81,1.588,1.588,0,0,1-.211.779,1.591,1.591,0,0,1-2.778,0,1.585,1.585,0,0,1-.21-.779,1.681,1.681,0,0,1,.21-.81,1.384,1.384,0,0,1,.6-.589,1.7,1.7,0,0,1,.789-.2" transform="translate(-2073.388 -344.163)" fill="#fff"/>
    <path id="Path_6519" data-name="Path 6519" d="M2327.345,345.6a4.49,4.49,0,0,1,2.557-.505,2.162,2.162,0,0,1,1.915,1.778,26.3,26.3,0,0,0,1.19,3.178,2.272,2.272,0,0,0,2.178,1.515v1.747a3.941,3.941,0,0,1-3.01-1.073,6.064,6.064,0,0,1-1.41-2.347q-.4-1.273-.621-1.978a1.049,1.049,0,0,0-.979-.779q-.757-.073-1.409.968a25.338,25.338,0,0,0-1.526,3,38.172,38.172,0,0,1-2,3.862,12.664,12.664,0,0,1-3.22,3.525,14.877,14.877,0,0,1-5.4,2.483q-.252-.337,1.831-2.42a32.178,32.178,0,0,0,3.946-4.862q1.863-2.778,3.336-5.124a8.523,8.523,0,0,1,2.62-2.967m-3.5-5.882a1.618,1.618,0,0,1,.442-1.1,1.539,1.539,0,0,1,2.252-.01,1.445,1.445,0,0,1,.484,1.115,1.543,1.543,0,0,1-.463,1.136,1.52,1.52,0,0,1-1.115.463,1.581,1.581,0,0,1-1.6-1.6m3.388,0a1.549,1.549,0,0,1,.474-1.115,1.539,1.539,0,0,1,2.241,0,1.446,1.446,0,0,1,.484,1.115,1.526,1.526,0,0,1-.474,1.136,1.6,1.6,0,0,1-2.251,0,1.526,1.526,0,0,1-.474-1.136" transform="translate(-2119.804 -309.527)" fill="#fff"/>
    <path id="Path_6520" data-name="Path 6520" d="M2520.833,290.421v-1.663a2.01,2.01,0,0,0,1.862-.874,4.873,4.873,0,0,0,.336-2.894,30,30,0,0,0-1.021-4.956,88.837,88.837,0,0,0-3.241-8.828l3.009-1.789a87.96,87.96,0,0,1,3.273,11.722,18.318,18.318,0,0,1,.284,5.4,4.074,4.074,0,0,1-1.537,2.747,3.762,3.762,0,0,1-2.967,1.136" transform="translate(-2305.809 -246.639)" fill="#fff"/>
    <path id="Path_6521" data-name="Path 6521" d="M2608.5,288.857a49.007,49.007,0,0,1-3.272-9.723q-1.211-5.283-2.073-10.712l2.716.8a23.148,23.148,0,0,0,.662,3.7q.643,2.778,1.568,6.019t1.989,6.229a18.7,18.7,0,0,0,1.989,4.293Z" transform="translate(-2383.054 -245.727)" fill="#fff"/>
    <path id="Path_6522" data-name="Path 6522" d="M2846.408,355.737q.4,1.873-1.725,4.567a5.961,5.961,0,0,1-5.662,2.315,6.437,6.437,0,0,1-5.314-3.357,7.375,7.375,0,0,1-.137-6.913l4.462-.989a9.854,9.854,0,0,0-1.431,5.282,3.949,3.949,0,0,0,2.1,3.62,2.878,2.878,0,0,0,3.515-.274,5.107,5.107,0,0,0,1.779-3.22,8.247,8.247,0,0,0-.537-4.041,13.524,13.524,0,0,0-1.663-3.3l3.62-1.094a28.872,28.872,0,0,0,1.242,4.588q1.789,3.3,3.894,3.43a2.331,2.331,0,0,0,1.915-1.431q.778-1.452-.169-4.1a14.637,14.637,0,0,0-1.284-3.03l3.515-1.3a33.04,33.04,0,0,0,.526,3.662,8.83,8.83,0,0,0,1.894,4.5,4.864,4.864,0,0,0,2.653,1.7v1.747a7.24,7.24,0,0,1-2.579-.442,7.046,7.046,0,0,1-2.578-2.063,3.413,3.413,0,0,1-1.6,1.831,4.746,4.746,0,0,1-2.21.673,3.994,3.994,0,0,1-2.535-.673,5.617,5.617,0,0,1-1.695-1.684m-6.313-10.586a1.977,1.977,0,0,1-.485,1.326,1.513,1.513,0,0,1-1.2.568,1.724,1.724,0,0,1-1.316-.579,1.958,1.958,0,0,1-.536-1.379,1.643,1.643,0,0,1,.548-1.221,1.766,1.766,0,0,1,1.261-.526,2.6,2.6,0,0,1,.316.021,1.647,1.647,0,0,1,1.032.621,1.867,1.867,0,0,1,.378,1.168m10.565,16.647a1.593,1.593,0,0,1,2.7-1.147,1.519,1.519,0,0,1,.474,1.147,1.586,1.586,0,0,1-.453,1.115,1.479,1.479,0,0,1-1.126.484,1.526,1.526,0,0,1-1.136-.473,1.554,1.554,0,0,1-.463-1.126m3.388,0a1.492,1.492,0,0,1,.5-1.136,1.575,1.575,0,0,1,1.1-.463,1.618,1.618,0,0,1,1.1.442,1.48,1.48,0,0,1,.495,1.158,1.535,1.535,0,0,1-.484,1.115,1.447,1.447,0,0,1-1.115.484,1.617,1.617,0,0,1-1.6-1.6" transform="translate(-2593.271 -314.312)" fill="#fff"/>
    <path id="Path_6523" data-name="Path 6523" d="M3138.881,285.144a5.127,5.127,0,0,0,1.737,2.147,4.166,4.166,0,0,0,2.62.926v1.747a7.247,7.247,0,0,1-4.051-.947,9.64,9.64,0,0,1-2.41-2.041,11.794,11.794,0,0,1-6.776,3.157,12.3,12.3,0,0,0,.336,1.389q.232.778.547,1.557l-3.493.905a26.293,26.293,0,0,1-.716-4.02,5.314,5.314,0,0,1-1.493,0v-1.747h.147a8.837,8.837,0,0,0,1.283-.084,15.982,15.982,0,0,1,.011-2.662q.114-1.42.43-3.188a7.666,7.666,0,0,1,.379-1.526q.294-.852.7-1.736l-1.179.589-3.578-9.133,3.031-1.558,2.737,8.334a6.364,6.364,0,0,1,3.188-2.115,6.464,6.464,0,0,1,3.925.021,5.494,5.494,0,0,1,2.957,2.052,6.189,6.189,0,0,1,.926,3.809,7.637,7.637,0,0,1-1.252,4.125m-8.65-3.157a25.981,25.981,0,0,0-.442,3.22q-.106,1.515-.085,2.862a8.386,8.386,0,0,0,3.505-.947,8.8,8.8,0,0,0,2.62-2.294,6.95,6.95,0,0,0,1.757-4.788,3.545,3.545,0,0,0-1.694-2.988,2.969,2.969,0,0,0-3.136.189q-1.664,1-2.526,4.746" transform="translate(-2859.291 -246.181)" fill="#fff"/>
    <path id="Path_6524" data-name="Path 6524" d="M3373.495,397.973a5.154,5.154,0,0,1-3.284-1.494l-.463.695a3.032,3.032,0,0,1-2.547.789,5.737,5.737,0,0,1-3.03-.895,4.9,4.9,0,0,1-4.631.484,3.718,3.718,0,0,1-1.83-1.326q-.675,1.621-3.852,1.747v-1.747h.063q1.831,0,1.978-2.052t-1.831-6.6l3.262-.4a15.422,15.422,0,0,0,1.915,6.219q1.579,2.768,2.1,2.767,1.3-.147.484-3.241a24.057,24.057,0,0,0-2.105-5.43l3.515-.4a21.76,21.76,0,0,0,1.136,5.072,20.7,20.7,0,0,0,1.442,2.873q.768,1.252,1.61,1.126.674-.126.547-1.484a13.064,13.064,0,0,0-.663-2.946,23.989,23.989,0,0,0-1.189-2.914,6.773,6.773,0,0,1-.589-1.326l3.683-.589.947,4.441q1.073,3.473,2.073,4.209t1.253.673Z" transform="translate(-3070.291 -354.19)" fill="#fff"/>
    <path id="Path_6525" data-name="Path 6525" d="M3579.3,290.421a5.916,5.916,0,0,1-4.356-1.4,8.911,8.911,0,0,1-2.273-3.02,5.4,5.4,0,0,1-.747,2.273,3.52,3.52,0,0,1-1.726,1.757,5.561,5.561,0,0,1-2.032.389v-1.747a3.137,3.137,0,0,0,2.231-3.251,24.3,24.3,0,0,0-.621-5.409q-.642-2.914-2.347-8.7l3.052-1.894a63.769,63.769,0,0,0,2.431,11.606,19.645,19.645,0,0,0,2.967,5.714,4.5,4.5,0,0,0,3.462,2.02Z" transform="translate(-3265.801 -246.639)" fill="#fff"/>
    <path id="Path_6526" data-name="Path 6526" d="M3681.577,256.475a1.823,1.823,0,0,1,1.336.557,1.865,1.865,0,0,1,0,2.662,1.889,1.889,0,0,1-3.23-1.347,1.886,1.886,0,0,1,1.894-1.873m-.21,20.351q4.042-.252,5.377-1.947a4.389,4.389,0,0,0,1.168-3.167,4.222,4.222,0,0,1-4.766.831q-2.389-1.125-2.726-4.567a4.171,4.171,0,0,1,2.63-4.7,4.911,4.911,0,0,1,4.177.274q2.053,1.073,3,5.535a9.165,9.165,0,0,1-1.221,6.061,6.3,6.3,0,0,1-3.5,2.925,16.249,16.249,0,0,1-4.136.505Zm5.387-10.333a2.853,2.853,0,0,0-2.336-2.357q-2.041.547-1.41,4.04t2.968,3.325a4.9,4.9,0,0,0-.158-2.378,13.076,13.076,0,0,0-1.021-2.252Z" transform="translate(-3368.567 -234.79)" fill="#fff"/>
    <path id="Path_6527" data-name="Path 6527" d="M3938.731,322.668q-.168-1.01-.316-1.967a13,13,0,0,1-.146-1.968l3.83-.779a15.079,15.079,0,0,0,.179,3.957,48.48,48.48,0,0,0,.979,4.819,12.778,12.778,0,0,0,1.916,4.23,4.719,4.719,0,0,0,2.778,2.147v1.747q-3.261.21-6.187-2.862a6.421,6.421,0,0,1-3.957,2.725,5.848,5.848,0,0,1-5.176-1.084,8.147,8.147,0,0,1-2.579-10.217,4.175,4.175,0,0,1,4.409-2.431,7,7,0,0,1,2.274.484,9.43,9.43,0,0,1,2,1.2m.8,4.167a5.887,5.887,0,0,0-1.463-2.862,3.35,3.35,0,0,0-5.65,1.442,6.036,6.036,0,0,0,.347,3.746,5.343,5.343,0,0,0,2.526,2.915,4.148,4.148,0,0,0,3.1.505,4.891,4.891,0,0,0-.158-2.6,11.577,11.577,0,0,0-1.294-2.241Z" transform="translate(-3596.995 -291.071)" fill="#fff"/>
    <path id="Path_6528" data-name="Path 6528" d="M4141.411,395.751a1.624,1.624,0,0,1,.441-1.1,1.481,1.481,0,0,1,1.158-.495,1.465,1.465,0,0,1,1.094.484,1.446,1.446,0,0,1,.484,1.116,1.542,1.542,0,0,1-.464,1.136,1.517,1.517,0,0,1-1.115.463,1.582,1.582,0,0,1-1.6-1.6m.527-5.451a2.312,2.312,0,0,0,2.042-1.441q.777-1.442-.169-4.094a14.554,14.554,0,0,0-1.285-3.03l3.516-1.3a32.736,32.736,0,0,0,.527,3.662,8.827,8.827,0,0,0,1.893,4.5,4.868,4.868,0,0,0,2.652,1.7v1.747a7.231,7.231,0,0,1-2.578-.442,7.022,7.022,0,0,1-2.578-2.063,3.382,3.382,0,0,1-1.589,1.82,4.822,4.822,0,0,1-2.431.684Zm2.862,5.451a1.548,1.548,0,0,1,.473-1.116,1.54,1.54,0,0,1,2.242,0,1.446,1.446,0,0,1,.484,1.116,1.531,1.531,0,0,1-.474,1.136,1.6,1.6,0,0,1-2.252,0,1.526,1.526,0,0,1-.473-1.136" transform="translate(-3791.256 -348.265)" fill="#fff"/>
    <path id="Path_6529" data-name="Path 6529" d="M4231.015,356.778a14.476,14.476,0,0,1,2.662-2.178,26.1,26.1,0,0,1,4.2-2.336,14.992,14.992,0,0,1,4.325-1.242,3.1,3.1,0,0,1,3.061,1.063q1.033,1.747-.557,3.925a20.781,20.781,0,0,1-2.726,3.188,13.111,13.111,0,0,0,3.715,3.5,6.914,6.914,0,0,0,2.957.642v1.747a7.7,7.7,0,0,1-5.029-1.473,25.332,25.332,0,0,1-2.968-2.82,20.988,20.988,0,0,1-3.367,2.841,8.877,8.877,0,0,1-4.314,1.452h-.8v-1.747a7.923,7.923,0,0,0,3.239-.842,13.422,13.422,0,0,0,3.915-3.031,17.781,17.781,0,0,0-2.356-1.841q-1.055-.663-1.559-.453c-.279.267-.558.53-.83.789a5.685,5.685,0,0,1-.874.684Zm6.376-.947a12.009,12.009,0,0,1,3.115,2q.274-.231,1.81-1.873a6.423,6.423,0,0,0,1.622-2.21q-.085-.9-2.79,0a8.8,8.8,0,0,0-3.757,2.083" transform="translate(-3873.283 -321.308)" fill="#fff"/>
    <path id="Path_6530" data-name="Path 6530" d="M4463.313,348.348a8.457,8.457,0,0,0-4.483.316,34.35,34.35,0,0,0-4.208,1.852,38.038,38.038,0,0,1-4.251,1.894,8.2,8.2,0,0,1-3.452.673,5.491,5.491,0,0,1-2.841-.863,6.417,6.417,0,0,1-1.958-2.21,3.211,3.211,0,0,1-.884,2.294q-.906.99-3.273.674t-4.177-3.852q-1.979,4.188-5.135,3.957v-1.7h.211a3.149,3.149,0,0,0,.841-.263,3.526,3.526,0,0,0,1.41-1.578,15.025,15.025,0,0,0,1.368-3.788,9.759,9.759,0,0,1,1.842-3.956,4.384,4.384,0,0,1,3.924-1.295,7.2,7.2,0,0,1,3.22,3.788,32.8,32.8,0,0,0,2.546,4.777,4.981,4.981,0,0,0,3.3,2.252,14.656,14.656,0,0,0,1.81-.337,12.473,12.473,0,0,0,3.082-1.189q1.548-.831,2.652-1.442a3.266,3.266,0,0,0,1.273-.968q-1.052-.273-2.515-.778a24.315,24.315,0,0,1-2.883-1.21,15.018,15.018,0,0,1-2.557-1.589,4.257,4.257,0,0,1-1.5-1.915,8.442,8.442,0,0,1,1.093-2.326q.951-1.568,1.685-1.694a7.889,7.889,0,0,0,2.536,3.609,16.278,16.278,0,0,0,4.092,2.473,18.741,18.741,0,0,0,4.526,1.284,11.034,11.034,0,0,0,3.788.021Zm-26.455-6.124q-1.326.316-2.019,4.041l1.326-.779a12.5,12.5,0,0,0,1.957,4.619,3.547,3.547,0,0,0,1.831,1.357,6.253,6.253,0,0,0-.011-5.135,7.812,7.812,0,0,0-3.084-4.1m13.892,14.563a1.542,1.542,0,0,1,.461-1.136,1.52,1.52,0,0,1,1.116-.463,1.58,1.58,0,0,1,1.6,1.6,1.582,1.582,0,0,1-.452,1.115,1.563,1.563,0,0,1-2.252.011,1.542,1.542,0,0,1-.472-1.126" transform="translate(-4054.21 -309.301)" fill="#fff"/>
    <path id="Path_6531" data-name="Path 6531" d="M58.445,680.3h3.023c2.372,0,3.973,1.01,3.973,3.944,0,2.82-1.592,4.138-3.908,4.138H59.792v5.314H58.445Zm2.918,6.7c1.851,0,2.734-.849,2.734-2.755,0-1.932-.939-2.562-2.8-2.562H59.792V687Z" transform="translate(-53.503 -622.778)" fill="#fff"/>
    <path id="Path_6532" data-name="Path 6532" d="M146.4,726.084c0-2.161,1.474-3.242,4.815-3.7,0-1.277-.338-2.506-1.618-2.506a3.81,3.81,0,0,0-2.338,1.064l-.52-1.151a5.018,5.018,0,0,1,3.08-1.3c1.913,0,2.723,1.61,2.723,4.08v6.087h-1.1l-.112-1.186h-.044A3.808,3.808,0,0,1,148.7,728.9c-1.312,0-2.3-1.031-2.3-2.821m4.815.155v-2.755c-2.627.4-3.516,1.214-3.516,2.482,0,1.127.6,1.586,1.374,1.586a3.005,3.005,0,0,0,2.141-1.313" transform="translate(-134.026 -657.745)" fill="#fff"/>
    <path id="Path_6533" data-name="Path 6533" d="M244.836,679.3V666.749h1.327v12.672c0,.513.177.717.37.717a.92.92,0,0,0,.291-.041l.18,1.282a1.74,1.74,0,0,1-.764.156c-.994,0-1.4-.8-1.4-2.237" transform="translate(-224.135 -610.375)" fill="#fff"/>
    <path id="Path_6534" data-name="Path 6534" d="M281.813,723.713c0-3.229,1.72-5.219,3.524-5.219,2,0,3.129,1.817,3.129,4.656a6.684,6.684,0,0,1-.062.954h-5.28c.1,2.1,1.111,3.465,2.605,3.465a2.97,2.97,0,0,0,1.951-.793l.475,1.1a3.988,3.988,0,0,1-2.589,1.029c-2.09,0-3.754-1.934-3.754-5.193m5.481-.812c0-1.988-.707-3.069-1.933-3.069-1.1,0-2.087,1.12-2.249,3.069Z" transform="translate(-257.986 -657.745)" fill="#fff"/>
    <path id="Path_6535" data-name="Path 6535" d="M369.581,727.528l.655-1.106a3.183,3.183,0,0,0,2.314,1.175,1.44,1.44,0,0,0,1.54-1.541c0-1.021-.925-1.472-1.793-1.88-1.1-.508-2.338-1.192-2.338-2.866a2.621,2.621,0,0,1,2.7-2.817,3.518,3.518,0,0,1,2.438,1.115l-.635,1.076a2.639,2.639,0,0,0-1.788-.883,1.34,1.34,0,0,0-1.444,1.423c0,.944.852,1.3,1.74,1.721,1.131.539,2.391,1.122,2.391,3.01a2.757,2.757,0,0,1-2.86,2.949,4.185,4.185,0,0,1-2.925-1.377" transform="translate(-338.333 -657.745)" fill="#fff"/>
    <path id="Path_6536" data-name="Path 6536" d="M442.462,698.119v-5.487h-1.167v-1.271l1.226-.1.159-2.782h1.108v2.782h2.124v1.368h-2.124v5.516c0,1.213.309,1.916,1.212,1.916a2.179,2.179,0,0,0,.893-.267l.256,1.267a3.876,3.876,0,0,1-1.455.367c-1.669,0-2.234-1.338-2.234-3.312" transform="translate(-403.984 -630.271)" fill="#fff"/>
    <path id="Path_6537" data-name="Path 6537" d="M507.063,672.7a.93.93,0,1,1,1.833,0,.929.929,0,1,1-1.833,0m.243,3.124h1.327v9.922h-1.327Z" transform="translate(-464.191 -614.83)" fill="#fff"/>
    <path id="Path_6538" data-name="Path 6538" d="M552.27,718.739h1.1l.112,1.431h.044a3.542,3.542,0,0,1,2.63-1.676c1.652,0,2.394,1.349,2.394,3.88v6.287H557.22v-6.07c0-1.848-.442-2.639-1.479-2.639-.8,0-1.357.518-2.143,1.524v7.185H552.27Z" transform="translate(-505.576 -657.745)" fill="#fff"/>
    <path id="Path_6539" data-name="Path 6539" d="M645.7,723.713c0-3.229,1.72-5.219,3.524-5.219,2,0,3.129,1.817,3.129,4.656a6.707,6.707,0,0,1-.062.954h-5.28c.1,2.1,1.11,3.465,2.605,3.465a2.969,2.969,0,0,0,1.951-.793l.475,1.1a3.988,3.988,0,0,1-2.589,1.029c-2.09,0-3.754-1.934-3.754-5.193m5.481-.812c0-1.988-.707-3.069-1.933-3.069-1.1,0-2.087,1.12-2.249,3.069Z" transform="translate(-591.107 -657.745)" fill="#fff"/>
    <path id="Path_6540" data-name="Path 6540" d="M770.338,680.3h1.52l3.581,13.4h-1.427l-1.846-7.482c-.38-1.5-.72-2.968-1.06-4.514h-.065c-.328,1.554-.667,3.017-1.048,4.514l-1.867,7.482h-1.371Zm-1.7,7.955h4.874v1.36h-4.874Z" transform="translate(-701.928 -622.778)" fill="#fff"/>
    <path id="Path_6541" data-name="Path 6541" d="M875.17,727.528l.655-1.106a3.183,3.183,0,0,0,2.314,1.175,1.44,1.44,0,0,0,1.54-1.541c0-1.021-.925-1.472-1.793-1.88-1.1-.508-2.338-1.192-2.338-2.866a2.621,2.621,0,0,1,2.7-2.817,3.518,3.518,0,0,1,2.438,1.115l-.635,1.076a2.638,2.638,0,0,0-1.788-.883,1.339,1.339,0,0,0-1.443,1.423c0,.944.852,1.3,1.741,1.721,1.13.539,2.39,1.122,2.39,3.01a2.756,2.756,0,0,1-2.86,2.949,4.184,4.184,0,0,1-2.925-1.377" transform="translate(-801.174 -657.745)" fill="#fff"/>
    <path id="Path_6542" data-name="Path 6542" d="M951.459,727.528l.655-1.106a3.184,3.184,0,0,0,2.314,1.175,1.44,1.44,0,0,0,1.541-1.541c0-1.021-.926-1.472-1.793-1.88-1.1-.508-2.338-1.192-2.338-2.866a2.621,2.621,0,0,1,2.7-2.817,3.518,3.518,0,0,1,2.438,1.115l-.635,1.076a2.638,2.638,0,0,0-1.788-.883,1.34,1.34,0,0,0-1.444,1.423c0,.944.852,1.3,1.74,1.721,1.131.539,2.391,1.122,2.391,3.01a2.756,2.756,0,0,1-2.86,2.949,4.185,4.185,0,0,1-2.925-1.377" transform="translate(-871.013 -657.745)" fill="#fff"/>
    <path id="Path_6543" data-name="Path 6543" d="M1031.141,723.713c0-3.311,1.711-5.219,3.633-5.219s3.633,1.908,3.633,5.219c0,3.285-1.711,5.193-3.633,5.193s-3.633-1.908-3.633-5.193m5.9,0c0-2.274-.914-3.821-2.262-3.821s-2.262,1.547-2.262,3.821.914,3.795,2.262,3.795,2.262-1.521,2.262-3.795" transform="translate(-943.958 -657.745)" fill="#fff"/>
    <path id="Path_6544" data-name="Path 6544" d="M1132.6,723.713c0-3.311,1.768-5.219,3.772-5.219a2.986,2.986,0,0,1,2.294,1.165l-.679,1.11a2.089,2.089,0,0,0-1.555-.877c-1.42,0-2.461,1.547-2.461,3.821s.983,3.795,2.425,3.795a2.574,2.574,0,0,0,1.84-.989l.575,1.125a3.419,3.419,0,0,1-2.535,1.261c-2.086,0-3.677-1.908-3.677-5.193" transform="translate(-1036.841 -657.745)" fill="#fff"/>
    <path id="Path_6545" data-name="Path 6545" d="M1221.682,672.7a.93.93,0,1,1,1.833,0,.929.929,0,1,1-1.833,0m.243,3.124h1.327v9.922h-1.327Z" transform="translate(-1118.389 -614.83)" fill="#fff"/>
    <path id="Path_6546" data-name="Path 6546" d="M1261.145,726.084c0-2.161,1.474-3.242,4.815-3.7,0-1.277-.338-2.506-1.618-2.506A3.81,3.81,0,0,0,1262,720.94l-.52-1.151a5.019,5.019,0,0,1,3.08-1.3c1.913,0,2.723,1.61,2.723,4.08v6.087h-1.1l-.112-1.186h-.044a3.808,3.808,0,0,1-2.593,1.431c-1.312,0-2.3-1.031-2.3-2.821m4.815.155v-2.755c-2.628.4-3.516,1.214-3.516,2.482,0,1.127.6,1.586,1.374,1.586a3.006,3.006,0,0,0,2.142-1.313" transform="translate(-1154.515 -657.745)" fill="#fff"/>
    <path id="Path_6547" data-name="Path 6547" d="M1347.029,698.119v-5.487h-1.167v-1.271l1.226-.1.159-2.782h1.108v2.782h2.124v1.368h-2.124v5.516c0,1.213.309,1.916,1.213,1.916a2.182,2.182,0,0,0,.893-.267l.256,1.267a3.876,3.876,0,0,1-1.455.367c-1.668,0-2.234-1.338-2.234-3.312" transform="translate(-1232.07 -630.271)" fill="#fff"/>
    <path id="Path_6548" data-name="Path 6548" d="M1411.631,672.7a.929.929,0,1,1,1.833,0,.929.929,0,1,1-1.833,0m.243,3.124h1.327v9.922h-1.327Z" transform="translate(-1292.278 -614.83)" fill="#fff"/>
    <path id="Path_6549" data-name="Path 6549" d="M1449.955,723.713c0-3.311,1.711-5.219,3.633-5.219s3.633,1.908,3.633,5.219c0,3.285-1.711,5.193-3.633,5.193s-3.633-1.908-3.633-5.193m5.9,0c0-2.274-.914-3.821-2.262-3.821s-2.262,1.547-2.262,3.821.914,3.795,2.262,3.795,2.262-1.521,2.262-3.795" transform="translate(-1327.362 -657.745)" fill="#fff"/>
    <path id="Path_6550" data-name="Path 6550" d="M1558.3,718.739h1.1l.112,1.431h.044a3.542,3.542,0,0,1,2.63-1.676c1.652,0,2.394,1.349,2.394,3.88v6.287h-1.326v-6.07c0-1.848-.442-2.639-1.48-2.639-.8,0-1.357.518-2.143,1.524v7.185H1558.3Z" transform="translate(-1426.55 -657.745)" fill="#fff"/>
    <path id="Path_6551" data-name="Path 6551" d="M1686.763,668.815l1.124-.1h2.928v1.368h-4.052Zm1.064-1.664c0-2.016.725-3.3,2.3-3.3a2.862,2.862,0,0,1,1.3.342l-.28,1.282a1.787,1.787,0,0,0-.888-.256c-.741,0-1.1.654-1.1,1.936V678.64h-1.326Z" transform="translate(-1544.148 -607.725)" fill="#fff"/>
    <path id="Path_6552" data-name="Path 6552" d="M1736.032,723.713c0-3.311,1.711-5.219,3.633-5.219s3.634,1.908,3.634,5.219c0,3.285-1.711,5.193-3.634,5.193s-3.633-1.908-3.633-5.193m5.9,0c0-2.274-.914-3.821-2.262-3.821s-2.262,1.547-2.262,3.821.914,3.795,2.262,3.795,2.262-1.521,2.262-3.795" transform="translate(-1589.251 -657.745)" fill="#fff"/>
    <path id="Path_6553" data-name="Path 6553" d="M1844.382,718.739h1.1l.112,1.807h.044c.546-1.259,1.347-2.052,2.229-2.052a1.5,1.5,0,0,1,.837.2l-.248,1.473a1.787,1.787,0,0,0-.761-.163c-.663,0-1.454.6-1.984,2.282v6.371h-1.327Z" transform="translate(-1688.44 -657.745)" fill="#fff"/>
    <path id="Path_6554" data-name="Path 6554" d="M1942.353,680.3h6.1v1.443H1943.7v4.2h4.011v1.443H1943.7v4.87h4.916v1.443h-6.263Z" transform="translate(-1778.128 -622.778)" fill="#fff"/>
    <path id="Path_6555" data-name="Path 6555" d="M2029.64,676.344c0-3.218,1.6-5.219,3.392-5.219a2.912,2.912,0,0,1,2.2,1.15l-.056-1.7V666.75h1.327v14.542h-1.1l-.112-1.171h-.044a3.235,3.235,0,0,1-2.379,1.416c-1.959,0-3.229-1.886-3.229-5.193m5.533,2.426v-5.2a2.5,2.5,0,0,0-1.912-1.032c-1.253,0-2.25,1.53-2.25,3.791,0,2.379.778,3.795,2.152,3.795a2.583,2.583,0,0,0,2.01-1.354" transform="translate(-1858.035 -610.376)" fill="#fff"/>
    <path id="Path_6556" data-name="Path 6556" d="M2137.99,727.676v-6.287h1.327v6.07c0,1.848.442,2.639,1.479,2.639.8,0,1.357-.5,2.1-1.672v-7.037h1.326v9.922h-1.1l-.112-1.553h-.044a3.225,3.225,0,0,1-2.586,1.8c-1.651,0-2.394-1.349-2.394-3.88" transform="translate(-1957.223 -660.396)" fill="#fff"/>
    <path id="Path_6557" data-name="Path 6557" d="M2232.283,723.713c0-3.311,1.767-5.219,3.772-5.219a2.986,2.986,0,0,1,2.294,1.165l-.679,1.11a2.089,2.089,0,0,0-1.555-.877c-1.42,0-2.461,1.547-2.461,3.821s.983,3.795,2.425,3.795a2.575,2.575,0,0,0,1.841-.989l.575,1.125a3.42,3.42,0,0,1-2.534,1.261c-2.086,0-3.677-1.908-3.677-5.193" transform="translate(-2043.544 -657.745)" fill="#fff"/>
    <path id="Path_6558" data-name="Path 6558" d="M2316.581,726.084c0-2.161,1.474-3.242,4.815-3.7,0-1.277-.338-2.506-1.618-2.506a3.808,3.808,0,0,0-2.337,1.064l-.52-1.151a5.017,5.017,0,0,1,3.08-1.3c1.913,0,2.722,1.61,2.722,4.08v6.087h-1.1l-.112-1.186h-.044a3.808,3.808,0,0,1-2.593,1.431c-1.312,0-2.3-1.031-2.3-2.821m4.815.155v-2.755c-2.627.4-3.516,1.214-3.516,2.482,0,1.127.6,1.586,1.374,1.586a3,3,0,0,0,2.142-1.313" transform="translate(-2120.714 -657.745)" fill="#fff"/>
    <path id="Path_6559" data-name="Path 6559" d="M2402.464,698.119v-5.487H2401.3v-1.271l1.226-.1.159-2.782h1.108v2.782h2.124v1.368h-2.124v5.516c0,1.213.309,1.916,1.212,1.916a2.182,2.182,0,0,0,.894-.267l.256,1.267a3.875,3.875,0,0,1-1.455.367c-1.669,0-2.234-1.338-2.234-3.312" transform="translate(-2198.268 -630.271)" fill="#fff"/>
    <path id="Path_6560" data-name="Path 6560" d="M2467.066,672.7a.929.929,0,1,1,1.832,0,.929.929,0,1,1-1.832,0m.243,3.124h1.326v9.922h-1.326Z" transform="translate(-2258.477 -614.83)" fill="#fff"/>
    <path id="Path_6561" data-name="Path 6561" d="M2505.389,723.713c0-3.311,1.711-5.219,3.633-5.219s3.634,1.908,3.634,5.219c0,3.285-1.711,5.193-3.634,5.193s-3.633-1.908-3.633-5.193m5.9,0c0-2.274-.915-3.821-2.263-3.821s-2.262,1.547-2.262,3.821.914,3.795,2.262,3.795,2.263-1.521,2.263-3.795" transform="translate(-2293.559 -657.745)" fill="#fff"/>
    <path id="Path_6562" data-name="Path 6562" d="M2613.739,718.739h1.1l.112,1.431h.044a3.544,3.544,0,0,1,2.63-1.676c1.652,0,2.393,1.349,2.393,3.88v6.287h-1.327v-6.07c0-1.848-.441-2.639-1.479-2.639-.8,0-1.356.518-2.143,1.524v7.185h-1.326Z" transform="translate(-2392.748 -657.745)" fill="#fff"/>
    <path id="Path_6563" data-name="Path 6563" d="M2742.678,687.58c0-3.975,4.834-4.622,4.834-7.5,0-.778-.281-1.477-1-1.477-.792,0-1.3.836-1.3,1.951,0,2.5,2.174,5.84,4.2,7.745a7.184,7.184,0,0,0,2.329,1.589l-.359,1.4a7.836,7.836,0,0,1-2.765-1.866c-2.32-2.274-4.553-6-4.553-8.84,0-1.79.978-3.18,2.441-3.18,1.311,0,2.081,1.1,2.081,2.653,0,3.438-4.624,4.482-4.624,7.424a2.224,2.224,0,0,0,2.089,2.471,3.305,3.305,0,0,0,2.423-1.575,11.959,11.959,0,0,0,1.9-4.553h1.231a15.868,15.868,0,0,1-2.207,5.356,4.3,4.3,0,0,1-3.5,2.109c-1.916,0-3.226-1.553-3.226-3.708" transform="translate(-2510.786 -620.128)" fill="#fff"/>
    <path id="Path_6564" data-name="Path 6564" d="M2898.994,680.3h6.1v1.443h-4.754v4.2h4.011v1.443h-4.011v4.87h4.916v1.443h-6.263Z" transform="translate(-2653.884 -622.778)" fill="#fff"/>
    <path id="Path_6565" data-name="Path 6565" d="M2994.793,718.739h1.1l.112,1.431h.044a3.542,3.542,0,0,1,2.63-1.676c1.653,0,2.395,1.349,2.395,3.88v6.287h-1.327v-6.07c0-1.848-.441-2.639-1.479-2.639-.8,0-1.357.518-2.145,1.524v7.185h-1.326Z" transform="translate(-2741.584 -657.745)" fill="#fff"/>
    <path id="Path_6566" data-name="Path 6566" d="M3081.755,721.389h1.367l1.483,5.636c.234.969.49,1.979.723,2.926h.065c.234-.947.49-1.957.723-2.926l1.483-5.636h1.3l-2.774,9.922h-1.542Z" transform="translate(-2821.193 -660.396)" fill="#fff"/>
    <path id="Path_6567" data-name="Path 6567" d="M3172.72,672.7a.929.929,0,1,1,1.833,0,.929.929,0,1,1-1.833,0m.242,3.124h1.327v9.922h-1.327Z" transform="translate(-2904.468 -614.83)" fill="#fff"/>
    <path id="Path_6568" data-name="Path 6568" d="M3217.93,718.739h1.1l.112,1.807h.043c.546-1.259,1.348-2.052,2.23-2.052a1.5,1.5,0,0,1,.837.2l-.248,1.473a1.786,1.786,0,0,0-.761-.163c-.662,0-1.453.6-1.983,2.282v6.371h-1.327Z" transform="translate(-2945.855 -657.745)" fill="#fff"/>
    <path id="Path_6569" data-name="Path 6569" d="M3267.5,723.713c0-3.311,1.711-5.219,3.633-5.219s3.633,1.908,3.633,5.219c0,3.285-1.711,5.193-3.633,5.193s-3.633-1.908-3.633-5.193m5.895,0c0-2.274-.914-3.821-2.262-3.821s-2.262,1.547-2.262,3.821.914,3.795,2.262,3.795,2.262-1.521,2.262-3.795" transform="translate(-2991.232 -657.745)" fill="#fff"/>
    <path id="Path_6570" data-name="Path 6570" d="M3375.847,718.739h1.1l.112,1.431h.044a3.544,3.544,0,0,1,2.63-1.676c1.652,0,2.393,1.349,2.393,3.88v6.287H3380.8v-6.07c0-1.848-.441-2.639-1.479-2.639-.8,0-1.357.518-2.144,1.524v7.185h-1.327Z" transform="translate(-3090.42 -657.745)" fill="#fff"/>
    <path id="Path_6571" data-name="Path 6571" d="M3476.163,718.739h1.1l.113,1.439h.044a3.362,3.362,0,0,1,2.44-1.683,2.167,2.167,0,0,1,2.164,1.891c.814-1.115,1.631-1.891,2.586-1.891,1.61,0,2.385,1.349,2.385,3.88v6.287h-1.326v-6.07c0-1.848-.461-2.639-1.459-2.639-.609,0-1.24.5-1.965,1.524v7.185h-1.327v-6.07c0-1.848-.461-2.639-1.459-2.639-.587,0-1.239.5-1.965,1.524v7.185h-1.326Z" transform="translate(-3182.254 -657.745)" fill="#fff"/>
    <path id="Path_6572" data-name="Path 6572" d="M3623,723.713c0-3.229,1.72-5.219,3.524-5.219,2,0,3.129,1.817,3.129,4.656a6.709,6.709,0,0,1-.062.954h-5.279c.094,2.1,1.11,3.465,2.6,3.465a2.972,2.972,0,0,0,1.951-.793l.475,1.1a3.989,3.989,0,0,1-2.589,1.029c-2.09,0-3.754-1.934-3.754-5.193m5.481-.812c0-1.988-.706-3.069-1.933-3.069-1.1,0-2.087,1.12-2.249,3.069Z" transform="translate(-3316.674 -657.745)" fill="#fff"/>
    <path id="Path_6573" data-name="Path 6573" d="M3721.049,718.739h1.1l.112,1.431h.044a3.544,3.544,0,0,1,2.63-1.676c1.651,0,2.393,1.349,2.393,3.88v6.287H3726v-6.07c0-1.848-.441-2.639-1.479-2.639-.8,0-1.356.518-2.144,1.524v7.185h-1.327Z" transform="translate(-3406.435 -657.745)" fill="#fff"/>
    <path id="Path_6574" data-name="Path 6574" d="M3811.485,698.119v-5.487h-1.167v-1.271l1.226-.1.159-2.782h1.108v2.782h2.124v1.368h-2.124v5.516c0,1.213.308,1.916,1.211,1.916a2.182,2.182,0,0,0,.894-.267l.256,1.267a3.88,3.88,0,0,1-1.455.367c-1.668,0-2.233-1.338-2.233-3.312" transform="translate(-3488.157 -630.271)" fill="#fff"/>
    <path id="Path_6575" data-name="Path 6575" d="M3869.211,726.084c0-2.161,1.473-3.242,4.815-3.7,0-1.277-.337-2.506-1.619-2.506a3.811,3.811,0,0,0-2.337,1.064l-.519-1.151a5.02,5.02,0,0,1,3.08-1.3c1.913,0,2.723,1.61,2.723,4.08v6.087h-1.1l-.113-1.186h-.043a3.807,3.807,0,0,1-2.593,1.431c-1.312,0-2.3-1.031-2.3-2.821m4.815.155v-2.755c-2.627.4-3.515,1.214-3.515,2.482,0,1.127.6,1.586,1.374,1.586a3,3,0,0,0,2.142-1.313" transform="translate(-3542.07 -657.745)" fill="#fff"/>
    <path id="Path_6576" data-name="Path 6576" d="M3967.644,679.3V666.749h1.326v12.672c0,.513.177.717.371.717a.917.917,0,0,0,.29-.041l.18,1.282a1.74,1.74,0,0,1-.764.156c-.995,0-1.4-.8-1.4-2.237" transform="translate(-3632.18 -610.375)" fill="#fff"/>
    <path id="Path_6577" data-name="Path 6577" d="M4051.119,680.3h3.023c2.372,0,3.973,1.01,3.973,3.944,0,2.82-1.592,4.138-3.908,4.138h-1.741v5.314h-1.347Zm2.917,6.7c1.852,0,2.735-.849,2.735-2.755,0-1.932-.94-2.562-2.8-2.562h-1.507V687Z" transform="translate(-3708.597 -622.778)" fill="#fff"/>
    <path id="Path_6578" data-name="Path 6578" d="M4153.021,718.739h1.1l.112,1.807h.044c.546-1.259,1.347-2.052,2.229-2.052a1.5,1.5,0,0,1,.836.2l-.247,1.473a1.789,1.789,0,0,0-.761-.163c-.662,0-1.453.6-1.982,2.282v6.371h-1.327Z" transform="translate(-3801.885 -657.745)" fill="#fff"/>
    <path id="Path_6579" data-name="Path 6579" d="M4202.588,723.713c0-3.311,1.711-5.219,3.632-5.219s3.634,1.908,3.634,5.219c0,3.285-1.711,5.193-3.634,5.193s-3.632-1.908-3.632-5.193m5.894,0c0-2.274-.914-3.821-2.262-3.821s-2.262,1.547-2.262,3.821.913,3.795,2.262,3.795,2.262-1.521,2.262-3.795" transform="translate(-3847.26 -657.745)" fill="#fff"/>
    <path id="Path_6580" data-name="Path 6580" d="M4297.818,698.119v-5.487h-1.167v-1.271l1.225-.1.159-2.782h1.11v2.782h2.124v1.368h-2.124v5.516c0,1.213.308,1.916,1.211,1.916a2.177,2.177,0,0,0,.892-.267l.258,1.267a3.889,3.889,0,0,1-1.457.367c-1.668,0-2.232-1.338-2.232-3.312" transform="translate(-3933.371 -630.271)" fill="#fff"/>
    <path id="Path_6581" data-name="Path 6581" d="M4355.734,723.713c0-3.229,1.721-5.219,3.525-5.219,2,0,3.128,1.817,3.128,4.656a6.432,6.432,0,0,1-.062.954h-5.279c.1,2.1,1.11,3.465,2.6,3.465a2.969,2.969,0,0,0,1.951-.793l.475,1.1a3.982,3.982,0,0,1-2.588,1.029c-2.09,0-3.754-1.934-3.754-5.193m5.481-.812c0-1.988-.707-3.069-1.932-3.069-1.1,0-2.087,1.12-2.249,3.069Z" transform="translate(-3987.458 -657.745)" fill="#fff"/>
    <path id="Path_6582" data-name="Path 6582" d="M4446.9,723.713c0-3.311,1.767-5.219,3.772-5.219a2.985,2.985,0,0,1,2.293,1.165l-.678,1.11a2.09,2.09,0,0,0-1.555-.877c-1.42,0-2.462,1.547-2.462,3.821s.984,3.795,2.425,3.795a2.573,2.573,0,0,0,1.841-.989l.575,1.125a3.421,3.421,0,0,1-2.536,1.261c-2.086,0-3.676-1.908-3.676-5.193" transform="translate(-4070.915 -657.745)" fill="#fff"/>
    <path id="Path_6583" data-name="Path 6583" d="M4527.063,698.119v-5.487H4525.9v-1.271l1.227-.1.16-2.782h1.107v2.782h2.125v1.368h-2.125v5.516c0,1.213.309,1.916,1.213,1.916a2.18,2.18,0,0,0,.893-.267l.256,1.267a3.87,3.87,0,0,1-1.454.367c-1.669,0-2.235-1.338-2.235-3.312" transform="translate(-4143.233 -630.271)" fill="#fff"/>
    <path id="Path_6584" data-name="Path 6584" d="M4591.666,672.7a.93.93,0,1,1,1.833,0,.93.93,0,1,1-1.833,0m.243,3.124h1.328v9.922h-1.328Z" transform="translate(-4203.441 -614.83)" fill="#fff"/>
    <path id="Path_6585" data-name="Path 6585" d="M4629.986,723.713c0-3.311,1.71-5.219,3.632-5.219s3.633,1.908,3.633,5.219c0,3.285-1.71,5.193-3.633,5.193s-3.632-1.908-3.632-5.193m5.894,0c0-2.274-.913-3.821-2.262-3.821s-2.262,1.547-2.262,3.821.912,3.795,2.262,3.795,2.262-1.521,2.262-3.795" transform="translate(-4238.522 -657.745)" fill="#fff"/>
    <path id="Path_6586" data-name="Path 6586" d="M4738.338,718.739h1.1l.113,1.431h.042a3.549,3.549,0,0,1,2.631-1.676c1.653,0,2.393,1.349,2.393,3.88v6.287h-1.326v-6.07c0-1.848-.442-2.639-1.48-2.639-.8,0-1.357.518-2.142,1.524v7.185h-1.328Z" transform="translate(-4337.712 -657.745)" fill="#fff"/>
    <path id="Path_6587" data-name="Path 6587" d="M3915.3,226.817a2.292,2.292,0,1,1-2.292-2.292,2.292,2.292,0,0,1,2.292,2.292" transform="translate(-3580.069 -205.541)" fill="#fff"/>
    <path id="Path_6588" data-name="Path 6588" d="M3977.968,221.395a2.292,2.292,0,1,1-2.293-2.293,2.293,2.293,0,0,1,2.293,2.293" transform="translate(-3637.434 -200.577)" fill="#fff"/>
    <path id="Path_6589" data-name="Path 6589" d="M1807.051,238.475a2.292,2.292,0,1,1-2.292-2.292,2.292,2.292,0,0,1,2.292,2.292" transform="translate(-1650.068 -216.214)" fill="#fff"/>
    <path id="Path_6590" data-name="Path 6590" d="M1869.715,233.053a2.293,2.293,0,1,1-2.292-2.292,2.293,2.293,0,0,1,2.292,2.292" transform="translate(-1707.433 -211.25)" fill="#fff"/>
    <path id="Path_6591" data-name="Path 6591" d="M815.582,247.309a2.293,2.293,0,1,1-2.293-2.293,2.292,2.292,0,0,1,2.293,2.293" transform="translate(-742.427 -224.3)" fill="#fff"/>
    <path id="Path_6592" data-name="Path 6592" d="M878.245,241.886a2.292,2.292,0,1,1-2.292-2.292,2.292,2.292,0,0,1,2.292,2.292" transform="translate(-799.792 -219.336)" fill="#fff"/>
    <path id="Path_6593" data-name="Path 6593" d="M4.585,241.187A2.292,2.292,0,1,1,2.292,238.9a2.292,2.292,0,0,1,2.292,2.292" transform="translate(0 -218.696)" fill="#fff"/>
    <path id="Path_6594" data-name="Path 6594" d="M67.248,235.764a2.292,2.292,0,1,1-2.292-2.292,2.292,2.292,0,0,1,2.292,2.292" transform="translate(-57.365 -213.732)" fill="#fff"/>
  </g>
</svg>
