<svg id="Group_7831" data-name="Group 7831" xmlns="http://www.w3.org/2000/svg" width="158.011" height="158" viewBox="0 0 158.011 158">
  <rect id="Op_component_3" data-name="Op component 3" width="2.292" height="4.662" rx="0.88" transform="translate(78 118.01)" fill="#0091de"/>
  <path id="Path_4075" data-name="Path 4075" d="M90.6,112.6a10.486,10.486,0,0,1,2.725-4.769,9.08,9.08,0,0,1,12.33-.17,2.7,2.7,0,0,0,1.362.749,11.183,11.183,0,0,1,6.4,17.78.985.985,0,0,0,0,1.5,27.941,27.941,0,0,1,1.976,2.521c.443.613.783.579,1.362.17a38.345,38.345,0,0,1,14.374-6.063,30.169,30.169,0,0,1,4.939-.647c.579-.034.783-.238.783-.783-.034-1.09-.034-2.214,0-3.3.034-.852-.272-.749-.886-.477a11.124,11.124,0,0,1-8.856.238,11.323,11.323,0,0,1-7.289-10.491,11.079,11.079,0,0,1,6.71-10.559,3.024,3.024,0,0,0,1.4-1.294,12.436,12.436,0,0,1,21.731.068,2.541,2.541,0,0,0,1.192,1.124,11.418,11.418,0,0,1-3.236,21.833,10.579,10.579,0,0,1-5.961-.92c-.886-.409-.988-.136-.954.647.034,1.022.034,2.078,0,3.1,0,.477.136.749.681.783a38.542,38.542,0,0,1,19.483,6.778c.511.375.852.375,1.226-.17.715-.954,1.465-1.907,2.214-2.827a.664.664,0,0,0,.1-.954l-.1-.1a11.236,11.236,0,0,1,1.669-15.77,10.957,10.957,0,0,1,4.8-2.248,2.5,2.5,0,0,0,1.124-.647,9.064,9.064,0,0,1,12.841,12.773,3.019,3.019,0,0,0-.749,1.465,11.23,11.23,0,0,1-13.556,8.277,13.214,13.214,0,0,1-1.533-.477,1.125,1.125,0,0,0-1.635.443c-.647.92-1.362,1.805-2.078,2.657a.639.639,0,0,0,.034,1.022,39.75,39.75,0,0,1,8.584,11.445c0,.034.068,0,.1.034.136-1.294-.034-2.623.17-3.917.613-3.44,3.542-5.62,7.289-5.348a6.388,6.388,0,0,1,5.654,6.335c0,3.985.034,7.97,0,11.956a29.759,29.759,0,0,1-3.576,13.522,2.011,2.011,0,0,1-2.827,1.056,1.957,1.957,0,0,1-.749-2.827,27.414,27.414,0,0,0,2.963-9.469,34.636,34.636,0,0,0,.272-3.747c.034-3.27,0-6.54,0-9.81a3.516,3.516,0,0,0-.136-1.022,2.6,2.6,0,0,0-2.657-2.078,2.541,2.541,0,0,0-2.35,2.589c-.034,3.815-.034,7.664,0,11.479a14.783,14.783,0,0,1-4.53,10.968c-3.406,3.372-6.812,6.778-10.184,10.184a8.932,8.932,0,0,1-.852.749,1.951,1.951,0,0,1-2.418-.2,2.011,2.011,0,0,1-.307-2.521,5.92,5.92,0,0,1,.852-.988l9.912-9.912a3.109,3.109,0,0,0,.886-3.27,2.959,2.959,0,0,0-2.521-2.112,3,3,0,0,0-2.691,1.022c-2.555,2.521-5.109,5.041-7.63,7.63a4.486,4.486,0,0,1-3.236,1.4,13.183,13.183,0,0,0-9.333,4.7,20.425,20.425,0,0,0-5.177,13.318,2.392,2.392,0,0,1-1.226,2.078h-1.431c-1.294-.681-1.26-1.941-1.328-3.1a19.526,19.526,0,0,0-5.518-12.773A12.76,12.76,0,0,0,122.277,167a4.174,4.174,0,0,1-3.066-1.328c-2.555-2.589-5.143-5.143-7.7-7.732a3.033,3.033,0,0,0-2.691-1.022,2.954,2.954,0,0,0-2.555,2.112,3.032,3.032,0,0,0,.852,3.27c3.3,3.27,6.574,6.54,9.844,9.844a8.292,8.292,0,0,1,.886.988,1.969,1.969,0,0,1-.443,2.759,1.993,1.993,0,0,1-2.384-.034,3.873,3.873,0,0,1-.545-.511c-3.508-3.542-7.051-7.051-10.559-10.593a19.049,19.049,0,0,1-1.533-1.771,14.172,14.172,0,0,1-2.793-8.515V142.679a2.575,2.575,0,0,0-2.316-2.725,2.649,2.649,0,0,0-2.725,2.248,6.272,6.272,0,0,0-.1,1.124c0,2.793-.034,5.586,0,8.379a43.442,43.442,0,0,0,.238,4.7,27.314,27.314,0,0,0,8.447,16.792c3.474,3.372,6.846,6.812,10.253,10.253,1.4,1.4,1.26,2.623-.375,3.713h-1.5a10.5,10.5,0,0,1-.92-.817c-3.645-3.645-7.255-7.289-10.934-10.9a31.313,31.313,0,0,1-7.289-11.411,38.956,38.956,0,0,1-1.771-7.391V141.01c.1-.238.2-.477.272-.681a6.522,6.522,0,0,1,7.085-4.258,6.607,6.607,0,0,1,5.552,5.484c.238,1.26,0,2.521.2,3.917a39.657,39.657,0,0,1,8.652-11.615c.443-.409.375-.681.034-1.09-.715-.886-1.431-1.737-2.078-2.657a1.067,1.067,0,0,0-1.567-.409,11.241,11.241,0,0,1-14.612-6.165,10.531,10.531,0,0,1-.579-1.839,1.563,1.563,0,0,0-.341-.852,10.079,10.079,0,0,1-2.623-4.7Zm48.265,62.98a27.185,27.185,0,0,1,2.555-4.428c2.929-4.087,6.71-7.017,11.785-7.732a7.572,7.572,0,0,0,4.7-2.691c.783-.852.852-.954-.136-1.635-1.362-.92-2.725-1.771-4.087-2.657a13.267,13.267,0,0,1-4.258-18.291,13.618,13.618,0,0,1,3.508-3.747,14.342,14.342,0,0,1,3.576-1.873,34.193,34.193,0,0,0-24.8-4.19,34.888,34.888,0,0,0-17.2,9.163,1.21,1.21,0,0,0,.307.136c.375,0,.749,0,1.124.034a8.561,8.561,0,0,1,7.323,3.917,8.451,8.451,0,0,1-1.907,11.377,7.434,7.434,0,0,0-2.759,3.917c-.238.817-.647,1.805-.068,2.452,1.26,1.328,2.316,2.963,4.121,3.747.068,0,.136.034.2.034,6.1.647,10.627,3.815,13.965,8.856A36.919,36.919,0,0,1,138.865,175.582Zm1.907-66.795c.375-.341.545-.477.749-.647,1.09-.988,2.214-1.022,3.066-.136a2.114,2.114,0,0,1-.273,3.031c-.817.852-1.669,1.7-2.521,2.521-.477.443-.409.715.1,1.09a7.553,7.553,0,0,0,4.19,1.5,7.4,7.4,0,0,0,2.589-14.442,3.252,3.252,0,0,1-2.078-1.873,8.465,8.465,0,0,0-15.5-.034,3.252,3.252,0,0,1-2.078,1.873,7.3,7.3,0,0,0-5.007,8.311,7.448,7.448,0,0,0,10.627,5.382c.579-.307.681-.477.17-.988-1.192-1.158-2.35-2.35-3.542-3.508a2.057,2.057,0,0,1-.511-2.18,1.868,1.868,0,0,1,1.6-1.294,2.1,2.1,0,0,1,1.907.817c.783.817,1.533,1.635,2.316,2.452a1.26,1.26,0,0,0,.238-1.09v-6.506c0-1.431.749-2.248,1.976-2.248s1.941.852,1.941,2.282c.068,1.805.034,3.611.034,5.688Zm31.916,45.506c.17-.307.034-.511,0-.715a34.805,34.805,0,0,0-10.627-17.167,2.578,2.578,0,0,0-2.282-.545A9.3,9.3,0,0,0,155.794,153c1.294.852,2.555,1.7,3.883,2.486.681.409,1.158,1.5,1.907,1.294s1.226-1.09,1.839-1.669A7.192,7.192,0,0,1,168.4,153,7.661,7.661,0,0,1,172.688,154.294ZM104.5,126.534A7.168,7.168,0,0,0,106.3,112.4a6.419,6.419,0,0,1-3.372-1.805,4.994,4.994,0,0,0-7.017.341,5.091,5.091,0,0,0,.238,7.153l.034.034a3.436,3.436,0,0,1,1.26,2.316A7.061,7.061,0,0,0,104.5,126.534Zm68.6,0a7.105,7.105,0,0,0,7.153-6.1,3.164,3.164,0,0,1,1.056-2.112,5.062,5.062,0,1,0-6.369-7.868,5.51,5.51,0,0,0-.647.613,3.417,3.417,0,0,1-2.248,1.192,7.174,7.174,0,0,0,1.056,14.272Zm-58.313,29.054a13.75,13.75,0,0,1,1.635-3.236,14.147,14.147,0,0,1,2.555-2.589,4.509,4.509,0,0,0-2.861-8.039c-1.465,0-2.963.034-4.428-.034a1.588,1.588,0,0,0-1.465.783,34.89,34.89,0,0,0-4.121,7.7,25.778,25.778,0,0,0-1.26,4.19C108.516,152.25,111.786,152.591,114.784,155.588Z" transform="translate(-59.6 -60.091)" fill="#0091de"/>
  <path id="Path_4076" data-name="Path 4076" d="M305.421,356.388c-1.635-1.124-1.771-2.282-.375-3.713,1.6-1.6,3.168-3.236,4.8-4.769a2,2,0,0,1,3.44.852,1.835,1.835,0,0,1-.545,1.907c-1.907,1.942-3.781,3.951-5.825,5.756h-1.5Z" transform="translate(-230.089 -229.282)" fill="#0091de"/>
  <path id="Path_4077" data-name="Path 4077" d="M339.176,333.581a1.986,1.986,0,0,1-1.976-1.907v-.034a1.927,1.927,0,0,1,1.976-1.941h.1a2,2,0,0,1,1.942,2.01,1.929,1.929,0,0,1-2.044,1.873Z" transform="translate(-260.2 -217.715)" fill="#0091de"/>
  <path id="Path_4078" data-name="Path 4078" d="M199.944,260.991a9.145,9.145,0,0,1,3.2-8A8.169,8.169,0,0,1,216.8,259.22a4.1,4.1,0,0,1-.17,1.294,17.35,17.35,0,0,1-4.224,7.664,6.769,6.769,0,0,1-8,1.4,7.211,7.211,0,0,1-4.462-6.642C199.91,262.388,199.944,261.809,199.944,260.991Zm4.053.068v1.635a3.4,3.4,0,0,0,6.335,1.805c.715-1.192,1.4-2.452,2.044-3.713a4.058,4.058,0,0,0-.92-4.8c-2.214-2.044-5.859-1.056-7.119,1.873a8.8,8.8,0,0,0-.341,3.2Z" transform="translate(-128.914 -165.698)" fill="#0091de"/>
  <path id="Path_4079" data-name="Path 4079" d="M79.159,158.934a78.852,78.852,0,1,1,55.963-23.2A79.181,79.181,0,0,1,79.159,158.934Zm0-154.571a75.412,75.412,0,1,0,75.412,75.412A75.489,75.489,0,0,0,79.159,4.362Z" transform="translate(0 -0.934)" fill="#0091de"/>
  <path id="Path_4080" data-name="Path 4080" d="M89.841,163.448a73.624,73.624,0,1,1,52.046-21.561h0A73.008,73.008,0,0,1,89.841,163.448Zm0-145.885a72.244,72.244,0,1,0,72.244,72.244A72.327,72.327,0,0,0,89.841,17.562Z" transform="translate(-11.2 -11)" fill="#0091de"/>
</svg>
