<svg id="Group_7830" data-name="Group 7830" xmlns="http://www.w3.org/2000/svg" width="158.011" height="158" viewBox="0 0 158.011 158">
  <path id="Path_4070" data-name="Path 4070" d="M126.236,121.3c-.817,0-1.635.034-2.452,0-.443-.034-.647.1-.647.579a4.677,4.677,0,0,1-.17.954c-.545,2.35-2.384,3.713-5.041,3.747a4.927,4.927,0,0,1-5.109-3.542c-.17-.579.136-1.4-.409-1.669a4.446,4.446,0,0,0-1.907-.068h-.647c-.817-.136-.92.238-.852.954a8.893,8.893,0,0,0,17.712-.409C126.815,121.332,126.61,121.3,126.236,121.3Zm0,0c-.817,0-1.635.034-2.452,0-.443-.034-.647.1-.647.579a4.677,4.677,0,0,1-.17.954c-.545,2.35-2.384,3.713-5.041,3.747a4.927,4.927,0,0,1-5.109-3.542c-.17-.579.136-1.4-.409-1.669a4.446,4.446,0,0,0-1.907-.068h-.647c-.817-.136-.92.238-.852.954a8.893,8.893,0,0,0,17.712-.409C126.815,121.332,126.61,121.3,126.236,121.3Zm0,0c-.817,0-1.635.034-2.452,0-.443-.034-.647.1-.647.579a4.677,4.677,0,0,1-.17.954c-.545,2.35-2.384,3.713-5.041,3.747a4.927,4.927,0,0,1-5.109-3.542c-.17-.579.136-1.4-.409-1.669a4.446,4.446,0,0,0-1.907-.068h-.647c-.817-.136-.92.238-.852.954a8.893,8.893,0,0,0,17.712-.409C126.815,121.332,126.61,121.3,126.236,121.3Zm0,0c-.817,0-1.635.034-2.452,0-.443-.034-.647.1-.647.579a4.677,4.677,0,0,1-.17.954c-.545,2.35-2.384,3.713-5.041,3.747a4.927,4.927,0,0,1-5.109-3.542c-.17-.579.136-1.4-.409-1.669a4.446,4.446,0,0,0-1.907-.068h-.647c-.817-.136-.92.238-.852.954a8.893,8.893,0,0,0,17.712-.409C126.815,121.332,126.61,121.3,126.236,121.3Zm0,0c-.817,0-1.635.034-2.452,0-.443-.034-.647.1-.647.579a4.677,4.677,0,0,1-.17.954c-.545,2.35-2.384,3.713-5.041,3.747a4.927,4.927,0,0,1-5.109-3.542c-.17-.579.136-1.4-.409-1.669a4.446,4.446,0,0,0-1.907-.068h-.647c-.817-.136-.92.238-.852.954a8.893,8.893,0,0,0,17.712-.409C126.815,121.332,126.61,121.3,126.236,121.3Zm0,0c-.817,0-1.635.034-2.452,0-.443-.034-.647.1-.647.579a4.677,4.677,0,0,1-.17.954c-.545,2.35-2.384,3.713-5.041,3.747a4.927,4.927,0,0,1-5.109-3.542c-.17-.579.136-1.4-.409-1.669a4.446,4.446,0,0,0-1.907-.068h-.647c-.817-.136-.92.238-.852.954a8.893,8.893,0,0,0,17.712-.409C126.815,121.332,126.61,121.3,126.236,121.3Zm0,0c-.817,0-1.635.034-2.452,0-.443-.034-.647.1-.647.579a4.677,4.677,0,0,1-.17.954c-.545,2.35-2.384,3.713-5.041,3.747a4.927,4.927,0,0,1-5.109-3.542c-.17-.579.136-1.4-.409-1.669a4.446,4.446,0,0,0-1.907-.068h-.647c-.817-.136-.92.238-.852.954a8.893,8.893,0,0,0,17.712-.409C126.815,121.332,126.61,121.3,126.236,121.3Zm0,0c-.817,0-1.635.034-2.452,0-.443-.034-.647.1-.647.579a4.677,4.677,0,0,1-.17.954c-.545,2.35-2.384,3.713-5.041,3.747a4.927,4.927,0,0,1-5.109-3.542c-.17-.579.136-1.4-.409-1.669a4.446,4.446,0,0,0-1.907-.068h-.647c-.817-.136-.92.238-.852.954a8.893,8.893,0,0,0,17.712-.409C126.815,121.332,126.61,121.3,126.236,121.3ZM184.992,80.73c-3.066,2.282-6.131,4.632-9.231,6.88a3.8,3.8,0,0,0-1.294,1.635c-3.168,7.425-6.335,14.817-9.5,22.242a1.247,1.247,0,0,1-1.431.886c-1.942-.034-3.849-.1-5.79,0a1.862,1.862,0,0,1-2.146-1.328c-.749-1.907-1.669-3.713-2.555-5.688h1.771a7.209,7.209,0,0,0,7.425-7.562V91.9c0-.545.1-.783.681-.749.681.068,1.362-.034,2.044.034s.852-.2.852-.852q-.051-4.5,0-8.992c0-.749-.238-.886-.92-.886q-4.445.051-8.89,0c-.783,0-.92.238-.92.954q.051,4.343,0,8.686c0,.783.136,1.192,1.022,1.09.545-.068,1.158.034,1.7-.034s.817.1.783.749c-.034,2.112,0,4.224-.034,6.335a3.453,3.453,0,0,1-3.406,3.474h-.034c-1.022.034-2.078-.034-3.1,0a.884.884,0,0,1-.954-.613c-1.26-2.827-2.589-5.62-3.883-8.413-.272-.545-.307-.92.375-1.124a4.99,4.99,0,0,0,.954-.477c1.226-.613,2.418-1.226,3.747-1.907-5.756-2.452-11.274-4.837-16.826-7.255-.749-.307-1.09-.307-1.294.579-.238,1.09-.579,2.112-.886,3.2-.954,3.3-1.907,6.642-2.861,9.946-.136-.613-.2-1.226-.307-1.805A15.942,15.942,0,0,0,98.408,96.3a15.571,15.571,0,0,0,6.2,12.7c.341.272.783.443.852,1.022.272,2.146.17,2.282-1.942,2.282-2.282,0-2.282,0-2.691,2.248a33.672,33.672,0,0,0-.375,10.457,6.7,6.7,0,0,1-.852,4.428c-3.474,5.961-6.812,12.024-10.15,18.053a4.6,4.6,0,0,0-.749,1.533c4.121.954,8.175,1.942,12.3,2.793.817.17,1.022.443,1.022,1.226-.034,6.812,0,13.591-.034,20.369,0,.783.17.988.988.988,5.177-.034,10.355,0,15.532-.034.886,0,1.226.136,1.192,1.124-.068,3.1,0,6.2-.034,9.333,0,1.805.1,3.645-.068,5.45h42.713q0-11.7-.034-23.366a2.3,2.3,0,0,1,1.056-2.112,45.136,45.136,0,0,0,17.984-30.928,70.655,70.655,0,0,0-.136-19.143c-.341-2.452-.307-2.521-2.691-2.452-1.124.034-1.022-.341-.681-1.124,2.418-5.688,4.769-11.377,7.187-17.1a3.526,3.526,0,0,0,.341-1.431V81.241C185.2,81.173,185.333,80.867,184.992,80.73ZM160.3,84.171c1.873,0,1.873,0,1.873,1.907v.341c.2,1.056-.238,1.431-1.26,1.226h-.443c-1.805,0-1.805,0-1.805-1.839C158.662,84.171,158.662,84.171,160.3,84.171Zm-11.1,21.527c.988,2.18,2.01,4.36,3.066,6.676h-6.267c-.409,0-.545-.272-.647-.579-.954-2.078-1.907-4.19-2.929-6.438h6.233A.571.571,0,0,1,149.193,105.7Zm-12.4-19.109,6.744,2.9c-.068.136-.068.238-.1.238-1.294.647-1.294.647-.681,1.976l4.666,10.116c-2.112,0-4.087-.034-6.029.034-.579,0-.681-.341-.852-.749l-3.372-7.357c-.647-1.4-.647-1.4-2.18-.681C135.569,90.847,136.182,88.735,136.795,86.589Zm-2.861,21.97a3.623,3.623,0,0,1,4.292-3.134c.307.068.375.238.477.477.954,2.112,1.942,4.258,2.963,6.506h-7.221c-.409,0-.545-.136-.545-.545C133.9,110.739,133.831,109.649,133.934,108.559Zm-3.27-9.333c1.158-.545,2.316-1.124,3.44-1.737.477-.238.715-.272.954.307.477,1.158.988,2.282,1.533,3.406.238.477.2.681-.375.783a7,7,0,0,0-5.927,7.255c0,1.022.443,2.555-.17,2.963-.817.511-2.214.136-3.338.136v.068c-.886,0-1.771-.034-2.691,0-.613.034-.852-.1-.886-.817a2.923,2.923,0,0,1,1.328-2.827,14.953,14.953,0,0,0,5.314-8.447,1.353,1.353,0,0,1,.817-1.09Zm-28.441-5.109a12.585,12.585,0,0,1,9.81-9.708,12.411,12.411,0,0,1,13.9,7.732c2.146,5.586,0,11.683-5.348,15.021a1.606,1.606,0,0,0-.954,1.771,4.464,4.464,0,0,1,0,.954c0,2.725-.238,2.9-3,2.521-.443-.068-.477-.272-.477-.613v-9.639c0-.545.307-.715.681-.92a5.24,5.24,0,0,0,2.555-6.54,5.31,5.31,0,0,0-10.287,2.18,4.989,4.989,0,0,0,2.759,4.292,1.177,1.177,0,0,1,.749,1.328c-.034,1.5,0,3,0,4.5v4.735c0,.579-.2.715-.715.715-2.759.1-2.861.1-2.725-2.623a3.139,3.139,0,0,0-1.737-3.168,12.219,12.219,0,0,1-5.211-12.535Zm13.863,2.521a1.789,1.789,0,0,1-1.805,1.635,1.72,1.72,0,1,1,.034-3.44h0a1.81,1.81,0,0,1,1.771,1.805Zm61.719,20.2c.511,8.141.783,16.247-1.805,24.15a42.917,42.917,0,0,1-16.622,22.31,1.658,1.658,0,0,0-.818,1.533c.034,6.983,0,13.931.034,20.914,0,.783-.136,1.09-1.022,1.056q-16.656-.051-33.346,0c-.852,0-1.056-.238-1.056-1.056.034-4.6,0-9.231.034-13.829,0-.783-.136-1.09-1.022-1.056-5.211.034-10.423,0-15.668.034-.886,0-1.022-.272-1.022-1.056.034-6.506,0-13.012.034-19.517,0-.886-.341-1.158-1.09-1.294-3.2-.681-6.37-1.465-9.571-2.146-.817-.17-.749-.443-.443-1.022,3.1-5.484,6.131-11,9.265-16.452a3.613,3.613,0,0,0,.443-2.657,38.935,38.935,0,0,1-.136-10.15c.034-.443.2-.647.647-.613a5.5,5.5,0,0,0,.749,0h71.223c.715,0,1.158.034,1.192.852Zm3.032-22.242c-2.384,5.654-4.735,11.342-7.085,17a1.106,1.106,0,0,1-1.26.817c-1.294-.034-2.555,0-4.019,0l1.669-3.917q3.372-7.868,6.744-15.77c.272-.647.477-.886,1.192-.443a15.579,15.579,0,0,0,2.384,1.192C181.075,93.708,181.075,94.014,180.836,94.593Zm.817-4.6c-.681-.2-1.635-.443-1.6-.852,0-.647.954-.817,1.5-1.4.034.17.068.307.1.477,0,.545,0,1.124,0,1.771Zm-55.418,31.3c-.817,0-1.635.034-2.452,0-.443-.034-.647.1-.647.579a4.677,4.677,0,0,1-.17.954c-.545,2.35-2.384,3.713-5.041,3.747a4.927,4.927,0,0,1-5.109-3.542c-.17-.579.136-1.4-.409-1.669a4.446,4.446,0,0,0-1.907-.068h-.647c-.817-.136-.92.238-.852.954a8.893,8.893,0,0,0,17.712-.409C126.815,121.332,126.61,121.3,126.236,121.3Zm0,0c-.817,0-1.635.034-2.452,0-.443-.034-.647.1-.647.579a4.677,4.677,0,0,1-.17.954c-.545,2.35-2.384,3.713-5.041,3.747a4.927,4.927,0,0,1-5.109-3.542c-.17-.579.136-1.4-.409-1.669a4.446,4.446,0,0,0-1.907-.068h-.647c-.817-.136-.92.238-.852.954a8.893,8.893,0,0,0,17.712-.409C126.815,121.332,126.61,121.3,126.236,121.3Zm0,0c-.817,0-1.635.034-2.452,0-.443-.034-.647.1-.647.579a4.677,4.677,0,0,1-.17.954c-.545,2.35-2.384,3.713-5.041,3.747a4.927,4.927,0,0,1-5.109-3.542c-.17-.579.136-1.4-.409-1.669a4.446,4.446,0,0,0-1.907-.068h-.647c-.817-.136-.92.238-.852.954a8.893,8.893,0,0,0,17.712-.409C126.815,121.332,126.61,121.3,126.236,121.3Zm0,0c-.817,0-1.635.034-2.452,0-.443-.034-.647.1-.647.579a4.677,4.677,0,0,1-.17.954c-.545,2.35-2.384,3.713-5.041,3.747a4.927,4.927,0,0,1-5.109-3.542c-.17-.579.136-1.4-.409-1.669a4.446,4.446,0,0,0-1.907-.068h-.647c-.817-.136-.92.238-.852.954a8.893,8.893,0,0,0,17.712-.409C126.815,121.332,126.61,121.3,126.236,121.3Zm0,0c-.817,0-1.635.034-2.452,0-.443-.034-.647.1-.647.579a4.677,4.677,0,0,1-.17.954c-.545,2.35-2.384,3.713-5.041,3.747a4.927,4.927,0,0,1-5.109-3.542c-.17-.579.136-1.4-.409-1.669a4.446,4.446,0,0,0-1.907-.068h-.647c-.817-.136-.92.238-.852.954a8.893,8.893,0,0,0,17.712-.409C126.815,121.332,126.61,121.3,126.236,121.3Zm0,0c-.817,0-1.635.034-2.452,0-.443-.034-.647.1-.647.579a4.677,4.677,0,0,1-.17.954c-.545,2.35-2.384,3.713-5.041,3.747a4.927,4.927,0,0,1-5.109-3.542c-.17-.579.136-1.4-.409-1.669a4.446,4.446,0,0,0-1.907-.068h-.647c-.817-.136-.92.238-.852.954a8.893,8.893,0,0,0,17.712-.409C126.815,121.332,126.61,121.3,126.236,121.3Zm0,0c-.817,0-1.635.034-2.452,0-.443-.034-.647.1-.647.579a4.677,4.677,0,0,1-.17.954c-.545,2.35-2.384,3.713-5.041,3.747a4.927,4.927,0,0,1-5.109-3.542c-.17-.579.136-1.4-.409-1.669a4.446,4.446,0,0,0-1.907-.068h-.647c-.817-.136-.92.238-.852.954a8.893,8.893,0,0,0,17.712-.409C126.815,121.332,126.61,121.3,126.236,121.3Z" transform="translate(-57.7 -53.356)" fill="#0091de"/>
  <path id="Path_4071" data-name="Path 4071" d="M166.178,200.731a8.893,8.893,0,0,1-17.712.409c-.068-.715.034-1.09.852-.954h.647a5.058,5.058,0,0,1,1.907.068c.545.238.238,1.09.409,1.669a4.927,4.927,0,0,0,5.109,3.542,4.846,4.846,0,0,0,5.041-3.747,4.3,4.3,0,0,0,.17-.954c0-.477.17-.613.647-.579.817.034,1.635,0,2.452,0C166.008,200.22,166.212,200.254,166.178,200.731Z" transform="translate(-78.449 -132.279)" fill="#0091de"/>
  <path id="Path_4072" data-name="Path 4072" d="M166.178,200.731a8.893,8.893,0,0,1-17.712.409c-.068-.715.034-1.09.852-.954h.647a5.058,5.058,0,0,1,1.907.068c.545.238.238,1.09.409,1.669a4.927,4.927,0,0,0,5.109,3.542,4.846,4.846,0,0,0,5.041-3.747,4.3,4.3,0,0,0,.17-.954c0-.477.17-.613.647-.579.817.034,1.635,0,2.452,0C166.008,200.22,166.212,200.254,166.178,200.731Z" transform="translate(-78.449 -132.279)" fill="#0091de"/>
  <path id="Path_4073" data-name="Path 4073" d="M79.159,158.934a78.852,78.852,0,1,1,55.963-23.2A79.181,79.181,0,0,1,79.159,158.934Zm0-154.571a75.412,75.412,0,1,0,75.412,75.412A75.489,75.489,0,0,0,79.159,4.362Z" transform="translate(0 -0.934)" fill="#0091de"/>
  <path id="Path_4074" data-name="Path 4074" d="M89.841,163.448a73.624,73.624,0,1,1,52.046-21.561h0A73.008,73.008,0,0,1,89.841,163.448Zm0-145.885a72.244,72.244,0,1,0,72.244,72.244A72.327,72.327,0,0,0,89.841,17.562Z" transform="translate(-11.2 -11)" fill="#0091de"/>
</svg>
