<svg id="Group_7832" data-name="Group 7832" xmlns="http://www.w3.org/2000/svg" width="158.011" height="158" viewBox="0 0 158.011 158">
  <path id="Path_4042" data-name="Path 4042" d="M138.865,159.763a5.177,5.177,0,1,0,5.177,5.211A5.175,5.175,0,0,0,138.865,159.763Zm0,6.88a1.786,1.786,0,0,1-1.669-1.771,1.688,1.688,0,0,1,3.372.17A1.689,1.689,0,0,1,138.865,166.644Zm5.177-27.76a5.164,5.164,0,0,0-10.321,0q-.051,7,0,14a5.177,5.177,0,1,0,10.355,0v-7.017c0-2.35,0-4.632-.034-6.983ZM140.6,146v6.233c0,1.431-.647,2.282-1.7,2.316s-1.737-.852-1.737-2.248V139.7c0-1.431.647-2.282,1.7-2.316s1.737.852,1.737,2.35Zm3.44-7.085a5.164,5.164,0,0,0-10.321,0q-.051,7,0,14a5.177,5.177,0,1,0,10.355,0h0V145.9c0-2.35,0-4.666-.034-6.983ZM140.6,146v6.233c0,1.431-.647,2.282-1.7,2.316s-1.737-.852-1.737-2.248V139.7c0-1.431.647-2.282,1.7-2.316s1.737.852,1.737,2.35Zm-1.737,13.761a5.177,5.177,0,1,0,5.177,5.211,5.175,5.175,0,0,0-5.177-5.211Zm0,6.88a1.786,1.786,0,0,1-1.669-1.771,1.688,1.688,0,0,1,3.372.17A1.689,1.689,0,0,1,138.865,166.644Zm29.463-5.109c-3.134-4.394-6.3-8.72-9.469-13.08-4.36-5.995-8.686-12.024-13.114-17.984a8.454,8.454,0,0,0-10.627-2.623c-2.01.954-3.2,2.725-4.428,4.428q-10.627,14.663-21.288,29.293a8.56,8.56,0,0,0,7.017,13.659h45.063a5.56,5.56,0,0,0,1.5-.1,8.474,8.474,0,0,0,5.348-13.591Zm-2.248,7.528a5.035,5.035,0,0,1-4.939,2.759H116.521a5.082,5.082,0,0,1-5.416-4.36,5.294,5.294,0,0,1,1.226-4.087q10.474-14.408,20.948-28.782c.477-.647.92-1.294,1.4-1.907a4.949,4.949,0,0,1,8.277,0q7.766,10.576,15.464,21.186c2.316,3.2,4.6,6.4,6.949,9.571a4.846,4.846,0,0,1,.715,5.62Zm-22.038-30.144a5.164,5.164,0,0,0-10.321,0q-.051,7,0,14a5.177,5.177,0,1,0,10.355,0h0V145.9c0-2.35,0-4.666-.034-6.983ZM140.6,146v6.233c0,1.431-.647,2.282-1.7,2.316s-1.737-.852-1.737-2.248V139.7c0-1.431.647-2.282,1.7-2.316s1.737.852,1.737,2.35Zm-1.737,13.761a5.177,5.177,0,1,0,5.177,5.211,5.175,5.175,0,0,0-5.177-5.211Zm0,6.88a1.786,1.786,0,0,1-1.669-1.771,1.688,1.688,0,0,1,3.372.17A1.689,1.689,0,0,1,138.865,166.644Zm0-6.88a5.177,5.177,0,1,0,5.177,5.211,5.175,5.175,0,0,0-5.177-5.211Zm0,6.88a1.786,1.786,0,0,1-1.669-1.771,1.688,1.688,0,0,1,3.372.17A1.689,1.689,0,0,1,138.865,166.644Zm5.177-27.726a5.164,5.164,0,0,0-10.321,0q-.051,7,0,14a5.177,5.177,0,1,0,10.355,0h0V145.9c0-2.35,0-4.666-.034-6.983ZM140.6,146v6.233c0,1.431-.647,2.282-1.7,2.316s-1.737-.852-1.737-2.248V139.7c0-1.431.647-2.282,1.7-2.316s1.737.852,1.737,2.35Zm3.44-7.085a5.164,5.164,0,0,0-10.321,0q-.051,7,0,14a5.177,5.177,0,1,0,10.355,0h0V145.9c0-2.35,0-4.666-.034-6.983ZM140.6,146v6.233c0,1.431-.647,2.282-1.7,2.316s-1.737-.852-1.737-2.248V139.7c0-1.431.647-2.282,1.7-2.316s1.737.852,1.737,2.35Zm-1.737,13.761a5.177,5.177,0,1,0,5.177,5.211,5.175,5.175,0,0,0-5.177-5.211Zm0,6.88a1.786,1.786,0,0,1-1.669-1.771,1.688,1.688,0,0,1,3.372.17A1.689,1.689,0,0,1,138.865,166.644Zm0-6.88a5.177,5.177,0,1,0,5.177,5.211,5.175,5.175,0,0,0-5.177-5.211Zm0,6.88a1.786,1.786,0,0,1-1.669-1.771,1.688,1.688,0,0,1,3.372.17A1.689,1.689,0,0,1,138.865,166.644Zm5.177-27.726a5.164,5.164,0,0,0-10.321,0q-.051,7,0,14a5.177,5.177,0,1,0,10.355,0h0V145.9c0-2.35,0-4.666-.034-6.983ZM140.6,146v6.233c0,1.431-.647,2.282-1.7,2.316s-1.737-.852-1.737-2.248V139.7c0-1.431.647-2.282,1.7-2.316s1.737.852,1.737,2.35Zm3.44-7.085a5.164,5.164,0,0,0-10.321,0q-.051,7,0,14a5.177,5.177,0,1,0,10.355,0h0V145.9c0-2.35,0-4.666-.034-6.983ZM140.6,146v6.233c0,1.431-.647,2.282-1.7,2.316s-1.737-.852-1.737-2.248V139.7c0-1.431.647-2.282,1.7-2.316s1.737.852,1.737,2.35Zm-1.737,13.761a5.177,5.177,0,1,0,5.177,5.211,5.175,5.175,0,0,0-5.177-5.211Zm0,6.88a1.786,1.786,0,0,1-1.669-1.771,1.688,1.688,0,0,1,3.372.17A1.689,1.689,0,0,1,138.865,166.644Zm29.463-5.109c-3.134-4.394-6.3-8.72-9.469-13.08-4.36-5.995-8.686-12.024-13.114-17.984a8.454,8.454,0,0,0-10.627-2.623c-2.01.954-3.2,2.725-4.428,4.428q-10.627,14.663-21.288,29.293a8.56,8.56,0,0,0,7.017,13.659h45.063a5.56,5.56,0,0,0,1.5-.1,8.474,8.474,0,0,0,5.348-13.591Zm-2.248,7.528a5.035,5.035,0,0,1-4.939,2.759H116.521a5.082,5.082,0,0,1-5.416-4.36,5.294,5.294,0,0,1,1.226-4.087q10.474-14.408,20.948-28.782c.477-.647.92-1.294,1.4-1.907a4.949,4.949,0,0,1,8.277,0q7.766,10.576,15.464,21.186c2.316,3.2,4.6,6.4,6.949,9.571a4.846,4.846,0,0,1,.715,5.62Zm-22.038-30.144a5.164,5.164,0,0,0-10.321,0q-.051,7,0,14a5.177,5.177,0,1,0,10.355,0h0V145.9c0-2.35,0-4.666-.034-6.983ZM140.6,146v6.233c0,1.431-.647,2.282-1.7,2.316s-1.737-.852-1.737-2.248V139.7c0-1.431.647-2.282,1.7-2.316s1.737.852,1.737,2.35Zm-1.737,13.761a5.177,5.177,0,1,0,5.177,5.211,5.175,5.175,0,0,0-5.177-5.211Zm0,6.88a1.786,1.786,0,0,1-1.669-1.771,1.688,1.688,0,0,1,3.372.17A1.689,1.689,0,0,1,138.865,166.644Zm0-6.88a5.177,5.177,0,1,0,5.177,5.211,5.175,5.175,0,0,0-5.177-5.211Zm0,6.88a1.786,1.786,0,0,1-1.669-1.771,1.688,1.688,0,0,1,3.372.17A1.689,1.689,0,0,1,138.865,166.644Zm5.177-27.726a5.164,5.164,0,0,0-10.321,0q-.051,7,0,14a5.177,5.177,0,1,0,10.355,0h0V145.9c0-2.35,0-4.666-.034-6.983ZM140.6,146v6.233c0,1.431-.647,2.282-1.7,2.316s-1.737-.852-1.737-2.248V139.7c0-1.431.647-2.282,1.7-2.316s1.737.852,1.737,2.35Zm3.44-7.085a5.164,5.164,0,0,0-10.321,0q-.051,7,0,14a5.177,5.177,0,1,0,10.355,0h0V145.9c0-2.35,0-4.666-.034-6.983ZM140.6,146v6.233c0,1.431-.647,2.282-1.7,2.316s-1.737-.852-1.737-2.248V139.7c0-1.431.647-2.282,1.7-2.316s1.737.852,1.737,2.35Zm-1.737,13.761a5.177,5.177,0,1,0,5.177,5.211,5.175,5.175,0,0,0-5.177-5.211Zm0,6.88a1.786,1.786,0,0,1-1.669-1.771,1.688,1.688,0,0,1,3.372.17A1.689,1.689,0,0,1,138.865,166.644Zm0-6.88a5.177,5.177,0,1,0,5.177,5.211,5.175,5.175,0,0,0-5.177-5.211Zm0,6.88a1.786,1.786,0,0,1-1.669-1.771,1.688,1.688,0,0,1,3.372.17A1.689,1.689,0,0,1,138.865,166.644Zm5.177-27.726a5.164,5.164,0,0,0-10.321,0q-.051,7,0,14a5.177,5.177,0,1,0,10.355,0h0V145.9c0-2.35,0-4.666-.034-6.983ZM140.6,146v6.233c0,1.431-.647,2.282-1.7,2.316s-1.737-.852-1.737-2.248V139.7c0-1.431.647-2.282,1.7-2.316s1.737.852,1.737,2.35Zm3.44-7.085a5.164,5.164,0,0,0-10.321,0q-.051,7,0,14a5.177,5.177,0,1,0,10.355,0h0V145.9c0-2.35,0-4.666-.034-6.983ZM140.6,146v6.233c0,1.431-.647,2.282-1.7,2.316s-1.737-.852-1.737-2.248V139.7c0-1.431.647-2.282,1.7-2.316s1.737.852,1.737,2.35Zm-1.737,13.761a5.177,5.177,0,1,0,5.177,5.211,5.175,5.175,0,0,0-5.177-5.211Zm0,6.88a1.786,1.786,0,0,1-1.669-1.771,1.688,1.688,0,0,1,3.372.17A1.689,1.689,0,0,1,138.865,166.644Zm29.463-5.109c-3.134-4.394-6.3-8.72-9.469-13.08-4.36-5.995-8.686-12.024-13.114-17.984a8.454,8.454,0,0,0-10.627-2.623c-2.01.954-3.2,2.725-4.428,4.428q-10.627,14.663-21.288,29.293a8.56,8.56,0,0,0,7.017,13.659h45.063a5.56,5.56,0,0,0,1.5-.1,8.474,8.474,0,0,0,5.348-13.591Zm-2.248,7.528a5.035,5.035,0,0,1-4.939,2.759H116.521a5.082,5.082,0,0,1-5.416-4.36,5.294,5.294,0,0,1,1.226-4.087q10.474-14.408,20.948-28.782c.477-.647.92-1.294,1.4-1.907a4.949,4.949,0,0,1,8.277,0q7.766,10.576,15.464,21.186c2.316,3.2,4.6,6.4,6.949,9.571a4.846,4.846,0,0,1,.715,5.62Zm-22.038-30.144a5.164,5.164,0,0,0-10.321,0q-.051,7,0,14a5.177,5.177,0,1,0,10.355,0h0V145.9c0-2.35,0-4.666-.034-6.983ZM140.6,146v6.233c0,1.431-.647,2.282-1.7,2.316s-1.737-.852-1.737-2.248V139.7c0-1.431.647-2.282,1.7-2.316s1.737.852,1.737,2.35Zm-1.737,13.761a5.177,5.177,0,1,0,5.177,5.211,5.175,5.175,0,0,0-5.177-5.211Zm0,6.88a1.786,1.786,0,0,1-1.669-1.771,1.688,1.688,0,0,1,3.372.17A1.689,1.689,0,0,1,138.865,166.644Zm0-6.88a5.177,5.177,0,1,0,5.177,5.211,5.175,5.175,0,0,0-5.177-5.211Zm0,6.88a1.786,1.786,0,0,1-1.669-1.771,1.688,1.688,0,0,1,3.372.17A1.689,1.689,0,0,1,138.865,166.644Zm5.177-27.726a5.164,5.164,0,0,0-10.321,0q-.051,7,0,14a5.177,5.177,0,1,0,10.355,0h0V145.9c0-2.35,0-4.666-.034-6.983ZM140.6,146v6.233c0,1.431-.647,2.282-1.7,2.316s-1.737-.852-1.737-2.248V139.7c0-1.431.647-2.282,1.7-2.316s1.737.852,1.737,2.35Zm3.44-7.085a5.164,5.164,0,0,0-10.321,0q-.051,7,0,14a5.177,5.177,0,1,0,10.355,0h0V145.9c0-2.35,0-4.666-.034-6.983ZM140.6,146v6.233c0,1.431-.647,2.282-1.7,2.316s-1.737-.852-1.737-2.248V139.7c0-1.431.647-2.282,1.7-2.316s1.737.852,1.737,2.35Zm-1.737,13.761a5.177,5.177,0,1,0,5.177,5.211,5.175,5.175,0,0,0-5.177-5.211Zm0,6.88a1.786,1.786,0,0,1-1.669-1.771,1.688,1.688,0,0,1,3.372.17A1.689,1.689,0,0,1,138.865,166.644Zm0-6.88a5.177,5.177,0,1,0,5.177,5.211,5.175,5.175,0,0,0-5.177-5.211Zm0,6.88a1.786,1.786,0,0,1-1.669-1.771,1.688,1.688,0,0,1,3.372.17A1.689,1.689,0,0,1,138.865,166.644Zm5.177-27.726a5.164,5.164,0,0,0-10.321,0q-.051,7,0,14a5.177,5.177,0,1,0,10.355,0h0V145.9c0-2.35,0-4.666-.034-6.983ZM140.6,146v6.233c0,1.431-.647,2.282-1.7,2.316s-1.737-.852-1.737-2.248V139.7c0-1.431.647-2.282,1.7-2.316s1.737.852,1.737,2.35Zm3.44-7.085a5.164,5.164,0,0,0-10.321,0q-.051,7,0,14a5.177,5.177,0,1,0,10.355,0h0V145.9c0-2.35,0-4.666-.034-6.983ZM140.6,146v6.233c0,1.431-.647,2.282-1.7,2.316s-1.737-.852-1.737-2.248V139.7c0-1.431.647-2.282,1.7-2.316s1.737.852,1.737,2.35Zm-1.737,13.761a5.177,5.177,0,1,0,5.177,5.211,5.175,5.175,0,0,0-5.177-5.211Zm0,6.88a1.786,1.786,0,0,1-1.669-1.771,1.688,1.688,0,0,1,3.372.17A1.689,1.689,0,0,1,138.865,166.644Zm29.463-5.109c-3.134-4.394-6.3-8.72-9.469-13.08-4.36-5.995-8.686-12.024-13.114-17.984a8.454,8.454,0,0,0-10.627-2.623c-2.01.954-3.2,2.725-4.428,4.428q-10.627,14.663-21.288,29.293a8.56,8.56,0,0,0,7.017,13.659h45.063a5.56,5.56,0,0,0,1.5-.1,8.474,8.474,0,0,0,5.348-13.591Zm-2.248,7.528a5.035,5.035,0,0,1-4.939,2.759H116.521a5.082,5.082,0,0,1-5.416-4.36,5.294,5.294,0,0,1,1.226-4.087q10.474-14.408,20.948-28.782c.477-.647.92-1.294,1.4-1.907a4.949,4.949,0,0,1,8.277,0q7.766,10.576,15.464,21.186c2.316,3.2,4.6,6.4,6.949,9.571a4.846,4.846,0,0,1,.715,5.62Zm-22.038-30.144a5.164,5.164,0,0,0-10.321,0q-.051,7,0,14a5.177,5.177,0,1,0,10.355,0h0V145.9c0-2.35,0-4.666-.034-6.983ZM140.6,146v6.233c0,1.431-.647,2.282-1.7,2.316s-1.737-.852-1.737-2.248V139.7c0-1.431.647-2.282,1.7-2.316s1.737.852,1.737,2.35Zm-1.737,13.761a5.177,5.177,0,1,0,5.177,5.211,5.175,5.175,0,0,0-5.177-5.211Zm0,6.88a1.786,1.786,0,0,1-1.669-1.771,1.688,1.688,0,0,1,3.372.17A1.689,1.689,0,0,1,138.865,166.644Zm0-6.88a5.177,5.177,0,1,0,5.177,5.211,5.175,5.175,0,0,0-5.177-5.211Zm0,6.88a1.786,1.786,0,0,1-1.669-1.771,1.688,1.688,0,0,1,3.372.17A1.689,1.689,0,0,1,138.865,166.644Zm5.177-27.726a5.164,5.164,0,0,0-10.321,0q-.051,7,0,14a5.177,5.177,0,1,0,10.355,0h0V145.9c0-2.35,0-4.666-.034-6.983ZM140.6,146v6.233c0,1.431-.647,2.282-1.7,2.316s-1.737-.852-1.737-2.248V139.7c0-1.431.647-2.282,1.7-2.316s1.737.852,1.737,2.35Zm3.44-7.085a5.164,5.164,0,0,0-10.321,0q-.051,7,0,14a5.177,5.177,0,1,0,10.355,0h0V145.9c0-2.35,0-4.666-.034-6.983ZM140.6,146v6.233c0,1.431-.647,2.282-1.7,2.316s-1.737-.852-1.737-2.248V139.7c0-1.431.647-2.282,1.7-2.316s1.737.852,1.737,2.35Zm-1.737,13.761a5.177,5.177,0,1,0,5.177,5.211,5.175,5.175,0,0,0-5.177-5.211Zm0,6.88a1.786,1.786,0,0,1-1.669-1.771,1.688,1.688,0,0,1,3.372.17A1.689,1.689,0,0,1,138.865,166.644Zm0-6.88a5.177,5.177,0,1,0,5.177,5.211,5.175,5.175,0,0,0-5.177-5.211Zm0,6.88a1.786,1.786,0,0,1-1.669-1.771,1.688,1.688,0,0,1,3.372.17A1.689,1.689,0,0,1,138.865,166.644Zm5.177-27.726a5.164,5.164,0,0,0-10.321,0q-.051,7,0,14a5.177,5.177,0,1,0,10.355,0h0V145.9c0-2.35,0-4.666-.034-6.983ZM140.6,146v6.233c0,1.431-.647,2.282-1.7,2.316s-1.737-.852-1.737-2.248V139.7c0-1.431.647-2.282,1.7-2.316s1.737.852,1.737,2.35Zm3.44-7.085a5.164,5.164,0,0,0-10.321,0q-.051,7,0,14a5.177,5.177,0,1,0,10.355,0h0V145.9c0-2.35,0-4.666-.034-6.983ZM140.6,146v6.233c0,1.431-.647,2.282-1.7,2.316s-1.737-.852-1.737-2.248V139.7c0-1.431.647-2.282,1.7-2.316s1.737.852,1.737,2.35Zm-1.737,13.761a5.177,5.177,0,1,0,5.177,5.211,5.175,5.175,0,0,0-5.177-5.211Zm0,6.88a1.786,1.786,0,0,1-1.669-1.771,1.688,1.688,0,0,1,3.372.17A1.689,1.689,0,0,1,138.865,166.644Zm29.463-5.109c-3.134-4.394-6.3-8.72-9.469-13.08-4.36-5.995-8.686-12.024-13.114-17.984a8.454,8.454,0,0,0-10.627-2.623c-2.01.954-3.2,2.725-4.428,4.428q-10.627,14.663-21.288,29.293a8.56,8.56,0,0,0,7.017,13.659h45.063a5.56,5.56,0,0,0,1.5-.1,8.474,8.474,0,0,0,5.348-13.591Zm-2.248,7.528a5.035,5.035,0,0,1-4.939,2.759H116.521a5.082,5.082,0,0,1-5.416-4.36,5.294,5.294,0,0,1,1.226-4.087q10.474-14.408,20.948-28.782c.477-.647.92-1.294,1.4-1.907a4.949,4.949,0,0,1,8.277,0q7.766,10.576,15.464,21.186c2.316,3.2,4.6,6.4,6.949,9.571a4.846,4.846,0,0,1,.715,5.62Zm-22.038-30.144a5.164,5.164,0,0,0-10.321,0q-.051,7,0,14a5.177,5.177,0,1,0,10.355,0h0V145.9c0-2.35,0-4.666-.034-6.983ZM140.6,146v6.233c0,1.431-.647,2.282-1.7,2.316s-1.737-.852-1.737-2.248V139.7c0-1.431.647-2.282,1.7-2.316s1.737.852,1.737,2.35Zm-1.737,13.761a5.177,5.177,0,1,0,5.177,5.211,5.175,5.175,0,0,0-5.177-5.211Zm0,6.88a1.786,1.786,0,0,1-1.669-1.771,1.688,1.688,0,0,1,3.372.17A1.689,1.689,0,0,1,138.865,166.644Zm29.463-5.109c-3.134-4.394-6.3-8.72-9.469-13.08-4.36-5.995-8.686-12.024-13.114-17.984a8.454,8.454,0,0,0-10.627-2.623c-2.01.954-3.2,2.725-4.428,4.428q-10.627,14.663-21.288,29.293a8.56,8.56,0,0,0,7.017,13.659h45.063a5.56,5.56,0,0,0,1.5-.1,8.474,8.474,0,0,0,5.348-13.591Zm-2.248,7.528a5.035,5.035,0,0,1-4.939,2.759H116.521a5.082,5.082,0,0,1-5.416-4.36,5.294,5.294,0,0,1,1.226-4.087q10.474-14.408,20.948-28.782c.477-.647.92-1.294,1.4-1.907a4.949,4.949,0,0,1,8.277,0q7.766,10.576,15.464,21.186c2.316,3.2,4.6,6.4,6.949,9.571a4.846,4.846,0,0,1,.715,5.62Zm-22.038-30.144a5.164,5.164,0,0,0-10.321,0q-.051,7,0,14a5.177,5.177,0,1,0,10.355,0h0V145.9c0-2.35,0-4.666-.034-6.983ZM140.6,146v6.233c0,1.431-.647,2.282-1.7,2.316s-1.737-.852-1.737-2.248V139.7c0-1.431.647-2.282,1.7-2.316s1.737.852,1.737,2.35Zm-1.737,13.761a5.177,5.177,0,1,0,5.177,5.211,5.175,5.175,0,0,0-5.177-5.211Zm0,6.88a1.786,1.786,0,0,1-1.669-1.771,1.688,1.688,0,0,1,3.372.17A1.689,1.689,0,0,1,138.865,166.644Zm41.419-68.975c-4.19,0-8.413-.034-12.6,0-.92,0-1.26-.136-1.226-1.192.068-3.576.034-7.187.034-10.763a5.119,5.119,0,0,0-5.245-5.314H116.623a5.133,5.133,0,0,0-5.314,5.382c0,3.542-.034,7.119.034,10.661.034.92-.136,1.26-1.192,1.226-4.121-.068-8.243-.034-12.4-.034a6.83,6.83,0,0,0-7.153,7.153v71.87a6.83,6.83,0,0,0,7.153,7.153h82.531a6.833,6.833,0,0,0,6.88-6.744V104.55a6.833,6.833,0,0,0-6.71-6.914A.307.307,0,0,1,180.284,97.669ZM153.512,83.874c2.555.034,5.109,0,7.63.034a1.745,1.745,0,0,1,1.873,1.907c.034,1.26,0,2.521,0,3.781s-.034,2.521,0,3.781c0,.545-.068.749-.681.613a12.253,12.253,0,0,1-9.4-9.4C152.864,84.045,152.933,83.874,153.512,83.874ZM114.75,93.343c.034-1.26,0-2.521,0-3.781V85.918a1.789,1.789,0,0,1,1.976-2.01c2.521-.034,5.041,0,7.528-.034.545,0,.647.136.545.681a12.206,12.206,0,0,1-9.4,9.4C114.818,94.093,114.716,93.888,114.75,93.343Zm0,5.143c0-.749.238-.954.954-1.056A15.533,15.533,0,0,0,128.34,84.76c.1-.647.272-.92.988-.92,6.4.034,12.773.034,19.177,0,.715,0,.886.238.988.92.886,6.233,6.438,11.853,12.637,12.671.715.1.954.307.954,1.056q-.051,6.08,0,12.16c0,.681-.17.817-.817.817q-8.073-.051-16.145,0c-.579,0-.783-.034-.579-.749a5.987,5.987,0,0,0-5.961-7.868c-.477,0-.954.034-1.4,0a2.572,2.572,0,1,1,.034-5.143h0c1.873-.034,3.747,0,5.586-.034,1.26,0,2.01-.647,2.01-1.7s-.749-1.7-2.01-1.737c-.783,0-1.567-.068-2.35,0-.715.068-.886-.2-.817-.852a5.827,5.827,0,0,0,0-1.09,1.685,1.685,0,0,0-1.737-1.533,1.531,1.531,0,0,0-1.669,1.567c.136,1.362-.307,1.976-1.669,2.486a5.739,5.739,0,0,0-3.372,6.608,5.9,5.9,0,0,0,5.859,4.837H139.1c1.942,0,3.2.988,3.2,2.555s-1.26,2.589-3.27,2.623H127.523c-3.951,0-7.9-.034-11.853.034-.749,0-.954-.17-.954-.92.068-3.985.068-8.039.034-12.058Zm-3,16.452H165.6a5.387,5.387,0,0,1,1.056.034,1.682,1.682,0,0,1,1.465,1.635,1.647,1.647,0,0,1-1.465,1.737,3.662,3.662,0,0,1-1.056.034H111.718c-1.294-.034-2.146-.749-2.112-1.771s.886-1.669,2.146-1.669Zm71.972,49.015v12.5c0,2.589-1.4,3.985-3.985,3.985H98.3c-2.9,0-4.224-1.294-4.224-4.19V105.265c0-2.793,1.362-4.121,4.156-4.121,4.053,0,8.107.034,12.16,0,.749,0,.954.2.92.954-.034,2.827-.034,5.688,0,8.515,0,.613-.034.886-.817.988a5.166,5.166,0,0,0,.817,10.253h55.043a5.168,5.168,0,0,0,.783-10.287c-.613-.1-.749-.238-.715-.817.034-2.963.034-5.893,0-8.822,0-.647.2-.749.783-.749,4.258.034,8.549,0,12.807.034,2.282,0,3.645,1.533,3.645,3.985Q183.758,134.524,183.724,163.953Zm-24.865-15.5c-4.36-5.995-8.686-12.024-13.114-17.984a8.454,8.454,0,0,0-10.627-2.623c-2.01.954-3.2,2.725-4.428,4.428q-10.627,14.663-21.288,29.293a8.56,8.56,0,0,0,7.017,13.659h45.063a5.56,5.56,0,0,0,1.5-.1,8.565,8.565,0,0,0,5.348-13.659Q163.628,154.978,158.859,148.455Zm7.221,20.607a5.035,5.035,0,0,1-4.939,2.759H116.521a5.082,5.082,0,0,1-5.416-4.36,5.294,5.294,0,0,1,1.226-4.087q10.474-14.408,20.948-28.782c.477-.647.92-1.294,1.4-1.907a4.949,4.949,0,0,1,8.277,0q7.766,10.576,15.464,21.186c2.316,3.2,4.6,6.4,6.949,9.571a4.846,4.846,0,0,1,.715,5.62Zm-22.038-30.178a5.164,5.164,0,0,0-10.321,0q-.051,7,0,14a5.177,5.177,0,1,0,10.355,0v-7.017c0-2.35,0-4.632-.034-6.983ZM140.6,146v6.233c0,1.431-.647,2.282-1.7,2.316s-1.737-.852-1.737-2.248V139.7c0-1.431.647-2.282,1.7-2.316s1.737.852,1.737,2.35Zm-1.737,13.761a5.177,5.177,0,1,0,5.177,5.211,5.175,5.175,0,0,0-5.177-5.211Zm0,6.88a1.786,1.786,0,0,1-1.669-1.771,1.688,1.688,0,0,1,3.372.17A1.689,1.689,0,0,1,138.865,166.644Zm0-6.88a5.177,5.177,0,1,0,5.177,5.211,5.175,5.175,0,0,0-5.177-5.211Zm0,6.88a1.786,1.786,0,0,1-1.669-1.771,1.688,1.688,0,0,1,3.372.17A1.689,1.689,0,0,1,138.865,166.644Zm5.177-27.726a5.164,5.164,0,0,0-10.321,0q-.051,7,0,14a5.177,5.177,0,1,0,10.355,0h0V145.9c0-2.35,0-4.666-.034-6.983ZM140.6,146v6.233c0,1.431-.647,2.282-1.7,2.316s-1.737-.852-1.737-2.248V139.7c0-1.431.647-2.282,1.7-2.316s1.737.852,1.737,2.35Zm3.44-7.085a5.164,5.164,0,0,0-10.321,0q-.051,7,0,14a5.177,5.177,0,1,0,10.355,0h0V145.9c0-2.35,0-4.666-.034-6.983ZM140.6,146v6.233c0,1.431-.647,2.282-1.7,2.316s-1.737-.852-1.737-2.248V139.7c0-1.431.647-2.282,1.7-2.316s1.737.852,1.737,2.35Zm-1.737,13.761a5.177,5.177,0,1,0,5.177,5.211,5.175,5.175,0,0,0-5.177-5.211Zm0,6.88a1.786,1.786,0,0,1-1.669-1.771,1.688,1.688,0,0,1,3.372.17A1.689,1.689,0,0,1,138.865,166.644Zm29.463-5.109c-3.134-4.394-6.3-8.72-9.469-13.08-4.36-5.995-8.686-12.024-13.114-17.984a8.454,8.454,0,0,0-10.627-2.623c-2.01.954-3.2,2.725-4.428,4.428q-10.627,14.663-21.288,29.293a8.56,8.56,0,0,0,7.017,13.659h45.063a5.56,5.56,0,0,0,1.5-.1,8.474,8.474,0,0,0,5.348-13.591Zm-2.248,7.528a5.035,5.035,0,0,1-4.939,2.759H116.521a5.082,5.082,0,0,1-5.416-4.36,5.294,5.294,0,0,1,1.226-4.087q10.474-14.408,20.948-28.782c.477-.647.92-1.294,1.4-1.907a4.949,4.949,0,0,1,8.277,0q7.766,10.576,15.464,21.186c2.316,3.2,4.6,6.4,6.949,9.571a4.846,4.846,0,0,1,.715,5.62Zm-22.038-30.144a5.164,5.164,0,0,0-10.321,0q-.051,7,0,14a5.177,5.177,0,1,0,10.355,0h0V145.9c0-2.35,0-4.666-.034-6.983ZM140.6,146v6.233c0,1.431-.647,2.282-1.7,2.316s-1.737-.852-1.737-2.248V139.7c0-1.431.647-2.282,1.7-2.316s1.737.852,1.737,2.35Zm-1.737,13.761a5.177,5.177,0,1,0,5.177,5.211,5.175,5.175,0,0,0-5.177-5.211Zm0,6.88a1.786,1.786,0,0,1-1.669-1.771,1.688,1.688,0,0,1,3.372.17A1.689,1.689,0,0,1,138.865,166.644Zm0-6.88a5.177,5.177,0,1,0,5.177,5.211,5.175,5.175,0,0,0-5.177-5.211Zm0,6.88a1.786,1.786,0,0,1-1.669-1.771,1.688,1.688,0,0,1,3.372.17A1.689,1.689,0,0,1,138.865,166.644Zm5.177-27.726a5.164,5.164,0,0,0-10.321,0q-.051,7,0,14a5.177,5.177,0,1,0,10.355,0h0V145.9c0-2.35,0-4.666-.034-6.983ZM140.6,146v6.233c0,1.431-.647,2.282-1.7,2.316s-1.737-.852-1.737-2.248V139.7c0-1.431.647-2.282,1.7-2.316s1.737.852,1.737,2.35Zm3.44-7.085a5.164,5.164,0,0,0-10.321,0q-.051,7,0,14a5.177,5.177,0,1,0,10.355,0h0V145.9c0-2.35,0-4.666-.034-6.983ZM140.6,146v6.233c0,1.431-.647,2.282-1.7,2.316s-1.737-.852-1.737-2.248V139.7c0-1.431.647-2.282,1.7-2.316s1.737.852,1.737,2.35Zm-1.737,13.761a5.177,5.177,0,1,0,5.177,5.211,5.175,5.175,0,0,0-5.177-5.211Zm0,6.88a1.786,1.786,0,0,1-1.669-1.771,1.688,1.688,0,0,1,3.372.17A1.689,1.689,0,0,1,138.865,166.644Zm29.463-5.109c-3.134-4.394-6.3-8.72-9.469-13.08-4.36-5.995-8.686-12.024-13.114-17.984a8.454,8.454,0,0,0-10.627-2.623c-2.01.954-3.2,2.725-4.428,4.428q-10.627,14.663-21.288,29.293a8.56,8.56,0,0,0,7.017,13.659h45.063a5.56,5.56,0,0,0,1.5-.1,8.474,8.474,0,0,0,5.348-13.591Zm-2.248,7.528a5.035,5.035,0,0,1-4.939,2.759H116.521a5.082,5.082,0,0,1-5.416-4.36,5.294,5.294,0,0,1,1.226-4.087q10.474-14.408,20.948-28.782c.477-.647.92-1.294,1.4-1.907a4.949,4.949,0,0,1,8.277,0q7.766,10.576,15.464,21.186c2.316,3.2,4.6,6.4,6.949,9.571a4.846,4.846,0,0,1,.715,5.62Zm-22.038-30.144a5.164,5.164,0,0,0-10.321,0q-.051,7,0,14a5.177,5.177,0,1,0,10.355,0h0V145.9c0-2.35,0-4.666-.034-6.983ZM140.6,146v6.233c0,1.431-.647,2.282-1.7,2.316s-1.737-.852-1.737-2.248V139.7c0-1.431.647-2.282,1.7-2.316s1.737.852,1.737,2.35Zm-1.737,13.761a5.177,5.177,0,1,0,5.177,5.211,5.175,5.175,0,0,0-5.177-5.211Zm0,6.88a1.786,1.786,0,0,1-1.669-1.771,1.688,1.688,0,0,1,3.372.17A1.689,1.689,0,0,1,138.865,166.644Zm0-6.88a5.177,5.177,0,1,0,5.177,5.211,5.175,5.175,0,0,0-5.177-5.211Zm0,6.88a1.786,1.786,0,0,1-1.669-1.771,1.688,1.688,0,0,1,3.372.17A1.689,1.689,0,0,1,138.865,166.644Zm5.177-27.726a5.164,5.164,0,0,0-10.321,0q-.051,7,0,14a5.177,5.177,0,1,0,10.355,0h0V145.9c0-2.35,0-4.666-.034-6.983ZM140.6,146v6.233c0,1.431-.647,2.282-1.7,2.316s-1.737-.852-1.737-2.248V139.7c0-1.431.647-2.282,1.7-2.316s1.737.852,1.737,2.35Zm3.44-7.085a5.164,5.164,0,0,0-10.321,0q-.051,7,0,14a5.177,5.177,0,1,0,10.355,0h0V145.9c0-2.35,0-4.666-.034-6.983ZM140.6,146v6.233c0,1.431-.647,2.282-1.7,2.316s-1.737-.852-1.737-2.248V139.7c0-1.431.647-2.282,1.7-2.316s1.737.852,1.737,2.35Zm-1.737,13.761a5.177,5.177,0,1,0,5.177,5.211,5.175,5.175,0,0,0-5.177-5.211Zm0,6.88a1.786,1.786,0,0,1-1.669-1.771,1.688,1.688,0,0,1,3.372.17A1.689,1.689,0,0,1,138.865,166.644Zm0-6.88a5.177,5.177,0,1,0,5.177,5.211,5.175,5.175,0,0,0-5.177-5.211Zm0,6.88a1.786,1.786,0,0,1-1.669-1.771,1.688,1.688,0,0,1,3.372.17A1.689,1.689,0,0,1,138.865,166.644Zm5.177-27.726a5.164,5.164,0,0,0-10.321,0q-.051,7,0,14a5.177,5.177,0,1,0,10.355,0h0V145.9c0-2.35,0-4.666-.034-6.983ZM140.6,146v6.233c0,1.431-.647,2.282-1.7,2.316s-1.737-.852-1.737-2.248V139.7c0-1.431.647-2.282,1.7-2.316s1.737.852,1.737,2.35Zm3.44-7.085a5.164,5.164,0,0,0-10.321,0q-.051,7,0,14a5.177,5.177,0,1,0,10.355,0h0V145.9c0-2.35,0-4.666-.034-6.983ZM140.6,146v6.233c0,1.431-.647,2.282-1.7,2.316s-1.737-.852-1.737-2.248V139.7c0-1.431.647-2.282,1.7-2.316s1.737.852,1.737,2.35Zm-1.737,13.761a5.177,5.177,0,1,0,5.177,5.211,5.175,5.175,0,0,0-5.177-5.211Zm0,6.88a1.786,1.786,0,0,1-1.669-1.771,1.688,1.688,0,0,1,3.372.17A1.689,1.689,0,0,1,138.865,166.644Zm29.463-5.109c-3.134-4.394-6.3-8.72-9.469-13.08-4.36-5.995-8.686-12.024-13.114-17.984a8.454,8.454,0,0,0-10.627-2.623c-2.01.954-3.2,2.725-4.428,4.428q-10.627,14.663-21.288,29.293a8.56,8.56,0,0,0,7.017,13.659h45.063a5.56,5.56,0,0,0,1.5-.1,8.474,8.474,0,0,0,5.348-13.591Zm-2.248,7.528a5.035,5.035,0,0,1-4.939,2.759H116.521a5.082,5.082,0,0,1-5.416-4.36,5.294,5.294,0,0,1,1.226-4.087q10.474-14.408,20.948-28.782c.477-.647.92-1.294,1.4-1.907a4.949,4.949,0,0,1,8.277,0q7.766,10.576,15.464,21.186c2.316,3.2,4.6,6.4,6.949,9.571a4.846,4.846,0,0,1,.715,5.62Zm-22.038-30.144a5.164,5.164,0,0,0-10.321,0q-.051,7,0,14a5.177,5.177,0,1,0,10.355,0h0V145.9c0-2.35,0-4.666-.034-6.983ZM140.6,146v6.233c0,1.431-.647,2.282-1.7,2.316s-1.737-.852-1.737-2.248V139.7c0-1.431.647-2.282,1.7-2.316s1.737.852,1.737,2.35Zm-1.737,13.761a5.177,5.177,0,1,0,5.177,5.211,5.175,5.175,0,0,0-5.177-5.211Zm0,6.88a1.786,1.786,0,0,1-1.669-1.771,1.688,1.688,0,0,1,3.372.17A1.689,1.689,0,0,1,138.865,166.644Zm0-6.88a5.177,5.177,0,1,0,5.177,5.211,5.175,5.175,0,0,0-5.177-5.211Zm0,6.88a1.786,1.786,0,0,1-1.669-1.771,1.688,1.688,0,0,1,3.372.17A1.689,1.689,0,0,1,138.865,166.644Zm5.177-27.726a5.164,5.164,0,0,0-10.321,0q-.051,7,0,14a5.177,5.177,0,1,0,10.355,0h0V145.9c0-2.35,0-4.666-.034-6.983ZM140.6,146v6.233c0,1.431-.647,2.282-1.7,2.316s-1.737-.852-1.737-2.248V139.7c0-1.431.647-2.282,1.7-2.316s1.737.852,1.737,2.35Zm3.44-7.085a5.164,5.164,0,0,0-10.321,0q-.051,7,0,14a5.177,5.177,0,1,0,10.355,0h0V145.9c0-2.35,0-4.666-.034-6.983ZM140.6,146v6.233c0,1.431-.647,2.282-1.7,2.316s-1.737-.852-1.737-2.248V139.7c0-1.431.647-2.282,1.7-2.316s1.737.852,1.737,2.35Zm-1.737,13.761a5.177,5.177,0,1,0,5.177,5.211,5.175,5.175,0,0,0-5.177-5.211Zm0,6.88a1.786,1.786,0,0,1-1.669-1.771,1.688,1.688,0,0,1,3.372.17A1.689,1.689,0,0,1,138.865,166.644Zm0-6.88a5.177,5.177,0,1,0,5.177,5.211,5.175,5.175,0,0,0-5.177-5.211Zm0,6.88a1.786,1.786,0,0,1-1.669-1.771,1.688,1.688,0,0,1,3.372.17A1.689,1.689,0,0,1,138.865,166.644Zm5.177-27.726a5.164,5.164,0,0,0-10.321,0q-.051,7,0,14a5.177,5.177,0,1,0,10.355,0h0V145.9c0-2.35,0-4.666-.034-6.983ZM140.6,146v6.233c0,1.431-.647,2.282-1.7,2.316s-1.737-.852-1.737-2.248V139.7c0-1.431.647-2.282,1.7-2.316s1.737.852,1.737,2.35Zm3.44-7.085a5.164,5.164,0,0,0-10.321,0q-.051,7,0,14a5.177,5.177,0,1,0,10.355,0h0V145.9c0-2.35,0-4.666-.034-6.983ZM140.6,146v6.233c0,1.431-.647,2.282-1.7,2.316s-1.737-.852-1.737-2.248V139.7c0-1.431.647-2.282,1.7-2.316s1.737.852,1.737,2.35Zm-1.737,13.761a5.177,5.177,0,1,0,5.177,5.211,5.175,5.175,0,0,0-5.177-5.211Zm0,6.88a1.786,1.786,0,0,1-1.669-1.771,1.688,1.688,0,0,1,3.372.17A1.689,1.689,0,0,1,138.865,166.644Zm29.463-5.109c-3.134-4.394-6.3-8.72-9.469-13.08-4.36-5.995-8.686-12.024-13.114-17.984a8.454,8.454,0,0,0-10.627-2.623c-2.01.954-3.2,2.725-4.428,4.428q-10.627,14.663-21.288,29.293a8.56,8.56,0,0,0,7.017,13.659h45.063a5.56,5.56,0,0,0,1.5-.1,8.474,8.474,0,0,0,5.348-13.591Zm-2.248,7.528a5.035,5.035,0,0,1-4.939,2.759H116.521a5.082,5.082,0,0,1-5.416-4.36,5.294,5.294,0,0,1,1.226-4.087q10.474-14.408,20.948-28.782c.477-.647.92-1.294,1.4-1.907a4.949,4.949,0,0,1,8.277,0q7.766,10.576,15.464,21.186c2.316,3.2,4.6,6.4,6.949,9.571a4.846,4.846,0,0,1,.715,5.62Zm-22.038-30.144a5.164,5.164,0,0,0-10.321,0q-.051,7,0,14a5.177,5.177,0,1,0,10.355,0h0V145.9c0-2.35,0-4.666-.034-6.983ZM140.6,146v6.233c0,1.431-.647,2.282-1.7,2.316s-1.737-.852-1.737-2.248V139.7c0-1.431.647-2.282,1.7-2.316s1.737.852,1.737,2.35Zm-1.737,13.761a5.177,5.177,0,1,0,5.177,5.211,5.175,5.175,0,0,0-5.177-5.211Zm0,6.88a1.786,1.786,0,0,1-1.669-1.771,1.688,1.688,0,0,1,3.372.17A1.689,1.689,0,0,1,138.865,166.644Zm0-6.88a5.177,5.177,0,1,0,5.177,5.211,5.175,5.175,0,0,0-5.177-5.211Zm0,6.88a1.786,1.786,0,0,1-1.669-1.771,1.688,1.688,0,0,1,3.372.17A1.689,1.689,0,0,1,138.865,166.644Zm5.177-27.726a5.164,5.164,0,0,0-10.321,0q-.051,7,0,14a5.177,5.177,0,1,0,10.355,0h0V145.9c0-2.35,0-4.666-.034-6.983ZM140.6,146v6.233c0,1.431-.647,2.282-1.7,2.316s-1.737-.852-1.737-2.248V139.7c0-1.431.647-2.282,1.7-2.316s1.737.852,1.737,2.35Zm3.44-7.085a5.164,5.164,0,0,0-10.321,0q-.051,7,0,14a5.177,5.177,0,1,0,10.355,0h0V145.9c0-2.35,0-4.666-.034-6.983ZM140.6,146v6.233c0,1.431-.647,2.282-1.7,2.316s-1.737-.852-1.737-2.248V139.7c0-1.431.647-2.282,1.7-2.316s1.737.852,1.737,2.35Zm-1.737,13.761a5.177,5.177,0,1,0,5.177,5.211,5.175,5.175,0,0,0-5.177-5.211Zm0,6.88a1.786,1.786,0,0,1-1.669-1.771,1.688,1.688,0,0,1,3.372.17A1.689,1.689,0,0,1,138.865,166.644Z" transform="translate(-59.6 -53.332)" fill="#0091de"/>
  <path id="Path_4043" data-name="Path 4043" d="M138.865,159.763a5.177,5.177,0,1,0,5.177,5.211A5.175,5.175,0,0,0,138.865,159.763Zm0,6.88a1.786,1.786,0,0,1-1.669-1.771,1.688,1.688,0,0,1,3.372.17A1.689,1.689,0,0,1,138.865,166.644Zm5.177-27.76a5.164,5.164,0,0,0-10.321,0q-.051,7,0,14a5.177,5.177,0,1,0,10.355,0v-7.017c0-2.35,0-4.632-.034-6.983ZM140.6,146v6.233c0,1.431-.647,2.282-1.7,2.316s-1.737-.852-1.737-2.248V139.7c0-1.431.647-2.282,1.7-2.316s1.737.852,1.737,2.35Zm3.44-7.085a5.164,5.164,0,0,0-10.321,0q-.051,7,0,14a5.177,5.177,0,1,0,10.355,0h0V145.9c0-2.35,0-4.666-.034-6.983ZM140.6,146v6.233c0,1.431-.647,2.282-1.7,2.316s-1.737-.852-1.737-2.248V139.7c0-1.431.647-2.282,1.7-2.316s1.737.852,1.737,2.35Zm-1.737,13.761a5.177,5.177,0,1,0,5.177,5.211,5.175,5.175,0,0,0-5.177-5.211Zm0,6.88a1.786,1.786,0,0,1-1.669-1.771,1.688,1.688,0,0,1,3.372.17A1.689,1.689,0,0,1,138.865,166.644Zm29.463-5.109c-3.134-4.394-6.3-8.72-9.469-13.08-4.36-5.995-8.686-12.024-13.114-17.984a8.454,8.454,0,0,0-10.627-2.623c-2.01.954-3.2,2.725-4.428,4.428q-10.627,14.663-21.288,29.293a8.56,8.56,0,0,0,7.017,13.659h45.063a5.56,5.56,0,0,0,1.5-.1,8.474,8.474,0,0,0,5.348-13.591Zm-2.248,7.528a5.035,5.035,0,0,1-4.939,2.759H116.521a5.082,5.082,0,0,1-5.416-4.36,5.294,5.294,0,0,1,1.226-4.087q10.474-14.408,20.948-28.782c.477-.647.92-1.294,1.4-1.907a4.949,4.949,0,0,1,8.277,0q7.766,10.576,15.464,21.186c2.316,3.2,4.6,6.4,6.949,9.571a4.846,4.846,0,0,1,.715,5.62Zm-22.038-30.144a5.164,5.164,0,0,0-10.321,0q-.051,7,0,14a5.177,5.177,0,1,0,10.355,0h0V145.9c0-2.35,0-4.666-.034-6.983ZM140.6,146v6.233c0,1.431-.647,2.282-1.7,2.316s-1.737-.852-1.737-2.248V139.7c0-1.431.647-2.282,1.7-2.316s1.737.852,1.737,2.35Zm-1.737,13.761a5.177,5.177,0,1,0,5.177,5.211,5.175,5.175,0,0,0-5.177-5.211Zm0,6.88a1.786,1.786,0,0,1-1.669-1.771,1.688,1.688,0,0,1,3.372.17A1.689,1.689,0,0,1,138.865,166.644Zm0-6.88a5.177,5.177,0,1,0,5.177,5.211,5.175,5.175,0,0,0-5.177-5.211Zm0,6.88a1.786,1.786,0,0,1-1.669-1.771,1.688,1.688,0,0,1,3.372.17A1.689,1.689,0,0,1,138.865,166.644Zm5.177-27.726a5.164,5.164,0,0,0-10.321,0q-.051,7,0,14a5.177,5.177,0,1,0,10.355,0h0V145.9c0-2.35,0-4.666-.034-6.983ZM140.6,146v6.233c0,1.431-.647,2.282-1.7,2.316s-1.737-.852-1.737-2.248V139.7c0-1.431.647-2.282,1.7-2.316s1.737.852,1.737,2.35Zm3.44-7.085a5.164,5.164,0,0,0-10.321,0q-.051,7,0,14a5.177,5.177,0,1,0,10.355,0h0V145.9c0-2.35,0-4.666-.034-6.983ZM140.6,146v6.233c0,1.431-.647,2.282-1.7,2.316s-1.737-.852-1.737-2.248V139.7c0-1.431.647-2.282,1.7-2.316s1.737.852,1.737,2.35Zm-1.737,13.761a5.177,5.177,0,1,0,5.177,5.211,5.175,5.175,0,0,0-5.177-5.211Zm0,6.88a1.786,1.786,0,0,1-1.669-1.771,1.688,1.688,0,0,1,3.372.17A1.689,1.689,0,0,1,138.865,166.644Zm0-6.88a5.177,5.177,0,1,0,5.177,5.211,5.175,5.175,0,0,0-5.177-5.211Zm0,6.88a1.786,1.786,0,0,1-1.669-1.771,1.688,1.688,0,0,1,3.372.17A1.689,1.689,0,0,1,138.865,166.644Zm5.177-27.726a5.164,5.164,0,0,0-10.321,0q-.051,7,0,14a5.177,5.177,0,1,0,10.355,0h0V145.9c0-2.35,0-4.666-.034-6.983ZM140.6,146v6.233c0,1.431-.647,2.282-1.7,2.316s-1.737-.852-1.737-2.248V139.7c0-1.431.647-2.282,1.7-2.316s1.737.852,1.737,2.35Zm3.44-7.085a5.164,5.164,0,0,0-10.321,0q-.051,7,0,14a5.177,5.177,0,1,0,10.355,0h0V145.9c0-2.35,0-4.666-.034-6.983ZM140.6,146v6.233c0,1.431-.647,2.282-1.7,2.316s-1.737-.852-1.737-2.248V139.7c0-1.431.647-2.282,1.7-2.316s1.737.852,1.737,2.35Zm-1.737,13.761a5.177,5.177,0,1,0,5.177,5.211,5.175,5.175,0,0,0-5.177-5.211Zm0,6.88a1.786,1.786,0,0,1-1.669-1.771,1.688,1.688,0,0,1,3.372.17A1.689,1.689,0,0,1,138.865,166.644Zm29.463-5.109c-3.134-4.394-6.3-8.72-9.469-13.08-4.36-5.995-8.686-12.024-13.114-17.984a8.454,8.454,0,0,0-10.627-2.623c-2.01.954-3.2,2.725-4.428,4.428q-10.627,14.663-21.288,29.293a8.56,8.56,0,0,0,7.017,13.659h45.063a5.56,5.56,0,0,0,1.5-.1,8.474,8.474,0,0,0,5.348-13.591Zm-2.248,7.528a5.035,5.035,0,0,1-4.939,2.759H116.521a5.082,5.082,0,0,1-5.416-4.36,5.294,5.294,0,0,1,1.226-4.087q10.474-14.408,20.948-28.782c.477-.647.92-1.294,1.4-1.907a4.949,4.949,0,0,1,8.277,0q7.766,10.576,15.464,21.186c2.316,3.2,4.6,6.4,6.949,9.571a4.846,4.846,0,0,1,.715,5.62Zm-22.038-30.144a5.164,5.164,0,0,0-10.321,0q-.051,7,0,14a5.177,5.177,0,1,0,10.355,0h0V145.9c0-2.35,0-4.666-.034-6.983ZM140.6,146v6.233c0,1.431-.647,2.282-1.7,2.316s-1.737-.852-1.737-2.248V139.7c0-1.431.647-2.282,1.7-2.316s1.737.852,1.737,2.35Zm-1.737,13.761a5.177,5.177,0,1,0,5.177,5.211,5.175,5.175,0,0,0-5.177-5.211Zm0,6.88a1.786,1.786,0,0,1-1.669-1.771,1.688,1.688,0,0,1,3.372.17A1.689,1.689,0,0,1,138.865,166.644Zm0-6.88a5.177,5.177,0,1,0,5.177,5.211,5.175,5.175,0,0,0-5.177-5.211Zm0,6.88a1.786,1.786,0,0,1-1.669-1.771,1.688,1.688,0,0,1,3.372.17A1.689,1.689,0,0,1,138.865,166.644Zm5.177-27.726a5.164,5.164,0,0,0-10.321,0q-.051,7,0,14a5.177,5.177,0,1,0,10.355,0h0V145.9c0-2.35,0-4.666-.034-6.983ZM140.6,146v6.233c0,1.431-.647,2.282-1.7,2.316s-1.737-.852-1.737-2.248V139.7c0-1.431.647-2.282,1.7-2.316s1.737.852,1.737,2.35Zm3.44-7.085a5.164,5.164,0,0,0-10.321,0q-.051,7,0,14a5.177,5.177,0,1,0,10.355,0h0V145.9c0-2.35,0-4.666-.034-6.983ZM140.6,146v6.233c0,1.431-.647,2.282-1.7,2.316s-1.737-.852-1.737-2.248V139.7c0-1.431.647-2.282,1.7-2.316s1.737.852,1.737,2.35Zm-1.737,13.761a5.177,5.177,0,1,0,5.177,5.211,5.175,5.175,0,0,0-5.177-5.211Zm0,6.88a1.786,1.786,0,0,1-1.669-1.771,1.688,1.688,0,0,1,3.372.17A1.689,1.689,0,0,1,138.865,166.644Zm0-6.88a5.177,5.177,0,1,0,5.177,5.211,5.175,5.175,0,0,0-5.177-5.211Zm0,6.88a1.786,1.786,0,0,1-1.669-1.771,1.688,1.688,0,0,1,3.372.17A1.689,1.689,0,0,1,138.865,166.644Zm5.177-27.726a5.164,5.164,0,0,0-10.321,0q-.051,7,0,14a5.177,5.177,0,1,0,10.355,0h0V145.9c0-2.35,0-4.666-.034-6.983ZM140.6,146v6.233c0,1.431-.647,2.282-1.7,2.316s-1.737-.852-1.737-2.248V139.7c0-1.431.647-2.282,1.7-2.316s1.737.852,1.737,2.35Zm3.44-7.085a5.164,5.164,0,0,0-10.321,0q-.051,7,0,14a5.177,5.177,0,1,0,10.355,0h0V145.9c0-2.35,0-4.666-.034-6.983ZM140.6,146v6.233c0,1.431-.647,2.282-1.7,2.316s-1.737-.852-1.737-2.248V139.7c0-1.431.647-2.282,1.7-2.316s1.737.852,1.737,2.35Zm-1.737,13.761a5.177,5.177,0,1,0,5.177,5.211,5.175,5.175,0,0,0-5.177-5.211Zm0,6.88a1.786,1.786,0,0,1-1.669-1.771,1.688,1.688,0,0,1,3.372.17A1.689,1.689,0,0,1,138.865,166.644Zm29.463-5.109c-3.134-4.394-6.3-8.72-9.469-13.08-4.36-5.995-8.686-12.024-13.114-17.984a8.454,8.454,0,0,0-10.627-2.623c-2.01.954-3.2,2.725-4.428,4.428q-10.627,14.663-21.288,29.293a8.56,8.56,0,0,0,7.017,13.659h45.063a5.56,5.56,0,0,0,1.5-.1,8.474,8.474,0,0,0,5.348-13.591Zm-2.248,7.528a5.035,5.035,0,0,1-4.939,2.759H116.521a5.082,5.082,0,0,1-5.416-4.36,5.294,5.294,0,0,1,1.226-4.087q10.474-14.408,20.948-28.782c.477-.647.92-1.294,1.4-1.907a4.949,4.949,0,0,1,8.277,0q7.766,10.576,15.464,21.186c2.316,3.2,4.6,6.4,6.949,9.571a4.846,4.846,0,0,1,.715,5.62Zm-22.038-30.144a5.164,5.164,0,0,0-10.321,0q-.051,7,0,14a5.177,5.177,0,1,0,10.355,0h0V145.9c0-2.35,0-4.666-.034-6.983ZM140.6,146v6.233c0,1.431-.647,2.282-1.7,2.316s-1.737-.852-1.737-2.248V139.7c0-1.431.647-2.282,1.7-2.316s1.737.852,1.737,2.35Zm-1.737,13.761a5.177,5.177,0,1,0,5.177,5.211,5.175,5.175,0,0,0-5.177-5.211Zm0,6.88a1.786,1.786,0,0,1-1.669-1.771,1.688,1.688,0,0,1,3.372.17A1.689,1.689,0,0,1,138.865,166.644Zm0-6.88a5.177,5.177,0,1,0,5.177,5.211,5.175,5.175,0,0,0-5.177-5.211Zm0,6.88a1.786,1.786,0,0,1-1.669-1.771,1.688,1.688,0,0,1,3.372.17A1.689,1.689,0,0,1,138.865,166.644Zm5.177-27.726a5.164,5.164,0,0,0-10.321,0q-.051,7,0,14a5.177,5.177,0,1,0,10.355,0h0V145.9c0-2.35,0-4.666-.034-6.983ZM140.6,146v6.233c0,1.431-.647,2.282-1.7,2.316s-1.737-.852-1.737-2.248V139.7c0-1.431.647-2.282,1.7-2.316s1.737.852,1.737,2.35Zm3.44-7.085a5.164,5.164,0,0,0-10.321,0q-.051,7,0,14a5.177,5.177,0,1,0,10.355,0h0V145.9c0-2.35,0-4.666-.034-6.983ZM140.6,146v6.233c0,1.431-.647,2.282-1.7,2.316s-1.737-.852-1.737-2.248V139.7c0-1.431.647-2.282,1.7-2.316s1.737.852,1.737,2.35Zm-1.737,13.761a5.177,5.177,0,1,0,5.177,5.211,5.175,5.175,0,0,0-5.177-5.211Zm0,6.88a1.786,1.786,0,0,1-1.669-1.771,1.688,1.688,0,0,1,3.372.17A1.689,1.689,0,0,1,138.865,166.644Zm0-6.88a5.177,5.177,0,1,0,5.177,5.211,5.175,5.175,0,0,0-5.177-5.211Zm0,6.88a1.786,1.786,0,0,1-1.669-1.771,1.688,1.688,0,0,1,3.372.17A1.689,1.689,0,0,1,138.865,166.644Zm5.177-27.726a5.164,5.164,0,0,0-10.321,0q-.051,7,0,14a5.177,5.177,0,1,0,10.355,0h0V145.9c0-2.35,0-4.666-.034-6.983ZM140.6,146v6.233c0,1.431-.647,2.282-1.7,2.316s-1.737-.852-1.737-2.248V139.7c0-1.431.647-2.282,1.7-2.316s1.737.852,1.737,2.35Zm3.44-7.085a5.164,5.164,0,0,0-10.321,0q-.051,7,0,14a5.177,5.177,0,1,0,10.355,0h0V145.9c0-2.35,0-4.666-.034-6.983ZM140.6,146v6.233c0,1.431-.647,2.282-1.7,2.316s-1.737-.852-1.737-2.248V139.7c0-1.431.647-2.282,1.7-2.316s1.737.852,1.737,2.35Zm-1.737,13.761a5.177,5.177,0,1,0,5.177,5.211,5.175,5.175,0,0,0-5.177-5.211Zm0,6.88a1.786,1.786,0,0,1-1.669-1.771,1.688,1.688,0,0,1,3.372.17A1.689,1.689,0,0,1,138.865,166.644Zm29.463-5.109c-3.134-4.394-6.3-8.72-9.469-13.08-4.36-5.995-8.686-12.024-13.114-17.984a8.454,8.454,0,0,0-10.627-2.623c-2.01.954-3.2,2.725-4.428,4.428q-10.627,14.663-21.288,29.293a8.56,8.56,0,0,0,7.017,13.659h45.063a5.56,5.56,0,0,0,1.5-.1,8.474,8.474,0,0,0,5.348-13.591Zm-2.248,7.528a5.035,5.035,0,0,1-4.939,2.759H116.521a5.082,5.082,0,0,1-5.416-4.36,5.294,5.294,0,0,1,1.226-4.087q10.474-14.408,20.948-28.782c.477-.647.92-1.294,1.4-1.907a4.949,4.949,0,0,1,8.277,0q7.766,10.576,15.464,21.186c2.316,3.2,4.6,6.4,6.949,9.571a4.846,4.846,0,0,1,.715,5.62Zm-22.038-30.144a5.164,5.164,0,0,0-10.321,0q-.051,7,0,14a5.177,5.177,0,1,0,10.355,0h0V145.9c0-2.35,0-4.666-.034-6.983ZM140.6,146v6.233c0,1.431-.647,2.282-1.7,2.316s-1.737-.852-1.737-2.248V139.7c0-1.431.647-2.282,1.7-2.316s1.737.852,1.737,2.35Zm-1.737,13.761a5.177,5.177,0,1,0,5.177,5.211,5.175,5.175,0,0,0-5.177-5.211Zm0,6.88a1.786,1.786,0,0,1-1.669-1.771,1.688,1.688,0,0,1,3.372.17A1.689,1.689,0,0,1,138.865,166.644Zm0-6.88a5.177,5.177,0,1,0,5.177,5.211,5.175,5.175,0,0,0-5.177-5.211Zm0,6.88a1.786,1.786,0,0,1-1.669-1.771,1.688,1.688,0,0,1,3.372.17A1.689,1.689,0,0,1,138.865,166.644Zm5.177-27.726a5.164,5.164,0,0,0-10.321,0q-.051,7,0,14a5.177,5.177,0,1,0,10.355,0h0V145.9c0-2.35,0-4.666-.034-6.983ZM140.6,146v6.233c0,1.431-.647,2.282-1.7,2.316s-1.737-.852-1.737-2.248V139.7c0-1.431.647-2.282,1.7-2.316s1.737.852,1.737,2.35Zm3.44-7.085a5.164,5.164,0,0,0-10.321,0q-.051,7,0,14a5.177,5.177,0,1,0,10.355,0h0V145.9c0-2.35,0-4.666-.034-6.983ZM140.6,146v6.233c0,1.431-.647,2.282-1.7,2.316s-1.737-.852-1.737-2.248V139.7c0-1.431.647-2.282,1.7-2.316s1.737.852,1.737,2.35Zm-1.737,13.761a5.177,5.177,0,1,0,5.177,5.211,5.175,5.175,0,0,0-5.177-5.211Zm0,6.88a1.786,1.786,0,0,1-1.669-1.771,1.688,1.688,0,0,1,3.372.17A1.689,1.689,0,0,1,138.865,166.644Zm0-6.88a5.177,5.177,0,1,0,5.177,5.211,5.175,5.175,0,0,0-5.177-5.211Zm0,6.88a1.786,1.786,0,0,1-1.669-1.771,1.688,1.688,0,0,1,3.372.17A1.689,1.689,0,0,1,138.865,166.644Zm5.177-27.726a5.164,5.164,0,0,0-10.321,0q-.051,7,0,14a5.177,5.177,0,1,0,10.355,0h0V145.9c0-2.35,0-4.666-.034-6.983ZM140.6,146v6.233c0,1.431-.647,2.282-1.7,2.316s-1.737-.852-1.737-2.248V139.7c0-1.431.647-2.282,1.7-2.316s1.737.852,1.737,2.35Zm3.44-7.085a5.164,5.164,0,0,0-10.321,0q-.051,7,0,14a5.177,5.177,0,1,0,10.355,0h0V145.9c0-2.35,0-4.666-.034-6.983ZM140.6,146v6.233c0,1.431-.647,2.282-1.7,2.316s-1.737-.852-1.737-2.248V139.7c0-1.431.647-2.282,1.7-2.316s1.737.852,1.737,2.35Zm-1.737,13.761a5.177,5.177,0,1,0,5.177,5.211,5.175,5.175,0,0,0-5.177-5.211Zm0,6.88a1.786,1.786,0,0,1-1.669-1.771,1.688,1.688,0,0,1,3.372.17A1.689,1.689,0,0,1,138.865,166.644Zm29.463-5.109c-3.134-4.394-6.3-8.72-9.469-13.08-4.36-5.995-8.686-12.024-13.114-17.984a8.454,8.454,0,0,0-10.627-2.623c-2.01.954-3.2,2.725-4.428,4.428q-10.627,14.663-21.288,29.293a8.56,8.56,0,0,0,7.017,13.659h45.063a5.56,5.56,0,0,0,1.5-.1,8.474,8.474,0,0,0,5.348-13.591Zm-2.248,7.528a5.035,5.035,0,0,1-4.939,2.759H116.521a5.082,5.082,0,0,1-5.416-4.36,5.294,5.294,0,0,1,1.226-4.087q10.474-14.408,20.948-28.782c.477-.647.92-1.294,1.4-1.907a4.949,4.949,0,0,1,8.277,0q7.766,10.576,15.464,21.186c2.316,3.2,4.6,6.4,6.949,9.571a4.846,4.846,0,0,1,.715,5.62Zm-22.038-30.144a5.164,5.164,0,0,0-10.321,0q-.051,7,0,14a5.177,5.177,0,1,0,10.355,0h0V145.9c0-2.35,0-4.666-.034-6.983ZM140.6,146v6.233c0,1.431-.647,2.282-1.7,2.316s-1.737-.852-1.737-2.248V139.7c0-1.431.647-2.282,1.7-2.316s1.737.852,1.737,2.35Zm-1.737,13.761a5.177,5.177,0,1,0,5.177,5.211,5.175,5.175,0,0,0-5.177-5.211Zm0,6.88a1.786,1.786,0,0,1-1.669-1.771,1.688,1.688,0,0,1,3.372.17A1.689,1.689,0,0,1,138.865,166.644Zm29.463-5.109c-3.134-4.394-6.3-8.72-9.469-13.08-4.36-5.995-8.686-12.024-13.114-17.984a8.454,8.454,0,0,0-10.627-2.623c-2.01.954-3.2,2.725-4.428,4.428q-10.627,14.663-21.288,29.293a8.56,8.56,0,0,0,7.017,13.659h45.063a5.56,5.56,0,0,0,1.5-.1,8.474,8.474,0,0,0,5.348-13.591Zm-2.248,7.528a5.035,5.035,0,0,1-4.939,2.759H116.521a5.082,5.082,0,0,1-5.416-4.36,5.294,5.294,0,0,1,1.226-4.087q10.474-14.408,20.948-28.782c.477-.647.92-1.294,1.4-1.907a4.949,4.949,0,0,1,8.277,0q7.766,10.576,15.464,21.186c2.316,3.2,4.6,6.4,6.949,9.571a4.846,4.846,0,0,1,.715,5.62Zm-22.038-30.144a5.164,5.164,0,0,0-10.321,0q-.051,7,0,14a5.177,5.177,0,1,0,10.355,0h0V145.9c0-2.35,0-4.666-.034-6.983ZM140.6,146v6.233c0,1.431-.647,2.282-1.7,2.316s-1.737-.852-1.737-2.248V139.7c0-1.431.647-2.282,1.7-2.316s1.737.852,1.737,2.35Zm-1.737,13.761a5.177,5.177,0,1,0,5.177,5.211,5.175,5.175,0,0,0-5.177-5.211Zm0,6.88a1.786,1.786,0,0,1-1.669-1.771,1.688,1.688,0,0,1,3.372.17A1.689,1.689,0,0,1,138.865,166.644Zm41.419-68.975c-4.19,0-8.413-.034-12.6,0-.92,0-1.26-.136-1.226-1.192.068-3.576.034-7.187.034-10.763a5.119,5.119,0,0,0-5.245-5.314H116.623a5.133,5.133,0,0,0-5.314,5.382c0,3.542-.034,7.119.034,10.661.034.92-.136,1.26-1.192,1.226-4.121-.068-8.243-.034-12.4-.034a6.83,6.83,0,0,0-7.153,7.153v71.87a6.83,6.83,0,0,0,7.153,7.153h82.531a6.833,6.833,0,0,0,6.88-6.744V104.55a6.833,6.833,0,0,0-6.71-6.914A.307.307,0,0,1,180.284,97.669ZM153.512,83.874c2.555.034,5.109,0,7.63.034a1.745,1.745,0,0,1,1.873,1.907c.034,1.26,0,2.521,0,3.781s-.034,2.521,0,3.781c0,.545-.068.749-.681.613a12.253,12.253,0,0,1-9.4-9.4C152.864,84.045,152.933,83.874,153.512,83.874ZM114.75,93.343c.034-1.26,0-2.521,0-3.781V85.918a1.789,1.789,0,0,1,1.976-2.01c2.521-.034,5.041,0,7.528-.034.545,0,.647.136.545.681a12.206,12.206,0,0,1-9.4,9.4C114.818,94.093,114.716,93.888,114.75,93.343Zm0,5.143c0-.749.238-.954.954-1.056A15.533,15.533,0,0,0,128.34,84.76c.1-.647.272-.92.988-.92,6.4.034,12.773.034,19.177,0,.715,0,.886.238.988.92.886,6.233,6.438,11.853,12.637,12.671.715.1.954.307.954,1.056q-.051,6.08,0,12.16c0,.681-.17.817-.817.817q-8.073-.051-16.145,0c-.579,0-.783-.034-.579-.749a5.987,5.987,0,0,0-5.961-7.868c-.477,0-.954.034-1.4,0a2.572,2.572,0,1,1,.034-5.143h0c1.873-.034,3.747,0,5.586-.034,1.26,0,2.01-.647,2.01-1.7s-.749-1.7-2.01-1.737c-.783,0-1.567-.068-2.35,0-.715.068-.886-.2-.817-.852a5.827,5.827,0,0,0,0-1.09,1.685,1.685,0,0,0-1.737-1.533,1.531,1.531,0,0,0-1.669,1.567c.136,1.362-.307,1.976-1.669,2.486a5.739,5.739,0,0,0-3.372,6.608,5.9,5.9,0,0,0,5.859,4.837H139.1c1.942,0,3.2.988,3.2,2.555s-1.26,2.589-3.27,2.623H127.523c-3.951,0-7.9-.034-11.853.034-.749,0-.954-.17-.954-.92.068-3.985.068-8.039.034-12.058Zm-3,16.452H165.6a5.387,5.387,0,0,1,1.056.034,1.682,1.682,0,0,1,1.465,1.635,1.647,1.647,0,0,1-1.465,1.737,3.662,3.662,0,0,1-1.056.034H111.718c-1.294-.034-2.146-.749-2.112-1.771s.886-1.669,2.146-1.669Zm71.972,49.015v12.5c0,2.589-1.4,3.985-3.985,3.985H98.3c-2.9,0-4.224-1.294-4.224-4.19V105.265c0-2.793,1.362-4.121,4.156-4.121,4.053,0,8.107.034,12.16,0,.749,0,.954.2.92.954-.034,2.827-.034,5.688,0,8.515,0,.613-.034.886-.817.988a5.166,5.166,0,0,0,.817,10.253h55.043a5.168,5.168,0,0,0,.783-10.287c-.613-.1-.749-.238-.715-.817.034-2.963.034-5.893,0-8.822,0-.647.2-.749.783-.749,4.258.034,8.549,0,12.807.034,2.282,0,3.645,1.533,3.645,3.985Q183.758,134.524,183.724,163.953Zm-24.865-15.5c-4.36-5.995-8.686-12.024-13.114-17.984a8.454,8.454,0,0,0-10.627-2.623c-2.01.954-3.2,2.725-4.428,4.428q-10.627,14.663-21.288,29.293a8.56,8.56,0,0,0,7.017,13.659h45.063a5.56,5.56,0,0,0,1.5-.1,8.565,8.565,0,0,0,5.348-13.659Q163.628,154.978,158.859,148.455Zm7.221,20.607a5.035,5.035,0,0,1-4.939,2.759H116.521a5.082,5.082,0,0,1-5.416-4.36,5.294,5.294,0,0,1,1.226-4.087q10.474-14.408,20.948-28.782c.477-.647.92-1.294,1.4-1.907a4.949,4.949,0,0,1,8.277,0q7.766,10.576,15.464,21.186c2.316,3.2,4.6,6.4,6.949,9.571a4.846,4.846,0,0,1,.715,5.62Zm-22.038-30.178a5.164,5.164,0,0,0-10.321,0q-.051,7,0,14a5.177,5.177,0,1,0,10.355,0v-7.017c0-2.35,0-4.632-.034-6.983ZM140.6,146v6.233c0,1.431-.647,2.282-1.7,2.316s-1.737-.852-1.737-2.248V139.7c0-1.431.647-2.282,1.7-2.316s1.737.852,1.737,2.35Zm-1.737,13.761a5.177,5.177,0,1,0,5.177,5.211,5.175,5.175,0,0,0-5.177-5.211Zm0,6.88a1.786,1.786,0,0,1-1.669-1.771,1.688,1.688,0,0,1,3.372.17A1.689,1.689,0,0,1,138.865,166.644Zm0-6.88a5.177,5.177,0,1,0,5.177,5.211,5.175,5.175,0,0,0-5.177-5.211Zm0,6.88a1.786,1.786,0,0,1-1.669-1.771,1.688,1.688,0,0,1,3.372.17A1.689,1.689,0,0,1,138.865,166.644Zm5.177-27.726a5.164,5.164,0,0,0-10.321,0q-.051,7,0,14a5.177,5.177,0,1,0,10.355,0h0V145.9c0-2.35,0-4.666-.034-6.983ZM140.6,146v6.233c0,1.431-.647,2.282-1.7,2.316s-1.737-.852-1.737-2.248V139.7c0-1.431.647-2.282,1.7-2.316s1.737.852,1.737,2.35Zm3.44-7.085a5.164,5.164,0,0,0-10.321,0q-.051,7,0,14a5.177,5.177,0,1,0,10.355,0h0V145.9c0-2.35,0-4.666-.034-6.983ZM140.6,146v6.233c0,1.431-.647,2.282-1.7,2.316s-1.737-.852-1.737-2.248V139.7c0-1.431.647-2.282,1.7-2.316s1.737.852,1.737,2.35Zm-1.737,13.761a5.177,5.177,0,1,0,5.177,5.211,5.175,5.175,0,0,0-5.177-5.211Zm0,6.88a1.786,1.786,0,0,1-1.669-1.771,1.688,1.688,0,0,1,3.372.17A1.689,1.689,0,0,1,138.865,166.644Zm29.463-5.109c-3.134-4.394-6.3-8.72-9.469-13.08-4.36-5.995-8.686-12.024-13.114-17.984a8.454,8.454,0,0,0-10.627-2.623c-2.01.954-3.2,2.725-4.428,4.428q-10.627,14.663-21.288,29.293a8.56,8.56,0,0,0,7.017,13.659h45.063a5.56,5.56,0,0,0,1.5-.1,8.474,8.474,0,0,0,5.348-13.591Zm-2.248,7.528a5.035,5.035,0,0,1-4.939,2.759H116.521a5.082,5.082,0,0,1-5.416-4.36,5.294,5.294,0,0,1,1.226-4.087q10.474-14.408,20.948-28.782c.477-.647.92-1.294,1.4-1.907a4.949,4.949,0,0,1,8.277,0q7.766,10.576,15.464,21.186c2.316,3.2,4.6,6.4,6.949,9.571a4.846,4.846,0,0,1,.715,5.62Zm-22.038-30.144a5.164,5.164,0,0,0-10.321,0q-.051,7,0,14a5.177,5.177,0,1,0,10.355,0h0V145.9c0-2.35,0-4.666-.034-6.983ZM140.6,146v6.233c0,1.431-.647,2.282-1.7,2.316s-1.737-.852-1.737-2.248V139.7c0-1.431.647-2.282,1.7-2.316s1.737.852,1.737,2.35Zm-1.737,13.761a5.177,5.177,0,1,0,5.177,5.211,5.175,5.175,0,0,0-5.177-5.211Zm0,6.88a1.786,1.786,0,0,1-1.669-1.771,1.688,1.688,0,0,1,3.372.17A1.689,1.689,0,0,1,138.865,166.644Zm0-6.88a5.177,5.177,0,1,0,5.177,5.211,5.175,5.175,0,0,0-5.177-5.211Zm0,6.88a1.786,1.786,0,0,1-1.669-1.771,1.688,1.688,0,0,1,3.372.17A1.689,1.689,0,0,1,138.865,166.644Zm5.177-27.726a5.164,5.164,0,0,0-10.321,0q-.051,7,0,14a5.177,5.177,0,1,0,10.355,0h0V145.9c0-2.35,0-4.666-.034-6.983ZM140.6,146v6.233c0,1.431-.647,2.282-1.7,2.316s-1.737-.852-1.737-2.248V139.7c0-1.431.647-2.282,1.7-2.316s1.737.852,1.737,2.35Zm3.44-7.085a5.164,5.164,0,0,0-10.321,0q-.051,7,0,14a5.177,5.177,0,1,0,10.355,0h0V145.9c0-2.35,0-4.666-.034-6.983ZM140.6,146v6.233c0,1.431-.647,2.282-1.7,2.316s-1.737-.852-1.737-2.248V139.7c0-1.431.647-2.282,1.7-2.316s1.737.852,1.737,2.35Zm-1.737,13.761a5.177,5.177,0,1,0,5.177,5.211,5.175,5.175,0,0,0-5.177-5.211Zm0,6.88a1.786,1.786,0,0,1-1.669-1.771,1.688,1.688,0,0,1,3.372.17A1.689,1.689,0,0,1,138.865,166.644Zm29.463-5.109c-3.134-4.394-6.3-8.72-9.469-13.08-4.36-5.995-8.686-12.024-13.114-17.984a8.454,8.454,0,0,0-10.627-2.623c-2.01.954-3.2,2.725-4.428,4.428q-10.627,14.663-21.288,29.293a8.56,8.56,0,0,0,7.017,13.659h45.063a5.56,5.56,0,0,0,1.5-.1,8.474,8.474,0,0,0,5.348-13.591Zm-2.248,7.528a5.035,5.035,0,0,1-4.939,2.759H116.521a5.082,5.082,0,0,1-5.416-4.36,5.294,5.294,0,0,1,1.226-4.087q10.474-14.408,20.948-28.782c.477-.647.92-1.294,1.4-1.907a4.949,4.949,0,0,1,8.277,0q7.766,10.576,15.464,21.186c2.316,3.2,4.6,6.4,6.949,9.571a4.846,4.846,0,0,1,.715,5.62Zm-22.038-30.144a5.164,5.164,0,0,0-10.321,0q-.051,7,0,14a5.177,5.177,0,1,0,10.355,0h0V145.9c0-2.35,0-4.666-.034-6.983ZM140.6,146v6.233c0,1.431-.647,2.282-1.7,2.316s-1.737-.852-1.737-2.248V139.7c0-1.431.647-2.282,1.7-2.316s1.737.852,1.737,2.35Zm-1.737,13.761a5.177,5.177,0,1,0,5.177,5.211,5.175,5.175,0,0,0-5.177-5.211Zm0,6.88a1.786,1.786,0,0,1-1.669-1.771,1.688,1.688,0,0,1,3.372.17A1.689,1.689,0,0,1,138.865,166.644Zm0-6.88a5.177,5.177,0,1,0,5.177,5.211,5.175,5.175,0,0,0-5.177-5.211Zm0,6.88a1.786,1.786,0,0,1-1.669-1.771,1.688,1.688,0,0,1,3.372.17A1.689,1.689,0,0,1,138.865,166.644Zm5.177-27.726a5.164,5.164,0,0,0-10.321,0q-.051,7,0,14a5.177,5.177,0,1,0,10.355,0h0V145.9c0-2.35,0-4.666-.034-6.983ZM140.6,146v6.233c0,1.431-.647,2.282-1.7,2.316s-1.737-.852-1.737-2.248V139.7c0-1.431.647-2.282,1.7-2.316s1.737.852,1.737,2.35Zm3.44-7.085a5.164,5.164,0,0,0-10.321,0q-.051,7,0,14a5.177,5.177,0,1,0,10.355,0h0V145.9c0-2.35,0-4.666-.034-6.983ZM140.6,146v6.233c0,1.431-.647,2.282-1.7,2.316s-1.737-.852-1.737-2.248V139.7c0-1.431.647-2.282,1.7-2.316s1.737.852,1.737,2.35Zm-1.737,13.761a5.177,5.177,0,1,0,5.177,5.211,5.175,5.175,0,0,0-5.177-5.211Zm0,6.88a1.786,1.786,0,0,1-1.669-1.771,1.688,1.688,0,0,1,3.372.17A1.689,1.689,0,0,1,138.865,166.644Zm0-6.88a5.177,5.177,0,1,0,5.177,5.211,5.175,5.175,0,0,0-5.177-5.211Zm0,6.88a1.786,1.786,0,0,1-1.669-1.771,1.688,1.688,0,0,1,3.372.17A1.689,1.689,0,0,1,138.865,166.644Zm5.177-27.726a5.164,5.164,0,0,0-10.321,0q-.051,7,0,14a5.177,5.177,0,1,0,10.355,0h0V145.9c0-2.35,0-4.666-.034-6.983ZM140.6,146v6.233c0,1.431-.647,2.282-1.7,2.316s-1.737-.852-1.737-2.248V139.7c0-1.431.647-2.282,1.7-2.316s1.737.852,1.737,2.35Zm3.44-7.085a5.164,5.164,0,0,0-10.321,0q-.051,7,0,14a5.177,5.177,0,1,0,10.355,0h0V145.9c0-2.35,0-4.666-.034-6.983ZM140.6,146v6.233c0,1.431-.647,2.282-1.7,2.316s-1.737-.852-1.737-2.248V139.7c0-1.431.647-2.282,1.7-2.316s1.737.852,1.737,2.35Zm-1.737,13.761a5.177,5.177,0,1,0,5.177,5.211,5.175,5.175,0,0,0-5.177-5.211Zm0,6.88a1.786,1.786,0,0,1-1.669-1.771,1.688,1.688,0,0,1,3.372.17A1.689,1.689,0,0,1,138.865,166.644Zm29.463-5.109c-3.134-4.394-6.3-8.72-9.469-13.08-4.36-5.995-8.686-12.024-13.114-17.984a8.454,8.454,0,0,0-10.627-2.623c-2.01.954-3.2,2.725-4.428,4.428q-10.627,14.663-21.288,29.293a8.56,8.56,0,0,0,7.017,13.659h45.063a5.56,5.56,0,0,0,1.5-.1,8.474,8.474,0,0,0,5.348-13.591Zm-2.248,7.528a5.035,5.035,0,0,1-4.939,2.759H116.521a5.082,5.082,0,0,1-5.416-4.36,5.294,5.294,0,0,1,1.226-4.087q10.474-14.408,20.948-28.782c.477-.647.92-1.294,1.4-1.907a4.949,4.949,0,0,1,8.277,0q7.766,10.576,15.464,21.186c2.316,3.2,4.6,6.4,6.949,9.571a4.846,4.846,0,0,1,.715,5.62Zm-22.038-30.144a5.164,5.164,0,0,0-10.321,0q-.051,7,0,14a5.177,5.177,0,1,0,10.355,0h0V145.9c0-2.35,0-4.666-.034-6.983ZM140.6,146v6.233c0,1.431-.647,2.282-1.7,2.316s-1.737-.852-1.737-2.248V139.7c0-1.431.647-2.282,1.7-2.316s1.737.852,1.737,2.35Zm-1.737,13.761a5.177,5.177,0,1,0,5.177,5.211,5.175,5.175,0,0,0-5.177-5.211Zm0,6.88a1.786,1.786,0,0,1-1.669-1.771,1.688,1.688,0,0,1,3.372.17A1.689,1.689,0,0,1,138.865,166.644Zm0-6.88a5.177,5.177,0,1,0,5.177,5.211,5.175,5.175,0,0,0-5.177-5.211Zm0,6.88a1.786,1.786,0,0,1-1.669-1.771,1.688,1.688,0,0,1,3.372.17A1.689,1.689,0,0,1,138.865,166.644Zm5.177-27.726a5.164,5.164,0,0,0-10.321,0q-.051,7,0,14a5.177,5.177,0,1,0,10.355,0h0V145.9c0-2.35,0-4.666-.034-6.983ZM140.6,146v6.233c0,1.431-.647,2.282-1.7,2.316s-1.737-.852-1.737-2.248V139.7c0-1.431.647-2.282,1.7-2.316s1.737.852,1.737,2.35Zm3.44-7.085a5.164,5.164,0,0,0-10.321,0q-.051,7,0,14a5.177,5.177,0,1,0,10.355,0h0V145.9c0-2.35,0-4.666-.034-6.983ZM140.6,146v6.233c0,1.431-.647,2.282-1.7,2.316s-1.737-.852-1.737-2.248V139.7c0-1.431.647-2.282,1.7-2.316s1.737.852,1.737,2.35Zm-1.737,13.761a5.177,5.177,0,1,0,5.177,5.211,5.175,5.175,0,0,0-5.177-5.211Zm0,6.88a1.786,1.786,0,0,1-1.669-1.771,1.688,1.688,0,0,1,3.372.17A1.689,1.689,0,0,1,138.865,166.644Zm0-6.88a5.177,5.177,0,1,0,5.177,5.211,5.175,5.175,0,0,0-5.177-5.211Zm0,6.88a1.786,1.786,0,0,1-1.669-1.771,1.688,1.688,0,0,1,3.372.17A1.689,1.689,0,0,1,138.865,166.644Zm5.177-27.726a5.164,5.164,0,0,0-10.321,0q-.051,7,0,14a5.177,5.177,0,1,0,10.355,0h0V145.9c0-2.35,0-4.666-.034-6.983ZM140.6,146v6.233c0,1.431-.647,2.282-1.7,2.316s-1.737-.852-1.737-2.248V139.7c0-1.431.647-2.282,1.7-2.316s1.737.852,1.737,2.35Zm3.44-7.085a5.164,5.164,0,0,0-10.321,0q-.051,7,0,14a5.177,5.177,0,1,0,10.355,0h0V145.9c0-2.35,0-4.666-.034-6.983ZM140.6,146v6.233c0,1.431-.647,2.282-1.7,2.316s-1.737-.852-1.737-2.248V139.7c0-1.431.647-2.282,1.7-2.316s1.737.852,1.737,2.35Zm-1.737,13.761a5.177,5.177,0,1,0,5.177,5.211,5.175,5.175,0,0,0-5.177-5.211Zm0,6.88a1.786,1.786,0,0,1-1.669-1.771,1.688,1.688,0,0,1,3.372.17A1.689,1.689,0,0,1,138.865,166.644Zm29.463-5.109c-3.134-4.394-6.3-8.72-9.469-13.08-4.36-5.995-8.686-12.024-13.114-17.984a8.454,8.454,0,0,0-10.627-2.623c-2.01.954-3.2,2.725-4.428,4.428q-10.627,14.663-21.288,29.293a8.56,8.56,0,0,0,7.017,13.659h45.063a5.56,5.56,0,0,0,1.5-.1,8.474,8.474,0,0,0,5.348-13.591Zm-2.248,7.528a5.035,5.035,0,0,1-4.939,2.759H116.521a5.082,5.082,0,0,1-5.416-4.36,5.294,5.294,0,0,1,1.226-4.087q10.474-14.408,20.948-28.782c.477-.647.92-1.294,1.4-1.907a4.949,4.949,0,0,1,8.277,0q7.766,10.576,15.464,21.186c2.316,3.2,4.6,6.4,6.949,9.571a4.846,4.846,0,0,1,.715,5.62Zm-22.038-30.144a5.164,5.164,0,0,0-10.321,0q-.051,7,0,14a5.177,5.177,0,1,0,10.355,0h0V145.9c0-2.35,0-4.666-.034-6.983ZM140.6,146v6.233c0,1.431-.647,2.282-1.7,2.316s-1.737-.852-1.737-2.248V139.7c0-1.431.647-2.282,1.7-2.316s1.737.852,1.737,2.35Zm-1.737,13.761a5.177,5.177,0,1,0,5.177,5.211,5.175,5.175,0,0,0-5.177-5.211Zm0,6.88a1.786,1.786,0,0,1-1.669-1.771,1.688,1.688,0,0,1,3.372.17A1.689,1.689,0,0,1,138.865,166.644Zm0-6.88a5.177,5.177,0,1,0,5.177,5.211,5.175,5.175,0,0,0-5.177-5.211Zm0,6.88a1.786,1.786,0,0,1-1.669-1.771,1.688,1.688,0,0,1,3.372.17A1.689,1.689,0,0,1,138.865,166.644Zm5.177-27.726a5.164,5.164,0,0,0-10.321,0q-.051,7,0,14a5.177,5.177,0,1,0,10.355,0h0V145.9c0-2.35,0-4.666-.034-6.983ZM140.6,146v6.233c0,1.431-.647,2.282-1.7,2.316s-1.737-.852-1.737-2.248V139.7c0-1.431.647-2.282,1.7-2.316s1.737.852,1.737,2.35Zm3.44-7.085a5.164,5.164,0,0,0-10.321,0q-.051,7,0,14a5.177,5.177,0,1,0,10.355,0h0V145.9c0-2.35,0-4.666-.034-6.983ZM140.6,146v6.233c0,1.431-.647,2.282-1.7,2.316s-1.737-.852-1.737-2.248V139.7c0-1.431.647-2.282,1.7-2.316s1.737.852,1.737,2.35Zm-1.737,13.761a5.177,5.177,0,1,0,5.177,5.211,5.175,5.175,0,0,0-5.177-5.211Zm0,6.88a1.786,1.786,0,0,1-1.669-1.771,1.688,1.688,0,0,1,3.372.17A1.689,1.689,0,0,1,138.865,166.644Z" transform="translate(-59.6 -53.332)" fill="#0091de"/>
  <path id="Path_4044" data-name="Path 4044" d="M222.277,313.4a5.177,5.177,0,1,0,5.177,5.211A5.175,5.175,0,0,0,222.277,313.4Zm0,6.88a1.786,1.786,0,0,1-1.669-1.771,1.688,1.688,0,1,1,3.372.17A1.689,1.689,0,0,1,222.277,320.28Z" transform="translate(-143.152 -206.969)" fill="#0091de"/>
  <path id="Path_4045" data-name="Path 4045" d="M227.571,242.466a5.164,5.164,0,0,0-10.321,0q-.051,7,0,14a5.177,5.177,0,0,0,10.355,0v-7.017C227.605,247.1,227.571,244.817,227.571,242.466Zm-3.474,7.119v6.233c0,1.431-.647,2.282-1.7,2.316s-1.737-.852-1.737-2.248v-12.6c0-1.431.647-2.282,1.7-2.316s1.737.852,1.737,2.35Z" transform="translate(-143.235 -156.915)" fill="#0091de"/>
  <path id="Path_4046" data-name="Path 4046" d="M201.334,251.635c-3.134-4.36-6.3-8.686-9.5-13.046-4.36-5.995-8.686-12.024-13.114-17.984a8.454,8.454,0,0,0-10.627-2.623c-2.01.954-3.2,2.725-4.428,4.428q-10.627,14.663-21.288,29.293a8.56,8.56,0,0,0,7.017,13.659h45.063a5.56,5.56,0,0,0,1.5-.1A8.52,8.52,0,0,0,201.334,251.635Zm-2.248,7.562a5.035,5.035,0,0,1-4.939,2.759H149.526a5.082,5.082,0,0,1-5.416-4.36,5.294,5.294,0,0,1,1.226-4.087q10.474-14.408,20.948-28.782c.477-.647.92-1.294,1.4-1.907a4.949,4.949,0,0,1,8.277,0q7.766,10.576,15.464,21.186c2.316,3.2,4.6,6.4,6.949,9.571a4.959,4.959,0,0,1,.715,5.62Z" transform="translate(-92.604 -143.467)" fill="#0091de"/>
  <path id="Path_4047" data-name="Path 4047" d="M222.277,313.4a5.177,5.177,0,1,0,5.177,5.211A5.175,5.175,0,0,0,222.277,313.4Zm0,6.88a1.786,1.786,0,0,1-1.669-1.771,1.688,1.688,0,1,1,3.372.17A1.689,1.689,0,0,1,222.277,320.28Z" transform="translate(-143.152 -206.969)" fill="#0091de"/>
  <path id="Path_4048" data-name="Path 4048" d="M227.571,242.466a5.164,5.164,0,0,0-10.321,0q-.051,7,0,14a5.177,5.177,0,0,0,10.355,0v-7.017C227.605,247.1,227.571,244.817,227.571,242.466Zm-3.474,7.119v6.233c0,1.431-.647,2.282-1.7,2.316s-1.737-.852-1.737-2.248v-12.6c0-1.431.647-2.282,1.7-2.316s1.737.852,1.737,2.35Z" transform="translate(-143.235 -156.915)" fill="#0091de"/>
  <path id="Path_4049" data-name="Path 4049" d="M201.334,251.635c-3.134-4.36-6.3-8.686-9.5-13.046-4.36-5.995-8.686-12.024-13.114-17.984a8.454,8.454,0,0,0-10.627-2.623c-2.01.954-3.2,2.725-4.428,4.428q-10.627,14.663-21.288,29.293a8.56,8.56,0,0,0,7.017,13.659h45.063a5.56,5.56,0,0,0,1.5-.1A8.52,8.52,0,0,0,201.334,251.635Zm-2.248,7.562a5.035,5.035,0,0,1-4.939,2.759H149.526a5.082,5.082,0,0,1-5.416-4.36,5.294,5.294,0,0,1,1.226-4.087q10.474-14.408,20.948-28.782c.477-.647.92-1.294,1.4-1.907a4.949,4.949,0,0,1,8.277,0q7.766,10.576,15.464,21.186c2.316,3.2,4.6,6.4,6.949,9.571a4.959,4.959,0,0,1,.715,5.62Z" transform="translate(-92.604 -143.467)" fill="#0091de"/>
  <path id="Path_4050" data-name="Path 4050" d="M222.277,313.4a5.177,5.177,0,1,0,5.177,5.211A5.175,5.175,0,0,0,222.277,313.4Zm0,6.88a1.786,1.786,0,0,1-1.669-1.771,1.688,1.688,0,1,1,3.372.17A1.689,1.689,0,0,1,222.277,320.28Z" transform="translate(-143.152 -206.969)" fill="#0091de"/>
  <path id="Path_4051" data-name="Path 4051" d="M227.571,242.466a5.164,5.164,0,0,0-10.321,0q-.051,7,0,14a5.177,5.177,0,0,0,10.355,0v-7.017C227.605,247.1,227.571,244.817,227.571,242.466Zm-3.474,7.119v6.233c0,1.431-.647,2.282-1.7,2.316s-1.737-.852-1.737-2.248v-12.6c0-1.431.647-2.282,1.7-2.316s1.737.852,1.737,2.35Z" transform="translate(-143.235 -156.915)" fill="#0091de"/>
  <path id="Path_4052" data-name="Path 4052" d="M227.571,242.466a5.164,5.164,0,0,0-10.321,0q-.051,7,0,14a5.177,5.177,0,0,0,10.355,0v-7.017C227.605,247.1,227.571,244.817,227.571,242.466Zm-3.474,7.119v6.233c0,1.431-.647,2.282-1.7,2.316s-1.737-.852-1.737-2.248v-12.6c0-1.431.647-2.282,1.7-2.316s1.737.852,1.737,2.35Z" transform="translate(-143.235 -156.915)" fill="#0091de"/>
  <path id="Path_4053" data-name="Path 4053" d="M222.277,313.4a5.177,5.177,0,1,0,5.177,5.211A5.175,5.175,0,0,0,222.277,313.4Zm0,6.88a1.786,1.786,0,0,1-1.669-1.771,1.688,1.688,0,1,1,3.372.17A1.689,1.689,0,0,1,222.277,320.28Z" transform="translate(-143.152 -206.969)" fill="#0091de"/>
  <path id="Path_4054" data-name="Path 4054" d="M79.159,158.934a78.852,78.852,0,1,1,55.963-23.2A79.181,79.181,0,0,1,79.159,158.934Zm0-154.571a75.412,75.412,0,1,0,75.412,75.412A75.489,75.489,0,0,0,79.159,4.362Z" transform="translate(0 -0.934)" fill="#0091de"/>
  <path id="Path_4055" data-name="Path 4055" d="M89.841,163.448a73.624,73.624,0,1,1,52.046-21.561h0A73.008,73.008,0,0,1,89.841,163.448Zm0-145.885a72.244,72.244,0,1,0,72.244,72.244A72.327,72.327,0,0,0,89.841,17.562Z" transform="translate(-11.2 -11)" fill="#0091de"/>
</svg>
