<svg xmlns="http://www.w3.org/2000/svg" width="85.443" height="117.254" viewBox="0 0 85.443 117.254">
  <g id="pp5" transform="translate(0.001 -0.005)">
    <path id="Path_3106" data-name="Path 3106" d="M43.073,117.235A42.367,42.367,0,0,1,.268,79.089c-1.487-14.109,3.206-26.242,13.6-36.027A3.684,3.684,0,0,0,15.2,40.11c-.046-4.95.049-9.9-.05-14.849a3.061,3.061,0,0,1,2.326-3.388c2.439-.86,4.8-1.946,7.23-2.829a2.581,2.581,0,0,0,1.932-2.912c-.106-2.279.036-4.57-.047-6.849A2.975,2.975,0,0,1,28.4,6.193C31.914,4.373,35.39,2.47,38.857.564a3.749,3.749,0,0,1,3.48-.242q7.387,3.053,14.819,6a2.569,2.569,0,0,1,1.8,2.8c-.067,2.207.119,4.428-.055,6.619-.156,1.968.672,2.893,2.444,3.489,2.163.721,4.2,1.814,6.378,2.489,2.134.664,2.755,1.927,2.69,4.073-.14,4.642,0,9.29-.072,13.935a4.333,4.333,0,0,0,1.573,3.542A41.472,41.472,0,0,1,84.965,67.782c.131.856.738,2.034-.871,2.36-1.641.332-1.658-.817-1.845-1.886A41.6,41.6,0,0,0,76.213,52.6c-.827-1.283-1.506-1.637-2.87-.676a29.251,29.251,0,0,1-7.306,3.725c-1.431.495-1.581,1.287-1.252,2.621A70.8,70.8,0,0,1,66.54,70.909c.106,1.691.748,2.227,2.379,2.2,4.493-.072,8.986-.039,13.481-.014,2.727.015,3.033.347,3.041,3.017C85.523,94.562,71.2,111.97,52.4,116.27a33.212,33.212,0,0,1-9.332.963M39.41,3.517C36.1,5.292,33.3,6.833,30.471,8.293a2.347,2.347,0,0,0-1.252,2.446c.018,9.977.042,19.953-.021,29.93-.011,1.73.62,2.22,2.274,2.206q11.308-.1,22.618,0c1.667.014,2.272-.5,2.262-2.217q-.089-14.849,0-29.7a2.484,2.484,0,0,0-1.878-2.691c-3.407-1.3-6.813-2.628-10.157-4.1-1.822-.805-2.336-.472-2.326,1.551.072,10.357.035,20.714.03,31.073a17.735,17.735,0,0,1-.083,2.051c-.089.745-.626.984-1.313.959a1.028,1.028,0,0,1-1.128-.911,18.263,18.263,0,0,1-.089-2.051q-.007-14.28,0-28.558V3.517M10.8,73.082c2.057,0,4.109-.035,6.168.013,1.313.031,1.907-.457,2-1.836a81.652,81.652,0,0,1,1.85-13.318c.25-1.054.14-1.718-.984-2.138a39.538,39.538,0,0,1-8.114-4.161c-.765-.51-1.342-.537-1.908.3A38.525,38.525,0,0,0,3.065,71.094c-.1,1.514.588,2.044,2.019,2,1.9-.054,3.807-.013,5.711-.014m71.618,6.508c.131-3.427.03-3.546-2.6-3.557-3.648-.014-7.3.035-10.944-.021-1.463-.022-2.2.371-2.307,2.014a72.683,72.683,0,0,1-1.8,13.067c-.358,1.4.228,1.94,1.356,2.372a35.328,35.328,0,0,1,7.474,3.871c1.137.784,1.739.411,2.389-.566a39.393,39.393,0,0,0,6.44-17.182M11.137,76.034c-1.9,0-3.81.089-5.7-.026-1.973-.123-2.531.73-2.353,2.578a38.841,38.841,0,0,0,6.58,18.252c.6.887,1.145,1.3,2.2.571a37.767,37.767,0,0,1,7.889-4.063c.886-.338,1.386-.758,1.114-1.858A82.331,82.331,0,0,1,18.95,77.734c-.089-1.274-.68-1.726-1.878-1.7-1.978.035-3.955.009-5.933,0m20.255-2.947c2.582,0,5.166-.05,7.747.02,1.525.042,2.227-.472,2.185-2.09-.077-2.961-.057-5.924-.005-8.886.024-1.369-.381-2.066-1.9-2.184A64.981,64.981,0,0,1,25.3,57.635c-1.1-.338-1.528.072-1.756,1.073A71.267,71.267,0,0,0,21.87,71.093c-.072,1.491.549,2.041,2,2.006,2.5-.061,5.009-.017,7.519-.015m22.578,0c2.582,0,5.166-.027,7.748.012,1.28.019,2.019-.358,1.963-1.809A69.193,69.193,0,0,0,62,58.674c-.233-1.039-.716-1.351-1.782-1.023a66.581,66.581,0,0,1-14.126,2.3c-1.342.11-1.878.649-1.855,1.983.046,3.041.072,6.083-.009,9.115-.043,1.654.732,2.09,2.221,2.053,2.5-.065,5.009-.018,7.519-.021M31.708,76.036c-2.658,0-5.319.018-7.976-.008-1.176-.012-1.893.348-1.853,1.681a64.943,64.943,0,0,0,1.7,12.835c.216.924.664,1.252,1.632.955a68.006,68.006,0,0,1,14.351-2.35c1.232-.1,1.761-.609,1.749-1.844-.031-3.115-.051-6.23.009-9.343.03-1.53-.691-1.976-2.09-1.946-2.5.054-5.009.015-7.52.019m22.312,0c-2.582,0-5.166.043-7.748-.017-1.45-.034-2.065.521-2.036,2,.058,2.961.064,5.926-.005,8.886-.035,1.5.453,2.163,2.048,2.284a62.437,62.437,0,0,1,13.9,2.272c1.246.386,1.651-.128,1.884-1.187a75.578,75.578,0,0,0,1.628-12.165c.089-1.629-.619-2.14-2.147-2.1-2.5.072-5.009.02-7.52.021M41.3,103.295c0-3.046-.05-6.093.021-9.137.037-1.586-.569-2.2-2.154-2.1a73.187,73.187,0,0,0-12.829,2.009c-1.425.358-1.581,1.09-1.131,2.332a39.025,39.025,0,0,0,6.2,11.629,17.635,17.635,0,0,0,7.507,5.782c1.649.606,2.441.3,2.4-1.61-.065-2.968-.017-5.939-.017-8.908m2.944-.185c0,2.209-.1,4.423.035,6.619.089,1.442-.849,3.495.677,4.2s3.19-.645,4.546-1.594c5.776-4.041,8.723-10,10.972-16.42.381-1.09-.131-1.521-1.094-1.778A67.81,67.81,0,0,0,46.33,92.051c-1.63-.111-2.147.6-2.107,2.141.072,2.968.021,5.94.017,8.909M34.618,45.474c-1.594,0-3.188.026-4.78-.009a2,2,0,0,0-2.018,1.167,49.32,49.32,0,0,0-2.721,6.5c-.348,1.009-.04,1.541,1,1.822a66.47,66.47,0,0,0,13.223,2.106c1.5.089,2.03-.558,2-2-.06-2.579-.054-5.16-.005-7.739.026-1.376-.564-1.91-1.913-1.858-1.591.062-3.186.014-4.78.017m16.254,0c-1.521,0-3.041.054-4.553-.016-1.4-.064-2.126.386-2.086,1.922.067,2.579.047,5.161.006,7.741-.021,1.3.392,2.014,1.825,1.938a63.51,63.51,0,0,0,13.449-2.123c.895-.243,1.313-.69.975-1.641-.912-2.57-1.452-5.479-3.43-7.335-1.406-1.323-3.793-.3-5.732-.485a4.2,4.2,0,0,0-.455,0M26.607,32.259c0-3.112-.027-6.225.013-9.337.015-1.189-.376-1.505-1.489-1.037-1.819.764-3.647,1.514-5.5,2.179a2.463,2.463,0,0,0-1.853,2.718c.089,3.186.025,6.376.025,9.565,0,6.768,0,6.717,6.79,6.538,1.651-.043,2.08-.693,2.039-2.2-.076-2.807-.021-5.618-.022-8.426m5.441,80.73a40.177,40.177,0,0,1-9.571-16c-.372-1.117-1.015-1.319-2.106-.878a45.675,45.675,0,0,0-6.694,3.437c-.844.514-1.252.984-.377,1.92a40.411,40.411,0,0,0,18.75,11.522m22.005-.326a38.157,38.157,0,0,0,18.318-11.33c.824-.895.244-1.313-.452-1.749a45.085,45.085,0,0,0-6.682-3.461c-1.225-.509-1.819-.169-2.219,1.022a41.716,41.716,0,0,1-8.965,15.514m4.892-80.622c0,2.884.055,5.771-.022,8.655-.04,1.514.4,2.276,2.057,2.173a43.211,43.211,0,0,1,4.781,0c1.463.072,2.034-.485,2.015-1.978-.059-4.783-.041-9.571-.009-14.347a2.107,2.107,0,0,0-1.431-2.294q-2.98-1.132-5.917-2.37c-1.132-.474-1.5-.112-1.48,1.056.039,3.037.013,6.074.013,9.111M20.1,45.476c-1.21,0-2.424-.043-3.632.01a4.153,4.153,0,0,0-3.539,2.823c-.492,1.211,1.325,1.488,2.18,2.076A21.35,21.35,0,0,0,18.1,52.009c3.694,1.748,3.7,1.735,5.148-2C25,45.467,25,45.467,20.1,45.476m45.307-.005c-1.135,0-2.272.031-3.407-.009s-1.526.276-1,1.454c.767,1.726,1.413,3.508,2.09,5.278.358.941.881,1.3,1.917.886a42.968,42.968,0,0,0,7.058-3.626c.839-.527.846-.937.281-1.789-1.759-2.656-4.383-2.243-6.935-2.189" transform="translate(0)" fill="#f4f4f4"/>
    <path id="Path_3107" data-name="Path 3107" d="M42.054,79.745a1.23,1.23,0,0,1-1.586-1.182,1.252,1.252,0,0,1,1.2-1.57q2.351-.33,4.7-.667a1.134,1.134,0,0,1,1.441,1.046c.144.865-.116,1.507-1.068,1.658-1.563.25-3.131.477-4.694.716" transform="translate(-21.954 -41.414)" fill="#f4f4f4"/>
    <path id="Path_3108" data-name="Path 3108" d="M46.373,59.1c.9-.122,1.26.421,1.463,1.142a1.163,1.163,0,0,1-.861,1.6c-1.61.46-3.235.865-4.855,1.287-.833.216-1.294-.179-1.539-.942a1.163,1.163,0,0,1,.742-1.652c1.669-.522,3.364-.959,5.047-1.431" transform="translate(-21.971 -32.067)" fill="#f4f4f4"/>
    <path id="Path_3109" data-name="Path 3109" d="M134.3,60.628c0,2.355.007,4.711,0,7.067,0,1.025-.3,1.8-1.558,1.739-1.163-.054-1.328-.85-1.331-1.734q-.021-7.067,0-14.133c0-1.026.3-1.8,1.558-1.739,1.163.054,1.324.85,1.331,1.734.02,2.355.007,4.711.007,7.067" transform="translate(-71.325 -28.13)" fill="#f4f4f4"/>
    <path id="Path_3110" data-name="Path 3110" d="M139.4,61.976c0-2.127-.011-4.253,0-6.381.006-1.009.258-1.812,1.532-1.767,1.154.042,1.355.81,1.358,1.708q.021,6.609.005,13.217c0,1.009-.257,1.812-1.532,1.767-1.154-.042-1.351-.81-1.358-1.708-.017-2.279-.005-4.562-.008-6.837" transform="translate(-75.666 -29.216)" fill="#f4f4f4"/>
  </g>
</svg>
