<svg id="Group_7817" data-name="Group 7817" xmlns="http://www.w3.org/2000/svg" width="118.661" height="113.502" viewBox="0 0 118.661 113.502">
  <path id="Path_3090" data-name="Path 3090" d="M39.649,55.722a24.41,24.41,0,0,1,5.516-8.57C55.36,37.3,72.6,40.686,78.158,53.726c.655,1.535.87,2.049,2.513.725C85.6,50.477,91.2,49.741,96.9,52.523a14.671,14.671,0,0,1,8.79,13.816c.033,2.925-.021,5.852.011,8.778a14.776,14.776,0,0,1-5.578,11.91,2.918,2.918,0,0,0-1.353,2.936c.251,1.347,1.466,1.227,2.361,1.459,2.974.769,6.066,1.143,8.805,2.667,5.576,3.1,8.568,7.824,8.674,14.233.081,4.927.039,9.856.009,14.784-.017,2.7-.737,3.41-3.453,3.426-4.928.03-9.858.07-14.784-.02-1.811-.033-2.652.388-2.587,2.418.241,7.411,0,6.871-6.957,6.857-6.622-.012-13.244,0-19.866,0-.616,0-1.234.012-1.847-.029-1.518-.1-2.5-.855-2.507-2.438a2.273,2.273,0,0,1,2.485-2.448c2.925-.065,5.853-.1,8.777-.018,1.621.046,2.2-.584,2.145-2.165-.08-2.153-.037-4.311-.01-6.467.032-2.568.956-3.93,2.68-3.79,2.417.2,2.582,2.026,2.591,3.891.01,2.233.034,4.466,0,6.7-.018,1.244.478,1.743,1.767,1.83,5.6.38,5.68.331,5.559-5.254-.038-1.769.029-3.541-.02-5.31a16.213,16.213,0,0,0-12.476-15.793c-2.977-.777-6.02-1.315-8.968-2.18-1.856-.545-2.641.127-3.313,1.741-1.776,4.263-3.675,8.473-5.535,12.7-.592,1.346-1.121,2.791-2.962,2.812s-2.4-1.4-3-2.757c-1.858-4.228-3.767-8.435-5.529-12.7-.712-1.725-1.58-2.391-3.5-1.8-2.644.808-5.372,1.342-8.061,2.007-8.093,2-12.973,7.766-13.453,16.069-.164,2.84,0,5.7-.059,8.545-.03,1.375.484,1.941,1.888,1.917,6.881-.119,5.57.864,5.712-5.5.031-1.385-.038-2.776.056-4.156.1-1.537.812-2.724,2.518-2.754,1.833-.031,2.6,1.2,2.663,2.842.089,2.461.1,4.929.029,7.391-.044,1.559.482,2.246,2.125,2.184,2.46-.092,4.927-.022,7.391-.012,1.683.006,2.948.662,2.923,2.506s-1.332,2.436-3,2.436q-12.128,0-24.255,0c-1.99,0-3-.967-2.992-2.969,0-1.386-.082-2.777.01-4.157.108-1.623-.565-2.155-2.154-2.132-4.927.069-9.856.035-14.784.019-3.273-.01-3.859-.611-3.867-3.95-.012-4.7-.022-9.395,0-14.091A16.071,16.071,0,0,1,11.74,92.854c2.136-.634,4.338-1.043,6.49-1.627,1.915-.521,2.473-2.372.913-3.594-5.129-4.021-6.651-9.369-6.225-15.575.121-1.763.027-3.541.02-5.312C12.913,60.04,16.044,55.18,22,52.409c5.93-2.759,11.555-1.709,16.582,2.476.284.236.58.457,1.066.838M74.864,71.436c.77-2.562-.662-4.375-3.4-5.595a41.744,41.744,0,0,1-4.4-2.53,1.736,1.736,0,0,0-2.3.158c-4.328,3.709-9.417,5.3-15.059,5.581-1.9.1-4.443-1.043-5.6.828-1.046,1.687-.213,4.046.021,6.106A15.335,15.335,0,0,0,62.944,88.992c7.6-1.878,11.91-8.031,11.919-17.556m38.807,42.886c0-1.615.036-3.232-.006-4.846-.175-6.583-3.271-10.444-9.634-12.049-1.267-.319-2.576-.515-3.8-.954-1.734-.622-2.68-.152-3.306,1.606-.876,2.46-1.9,4.873-3,7.243a2.812,2.812,0,0,0,.277,3.163,18.25,18.25,0,0,1,3.519,10.1c.033,2.472.827,3.367,3.2,3.008a7.181,7.181,0,0,1,1.613-.008c1.376.108,1.957-.475,1.916-1.878-.064-2.152-.022-4.307-.011-6.462.01-1.852-.248-3.932,2.419-4.176,1.809-.165,2.529,1.138,2.536,4.287,0,2.154.054,4.31-.012,6.461-.046,1.5.741,1.807,2.019,1.778,1.23-.027,2.352.019,2.286-1.739-.069-1.844-.015-3.692-.015-5.539m-108.7-.408c0,2.125.081,3.9-.023,5.661-.1,1.722.751,2.049,2.241,2.041,1.431-.007,2.126-.405,2.083-1.967-.075-2.689-.048-5.383.02-8.072a2.291,2.291,0,0,1,2.434-2.5,2.3,2.3,0,0,1,2.444,2.494c.072,1.843.007,3.69.045,5.535.1,4.91-1.037,4.461,4.822,4.492,1.284.006,1.8-.514,1.777-1.785a20.133,20.133,0,0,1,3.8-11.651,2.287,2.287,0,0,0,.275-2.362q-1.791-4.249-3.56-8.508a1.443,1.443,0,0,0-1.97-1.017c-2.362.674-4.8,1.105-7.112,1.924-3.864,1.371-6.063,4.265-6.9,8.261a40.5,40.5,0,0,0-.37,7.459m69.92-52.041c-.195-1.183-.295-1.782-.392-2.381a15.417,15.417,0,0,0-16.54-12.875A15.815,15.815,0,0,0,43.826,62.251c.011.878.188,1.517,1.219,1.568,6.462.32,12.695-.238,17.454-5.329,1.756-1.879,3.381-2.016,5.46-.674,2.113,1.364,4.34,2.552,6.93,4.058M38.817,72.756c0-.911-.031-1.6.007-2.292.071-1.279-.441-1.436-1.522-.948-5.158,2.328-10.665,2.7-16.21,2.784-3.3.052-3.539.316-3,3.628.062.379.122.758.191,1.135a10.258,10.258,0,0,0,19.94.948,15.878,15.878,0,0,0,.591-5.254m41.011.047a15.551,15.551,0,0,0,.83,5.893,10.271,10.271,0,0,0,10.259,6.686c5.495-.573,8.938-4.09,9.729-9.936.369-2.73.049-3.093-2.662-3.142-5.071-.092-10.12-.323-14.958-2.108-3.183-1.174-3.194-1.145-3.2,2.607M22.651,67.075A31.468,31.468,0,0,0,36.3,64.36c1.517-.71,1.935-1.542,1-3.033a9.961,9.961,0,0,0-9.886-5.036,9.637,9.637,0,0,0-8.585,6.341c-1.617,3.96-1.261,4.443,2.9,4.443h.921m73.182-.005c1.075,0,2.15-.02,3.224.006,1.139.028,1.641-.3,1.491-1.622a10.324,10.324,0,0,0-19.127-4.267c-.957,1.569-.672,2.441.987,3.207A31.581,31.581,0,0,0,95.833,67.07M53.87,96.227c.016,1.808,3.842,11.863,4.847,13.064.869,1.038,1.142.134,1.409-.454,1.046-2.3,2.046-4.626,3.064-6.942.768-1.747,1.632-3.424,1.609-5.452-.02-1.8-.5-2.57-2.429-2.111a12.455,12.455,0,0,1-5.933.014c-2.032-.515-2.979-.1-2.567,1.88M36.823,89.371c-.144,1.332.74,1.657,1.8,1.911A49.833,49.833,0,0,1,47.235,93.7c1.09.48,1.349.068,1.353-.961a2.411,2.411,0,0,0-1.246-2.053,18.837,18.837,0,0,1-3.846-3.6c-2.167-2.746-2.182-2.736-4.828-.4-.841.741-2.01,1.261-1.845,2.693m45.012.073c-.015-.726-3.63-5-4.184-5.047a.758.758,0,0,0-.6.2c-1.749,2.859-4.271,4.968-6.753,7.136a1.719,1.719,0,0,0-.063,1.961c.233.442.686.207,1.023.059a51.328,51.328,0,0,1,8.835-2.484c1.1-.265,1.88-.676,1.743-1.824m-53.8,10.5.587.074c.713-1.674,1.5-3.321,2.126-5.026,1.173-3.18,1.777-4.88-3.006-4.528-2.461.182-3.072.724-2.291,3.088.719,2.177,1.711,4.264,2.583,6.391m61.919.007.588.063c.713-1.676,1.448-3.343,2.135-5.029,1.593-3.91,1.182-4.511-3.014-4.491-2.463.012-3.064.695-2.288,3.067.713,2.178,1.709,4.264,2.58,6.39m-5.534.3c-.466-1.179-.759-1.963-1.085-2.734-.3-.708-.584-1.561-1.582-1.34-2.089.462-4.156,1.018-6.813,1.681l9.48,2.394m-50-.053,8.4-2.174a12.879,12.879,0,0,0-3.559-1.29c-3.465-.861-3.467-.862-4.672,2.523a7.425,7.425,0,0,0-.167.942" transform="translate(0 -22.299)" fill="#f4f4f4"/>
  <path id="Path_3091" data-name="Path 3091" d="M127.914,13.489a27.518,27.518,0,0,1-.029,3.433,2.2,2.2,0,0,1-2.36,2.048,2.138,2.138,0,0,1-2.375-2.016,56.119,56.119,0,0,1-.009-6.869,2.146,2.146,0,0,1,2.353-2.044,2.2,2.2,0,0,1,2.387,2.014,26.24,26.24,0,0,1,.032,3.433" transform="translate(-66.188 -4.326)" fill="#f4f4f4"/>
  <path id="Path_3092" data-name="Path 3092" d="M143.951,5.839c.033-1.776,4.113-5.824,5.884-5.839a2.392,2.392,0,0,1,2.229,3.51,12.922,12.922,0,0,1-4.449,4.539,2.4,2.4,0,0,1-3.664-2.21" transform="translate(-77.437 0)" fill="#f4f4f4"/>
  <path id="Path_3093" data-name="Path 3093" d="M97.205.124c1.738.041,5.705,4.041,5.743,5.79a2.415,2.415,0,0,1-3.709,2.174,13.445,13.445,0,0,1-4.217-4.2A2.481,2.481,0,0,1,97.205.124" transform="translate(-50.915 -0.066)" fill="#f4f4f4"/>
  <path id="Path_3094" data-name="Path 3094" d="M33.216,5.359c.079-1.664.6-3.041,2.5-3.263,1.608-.188,2.738,1.192,2.75,3.206.012,1.962-1.14,3.466-2.682,3.316-1.906-.185-2.423-1.6-2.573-3.259" transform="translate(-17.868 -1.118)" fill="#f4f4f4"/>
  <path id="Path_3095" data-name="Path 3095" d="M38.5,29.886a2.627,2.627,0,0,1-2.491,2.879c-1.59.153-2.8-1.3-2.737-3.242.055-1.667.62-3.062,2.512-3.278,1.541-.176,2.716,1.319,2.717,3.642" transform="translate(-17.897 -14.11)" fill="#f4f4f4"/>
  <path id="Path_3096" data-name="Path 3096" d="M212.061,5.309c.013-1.728.588-3.068,2.536-3.2,1.579-.108,2.695,1.39,2.589,3.407-.089,1.7-.751,3.145-2.69,3.068s-2.456-1.554-2.435-3.274" transform="translate(-114.076 -1.131)" fill="#f4f4f4"/>
  <path id="Path_3097" data-name="Path 3097" d="M212.067,29.478c.017-1.738.633-3.159,2.573-3.128s2.552,1.525,2.538,3.214c-.014,1.65-.509,3.116-2.493,3.27-1.607.125-2.642-1.268-2.617-3.356" transform="translate(-114.079 -14.174)" fill="#f4f4f4"/>
  <path id="Path_3098" data-name="Path 3098" d="M201.723,20.819c-2.168.03-3.5-.917-3.363-2.53.168-1.946,1.511-2.433,3.248-2.432s3.178.486,3.219,2.432-1.343,2.571-3.1,2.53" transform="translate(-106.7 -8.53)" fill="#f4f4f4"/>
  <path id="Path_3099" data-name="Path 3099" d="M225.835,20.829c-1.718.051-3.091-.459-3.278-2.4-.154-1.6,1.192-2.546,3.361-2.549,1.74,0,3.062.525,3.119,2.52.046,1.591-1.123,2.432-3.2,2.43" transform="translate(-119.716 -8.542)" fill="#f4f4f4"/>
  <path id="Path_3100" data-name="Path 3100" d="M47.405,20.83c-1.7.039-3.153-.4-3.2-2.4-.051-1.98,1.309-2.546,3.055-2.552,2.107-.007,3.545.971,3.4,2.515-.183,1.9-1.516,2.485-3.247,2.436" transform="translate(-23.777 -8.542)" fill="#f4f4f4"/>
  <path id="Path_3101" data-name="Path 3101" d="M23.027,20.828c-1.757.027-3.16-.564-3.111-2.542s1.527-2.429,3.249-2.414c1.75.015,3.136.526,3.089,2.549-.047,2.044-1.523,2.441-3.227,2.407" transform="translate(-10.713 -8.538)" fill="#f4f4f4"/>
  <path id="Path_3102" data-name="Path 3102" d="M122.108,127.375a5.947,5.947,0,0,1-4.471-1.579,2.388,2.388,0,0,1-.628-3.292,2.276,2.276,0,0,1,3.366-.883,2.817,2.817,0,0,0,3.207-.03,2.274,2.274,0,0,1,3.239.728,2.5,2.5,0,0,1-.56,3.5,5.518,5.518,0,0,1-4.153,1.556" transform="translate(-62.719 -65.197)" fill="#f4f4f4"/>
  <path id="Path_3103" data-name="Path 3103" d="M142.216,104.451c1.448.246,2.488,1,2.442,2.536a2.36,2.36,0,0,1-2.509,2.443,2.311,2.311,0,0,1-2.418-2.511c0-1.513.989-2.311,2.485-2.469" transform="translate(-75.167 -56.188)" fill="#f4f4f4"/>
  <path id="Path_3104" data-name="Path 3104" d="M111.171,107.261a2.306,2.306,0,0,1-2.616,2.2,2.272,2.272,0,0,1-2.243-2.632,2.314,2.314,0,0,1,2.633-2.264c1.518.088,2.257,1.1,2.226,2.7" transform="translate(-57.183 -56.246)" fill="#f4f4f4"/>
</svg>
