<svg id="Group_7829" data-name="Group 7829" xmlns="http://www.w3.org/2000/svg" width="158.011" height="158" viewBox="0 0 158.011 158">
  <path id="Op_component_4" data-name="Op component 4" d="M508.783,3011.8H494.117a.917.917,0,0,0-.917.918v3.666a.917.917,0,1,0,1.833,0v-2.749h12.833v2.749a.917.917,0,1,0,1.833,0v-3.666A.917.917,0,0,0,508.783,3011.8Z" transform="translate(-447.7 -2903.628)" fill="#0091de"/>
  <path id="Op_component_7" data-name="Op component 7" d="M529.783,3011.8H515.117a.917.917,0,0,0-.917.918v3.666a.917.917,0,1,0,1.833,0v-2.749h12.833v2.749a.917.917,0,1,0,1.833,0v-3.666A.917.917,0,0,0,529.783,3011.8Z" transform="translate(-430.227 -2903.628)" fill="#0091de"/>
  <path id="Path_4056" data-name="Path 4056" d="M90.534,96.924a2.286,2.286,0,0,1,2.18-1.022q15.072.051,30.144,0c1.294,0,1.294,0,1.328-1.328A1.689,1.689,0,0,1,126.06,92.7H151.4a1.677,1.677,0,0,1,1.907,2.01c-.034.954.273,1.226,1.226,1.226q15.072-.051,30.144-.034c1.907,0,2.384.477,2.384,2.384v59.846c0,1.873-.477,2.35-2.35,2.35H157.771c-1.226,0-1.226,0-1.26,1.226-.034,1.4-.613,1.976-2.044,1.976-4.292,0-8.618.034-12.909,0-.817,0-1.124.2-1.09,1.056.068,2.01.034,4.019,0,6.029a1.065,1.065,0,0,0,.886,1.192,8.169,8.169,0,0,1,5.518,8.481,8.15,8.15,0,0,1-16.043,1.09,8.073,8.073,0,0,1,5.041-9.5,1.443,1.443,0,0,0,1.158-1.669c-.068-1.907-.034-3.815,0-5.756,0-.749-.238-.988-.988-.954-4.224.034-8.481,0-12.739,0-1.839,0-2.35-.477-2.316-2.248,0-.852-.375-.954-1.09-.954-9.06,0-18.155,0-27.215.034a2.286,2.286,0,0,1-2.18-1.022Zm3.406,31.3v27.59c0,.886.272,1.192,1.192,1.192,8.243-.034,16.52-.034,24.763,0,.92,0,1.226-.272,1.158-1.158a1.77,1.77,0,0,1,1.976-2.078H154.6a1.769,1.769,0,0,1,2.01,2.044c-.034.988.307,1.192,1.226,1.192,8.209-.034,16.384,0,24.592-.034,1.294,0,1.294,0,1.294-1.328V100.739c0-.715.1-1.362-1.022-1.362-9.435.034-18.9.034-28.339,0-.681,0-.954.2-.954.92,0,1.771-.579,2.316-2.384,2.316H126.435c-1.431,0-2.112-.613-2.146-1.907s-.034-1.294-1.362-1.294H95.4c-1.4,0-1.431,0-1.431,1.4C93.94,109.935,93.906,119.1,93.94,128.226ZM138.9,157.315H125.549c-.783,0-1.09.238-1.022,1.022v.545c-.034,1.328-.034,1.328,1.362,1.328H151.3c2.01,0,1.805.2,1.839-1.805,0-.852-.238-1.124-1.124-1.124-4.394.034-8.754,0-13.114.034Zm4.564,22.378a4.667,4.667,0,1,0-4.7,4.632h.034a4.6,4.6,0,0,0,4.666-4.5ZM138.9,96.208h-9.4c-1.976,0-1.737-.136-1.771,1.771-.034.886.238,1.192,1.158,1.158,6.438-.034,12.875,0,19.279-.034,1.976,0,1.669.136,1.7-1.7.034-1.192,0-1.192-1.192-1.192Z" transform="translate(-59.674 -61.443)" fill="#0091de"/>
  <path id="Path_4057" data-name="Path 4057" d="M226.687,137.165l-4.7,5.722c-2.044,2.486-4.087,5.007-6.131,7.494-1.294,1.567-1.839,1.635-3.474.545-3.883-2.589-7.8-5.177-11.683-7.8a1.133,1.133,0,0,0-1.737.17q-7.613,7.664-15.26,15.26a3.492,3.492,0,0,1-1.328,1.022,1.562,1.562,0,0,1-1.907-.613,1.636,1.636,0,0,1,.034-2.01,6.123,6.123,0,0,1,.647-.681L197.8,139.617c1.294-1.294,1.805-1.328,3.338-.307l11.342,7.562c1.158.783,1.158.783,2.044-.273,3.2-3.917,6.4-7.8,9.605-11.717.17-.2.341-.443.647-.852-1.5,0-2.827.034-4.155,0a1.673,1.673,0,0,1-1.839-1.5,1.639,1.639,0,0,1,1.6-1.942c2.725-.068,5.45-.068,8.209-.034a1.672,1.672,0,0,1,1.635,1.7v.034c.034,2.623.034,5.28,0,7.9a1.747,1.747,0,0,1-1.635,1.839h0a1.812,1.812,0,0,1-1.839-1.771c-.034-.477,0-.954,0-1.4S226.687,137.88,226.687,137.165Z" transform="translate(-118.78 -86.39)" fill="#0091de"/>
  <path id="Path_4058" data-name="Path 4058" d="M307.4,191.377V180.75c0-2.146.852-3.066,3-3.1,1.873-.034,3.781-.034,5.654,0,2.01.068,2.929,1.022,2.929,3.031v21.663c0,2.01-.954,2.9-2.963,2.9h-5.927a2.441,2.441,0,0,1-2.657-2.725C307.4,198.769,307.4,195.09,307.4,191.377Zm3.474-.1v9.5c0,.681.17.988.886.954.954-.034,1.873-.034,2.827,0,.647.034.886-.2.886-.886V181.84c0-.647-.272-.817-.852-.783a15.994,15.994,0,0,1-2.555,0c-.92-.068-1.26.2-1.226,1.192.1,3,.034,6.029.034,9.026Z" transform="translate(-202.695 -117.441)" fill="#0091de"/>
  <path id="Path_4059" data-name="Path 4059" d="M233.9,207.2v7.732c0,1.907-.92,2.793-2.827,2.793h-6.029a2.285,2.285,0,0,1-2.589-2.35c-.1-1.4-.068-2.827-.068-4.224V200.417a14.277,14.277,0,0,1,.1-1.7,2.214,2.214,0,0,1,2.282-2.044c2.18-.034,4.394,0,6.574,0a2.327,2.327,0,0,1,2.521,2.521C233.936,201.882,233.9,204.539,233.9,207.2Zm-8.073.068c0,2.01.034,4.019,0,6.029-.034.783.272,1.056,1.022,1.022.92-.034,1.805-.034,2.725,0,.579,0,.852-.2.852-.817V201c0-.613-.272-.852-.852-.817-.886.034-1.771.034-2.623,0s-1.158.2-1.158,1.124c.068,1.941.034,3.951.034,5.961Z" transform="translate(-146.637 -129.99)" fill="#0091de"/>
  <path id="Path_4060" data-name="Path 4060" d="M276.348,222.925c0,1.5.034,3,0,4.5a2.5,2.5,0,0,1-2.759,2.725H267.56c-1.7,0-2.725-.852-2.759-2.521q-.1-4.8,0-9.605a2.383,2.383,0,0,1,2.657-2.521h6.2a2.459,2.459,0,0,1,2.657,2.623C276.382,219.758,276.348,221.325,276.348,222.925Zm-8.073-.068v3.1c0,.511.2.749.715.749h3.2a.6.6,0,0,0,.681-.681v-6.3c0-.477-.2-.681-.681-.681h-3.2c-.511,0-.749.238-.715.749v3.066Z" transform="translate(-174.572 -142.415)" fill="#0091de"/>
  <path id="Path_4061" data-name="Path 4061" d="M185.759,239.3h-3.2a2.333,2.333,0,0,1-2.486-2.452c-.034-1.6,0-3.2,0-4.8a2.329,2.329,0,0,1,2.316-2.589c2.248-.1,4.53-.1,6.778,0a2.331,2.331,0,0,1,2.35,2.623c0,1.567.034,3.134,0,4.7a2.36,2.36,0,0,1-2.521,2.521Zm.1-6.4c-2.452,0-2.452,0-2.316,2.146.034.545.2.817.783.817h2.9c.545,0,.783-.2.818-.783.17-2.18.17-2.18-2.01-2.18Z" transform="translate(-118.726 -151.564)" fill="#0091de"/>
  <path id="Path_4062" data-name="Path 4062" d="M126.865,185.874c-2.044,0-4.087.034-6.1,0a1.772,1.772,0,0,1-1.976-1.6c-.068-1.124.715-1.873,2.078-1.873h12.3a1.823,1.823,0,0,1,1.907,1.669,1.794,1.794,0,0,1-1.907,1.771C131.054,185.908,128.942,185.874,126.865,185.874Z" transform="translate(-78.327 -120.59)" fill="#0091de"/>
  <path id="Path_4063" data-name="Path 4063" d="M126.764,232.991h-6.029c-1.26,0-1.976-.579-2.044-1.6a1.746,1.746,0,0,1,1.942-1.839c4.156-.034,8.277-.034,12.432,0a1.737,1.737,0,0,1,1.907,1.771,1.833,1.833,0,0,1-2.01,1.669Z" transform="translate(-78.261 -151.663)" fill="#0091de"/>
  <path id="Path_4064" data-name="Path 4064" d="M126.97,135.3H133.1a1.8,1.8,0,0,1,2.01,1.567,1.729,1.729,0,0,1-1.839,1.839c-2.078.068-4.121.034-6.2.034H121.52a5.387,5.387,0,0,1-1.294-.136,1.665,1.665,0,0,1,.307-3.3c2.112,0,4.292.034,6.438,0Z" transform="translate(-78.364 -89.53)" fill="#0091de"/>
  <path id="Path_4065" data-name="Path 4065" d="M123.6,157.674c-.988,0-1.942.034-2.929,0-1.26-.034-2.01-.749-1.976-1.805s.749-1.669,2.044-1.669h5.825a1.731,1.731,0,1,1,.136,3.44c-1.022.068-2.078,0-3.1.034Z" transform="translate(-78.267 -101.995)" fill="#0091de"/>
  <path id="Path_4066" data-name="Path 4066" d="M123.669,204.725c-1.022,0-2.01.034-3,0a1.743,1.743,0,1,1,.034-3.474q3.014-.051,6.029,0a1.779,1.779,0,0,1,1.942,1.737,1.81,1.81,0,0,1-1.976,1.737Z" transform="translate(-78.333 -133.003)" fill="#0091de"/>
  <path id="Path_4067" data-name="Path 4067" d="M123.6,251.807h-3.2a1.662,1.662,0,0,1-1.737-1.5,1.583,1.583,0,0,1,1.328-1.805h.136a38.307,38.307,0,0,1,6.846,0,1.678,1.678,0,0,1,1.533,1.805h0a1.757,1.757,0,0,1-1.839,1.533C125.646,251.841,124.624,251.807,123.6,251.807Z" transform="translate(-78.232 -164.076)" fill="#0091de"/>
  <path id="Path_4068" data-name="Path 4068" d="M79.159,158.934a78.852,78.852,0,1,1,55.963-23.2A79.181,79.181,0,0,1,79.159,158.934Zm0-154.571a75.412,75.412,0,1,0,75.412,75.412A75.489,75.489,0,0,0,79.159,4.362Z" transform="translate(0 -0.934)" fill="#0091de"/>
  <path id="Path_4069" data-name="Path 4069" d="M89.841,163.448a73.624,73.624,0,1,1,52.046-21.561h0A73.008,73.008,0,0,1,89.841,163.448Zm0-145.885a72.244,72.244,0,1,0,72.244,72.244A72.327,72.327,0,0,0,89.841,17.562Z" transform="translate(-10.682 -11)" fill="#0091de"/>
</svg>
