<svg xmlns="http://www.w3.org/2000/svg" xmlns:xlink="http://www.w3.org/1999/xlink" width="439.354" height="66.647" viewBox="0 0 439.354 66.647">
  <defs>
    <clipPath id="clip-path">
      <rect id="Rectangle_3336" data-name="Rectangle 3336" width="81.236" height="66.647" transform="translate(360)" fill="#37a274"/>
    </clipPath>
  </defs>
  <g id="Group_8561" data-name="Group 8561" transform="translate(-3407.205 448.646)">
    <g id="Group_8560" data-name="Group 8560" transform="translate(0 0.053)">
      <path id="Path_6618" data-name="Path 6618" d="M8.624,322.012q-.145-.869-.272-1.694a11.143,11.143,0,0,1-.127-1.694l3.3-.67a12.974,12.974,0,0,0,.154,3.406,41.625,41.625,0,0,0,.842,4.149,11,11,0,0,0,1.649,3.642A4.064,4.064,0,0,0,16.559,331v1.5a6.709,6.709,0,0,1-5.326-2.464,5.53,5.53,0,0,1-3.406,2.346,5.036,5.036,0,0,1-4.457-.933,7.013,7.013,0,0,1-2.219-8.8,3.594,3.594,0,0,1,3.8-2.092,6.019,6.019,0,0,1,1.957.417,8.116,8.116,0,0,1,1.721,1.033m.689,3.587a5.064,5.064,0,0,0-1.259-2.464,2.968,2.968,0,0,0-2.636-.833,2.972,2.972,0,0,0-2.229,2.074,5.191,5.191,0,0,0,.3,3.225,4.6,4.6,0,0,0,2.174,2.509,3.571,3.571,0,0,0,2.672.435,4.214,4.214,0,0,0-.136-2.238,9.941,9.941,0,0,0-1.114-1.929Z" transform="translate(3493.046 -748.812)" fill="#01458e"/>
      <path id="Path_6619" data-name="Path 6619" d="M217.6,335.845a1.99,1.99,0,0,0,1.757-1.241,4.4,4.4,0,0,0-.145-3.524,12.615,12.615,0,0,0-1.105-2.609l3.026-1.123a28.373,28.373,0,0,0,.453,3.152,7.592,7.592,0,0,0,1.63,3.877,4.185,4.185,0,0,0,2.283,1.467v1.5a6.228,6.228,0,0,1-2.219-.38,6.065,6.065,0,0,1-2.219-1.776,2.909,2.909,0,0,1-1.368,1.567,4.15,4.15,0,0,1-2.093.589Zm2.083-10.671a2.755,2.755,0,0,1-.815.036,1.159,1.159,0,0,1-.761-.272q-.706-.724,1.449-1.757a3.736,3.736,0,0,1,.48.227q.444.226.444.335-1.576.254-1.576.87,0,.236,1.413.326.543.417-.344,1t-1.069.435l-1.178-.236a2.938,2.938,0,0,1,.951-.344q.951-.272,1.005-.616" transform="translate(3291.677 -753.658)" fill="#01458e"/>
      <path id="Path_6620" data-name="Path 6620" d="M317.916,393.619a1.392,1.392,0,0,1,.38-.951,1.326,1.326,0,0,1,1.939-.009,1.246,1.246,0,0,1,.417.96,1.33,1.33,0,0,1-.4.978,1.309,1.309,0,0,1-.96.4,1.361,1.361,0,0,1-1.377-1.377m.453-4.692a1.99,1.99,0,0,0,1.757-1.241,4.4,4.4,0,0,0-.145-3.524,12.607,12.607,0,0,0-1.105-2.609l3.026-1.123a28.377,28.377,0,0,0,.453,3.152,7.593,7.593,0,0,0,1.63,3.877,4.187,4.187,0,0,0,2.283,1.467v1.5a6.226,6.226,0,0,1-2.219-.38,6.06,6.06,0,0,1-2.219-1.776,2.911,2.911,0,0,1-1.368,1.567,4.149,4.149,0,0,1-2.092.589Zm2.464,4.692a1.333,1.333,0,0,1,.408-.96,1.325,1.325,0,0,1,1.929,0,1.245,1.245,0,0,1,.417.96,1.315,1.315,0,0,1-.408.978,1.378,1.378,0,0,1-1.939,0,1.315,1.315,0,0,1-.408-.978" transform="translate(3198.665 -806.741)" fill="#01458e"/>
      <path id="Path_6621" data-name="Path 6621" d="M423.95,388.926a1.99,1.99,0,0,0,1.757-1.241,4.4,4.4,0,0,0-.145-3.524,12.619,12.619,0,0,0-1.105-2.609l3.026-1.123a28.342,28.342,0,0,0,.453,3.152,7.591,7.591,0,0,0,1.63,3.877,4.186,4.186,0,0,0,2.283,1.467v1.5a6.227,6.227,0,0,1-2.219-.38,6.059,6.059,0,0,1-2.219-1.775,2.911,2.911,0,0,1-1.368,1.567,4.151,4.151,0,0,1-2.092.589Zm1.486,3.315a1.419,1.419,0,0,1,.67.172,1.264,1.264,0,0,1,.516.507,1.393,1.393,0,0,1,.19.7,1.368,1.368,0,0,1-.181.67,1.369,1.369,0,0,1-2.392,0,1.364,1.364,0,0,1-.181-.67,1.447,1.447,0,0,1,.181-.7,1.2,1.2,0,0,1,.516-.507,1.472,1.472,0,0,1,.68-.172" transform="translate(3100.348 -806.74)" fill="#01458e"/>
      <path id="Path_6622" data-name="Path 6622" d="M506.372,287.5v-1.431a1.729,1.729,0,0,0,1.6-.752,4.189,4.189,0,0,0,.29-2.491,25.827,25.827,0,0,0-.879-4.267,76.417,76.417,0,0,0-2.79-7.6l2.591-1.54A75.674,75.674,0,0,1,510,279.509a15.765,15.765,0,0,1,.245,4.647,3.5,3.5,0,0,1-1.323,2.364,3.239,3.239,0,0,1-2.554.978" transform="translate(3025.572 -703.808)" fill="#01458e"/>
      <path id="Path_6623" data-name="Path 6623" d="M593.579,286.013a42.15,42.15,0,0,1-2.817-8.37q-1.042-4.547-1.784-9.221l2.337.688a19.964,19.964,0,0,0,.571,3.189q.553,2.391,1.35,5.182t1.712,5.362a16.1,16.1,0,0,0,1.712,3.7Z" transform="translate(2947.333 -702.885)" fill="#01458e"/>
      <path id="Path_6624" data-name="Path 6624" d="M826.54,322.012q-.145-.869-.272-1.694a11.13,11.13,0,0,1-.127-1.694l3.3-.67a12.975,12.975,0,0,0,.154,3.406,41.589,41.589,0,0,0,.842,4.149,11,11,0,0,0,1.649,3.642A4.065,4.065,0,0,0,834.475,331v1.5a6.709,6.709,0,0,1-5.326-2.464,5.53,5.53,0,0,1-3.406,2.346,5.036,5.036,0,0,1-4.457-.933,7.013,7.013,0,0,1-2.219-8.8,3.594,3.594,0,0,1,3.8-2.092,6.018,6.018,0,0,1,1.957.417,8.111,8.111,0,0,1,1.721,1.033m.689,3.587a5.065,5.065,0,0,0-1.259-2.464,2.884,2.884,0,0,0-4.865,1.241,5.19,5.19,0,0,0,.3,3.225,4.6,4.6,0,0,0,2.174,2.509,3.571,3.571,0,0,0,2.672.435,4.213,4.213,0,0,0-.136-2.238A9.94,9.94,0,0,0,825,326.379Z" transform="translate(2734.662 -748.812)" fill="#01458e"/>
      <path id="Path_6625" data-name="Path 6625" d="M1031.784,389.464a1.393,1.393,0,0,1,.38-.951,1.273,1.273,0,0,1,1-.426,1.26,1.26,0,0,1,.942.417,1.244,1.244,0,0,1,.417.96,1.332,1.332,0,0,1-.4.978,1.31,1.31,0,0,1-.96.4,1.362,1.362,0,0,1-1.377-1.377m.2-3.189v-1.5a3.336,3.336,0,0,0,2.609-1.177,2.856,2.856,0,0,0,.417-2.246,8.042,8.042,0,0,0-1-2.5,10.033,10.033,0,0,0-1.449-1.957l3.007-.942a7.842,7.842,0,0,1,2.21,6.54q-.435,3.787-5.8,3.786m2.717,3.189a1.334,1.334,0,0,1,.407-.96,1.326,1.326,0,0,1,1.93,0,1.245,1.245,0,0,1,.417.96,1.316,1.316,0,0,1-.408.978,1.378,1.378,0,0,1-1.939,0,1.315,1.315,0,0,1-.407-.978" transform="translate(2536.755 -802.586)" fill="#01458e"/>
      <path id="Path_6626" data-name="Path 6626" d="M1127.275,269.821l2.7-1.649a22.046,22.046,0,0,0-.109,3.913,34.7,34.7,0,0,0,.562,4.728,21.41,21.41,0,0,0,1.3,4.42,6.45,6.45,0,0,0,2.029,2.835,3.883,3.883,0,0,0,2.2.842v1.431a12.442,12.442,0,0,1-1.286-.109,4.785,4.785,0,0,1-1.9-.715,9.374,9.374,0,0,1-2.382-2.591,14.79,14.79,0,0,1-2.119-4.883,31.568,31.568,0,0,1-.879-4.457,35.164,35.164,0,0,1-.109-3.768" transform="translate(2448.221 -702.653)" fill="#01458e"/>
      <path id="Path_6627" data-name="Path 6627" d="M1257.03,379.578a4.921,4.921,0,0,1-2.881-.752,5.446,5.446,0,0,1-1.685-1.893,2.768,2.768,0,0,1-.761,1.975q-.779.852-2.817.58t-3.6-3.316q-1.7,3.606-4.421,3.406v-1.467h.163a2.648,2.648,0,0,0,.743-.227,3.045,3.045,0,0,0,1.214-1.359,12.98,12.98,0,0,0,1.177-3.261,8.428,8.428,0,0,1,1.585-3.406,3.776,3.776,0,0,1,3.379-1.114,6.193,6.193,0,0,1,2.772,3.261,27.275,27.275,0,0,0,2.2,4.1,4.3,4.3,0,0,0,2.926,1.965Zm-9.095-9.348q-1.142.272-1.739,3.479l1.141-.67a10.78,10.78,0,0,0,1.685,3.977,3.054,3.054,0,0,0,1.576,1.168,5.381,5.381,0,0,0-.009-4.42,6.732,6.732,0,0,0-2.654-3.533" transform="translate(2342.888 -795.888)" fill="#01458e"/>
      <path id="Path_6628" data-name="Path 6628" d="M1441.607,285.763a5.374,5.374,0,0,0,1.712-.281,12.878,12.878,0,0,0,1.694-.706,14.036,14.036,0,0,0,1.613-.942,4.369,4.369,0,0,0,1.014-.861q-3.189-1.1-4.284-1.639a10.684,10.684,0,0,1-1.966-1.223,3.3,3.3,0,0,1-1.141-1.486,6.473,6.473,0,0,1,.833-1.766q.725-1.2,1.3-1.313a6,6,0,0,0,1.947,2.772,12.436,12.436,0,0,0,3.152,1.9,14.3,14.3,0,0,0,3.469.979,8.619,8.619,0,0,0,2.9.018l-.833,2.536a5.076,5.076,0,0,0-1.83-.163,8.188,8.188,0,0,0-1.74.38,9.212,9.212,0,0,0,3.3,1.585,6.388,6.388,0,0,0,3.533.1,8.694,8.694,0,0,0,.091-3.605,28.067,28.067,0,0,0-1.006-4.14,81.5,81.5,0,0,0-3.2-7.564l2.663-1.177q1.25,3.026,2.364,6.576a33.754,33.754,0,0,1,1.422,6.431,4.394,4.394,0,0,1-.951,3.56,5.042,5.042,0,0,1-2.953,1.558,8.806,8.806,0,0,1-7.256-2.328q-1.5.815-3.125,1.558a6.867,6.867,0,0,1-2.183.743l-.543.018Z" transform="translate(2158.021 -703.577)" fill="#01458e"/>
      <path id="Path_6629" data-name="Path 6629" d="M1824.165,322.012q-.145-.869-.272-1.694a11.138,11.138,0,0,1-.127-1.694l3.3-.67a12.968,12.968,0,0,0,.154,3.406,41.641,41.641,0,0,0,.843,4.149,11.013,11.013,0,0,0,1.648,3.642A4.066,4.066,0,0,0,1832.1,331v1.5a6.71,6.71,0,0,1-5.326-2.464,5.53,5.53,0,0,1-3.406,2.346,5.036,5.036,0,0,1-4.457-.933,7.013,7.013,0,0,1-2.219-8.8,3.594,3.594,0,0,1,3.8-2.092,6.014,6.014,0,0,1,1.956.417,8.11,8.11,0,0,1,1.721,1.033m.688,3.587a5.063,5.063,0,0,0-1.259-2.464,2.884,2.884,0,0,0-4.865,1.241,5.193,5.193,0,0,0,.3,3.225,4.6,4.6,0,0,0,2.174,2.509,3.57,3.57,0,0,0,2.672.435,4.213,4.213,0,0,0-.136-2.238,9.951,9.951,0,0,0-1.114-1.929Z" transform="translate(1809.649 -748.812)" fill="#01458e"/>
      <path id="Path_6630" data-name="Path 6630" d="M2029.414,389.464a1.392,1.392,0,0,1,.381-.951,1.326,1.326,0,0,1,1.939-.009,1.246,1.246,0,0,1,.417.96,1.332,1.332,0,0,1-.4.978,1.31,1.31,0,0,1-.96.4,1.361,1.361,0,0,1-1.377-1.377m.2-3.189v-1.5a3.335,3.335,0,0,0,2.608-1.177,2.854,2.854,0,0,0,.417-2.246,8.047,8.047,0,0,0-1-2.5,10.053,10.053,0,0,0-1.45-1.957l3.007-.942a7.841,7.841,0,0,1,2.21,6.54q-.435,3.787-5.8,3.786m2.717,3.189a1.334,1.334,0,0,1,.407-.96,1.326,1.326,0,0,1,1.93,0,1.245,1.245,0,0,1,.416.96,1.315,1.315,0,0,1-.407.978,1.378,1.378,0,0,1-1.939,0,1.316,1.316,0,0,1-.407-.978" transform="translate(1611.737 -802.586)" fill="#01458e"/>
      <path id="Path_6631" data-name="Path 6631" d="M2131.438,392.349a2.322,2.322,0,0,1-1.278-.073,4.59,4.59,0,0,1-1.313-.707,5.5,5.5,0,0,1-2.708,3.614,8.741,8.741,0,0,1-5.625,1.3q1.793-.942,3.551-1.875a5.8,5.8,0,0,0,2.627-2.962V391.5a.091.091,0,0,0-.117.018.206.206,0,0,1-.136.054,3.042,3.042,0,0,1-2.093.208,3.528,3.528,0,0,1-1.631-1.024,5.312,5.312,0,0,1-1.059-1.784,6.061,6.061,0,0,1-.381-2.092,7.015,7.015,0,0,1,.843-2.781,3.094,3.094,0,0,1,2.364-1.585,3.3,3.3,0,0,1,2.527.725,5.293,5.293,0,0,1,1.413,2.074,15.917,15.917,0,0,1,.77,3.6,2.235,2.235,0,0,0,1.059,1.513,3.128,3.128,0,0,0,1.187.426Zm-4.584-6.522a2.443,2.443,0,0,0-.734-1.44,1.6,1.6,0,0,0-1.458-.607,3,3,0,0,0-1.232,1.621,4.652,4.652,0,0,0-.209,2.083,3.9,3.9,0,0,0,.735,1.848,2.143,2.143,0,0,0,1.594.9,4,4,0,0,0,.371-2.165,7.671,7.671,0,0,0-.553-2Z" transform="translate(1527.268 -808.659)" fill="#01458e"/>
      <path id="Path_6632" data-name="Path 6632" d="M2264.883,386.276v-1.5q1.938-.181,2.247-1.177a4.52,4.52,0,0,0,.054-2.246,9.47,9.47,0,0,0-.906-2.5,7.982,7.982,0,0,0-1.359-1.957l3.008-.942a8.1,8.1,0,0,1,2.02,6.549q-.426,3.777-5.063,3.777m1.739,1.812a1.42,1.42,0,0,1,.67.172,1.262,1.262,0,0,1,.516.507,1.4,1.4,0,0,1,.191.7,1.367,1.367,0,0,1-.181.67,1.369,1.369,0,0,1-2.391,0,1.365,1.365,0,0,1-.181-.67,1.447,1.447,0,0,1,.181-.7,1.191,1.191,0,0,1,.517-.507,1.467,1.467,0,0,1,.679-.172" transform="translate(1393.407 -802.586)" fill="#01458e"/>
      <path id="Path_6633" data-name="Path 6633" d="M2325.709,344.556a3.865,3.865,0,0,1,2.2-.435,1.861,1.861,0,0,1,1.648,1.531,22.605,22.605,0,0,0,1.025,2.736,1.956,1.956,0,0,0,1.875,1.3v1.5a3.393,3.393,0,0,1-2.591-.924,5.221,5.221,0,0,1-1.214-2.02q-.344-1.1-.534-1.7a.9.9,0,0,0-.843-.67q-.651-.063-1.213.833a21.791,21.791,0,0,0-1.314,2.582,32.819,32.819,0,0,1-1.721,3.325,10.9,10.9,0,0,1-2.772,3.034,12.807,12.807,0,0,1-4.646,2.138q-.217-.29,1.576-2.083a27.71,27.71,0,0,0,3.4-4.185q1.6-2.392,2.872-4.411a7.339,7.339,0,0,1,2.255-2.554m-3.016-5.064a1.393,1.393,0,0,1,.38-.951,1.325,1.325,0,0,1,1.938-.009,1.244,1.244,0,0,1,.416.96,1.328,1.328,0,0,1-.4.978,1.308,1.308,0,0,1-.96.4,1.361,1.361,0,0,1-1.377-1.377m2.917,0a1.333,1.333,0,0,1,.408-.96,1.325,1.325,0,0,1,1.929,0,1.245,1.245,0,0,1,.417.96,1.314,1.314,0,0,1-.408.978,1.377,1.377,0,0,1-1.938,0,1.314,1.314,0,0,1-.408-.978" transform="translate(1346.394 -767.505)" fill="#01458e"/>
      <path id="Path_6634" data-name="Path 6634" d="M2520.546,287.5v-1.431a1.73,1.73,0,0,0,1.6-.752,4.2,4.2,0,0,0,.29-2.491,25.828,25.828,0,0,0-.879-4.267,76.488,76.488,0,0,0-2.79-7.6l2.591-1.54a75.708,75.708,0,0,1,2.817,10.091,15.761,15.761,0,0,1,.245,4.647,3.506,3.506,0,0,1-1.323,2.364,3.238,3.238,0,0,1-2.554.978" transform="translate(1157.998 -703.808)" fill="#01458e"/>
      <path id="Path_6635" data-name="Path 6635" d="M2607.751,286.013a42.193,42.193,0,0,1-2.817-8.37q-1.042-4.547-1.785-9.221l2.338.688a19.924,19.924,0,0,0,.57,3.189q.553,2.391,1.35,5.182t1.712,5.362a16.1,16.1,0,0,0,1.712,3.7Z" transform="translate(1079.76 -702.885)" fill="#01458e"/>
      <path id="Path_6636" data-name="Path 6636" d="M2844.512,354.012q.344,1.613-1.485,3.931a5.131,5.131,0,0,1-4.874,1.993,5.541,5.541,0,0,1-4.575-2.89,6.35,6.35,0,0,1-.118-5.951l3.841-.851a8.483,8.483,0,0,0-1.232,4.547,3.4,3.4,0,0,0,1.811,3.116,2.477,2.477,0,0,0,3.026-.236,4.4,4.4,0,0,0,1.531-2.772,7.1,7.1,0,0,0-.462-3.479,11.64,11.64,0,0,0-1.431-2.844l3.116-.942a24.851,24.851,0,0,0,1.069,3.949q1.54,2.845,3.352,2.953a2.007,2.007,0,0,0,1.649-1.232,4.422,4.422,0,0,0-.145-3.533,12.584,12.584,0,0,0-1.106-2.609l3.026-1.123a28.451,28.451,0,0,0,.452,3.152,7.6,7.6,0,0,0,1.63,3.877,4.188,4.188,0,0,0,2.284,1.467v1.5a6.231,6.231,0,0,1-2.22-.38,6.063,6.063,0,0,1-2.219-1.776,2.938,2.938,0,0,1-1.377,1.576,4.087,4.087,0,0,1-1.9.58,3.439,3.439,0,0,1-2.183-.58,4.835,4.835,0,0,1-1.459-1.449m-5.435-9.113a1.7,1.7,0,0,1-.417,1.141,1.3,1.3,0,0,1-1.032.489,1.484,1.484,0,0,1-1.133-.5,1.686,1.686,0,0,1-.462-1.187,1.414,1.414,0,0,1,.472-1.051,1.52,1.52,0,0,1,1.086-.453,2.237,2.237,0,0,1,.272.018,1.418,1.418,0,0,1,.888.534,1.608,1.608,0,0,1,.326,1.006m9.095,14.33a1.371,1.371,0,0,1,2.328-.988,1.308,1.308,0,0,1,.408.988,1.365,1.365,0,0,1-.39.96,1.273,1.273,0,0,1-.969.417,1.313,1.313,0,0,1-.978-.408,1.338,1.338,0,0,1-.4-.969m2.917,0a1.284,1.284,0,0,1,.426-.978,1.356,1.356,0,0,1,.951-.4,1.393,1.393,0,0,1,.951.38,1.273,1.273,0,0,1,.426,1,1.32,1.32,0,0,1-.417.96,1.245,1.245,0,0,1-.96.417,1.392,1.392,0,0,1-1.377-1.377" transform="translate(866.841 -772.351)" fill="#01458e"/>
      <path id="Path_6637" data-name="Path 6637" d="M3136.723,282.886a4.414,4.414,0,0,0,1.495,1.848,3.587,3.587,0,0,0,2.255.8v1.5a6.238,6.238,0,0,1-3.487-.815,8.3,8.3,0,0,1-2.075-1.757,10.154,10.154,0,0,1-5.833,2.717,10.541,10.541,0,0,0,.29,1.2q.2.67.471,1.34l-3.007.779a22.617,22.617,0,0,1-.616-3.46,4.576,4.576,0,0,1-1.286,0v-1.5h.126a7.609,7.609,0,0,0,1.1-.072,13.768,13.768,0,0,1,.01-2.292q.1-1.223.37-2.745a6.6,6.6,0,0,1,.326-1.314q.253-.734.6-1.495l-1.015.507-3.08-7.863,2.609-1.341,2.356,7.174a5.479,5.479,0,0,1,2.744-1.821,5.565,5.565,0,0,1,3.379.018,4.73,4.73,0,0,1,2.545,1.766,5.329,5.329,0,0,1,.8,3.279,6.575,6.575,0,0,1-1.078,3.551m-7.446-2.718a22.327,22.327,0,0,0-.38,2.772q-.091,1.3-.073,2.464a7.218,7.218,0,0,0,3.017-.815,7.578,7.578,0,0,0,2.256-1.975,5.982,5.982,0,0,0,1.512-4.122,3.052,3.052,0,0,0-1.458-2.573,2.556,2.556,0,0,0-2.7.163q-1.432.861-2.175,4.085" transform="translate(597.403 -703.345)" fill="#01458e"/>
      <path id="Path_6638" data-name="Path 6638" d="M3370.762,396.432a4.437,4.437,0,0,1-2.827-1.286l-.4.6a2.611,2.611,0,0,1-2.192.679,4.939,4.939,0,0,1-2.608-.77,4.221,4.221,0,0,1-3.987.417,3.2,3.2,0,0,1-1.575-1.142q-.581,1.4-3.316,1.5v-1.5h.054q1.576,0,1.7-1.766t-1.576-5.68l2.808-.344a13.277,13.277,0,0,0,1.648,5.354q1.359,2.383,1.812,2.382,1.123-.126.417-2.79a20.718,20.718,0,0,0-1.812-4.674l3.026-.344a18.731,18.731,0,0,0,.978,4.366,17.823,17.823,0,0,0,1.241,2.473q.661,1.078,1.386.969.58-.108.471-1.277a11.248,11.248,0,0,0-.571-2.536,20.653,20.653,0,0,0-1.024-2.509,5.819,5.819,0,0,1-.507-1.142l3.171-.507.815,3.823q.924,2.989,1.784,3.623t1.078.58Z" transform="translate(383.691 -812.742)" fill="#01458e"/>
      <path id="Path_6639" data-name="Path 6639" d="M3577.645,287.5a5.093,5.093,0,0,1-3.75-1.2,7.669,7.669,0,0,1-1.957-2.6,4.651,4.651,0,0,1-.643,1.957,3.029,3.029,0,0,1-1.485,1.513,4.786,4.786,0,0,1-1.749.335v-1.5a2.7,2.7,0,0,0,1.921-2.8,20.937,20.937,0,0,0-.535-4.656q-.553-2.509-2.02-7.491l2.628-1.63a54.881,54.881,0,0,0,2.092,9.991,16.916,16.916,0,0,0,2.554,4.919,3.872,3.872,0,0,0,2.98,1.739Z" transform="translate(185.669 -703.808)" fill="#01458e"/>
      <path id="Path_6640" data-name="Path 6640" d="M3681.314,256.475a1.569,1.569,0,0,1,1.15.48,1.606,1.606,0,0,1,0,2.292,1.626,1.626,0,0,1-2.781-1.16,1.624,1.624,0,0,1,1.63-1.612m-.181,17.519q3.479-.217,4.629-1.676a3.777,3.777,0,0,0,1.006-2.726,3.635,3.635,0,0,1-4.1.715q-2.057-.969-2.347-3.931a3.591,3.591,0,0,1,2.265-4.049,4.227,4.227,0,0,1,3.6.236q1.768.924,2.582,4.765a7.89,7.89,0,0,1-1.051,5.218,5.423,5.423,0,0,1-3.016,2.518,13.989,13.989,0,0,1-3.56.435Zm4.637-8.9a2.455,2.455,0,0,0-2.011-2.029q-1.757.471-1.213,3.478t2.555,2.863a4.211,4.211,0,0,0-.136-2.047,11.283,11.283,0,0,0-.879-1.938Z" transform="translate(81.582 -691.807)" fill="#01458e"/>
      <path id="Path_6641" data-name="Path 6641" d="M3937.406,322.012q-.145-.869-.272-1.694a11.2,11.2,0,0,1-.126-1.694l3.3-.67a12.992,12.992,0,0,0,.154,3.406,41.745,41.745,0,0,0,.843,4.149,11,11,0,0,0,1.649,3.642,4.063,4.063,0,0,0,2.391,1.848v1.5a6.71,6.71,0,0,1-5.326-2.464,5.53,5.53,0,0,1-3.406,2.346,5.035,5.035,0,0,1-4.456-.933,7.013,7.013,0,0,1-2.22-8.8,3.594,3.594,0,0,1,3.8-2.092,6.024,6.024,0,0,1,1.958.417,8.124,8.124,0,0,1,1.72,1.033m.689,3.587a5.067,5.067,0,0,0-1.26-2.464,2.884,2.884,0,0,0-4.864,1.241,5.194,5.194,0,0,0,.3,3.225,4.6,4.6,0,0,0,2.174,2.509,3.571,3.571,0,0,0,2.672.435,4.213,4.213,0,0,0-.136-2.238,9.977,9.977,0,0,0-1.114-1.929Z" transform="translate(-149.782 -748.812)" fill="#01458e"/>
      <path id="Path_6642" data-name="Path 6642" d="M4141.412,393.619a1.4,1.4,0,0,1,.38-.951,1.275,1.275,0,0,1,1-.426,1.261,1.261,0,0,1,.942.417,1.245,1.245,0,0,1,.417.96,1.327,1.327,0,0,1-.4.978,1.306,1.306,0,0,1-.959.4,1.362,1.362,0,0,1-1.377-1.377m.454-4.692a1.991,1.991,0,0,0,1.757-1.241,4.407,4.407,0,0,0-.146-3.524,12.518,12.518,0,0,0-1.106-2.609l3.026-1.123a28.147,28.147,0,0,0,.454,3.152,7.6,7.6,0,0,0,1.629,3.877,4.191,4.191,0,0,0,2.283,1.467v1.5a6.228,6.228,0,0,1-2.219-.38,6.05,6.05,0,0,1-2.219-1.776,2.912,2.912,0,0,1-1.368,1.567,4.151,4.151,0,0,1-2.092.589Zm2.463,4.692a1.332,1.332,0,0,1,.407-.96,1.326,1.326,0,0,1,1.93,0,1.245,1.245,0,0,1,.417.96,1.316,1.316,0,0,1-.408.978,1.378,1.378,0,0,1-1.938,0,1.314,1.314,0,0,1-.407-.978" transform="translate(-346.539 -806.741)" fill="#01458e"/>
      <path id="Path_6643" data-name="Path 6643" d="M4231.015,355.972a12.492,12.492,0,0,1,2.292-1.875,22.51,22.51,0,0,1,3.614-2.011,12.911,12.911,0,0,1,3.723-1.069,2.67,2.67,0,0,1,2.635.915q.889,1.5-.479,3.379a17.881,17.881,0,0,1-2.346,2.745,11.288,11.288,0,0,0,3.2,3.017,5.951,5.951,0,0,0,2.546.552v1.5a6.629,6.629,0,0,1-4.33-1.268,21.849,21.849,0,0,1-2.555-2.428,18.046,18.046,0,0,1-2.9,2.446,7.641,7.641,0,0,1-3.714,1.25h-.688v-1.5a6.818,6.818,0,0,0,2.789-.724,11.54,11.54,0,0,0,3.37-2.609,15.28,15.28,0,0,0-2.028-1.585q-.907-.571-1.342-.39l-.715.679a4.885,4.885,0,0,1-.752.589Zm5.489-.815a10.345,10.345,0,0,1,2.682,1.721q.235-.2,1.558-1.613a5.522,5.522,0,0,0,1.4-1.9q-.073-.779-2.4,0a7.572,7.572,0,0,0-3.234,1.793" transform="translate(-429.621 -779.438)" fill="#01458e"/>
      <path id="Path_6644" data-name="Path 6644" d="M4458.491,346.89a7.279,7.279,0,0,0-3.859.272,29.54,29.54,0,0,0-3.623,1.594,32.735,32.735,0,0,1-3.66,1.631,7.061,7.061,0,0,1-2.972.58,4.726,4.726,0,0,1-2.446-.743,5.522,5.522,0,0,1-1.685-1.9,2.764,2.764,0,0,1-.761,1.975q-.78.852-2.818.58t-3.6-3.316q-1.7,3.606-4.42,3.406V349.5h.182a2.71,2.71,0,0,0,.724-.227,3.034,3.034,0,0,0,1.214-1.359,12.93,12.93,0,0,0,1.178-3.261,8.41,8.41,0,0,1,1.586-3.406,3.774,3.774,0,0,1,3.378-1.114,6.2,6.2,0,0,1,2.772,3.261,28.272,28.272,0,0,0,2.192,4.113,4.288,4.288,0,0,0,2.845,1.939,12.617,12.617,0,0,0,1.558-.29,10.744,10.744,0,0,0,2.653-1.024q1.333-.716,2.283-1.241a2.811,2.811,0,0,0,1.1-.833q-.906-.235-2.165-.67a20.961,20.961,0,0,1-2.482-1.042,12.925,12.925,0,0,1-2.2-1.368,3.665,3.665,0,0,1-1.287-1.649,7.264,7.264,0,0,1,.941-2q.819-1.349,1.45-1.458a6.788,6.788,0,0,0,2.183,3.107,14.01,14.01,0,0,0,3.523,2.129,16.13,16.13,0,0,0,3.9,1.105,9.5,9.5,0,0,0,3.261.018Zm-22.774-5.272q-1.141.272-1.738,3.479l1.142-.67a10.758,10.758,0,0,0,1.684,3.977,3.053,3.053,0,0,0,1.576,1.169,5.381,5.381,0,0,0-.009-4.42,6.724,6.724,0,0,0-2.655-3.533m11.959,12.537a1.328,1.328,0,0,1,.4-.978,1.309,1.309,0,0,1,.961-.4,1.36,1.36,0,0,1,1.376,1.377,1.361,1.361,0,0,1-.389.96,1.345,1.345,0,0,1-1.938.009,1.326,1.326,0,0,1-.407-.969" transform="translate(-612.873 -767.276)" fill="#01458e"/>
      <path id="Path_6645" data-name="Path 6645" d="M58.445,680.3h2.6c2.042,0,3.42.869,3.42,3.4,0,2.427-1.371,3.562-3.364,3.562H59.6v4.575h-1.16Zm2.512,5.767c1.593,0,2.354-.731,2.354-2.372,0-1.663-.809-2.205-2.409-2.205H59.6v4.577Z" transform="translate(3439.25 -1084.782)" fill="#01458e"/>
      <path id="Path_6646" data-name="Path 6646" d="M146.4,725.028c0-1.861,1.269-2.791,4.145-3.187,0-1.1-.291-2.157-1.393-2.157a3.28,3.28,0,0,0-2.013.916l-.447-.991a4.32,4.32,0,0,1,2.651-1.115c1.647,0,2.344,1.386,2.344,3.512v5.24h-.944l-.1-1.021h-.038a3.278,3.278,0,0,1-2.232,1.232c-1.129,0-1.977-.888-1.977-2.428m4.145.134v-2.372c-2.262.344-3.026,1.045-3.026,2.137,0,.971.521,1.366,1.183,1.366a2.587,2.587,0,0,0,1.844-1.13" transform="translate(3357.693 -1120.198)" fill="#01458e"/>
      <path id="Path_6647" data-name="Path 6647" d="M244.836,677.552v-10.8h1.142v10.908c0,.442.152.617.319.617a.792.792,0,0,0,.25-.035l.155,1.1a1.5,1.5,0,0,1-.657.135c-.856,0-1.208-.691-1.208-1.926" transform="translate(3266.425 -1072.22)" fill="#01458e"/>
      <path id="Path_6648" data-name="Path 6648" d="M281.813,722.987c0-2.78,1.48-4.493,3.034-4.493,1.721,0,2.694,1.565,2.694,4.008a5.755,5.755,0,0,1-.053.821h-4.545c.082,1.809.956,2.982,2.243,2.982a2.556,2.556,0,0,0,1.679-.682l.409.948a3.433,3.433,0,0,1-2.229.886c-1.8,0-3.231-1.665-3.231-4.47m4.718-.7c0-1.712-.608-2.642-1.664-2.642-.949,0-1.8.964-1.936,2.642Z" transform="translate(3232.14 -1120.199)" fill="#01458e"/>
      <path id="Path_6649" data-name="Path 6649" d="M369.581,726.271l.564-.952a2.74,2.74,0,0,0,1.992,1.012A1.24,1.24,0,0,0,373.464,725c0-.879-.8-1.267-1.544-1.619-.946-.438-2.013-1.026-2.013-2.467a2.257,2.257,0,0,1,2.328-2.425,3.028,3.028,0,0,1,2.1.96l-.546.926a2.272,2.272,0,0,0-1.539-.76,1.153,1.153,0,0,0-1.243,1.225c0,.812.734,1.121,1.5,1.482.973.464,2.058.966,2.058,2.591a2.373,2.373,0,0,1-2.462,2.539,3.6,3.6,0,0,1-2.518-1.186" transform="translate(3150.76 -1120.199)" fill="#01458e"/>
      <path id="Path_6650" data-name="Path 6650" d="M442.3,696.778v-4.723h-1V690.96l1.055-.083.137-2.395h.954v2.395h1.829v1.177h-1.829V696.8c0,1.044.266,1.649,1.044,1.649a1.876,1.876,0,0,0,.769-.229l.221,1.09a3.337,3.337,0,0,1-1.252.316c-1.436,0-1.923-1.152-1.923-2.851" transform="translate(3084.266 -1092.371)" fill="#01458e"/>
      <path id="Path_6651" data-name="Path 6651" d="M507.063,672.549a.8.8,0,1,1,1.578,0,.8.8,0,1,1-1.578,0m.209,2.689h1.142v8.541h-1.142Z" transform="translate(3023.285 -1076.732)" fill="#01458e"/>
      <path id="Path_6652" data-name="Path 6652" d="M552.27,718.7h.943l.1,1.232h.038a3.05,3.05,0,0,1,2.264-1.443c1.422,0,2.061,1.162,2.061,3.34v5.412h-1.142v-5.225c0-1.591-.38-2.272-1.274-2.272-.69,0-1.168.446-1.845,1.312v6.185H552.27Z" transform="translate(2981.368 -1120.199)" fill="#01458e"/>
      <path id="Path_6653" data-name="Path 6653" d="M645.7,722.987c0-2.78,1.48-4.493,3.034-4.493,1.721,0,2.694,1.565,2.694,4.008a5.774,5.774,0,0,1-.053.821H646.83c.082,1.809.956,2.982,2.243,2.982a2.556,2.556,0,0,0,1.679-.682l.409.948a3.433,3.433,0,0,1-2.228.886c-1.8,0-3.231-1.665-3.231-4.47m4.718-.7c0-1.712-.608-2.642-1.664-2.642-.949,0-1.8.964-1.936,2.642Z" transform="translate(2894.737 -1120.199)" fill="#01458e"/>
      <path id="Path_6654" data-name="Path 6654" d="M769.84,680.3h1.309l3.083,11.532H773l-1.589-6.441c-.328-1.289-.62-2.555-.912-3.886h-.056c-.282,1.338-.574,2.6-.9,3.886l-1.607,6.441h-1.18Zm-1.462,6.848h4.2v1.171h-4.2Z" transform="translate(2782.492 -1084.782)" fill="#01458e"/>
      <path id="Path_6655" data-name="Path 6655" d="M875.17,726.271l.564-.952a2.74,2.74,0,0,0,1.992,1.012A1.24,1.24,0,0,0,879.052,725c0-.879-.8-1.267-1.544-1.619-.946-.438-2.013-1.026-2.013-2.467a2.257,2.257,0,0,1,2.328-2.425,3.028,3.028,0,0,1,2.1.96l-.546.926a2.271,2.271,0,0,0-1.539-.76,1.153,1.153,0,0,0-1.243,1.225c0,.812.734,1.121,1.5,1.482.973.464,2.058.966,2.058,2.591a2.373,2.373,0,0,1-2.462,2.539,3.6,3.6,0,0,1-2.518-1.186" transform="translate(2681.97 -1120.199)" fill="#01458e"/>
      <path id="Path_6656" data-name="Path 6656" d="M951.459,726.271l.564-.952a2.741,2.741,0,0,0,1.992,1.012A1.24,1.24,0,0,0,955.342,725c0-.879-.8-1.267-1.544-1.619-.946-.438-2.013-1.026-2.013-2.467a2.257,2.257,0,0,1,2.328-2.425,3.028,3.028,0,0,1,2.1.96l-.546.926a2.271,2.271,0,0,0-1.539-.76,1.153,1.153,0,0,0-1.243,1.225c0,.812.734,1.121,1.5,1.482.973.464,2.058.966,2.058,2.591a2.373,2.373,0,0,1-2.462,2.539,3.6,3.6,0,0,1-2.518-1.186" transform="translate(2611.233 -1120.199)" fill="#01458e"/>
      <path id="Path_6657" data-name="Path 6657" d="M1031.141,722.987c0-2.85,1.473-4.493,3.128-4.493s3.128,1.642,3.128,4.493c0,2.828-1.473,4.47-3.128,4.47s-3.128-1.642-3.128-4.47m5.075,0c0-1.957-.786-3.289-1.947-3.289s-1.948,1.332-1.948,3.289.787,3.267,1.948,3.267,1.947-1.31,1.947-3.267" transform="translate(2537.351 -1120.199)" fill="#01458e"/>
      <path id="Path_6658" data-name="Path 6658" d="M1132.6,722.987c0-2.85,1.522-4.493,3.247-4.493a2.57,2.57,0,0,1,1.974,1l-.584.956a1.8,1.8,0,0,0-1.339-.755c-1.222,0-2.118,1.332-2.118,3.289s.846,3.267,2.088,3.267a2.215,2.215,0,0,0,1.584-.851l.5.969a2.944,2.944,0,0,1-2.182,1.086c-1.8,0-3.166-1.642-3.166-4.47" transform="translate(2443.274 -1120.199)" fill="#01458e"/>
      <path id="Path_6659" data-name="Path 6659" d="M1221.682,672.549a.8.8,0,1,1,1.578,0,.8.8,0,1,1-1.578,0m.209,2.689h1.142v8.541h-1.142Z" transform="translate(2360.678 -1076.732)" fill="#01458e"/>
      <path id="Path_6660" data-name="Path 6660" d="M1261.145,725.028c0-1.861,1.269-2.791,4.145-3.187,0-1.1-.291-2.157-1.393-2.157a3.28,3.28,0,0,0-2.013.916l-.447-.991a4.32,4.32,0,0,1,2.651-1.115c1.647,0,2.344,1.386,2.344,3.512v5.24h-.943l-.1-1.021h-.038a3.278,3.278,0,0,1-2.232,1.232c-1.13,0-1.978-.888-1.978-2.428m4.145.134v-2.372c-2.262.344-3.026,1.045-3.026,2.137,0,.971.52,1.366,1.183,1.366a2.587,2.587,0,0,0,1.844-1.13" transform="translate(2324.088 -1120.198)" fill="#01458e"/>
      <path id="Path_6661" data-name="Path 6661" d="M1346.866,696.778v-4.723h-1V690.96l1.056-.083.137-2.395h.954v2.395h1.828v1.177h-1.828V696.8c0,1.044.266,1.649,1.044,1.649a1.878,1.878,0,0,0,.769-.229l.22,1.09a3.337,3.337,0,0,1-1.252.316c-1.436,0-1.923-1.152-1.923-2.851" transform="translate(2245.537 -1092.371)" fill="#01458e"/>
      <path id="Path_6662" data-name="Path 6662" d="M1411.631,672.549a.8.8,0,1,1,1.578,0,.8.8,0,1,1-1.578,0m.209,2.689h1.142v8.541h-1.142Z" transform="translate(2184.555 -1076.732)" fill="#01458e"/>
      <path id="Path_6663" data-name="Path 6663" d="M1449.955,722.987c0-2.85,1.473-4.493,3.127-4.493s3.128,1.642,3.128,4.493c0,2.828-1.473,4.47-3.128,4.47s-3.127-1.642-3.127-4.47m5.075,0c0-1.957-.786-3.289-1.947-3.289s-1.948,1.332-1.948,3.289.787,3.267,1.948,3.267,1.947-1.31,1.947-3.267" transform="translate(2149.021 -1120.199)" fill="#01458e"/>
      <path id="Path_6664" data-name="Path 6664" d="M1558.3,718.7h.943l.1,1.232h.038a3.049,3.049,0,0,1,2.264-1.443c1.422,0,2.061,1.162,2.061,3.34v5.412h-1.142v-5.225c0-1.591-.38-2.272-1.274-2.272-.69,0-1.168.446-1.845,1.312v6.185H1558.3Z" transform="translate(2048.558 -1120.199)" fill="#01458e"/>
      <path id="Path_6665" data-name="Path 6665" d="M1686.763,668.125l.967-.083h2.521v1.178h-3.488Zm.916-1.432c0-1.736.624-2.839,1.977-2.839a2.463,2.463,0,0,1,1.121.294l-.241,1.1a1.538,1.538,0,0,0-.765-.22c-.638,0-.95.563-.95,1.667v9.885h-1.142Z" transform="translate(1929.448 -1069.536)" fill="#01458e"/>
      <path id="Path_6666" data-name="Path 6666" d="M1736.032,722.987c0-2.85,1.473-4.493,3.127-4.493s3.128,1.642,3.128,4.493c0,2.828-1.473,4.47-3.128,4.47s-3.127-1.642-3.127-4.47m5.075,0c0-1.957-.787-3.289-1.947-3.289s-1.948,1.332-1.948,3.289.787,3.267,1.948,3.267,1.947-1.31,1.947-3.267" transform="translate(1883.765 -1120.199)" fill="#01458e"/>
      <path id="Path_6667" data-name="Path 6667" d="M1844.382,718.7h.944l.1,1.555h.038c.47-1.084,1.16-1.766,1.919-1.766a1.291,1.291,0,0,1,.721.176l-.213,1.268a1.538,1.538,0,0,0-.655-.141c-.57,0-1.251.52-1.708,1.964v5.484h-1.142Z" transform="translate(1783.302 -1120.199)" fill="#01458e"/>
      <path id="Path_6668" data-name="Path 6668" d="M1942.353,680.3h5.253v1.242h-4.093v3.613h3.453v1.242h-3.453v4.193h4.232v1.242h-5.391Z" transform="translate(1692.461 -1084.782)" fill="#01458e"/>
      <path id="Path_6669" data-name="Path 6669" d="M2029.64,675.009c0-2.77,1.381-4.493,2.92-4.493a2.506,2.506,0,0,1,1.891.99l-.048-1.465V666.75h1.142v12.518h-.943l-.1-1.008h-.038a2.785,2.785,0,0,1-2.048,1.219c-1.687,0-2.78-1.624-2.78-4.47m4.763,2.088V672.62a2.155,2.155,0,0,0-1.646-.888c-1.079,0-1.937,1.317-1.937,3.264,0,2.048.669,3.267,1.853,3.267a2.224,2.224,0,0,0,1.73-1.166" transform="translate(1611.527 -1072.221)" fill="#01458e"/>
      <path id="Path_6670" data-name="Path 6670" d="M2137.99,726.8v-5.412h1.143v5.225c0,1.591.38,2.272,1.273,2.272.689,0,1.168-.433,1.807-1.439v-6.058h1.142v8.541h-.943l-.1-1.337h-.038a2.776,2.776,0,0,1-2.227,1.548c-1.422,0-2.061-1.161-2.061-3.34" transform="translate(1511.064 -1122.883)" fill="#01458e"/>
      <path id="Path_6671" data-name="Path 6671" d="M2232.283,722.987c0-2.85,1.521-4.493,3.247-4.493a2.57,2.57,0,0,1,1.974,1l-.584.956a1.8,1.8,0,0,0-1.339-.755c-1.222,0-2.118,1.332-2.118,3.289s.846,3.267,2.087,3.267a2.216,2.216,0,0,0,1.585-.851l.5.969a2.944,2.944,0,0,1-2.182,1.086c-1.8,0-3.166-1.642-3.166-4.47" transform="translate(1423.634 -1120.199)" fill="#01458e"/>
      <path id="Path_6672" data-name="Path 6672" d="M2316.581,725.028c0-1.861,1.269-2.791,4.145-3.187,0-1.1-.291-2.157-1.393-2.157a3.278,3.278,0,0,0-2.012.916l-.448-.991a4.319,4.319,0,0,1,2.651-1.115c1.647,0,2.344,1.386,2.344,3.512v5.24h-.943l-.1-1.021h-.038a3.278,3.278,0,0,1-2.232,1.232c-1.13,0-1.977-.888-1.977-2.428m4.145.134v-2.372c-2.262.344-3.027,1.045-3.027,2.137,0,.971.521,1.366,1.183,1.366a2.587,2.587,0,0,0,1.844-1.13" transform="translate(1345.472 -1120.198)" fill="#01458e"/>
      <path id="Path_6673" data-name="Path 6673" d="M2402.3,696.778v-4.723h-1V690.96l1.055-.083.137-2.395h.954v2.395h1.828v1.177h-1.828V696.8c0,1.044.265,1.649,1.043,1.649a1.878,1.878,0,0,0,.769-.229l.22,1.09a3.338,3.338,0,0,1-1.252.316c-1.437,0-1.923-1.152-1.923-2.851" transform="translate(1266.922 -1092.371)" fill="#01458e"/>
      <path id="Path_6674" data-name="Path 6674" d="M2467.067,672.549a.8.8,0,1,1,1.577,0,.8.8,0,1,1-1.577,0m.209,2.689h1.141v8.541h-1.141Z" transform="translate(1205.939 -1076.732)" fill="#01458e"/>
      <path id="Path_6675" data-name="Path 6675" d="M2505.389,722.987c0-2.85,1.473-4.493,3.127-4.493s3.128,1.642,3.128,4.493c0,2.828-1.473,4.47-3.128,4.47s-3.127-1.642-3.127-4.47m5.075,0c0-1.957-.787-3.289-1.948-3.289s-1.948,1.332-1.948,3.289.787,3.267,1.948,3.267,1.948-1.31,1.948-3.267" transform="translate(1170.406 -1120.199)" fill="#01458e"/>
      <path id="Path_6676" data-name="Path 6676" d="M2613.74,718.7h.944l.1,1.232h.038a3.051,3.051,0,0,1,2.264-1.443c1.422,0,2.06,1.162,2.06,3.34v5.412H2618v-5.225c0-1.591-.38-2.272-1.273-2.272-.69,0-1.168.446-1.845,1.312v6.185h-1.142Z" transform="translate(1069.942 -1120.199)" fill="#01458e"/>
      <path id="Path_6677" data-name="Path 6677" d="M2742.678,686.164c0-3.422,4.161-3.979,4.161-6.455,0-.67-.241-1.271-.861-1.271-.682,0-1.12.72-1.12,1.68,0,2.153,1.871,5.028,3.619,6.668a6.184,6.184,0,0,0,2.005,1.368l-.309,1.2a6.746,6.746,0,0,1-2.38-1.606c-2-1.958-3.919-5.168-3.919-7.61,0-1.541.842-2.737,2.1-2.737,1.128,0,1.792.943,1.792,2.284,0,2.959-3.98,3.858-3.98,6.391a1.914,1.914,0,0,0,1.8,2.128,2.845,2.845,0,0,0,2.086-1.356,10.3,10.3,0,0,0,1.635-3.92h1.06a13.662,13.662,0,0,1-1.9,4.611,3.7,3.7,0,0,1-3.012,1.816c-1.649,0-2.777-1.337-2.777-3.192" transform="translate(950.387 -1082.098)" fill="#01458e"/>
      <path id="Path_6678" data-name="Path 6678" d="M2898.994,680.3h5.253v1.242h-4.093v3.613h3.453v1.242h-3.453v4.193h4.231v1.242h-5.391Z" transform="translate(805.449 -1084.782)" fill="#01458e"/>
      <path id="Path_6679" data-name="Path 6679" d="M2994.793,718.7h.944l.1,1.232h.038a3.049,3.049,0,0,1,2.264-1.443c1.423,0,2.061,1.162,2.061,3.34v5.412h-1.142v-5.225c0-1.591-.38-2.272-1.273-2.272-.69,0-1.168.446-1.846,1.312v6.185h-1.142Z" transform="translate(716.623 -1120.199)" fill="#01458e"/>
      <path id="Path_6680" data-name="Path 6680" d="M3081.755,721.389h1.177l1.277,4.852c.2.834.421,1.7.623,2.519h.056c.2-.815.421-1.685.623-2.519l1.277-4.852h1.119l-2.388,8.541h-1.327Z" transform="translate(635.991 -1122.883)" fill="#01458e"/>
      <path id="Path_6681" data-name="Path 6681" d="M3172.72,672.549a.8.8,0,1,1,1.578,0,.8.8,0,1,1-1.578,0m.209,2.689h1.142v8.541h-1.142Z" transform="translate(551.646 -1076.732)" fill="#01458e"/>
      <path id="Path_6682" data-name="Path 6682" d="M3217.931,718.7h.943l.1,1.555h.037c.47-1.084,1.16-1.766,1.919-1.766a1.29,1.29,0,0,1,.721.176l-.213,1.268a1.537,1.537,0,0,0-.655-.141c-.57,0-1.251.52-1.707,1.964v5.484h-1.142Z" transform="translate(509.726 -1120.199)" fill="#01458e"/>
      <path id="Path_6683" data-name="Path 6683" d="M3267.5,722.987c0-2.85,1.473-4.493,3.127-4.493s3.128,1.642,3.128,4.493c0,2.828-1.473,4.47-3.128,4.47s-3.127-1.642-3.127-4.47m5.074,0c0-1.957-.786-3.289-1.947-3.289s-1.948,1.332-1.948,3.289.787,3.267,1.948,3.267,1.947-1.31,1.947-3.267" transform="translate(463.766 -1120.199)" fill="#01458e"/>
      <path id="Path_6684" data-name="Path 6684" d="M3375.847,718.7h.944l.1,1.232h.038a3.05,3.05,0,0,1,2.264-1.443c1.422,0,2.06,1.162,2.06,3.34v5.412h-1.142v-5.225c0-1.591-.38-2.272-1.273-2.272-.69,0-1.168.446-1.845,1.312v6.185h-1.142Z" transform="translate(363.303 -1120.199)" fill="#01458e"/>
      <path id="Path_6685" data-name="Path 6685" d="M3476.163,718.7h.943l.1,1.238h.038a2.894,2.894,0,0,1,2.1-1.449,1.866,1.866,0,0,1,1.863,1.628c.7-.96,1.4-1.628,2.226-1.628,1.386,0,2.053,1.162,2.053,3.34v5.412h-1.142v-5.225c0-1.591-.4-2.272-1.256-2.272-.524,0-1.068.433-1.691,1.312v6.185h-1.143v-5.225c0-1.591-.4-2.272-1.256-2.272-.505,0-1.066.433-1.691,1.312v6.185h-1.142Z" transform="translate(270.289 -1120.199)" fill="#01458e"/>
      <path id="Path_6686" data-name="Path 6686" d="M3623,722.987c0-2.78,1.48-4.493,3.034-4.493,1.722,0,2.694,1.565,2.694,4.008a5.787,5.787,0,0,1-.054.821h-4.544c.081,1.809.955,2.982,2.242,2.982a2.558,2.558,0,0,0,1.679-.682l.409.948a3.434,3.434,0,0,1-2.229.886c-1.8,0-3.232-1.665-3.232-4.47m4.719-.7c0-1.712-.608-2.642-1.664-2.642-.948,0-1.8.964-1.936,2.642Z" transform="translate(134.142 -1120.199)" fill="#01458e"/>
      <path id="Path_6687" data-name="Path 6687" d="M3721.049,718.7h.944l.1,1.232h.038a3.051,3.051,0,0,1,2.264-1.443c1.422,0,2.06,1.162,2.06,3.34v5.412h-1.141v-5.225c0-1.591-.38-2.272-1.273-2.272-.69,0-1.168.446-1.845,1.312v6.185h-1.142Z" transform="translate(43.227 -1120.199)" fill="#01458e"/>
      <path id="Path_6688" data-name="Path 6688" d="M3811.323,696.778v-4.723h-1V690.96l1.055-.083.137-2.395h.954v2.395h1.828v1.177h-1.828V696.8c0,1.044.265,1.649,1.043,1.649a1.876,1.876,0,0,0,.769-.229l.221,1.09a3.339,3.339,0,0,1-1.253.316c-1.436,0-1.923-1.152-1.923-2.851" transform="translate(-39.546 -1092.371)" fill="#01458e"/>
      <path id="Path_6689" data-name="Path 6689" d="M3869.212,725.028c0-1.861,1.268-2.791,4.145-3.187,0-1.1-.291-2.157-1.394-2.157a3.281,3.281,0,0,0-2.012.916l-.447-.991a4.321,4.321,0,0,1,2.651-1.115c1.647,0,2.344,1.386,2.344,3.512v5.24h-.943l-.1-1.021h-.038a3.277,3.277,0,0,1-2.232,1.232c-1.129,0-1.977-.888-1.977-2.428m4.145.134v-2.372c-2.262.344-3.026,1.045-3.026,2.137,0,.971.521,1.366,1.183,1.366a2.586,2.586,0,0,0,1.844-1.13" transform="translate(-94.151 -1120.198)" fill="#01458e"/>
      <path id="Path_6690" data-name="Path 6690" d="M3967.644,677.552v-10.8h1.142v10.908c0,.442.152.617.319.617a.79.79,0,0,0,.25-.035l.155,1.1a1.5,1.5,0,0,1-.658.135c-.856,0-1.208-.691-1.208-1.926" transform="translate(-185.42 -1072.22)" fill="#01458e"/>
      <path id="Path_6691" data-name="Path 6691" d="M4051.119,680.3h2.6c2.042,0,3.42.869,3.42,3.4,0,2.427-1.371,3.562-3.364,3.562h-1.5v4.575h-1.16Zm2.511,5.767c1.594,0,2.355-.731,2.355-2.372,0-1.663-.81-2.205-2.409-2.205h-1.3v4.577Z" transform="translate(-262.819 -1084.782)" fill="#01458e"/>
      <path id="Path_6692" data-name="Path 6692" d="M4153.021,718.7h.943l.1,1.555h.038c.47-1.084,1.16-1.766,1.919-1.766a1.289,1.289,0,0,1,.72.176l-.213,1.268a1.539,1.539,0,0,0-.655-.141c-.57,0-1.251.52-1.707,1.964v5.484h-1.143Z" transform="translate(-357.304 -1120.199)" fill="#01458e"/>
      <path id="Path_6693" data-name="Path 6693" d="M4202.588,722.987c0-2.85,1.474-4.493,3.127-4.493s3.128,1.642,3.128,4.493c0,2.828-1.473,4.47-3.128,4.47s-3.127-1.642-3.127-4.47m5.074,0c0-1.957-.787-3.289-1.947-3.289s-1.947,1.332-1.947,3.289.786,3.267,1.947,3.267,1.947-1.31,1.947-3.267" transform="translate(-403.264 -1120.199)" fill="#01458e"/>
      <path id="Path_6694" data-name="Path 6694" d="M4297.656,696.778v-4.723h-1V690.96l1.055-.083.137-2.395h.955v2.395h1.828v1.177H4298.8V696.8c0,1.044.266,1.649,1.043,1.649a1.874,1.874,0,0,0,.768-.229l.222,1.09a3.346,3.346,0,0,1-1.254.316c-1.436,0-1.922-1.152-1.922-2.851" transform="translate(-490.48 -1092.371)" fill="#01458e"/>
      <path id="Path_6695" data-name="Path 6695" d="M4355.735,722.987c0-2.78,1.481-4.493,3.034-4.493,1.721,0,2.693,1.565,2.693,4.008a5.577,5.577,0,0,1-.054.821h-4.545c.083,1.809.956,2.982,2.242,2.982a2.557,2.557,0,0,0,1.68-.682l.409.948a3.429,3.429,0,0,1-2.228.886c-1.8,0-3.231-1.665-3.231-4.47m4.718-.7c0-1.712-.608-2.642-1.663-2.642-.949,0-1.8.964-1.936,2.642Z" transform="translate(-545.264 -1120.199)" fill="#01458e"/>
      <path id="Path_6696" data-name="Path 6696" d="M4446.9,722.987c0-2.85,1.521-4.493,3.247-4.493a2.57,2.57,0,0,1,1.975,1l-.584.956a1.8,1.8,0,0,0-1.339-.755c-1.223,0-2.119,1.332-2.119,3.289s.847,3.267,2.088,3.267a2.216,2.216,0,0,0,1.585-.851l.5.969a2.945,2.945,0,0,1-2.183,1.086c-1.8,0-3.165-1.642-3.165-4.47" transform="translate(-629.792 -1120.199)" fill="#01458e"/>
      <path id="Path_6697" data-name="Path 6697" d="M4526.9,696.778v-4.723h-1V690.96l1.056-.083.137-2.395h.953v2.395h1.829v1.177h-1.829V696.8c0,1.044.266,1.649,1.044,1.649a1.878,1.878,0,0,0,.769-.229l.22,1.09a3.334,3.334,0,0,1-1.252.316c-1.437,0-1.924-1.152-1.924-2.851" transform="translate(-703.04 -1092.371)" fill="#01458e"/>
      <path id="Path_6698" data-name="Path 6698" d="M4591.667,672.549a.8.8,0,1,1,1.578,0,.8.8,0,1,1-1.578,0m.209,2.689h1.143v8.541h-1.143Z" transform="translate(-764.022 -1076.732)" fill="#01458e"/>
      <path id="Path_6699" data-name="Path 6699" d="M4629.986,722.987c0-2.85,1.473-4.493,3.127-4.493s3.128,1.642,3.128,4.493c0,2.828-1.473,4.47-3.128,4.47s-3.127-1.642-3.127-4.47m5.074,0c0-1.957-.786-3.289-1.947-3.289s-1.947,1.332-1.947,3.289.785,3.267,1.947,3.267,1.947-1.31,1.947-3.267" transform="translate(-799.554 -1120.199)" fill="#01458e"/>
      <path id="Path_6700" data-name="Path 6700" d="M4738.339,718.7h.943l.1,1.232h.037a3.055,3.055,0,0,1,2.265-1.443c1.423,0,2.06,1.162,2.06,3.34v5.412H4742.6v-5.225c0-1.591-.38-2.272-1.274-2.272-.69,0-1.168.446-1.844,1.312v6.185h-1.143Z" transform="translate(-900.019 -1120.199)" fill="#01458e"/>
      <path id="Path_6701" data-name="Path 6701" d="M3914.667,226.5a1.974,1.974,0,1,1-1.973-1.973,1.974,1.974,0,0,1,1.973,1.973" transform="translate(-132.639 -662.183)" fill="#01458e"/>
      <path id="Path_6702" data-name="Path 6702" d="M3977.33,221.076a1.974,1.974,0,1,1-1.974-1.973,1.974,1.974,0,0,1,1.974,1.973" transform="translate(-190.74 -657.155)" fill="#01458e"/>
      <path id="Path_6703" data-name="Path 6703" d="M1806.413,238.157a1.973,1.973,0,1,1-1.974-1.973,1.973,1.973,0,0,1,1.974,1.973" transform="translate(1822.166 -672.992)" fill="#01458e"/>
      <path id="Path_6704" data-name="Path 6704" d="M1869.077,232.735a1.974,1.974,0,1,1-1.974-1.973,1.974,1.974,0,0,1,1.974,1.973" transform="translate(1764.065 -667.965)" fill="#01458e"/>
      <path id="Path_6705" data-name="Path 6705" d="M814.944,246.99a1.974,1.974,0,1,1-1.974-1.974,1.973,1.973,0,0,1,1.974,1.974" transform="translate(2741.472 -681.183)" fill="#01458e"/>
      <path id="Path_6706" data-name="Path 6706" d="M877.607,241.567a1.973,1.973,0,1,1-1.973-1.973,1.973,1.973,0,0,1,1.973,1.973" transform="translate(2683.37 -676.155)" fill="#01458e"/>
      <path id="Path_6707" data-name="Path 6707" d="M3.947,240.868A1.973,1.973,0,1,1,1.973,238.9a1.973,1.973,0,0,1,1.973,1.973" transform="translate(3493.441 -675.507)" fill="#01458e"/>
      <path id="Path_6708" data-name="Path 6708" d="M66.61,235.445a1.973,1.973,0,1,1-1.973-1.973,1.973,1.973,0,0,1,1.973,1.973" transform="translate(3435.339 -670.479)" fill="#01458e"/>
    </g>
    <g id="Group_8559" data-name="Group 8559" transform="translate(3047.205 -448.646)" clip-path="url(#clip-path)">
      <path id="Path_6595" data-name="Path 6595" d="M5675.5,314.179l2.393-.375c15.808-11.352,5.9-42.068-20.085-38.55l1.743,1.257c16.512-1.267,32.416,17.169,15.95,37.669" transform="translate(-5254.609 -258.285)" fill="#f7c300"/>
      <path id="Path_6596" data-name="Path 6596" d="M5017.436,889.654a13.649,13.649,0,0,1-4.5-1.2s-6.567,2.721-8.116,4.48c0,0,.8.68.8.821s.094,1.361.094,1.361l1.2.093s8.537-2.369,9.593-3.1c0,0-.608-1.149.939-2.463" transform="translate(-4641.253 -834.535)" fill="#0091de"/>
      <path id="Path_6597" data-name="Path 6597" d="M5067.144,35.522c-.518-.04-.715.049-.847.505a1.948,1.948,0,0,1-.332.711c-.337.405-.637.974-1.339.6a.612.612,0,0,0-.346-.486c-.05-.234-.443-.367-.075-.725.577-.56.494-1.069-.127-1.578-1.181-.972-1.727-1.02-3.048-.264a5.413,5.413,0,0,0-.737.458,2.437,2.437,0,0,0-1.208,2.4,1.34,1.34,0,0,0,.248.326c.222.245.427.491-.04.719a2.129,2.129,0,0,1-.238.093c-.287.5-.529,1.1-1.225.383-.1-.1-.421-.068-.6,0a1.879,1.879,0,0,1-1.658-.218c-.144-.038-.29-.076-.434-.112v0l-.828-.215c.01-.016.018-.032.029-.047s0,0,0,0c.311-.529.887-.838,1.219-1.349a1.491,1.491,0,0,0,.169-.336c.017-.182.043-.364.052-.546a2.491,2.491,0,0,0-1.744-2.579,2.451,2.451,0,0,0-2.921,1.4c-.112.223-.087.524-.366.689-.3-.389-.554-.833-1.053-1.007a2,2,0,0,0-2.846.279s0,0,0,0c-.3.051-.4.3-.546.516a2.526,2.526,0,0,0,2.446,3.766c.175-.06.349-.119.517-.187a2.074,2.074,0,0,0,1.419-1.373c.2-.19.061-.53.333-.714.14.131.283.264.425.4.188.507.744.635,1.058,1.01a.828.828,0,0,1,.061.082c-.357.063-.713.146-1.075.184-1.18.124-1.267.12-1.218,1.27,0,.09,0,.174,0,.255,0,.04,0,.079-.01.117s-.009.074-.015.109a.793.793,0,0,1-.019.1.8.8,0,0,1-.026.1c-.009.032-.018.062-.029.092a.964.964,0,0,1-.106.2.4.4,0,0,1-.037.051.6.6,0,0,1-.055.065.546.546,0,0,1-.054.054.761.761,0,0,1-.063.055,1.137,1.137,0,0,1-.173.111.913.913,0,0,1-.1.051l-.012,0a1.084,1.084,0,0,1-.107.043c-.033.013-.066.022-.1.033s-.043.013-.066.017l-.01,0c-.027.008-.059.016-.089.022-.25.057-.492.158-.737.241l-1.366.61c-.33.147-.486.059-.483-.32.006-.709-.06-1.423,0-2.128s-.2-1.015-.9-1.018a3.088,3.088,0,0,1-1.627-.53,2.767,2.767,0,0,1-1.167-1.8c-.069-.271-.12-.606-.482-.644-.388-.04-.535.272-.661.565a2.411,2.411,0,0,1-.462.795.13.13,0,0,1-.011.013l-.293.277a.124.124,0,0,1-.022.008l-1.346.508h0c-.134.049-.265.1-.4.149a5.919,5.919,0,0,1-3.02-.348c-.306-.155-.669-.28-.809-.6-.263-.606-.531-1.02-1.34-.855-.434.089-.436-.442-.43-.771.023-1.317.032-1.314-1.34-1.316a10.422,10.422,0,0,1-2.893-.288,2.421,2.421,0,0,1-2-2.565,4.948,4.948,0,0,1,.112-1.252c.354-1.476.918-1.944,2.41-1.952.9,0,1.79.016,2.683-.017a2.631,2.631,0,0,0,1.874-1.607c.075-.313-.143-.3-.3-.323-1.38-.207-2.411-1.259-3.756-1.547a.079.079,0,0,0,.008-.016l-.012.008a.953.953,0,0,1,.51-1.449,3.521,3.521,0,0,0,1.283-1.569,5.935,5.935,0,0,1,1.234-1.512l0,0a8.36,8.36,0,0,1,2.013-.195c.757-.052,1.341-.268,1.463-1.183.108-.8.672-1.061,1.387-1.035.058,0,.117.006.175.011.128-.062.133-.182.137-.3a1.322,1.322,0,0,0-.267-.249c-.171-.135-.332-.274-.28-.521a.632.632,0,0,1,.063-.179,1.615,1.615,0,0,1-1.784-1.236,2.61,2.61,0,0,1-.067-.415,5.263,5.263,0,0,1,.512-2.21,4.931,4.931,0,0,0,.651-2.63.993.993,0,0,1,.889-1.1c.924-.192,1.849-.377,2.771-.568s1.271-.942,1.593-1.7c.108-.249,0-.363-.259-.445-1.056-.336-1.057-.359-.478-1.265.059-.047.116-.093.172-.141a4.933,4.933,0,0,0,2.609-1.677,2.149,2.149,0,0,1,2.054-.689c1.042.155,1.245.01,1.672-.978.521-1.206,1.132-1.387,2.243-.643a5.233,5.233,0,0,1,.646.576,18.908,18.908,0,0,1,1.806,2.577,2.365,2.365,0,0,0,2.007,1.186,2.329,2.329,0,0,1,1.606.565,6.787,6.787,0,0,0,1.584,1.024,1.274,1.274,0,0,1,.825,1.653c-.123.407.01.551.394.5.68-.089.876.3.9.874.005.106.015.211.013.317-.01.687.222,1.062,1.014,1.031a4.646,4.646,0,0,1,2.352.586,1.882,1.882,0,0,1,1.091,1.623,14.291,14.291,0,0,0,.394,2.489c.13.543.255,1.1-.375,1.552-.473.337-.069.492.279.556l.1.048,1.474.731a1.727,1.727,0,0,1,.422,1.236c0,.5.2.655.685.725,1.242.179,1.544.5,1.8,1.719.054.256.081.518.12.776-.007.394-.015.788-.017,1.183-.008,1.115-.227,1.4-1.334,1.708-.633.173-1.278.3-1.9.486-.38.116-.688.272-.291.771.838,1.053.8,1.36-.142,2.251-.825.784-.747,1.126.333,1.458.1.03.206.038.311.059a2.6,2.6,0,0,1,2.054,1.284.835.835,0,0,0,.774.472c.428-.009.494.28.531.629.2,1.947-1.209,2.571-3,2.437" transform="translate(-4662.455 0.001)" fill="#86c127"/>
      <path id="Path_6598" data-name="Path 6598" d="M5347.979,569.47a1.736,1.736,0,1,1-1.736-1.736,1.735,1.735,0,0,1,1.736,1.736" transform="translate(-4960.328 -533.277)" fill="#01458e"/>
      <path id="Path_6599" data-name="Path 6599" d="M5212.334,917.246a1.736,1.736,0,1,1-1.735-1.736,1.736,1.736,0,0,1,1.735,1.736" transform="translate(-4832.916 -859.945)" fill="#01458e"/>
      <path id="Path_6600" data-name="Path 6600" d="M5285.374,917.246a1.736,1.736,0,1,1-1.736-1.736,1.736,1.736,0,0,1,1.736,1.736" transform="translate(-4901.522 -859.945)" fill="#01458e"/>
      <path id="Path_6601" data-name="Path 6601" d="M5686.514,881.3a1.735,1.735,0,1,1-1.735-1.736,1.735,1.735,0,0,1,1.735,1.736" transform="translate(-5278.317 -826.185)" fill="#01458e"/>
      <path id="Path_6602" data-name="Path 6602" d="M5761.873,881.3a1.735,1.735,0,1,1-1.735-1.736,1.736,1.736,0,0,1,1.735,1.736" transform="translate(-5349.102 -826.185)" fill="#01458e"/>
      <path id="Path_6603" data-name="Path 6603" d="M5881.288,881.3a1.736,1.736,0,1,1-1.736-1.736,1.736,1.736,0,0,1,1.736,1.736" transform="translate(-5461.268 -826.185)" fill="#01458e"/>
      <path id="Path_6604" data-name="Path 6604" d="M5430.678,559.036a1.736,1.736,0,1,1-1.735-1.736,1.735,1.735,0,0,1,1.735,1.736" transform="translate(-5038.007 -523.476)" fill="#01458e"/>
      <path id="Path_6605" data-name="Path 6605" d="M5085.523,649.436l-3.625,1.2s5.138,7.283,1.021,8.9-5.331-9.6-5.331-9.6l-3.378,1.2s3.993,8.112-.4,8.568-5.189-9.976-5.189-9.976l-3.449,1.39s3.888,7.807-.4,8.6-4.891-10.271-4.891-10.271-12.35,2.727-14.319,6.333v2.041s8.548-.9,9.251.545c0,0-4.091,6.034-14.459,2.492a13.614,13.614,0,0,1-7.13-6.849l-3.284,3.19a14.883,14.883,0,0,0,12.127,7.154c8.748.586,12.923-3.635,12.923-3.635s1.993-1.806,2.04-3.683c0,0-.468-1.947-7.105-1.736,0,0,2.041-1.923,7.974-3.049,0,0,.094,9.406,6.989,9.147a4.741,4.741,0,0,0,3.636-2.275,5.416,5.416,0,0,0,4.713,2.369,4.694,4.694,0,0,0,4.2-2.439s2.487,3.4,5.513,2.51,8.173-3.284,2.581-12.114" transform="translate(-4664.845 -610.02)" fill="#01458e"/>
      <path id="Path_6606" data-name="Path 6606" d="M5268.184,912.032l.527.756.441-.756Z" transform="translate(-4888.636 -856.678)" fill="#0091de"/>
      <path id="Path_6607" data-name="Path 6607" d="M5336.875,831.434l.564.457s7.914-1.513,9.3-.616c0,0-3.8,6.315-3.167,8.215s2.217,3.694,4.293,3.694,16.324-4.257,16.324-4.257,14-3.167,17.38-2.076c0,0-1.513-3.328-22.975.236,0,0-10.272,2.86-11.012,2.262s4.152-6.767,3.59-8.89-3.167-4.058-6.438-3.706a10.712,10.712,0,0,1-7.864,4.679" transform="translate(-4953.158 -776.537)" fill="#0091de"/>
      <path id="Path_6608" data-name="Path 6608" d="M5561.712,568.28l1.25.792s-3.221.967-2.128,1.566l2.041.3s1.3,1.407-1.953,2.269l-2.022-.44s2.761-1.056,2.849-1.372c0,0-2.393.317-2.445-.651-.4-1.161,2.409-2.463,2.409-2.463" transform="translate(-5161.706 -533.789)" fill="#01458e"/>
      <path id="Path_6609" data-name="Path 6609" d="M5689.262,100.4s.105-2.462-3.272-2.321l-2.468.024-.276,8.419h1.688v-3.2s4.716.668,4.328-2.921m-4.05,1.7V99.274s2.375-.275,2.375,1.284-2.375,1.542-2.375,1.542" transform="translate(-5278.507 -92.121)" fill="#01458e"/>
      <path id="Path_6610" data-name="Path 6610" d="M6152.988,685.9l.075,0-8.5-.279v1.689h3.2s-.668,4.715,2.92,4.327c0,0,2.463.106,2.323-3.272Zm-2.458,4.063c-1.56,0-1.542-2.375-1.542-2.375h2.827s.274,2.375-1.285,2.375" transform="translate(-5711.827 -644.007)" fill="#01458e"/>
      <path id="Path_6611" data-name="Path 6611" d="M6028.913,279.888l-6.562,5.207,3.467,4.415.966-.809-2.41-2.973,2.058-1.513,1.743,2.234.932-.792-1.741-2.217,1.828-1.648,2.288,2.906.879-.836Z" transform="translate(-5597.03 -262.901)" fill="#01458e"/>
      <path id="Path_6612" data-name="Path 6612" d="M6125.582,473.1l-8.129,2.026,1.329,5.453,1.215-.336-.962-3.7,2.5-.526.66,2.755,1.177-.335-.669-2.738,2.347-.743.881,3.592,1.146-.4Z" transform="translate(-5686.36 -444.388)" fill="#01458e"/>
      <path id="Path_6613" data-name="Path 6613" d="M5848.741,149.558l-6.874,6.309,1.243.564,1.807-1.713,3.1,1.665-.282,2.464,1.818.844.809-9.23Zm-.586,5.628-2.465-1.336,2.626-2.251Z" transform="translate(-5427.5 -140.481)" fill="#01458e"/>
      <path id="Path_6614" data-name="Path 6614" d="M5574.04,381.7s16.383-1.22,12.689,15.422l-3.432.985s-2.375.7.651,3.29c0,0-.545,1.161-3.062,2.234,0,0-.386-5.964-1.6-6.21a15.6,15.6,0,0,0-4.556,1.847,28.182,28.182,0,0,0,1.742,5.119s-3.756-.587-4.769-1.5c0,0-.262-5.119-1.282-5.436,0,0-4.732.915-4.663,2.463L5567.43,404s-3.518-3.237-3.605-5.488l2.075.123s1.372-.123,2.709-2.234l1-.193a2.854,2.854,0,0,0,.985-1.812s3.114.721,3.747-1.689c0,0,.7-2.406-1-2.223,0,0-.844-1.506-2.022-1.682s-1.371-.422-1.371-.422l1.353-1.179a7.457,7.457,0,0,0-.72-2.164s2.62-.106,3.167-1.249l.294-.493Z" transform="translate(-5166.333 -358.515)" fill="#f7c300"/>
      <path id="Path_6615" data-name="Path 6615" d="M5707.777,761.7s2.206,1.5,3.706,1.243a1.336,1.336,0,0,1-1.243,1.361c-1.244.07-2.463-2.6-2.463-2.6" transform="translate(-5301.549 -715.471)" fill="#f7c300"/>
      <path id="Path_6616" data-name="Path 6616" d="M5856.176,731.807l1.032,1.454,2.486-1.689-.61-1.947Z" transform="translate(-5440.942 -685.342)" fill="#f7c300"/>
      <path id="Path_6617" data-name="Path 6617" d="M5965.179,626.055l-.8,1.572.61,1.009Z" transform="translate(-5542.58 -588.058)" fill="#f7c300"/>
    </g>
  </g>
</svg>
