<svg xmlns="http://www.w3.org/2000/svg" xmlns:xlink="http://www.w3.org/1999/xlink" width="225.984" height="185.402" viewBox="0 0 225.984 185.402">
  <defs>
    <clipPath id="clip-path">
      <rect id="Rectangle_3336" data-name="Rectangle 3336" width="225.984" height="185.402" transform="translate(360)" fill="#37a274"/>
    </clipPath>
  </defs>
  <g id="Group_8559" data-name="Group 8559" transform="translate(-360)" clip-path="url(#clip-path)">
    <path id="Path_6595" data-name="Path 6595" d="M5707.023,384.034l6.656-1.044c43.975-31.58,16.421-117.027-55.875-107.24l4.85,3.5c45.935-3.523,90.172,47.762,44.369,104.788" transform="translate(-5177.642 -228.548)" fill="#f7c300"/>
    <path id="Path_6596" data-name="Path 6596" d="M5039.92,891.786a37.962,37.962,0,0,1-12.527-3.328s-18.27,7.569-22.577,12.462c0,0,2.219,1.892,2.219,2.284s.262,3.785.262,3.785l3.328.26s23.747-6.59,26.685-8.612c0,0-1.694-3.2,2.61-6.851" transform="translate(-4634.903 -738.453)" fill="#0091de"/>
    <path id="Path_6597" data-name="Path 6597" d="M5137.979,98.82c-1.441-.11-1.991.137-2.357,1.4a5.435,5.435,0,0,1-.924,1.978c-.939,1.128-1.773,2.709-3.723,1.678a1.707,1.707,0,0,0-.963-1.352c-.138-.652-1.234-1.022-.208-2.017,1.6-1.559,1.374-2.973-.354-4.391-3.288-2.7-4.8-2.836-8.48-.736a15.011,15.011,0,0,0-2.048,1.273c-2.1,1.709-3.916,3.6-3.365,6.664a3.747,3.747,0,0,0,.692.907c.617.683,1.187,1.365-.113,2a5.771,5.771,0,0,1-.659.26c-.8,1.4-1.475,3.048-3.409,1.066-.283-.286-1.17-.189-1.683-.009a5.226,5.226,0,0,1-4.611-.608c-.4-.106-.805-.211-1.207-.313l0,0c-.767-.2-1.538-.4-2.3-.6.027-.044.049-.088.081-.132,0,0,0,0,.007-.009.863-1.471,2.47-2.33,3.391-3.752a4.116,4.116,0,0,0,.47-.934c.046-.507.119-1.013.145-1.519A6.93,6.93,0,0,0,5101.5,92.5a6.817,6.817,0,0,0-8.125,3.893c-.313.621-.243,1.458-1.019,1.916-.84-1.083-1.542-2.317-2.929-2.8a5.57,5.57,0,0,0-7.917.775s-.007,0-.01,0c-.823.141-1.1.841-1.519,1.436-2.56,3.686,0,10.878,6.8,10.478.486-.168.97-.33,1.437-.52,1.777-.7,3.336-1.669,3.948-3.819.547-.528.169-1.475.926-1.986.389.366.786.736,1.181,1.11.525,1.409,2.07,1.766,2.941,2.81a2.23,2.23,0,0,1,.172.229c-1,.176-1.985.405-2.992.511-3.284.344-3.525.335-3.388,3.532.006.251.011.484,0,.709-.006.11-.014.22-.028.326a3.021,3.021,0,0,1-.042.3,2.126,2.126,0,0,1-.05.286,2.456,2.456,0,0,1-.073.269c-.026.088-.049.172-.083.255a2.689,2.689,0,0,1-.293.568c-.032.048-.066.1-.1.141-.048.062-.1.123-.155.18a1.735,1.735,0,0,1-.15.15,1.945,1.945,0,0,1-.176.154,3.15,3.15,0,0,1-.48.308,2.885,2.885,0,0,1-.286.141.283.283,0,0,0-.033.013,3,3,0,0,1-.3.119c-.089.035-.182.062-.278.093-.059.018-.121.035-.186.048a.063.063,0,0,1-.026.009c-.078.022-.163.044-.248.062-.7.159-1.369.44-2.052.669q-1.9.846-3.8,1.7c-.917.41-1.353.163-1.345-.89.015-1.973-.168-3.959-.014-5.919s-.57-2.823-2.515-2.832a8.594,8.594,0,0,1-4.527-1.475,7.689,7.689,0,0,1-3.245-5c-.194-.753-.333-1.687-1.34-1.793-1.083-.11-1.49.758-1.841,1.572a6.693,6.693,0,0,1-1.286,2.211.242.242,0,0,1-.03.035c-.273.255-.542.515-.816.771a.323.323,0,0,1-.062.022c-1.25.471-2.493.942-3.743,1.414h0c-.371.137-.735.278-1.1.414-2.853.1-5.719.392-8.4-.969-.853-.432-1.861-.78-2.25-1.674-.73-1.687-1.477-2.836-3.728-2.378-1.207.247-1.211-1.229-1.194-2.145.062-3.664.088-3.655-3.727-3.66a29,29,0,0,1-8.047-.8c-3.758-1.07-5.519-3.259-5.563-7.135a13.748,13.748,0,0,1,.312-3.484c.983-4.1,2.554-5.408,6.707-5.43,2.489-.013,4.977.044,7.462-.048,1.925-.071,4.792-2.687,5.213-4.47.208-.872-.4-.828-.842-.9-3.838-.577-6.706-3.5-10.45-4.3a.152.152,0,0,0,.021-.044.158.158,0,0,0-.031.022c-.811-1.788-.543-3.039,1.417-4.03,1.726-.876,2.636-2.713,3.568-4.365a16.515,16.515,0,0,1,3.435-4.206l.011-.013c1.829-.586,3.728-.41,5.6-.542,2.105-.145,3.729-.744,4.071-3.29.3-2.224,1.87-2.951,3.858-2.88.16,0,.323.018.485.031.357-.172.373-.507.382-.841a3.622,3.622,0,0,0-.742-.691c-.478-.374-.924-.762-.779-1.449a1.73,1.73,0,0,1,.173-.5c-2.671-.009-4.375-1.1-4.961-3.44a7.053,7.053,0,0,1-.19-1.154,14.674,14.674,0,0,1,1.426-6.148,13.7,13.7,0,0,0,1.811-7.316,2.763,2.763,0,0,1,2.474-3.065c2.569-.533,5.144-1.048,7.708-1.581,2.586-.533,3.534-2.621,4.431-4.735.3-.692.011-1.009-.721-1.238-2.937-.934-2.942-1-1.329-3.519.164-.132.322-.26.479-.392,3.044-.573,5.246-2.55,7.255-4.664a5.983,5.983,0,0,1,5.716-1.916c2.9.432,3.464.027,4.651-2.722,1.448-3.356,3.149-3.858,6.241-1.788a14.3,14.3,0,0,1,1.795,1.6c2.176,2.039,3.247,4.849,5.024,7.17,1.429,1.872,2.961,3.369,5.583,3.3a6.479,6.479,0,0,1,4.471,1.572,18.822,18.822,0,0,0,4.406,2.85c1.971.912,2.967,2.391,2.3,4.6-.343,1.132.028,1.533,1.093,1.392,1.895-.247,2.438.824,2.492,2.431.016.295.04.586.036.881-.026,1.911.618,2.955,2.823,2.867a12.926,12.926,0,0,1,6.54,1.629,5.236,5.236,0,0,1,3.036,4.514,39.448,39.448,0,0,0,1.094,6.924c.361,1.511.71,3.065-1.044,4.316-1.315.938-.193,1.37.775,1.546l.265.132c1.364.678,2.737,1.356,4.1,2.035a4.813,4.813,0,0,1,1.174,3.44c.007,1.4.56,1.823,1.9,2.017,3.458.5,4.3,1.392,5,4.783.15.713.224,1.44.335,2.158-.019,1.1-.042,2.193-.048,3.29-.022,3.1-.632,3.907-3.712,4.752-1.759.48-3.555.828-5.3,1.352-1.058.322-1.914.758-.808,2.145,2.33,2.929,2.216,3.783-.4,6.263-2.293,2.18-2.077,3.131.927,4.056.281.084.575.106.863.163,2.368.449,4.491,1.22,5.714,3.572a2.322,2.322,0,0,0,2.153,1.312c1.19-.026,1.375.78,1.477,1.748.558,5.417-3.362,7.152-8.346,6.778" transform="translate(-4653.663 0.001)" fill="#86c127"/>
    <path id="Path_6598" data-name="Path 6598" d="M5354.164,572.563a4.828,4.828,0,1,1-4.829-4.828,4.827,4.827,0,0,1,4.829,4.828" transform="translate(-4917.243 -471.879)" fill="#01458e"/>
    <path id="Path_6599" data-name="Path 6599" d="M5218.521,920.339a4.829,4.829,0,1,1-4.829-4.829,4.829,4.829,0,0,1,4.829,4.829" transform="translate(-4804.5 -760.937)" fill="#01458e"/>
    <path id="Path_6600" data-name="Path 6600" d="M5291.559,920.339a4.828,4.828,0,1,1-4.829-4.829,4.828,4.828,0,0,1,4.829,4.829" transform="translate(-4865.207 -760.937)" fill="#01458e"/>
    <path id="Path_6601" data-name="Path 6601" d="M5692.7,884.4a4.828,4.828,0,1,1-4.827-4.828,4.827,4.827,0,0,1,4.827,4.828" transform="translate(-5198.619 -731.064)" fill="#01458e"/>
    <path id="Path_6602" data-name="Path 6602" d="M5768.057,884.4a4.827,4.827,0,1,1-4.826-4.828,4.828,4.828,0,0,1,4.826,4.828" transform="translate(-5261.256 -731.064)" fill="#01458e"/>
    <path id="Path_6603" data-name="Path 6603" d="M5887.474,884.4a4.829,4.829,0,1,1-4.83-4.828,4.83,4.83,0,0,1,4.83,4.828" transform="translate(-5360.508 -731.064)" fill="#01458e"/>
    <path id="Path_6604" data-name="Path 6604" d="M5436.864,562.129a4.828,4.828,0,1,1-4.829-4.828,4.828,4.828,0,0,1,4.829,4.828" transform="translate(-4985.978 -463.207)" fill="#01458e"/>
    <path id="Path_6605" data-name="Path 6605" d="M5184.572,649.436l-10.083,3.327s14.291,20.26,2.842,24.762-14.829-26.719-14.829-26.719l-9.4,3.328s11.107,22.567-1.125,23.835-14.437-27.751-14.437-27.751l-9.593,3.866s10.817,21.718-1.123,23.925-13.6-28.574-13.6-28.574-34.354,7.585-39.833,17.617v5.677s23.778-2.5,25.735,1.517c0,0-11.381,16.785-40.222,6.932a37.872,37.872,0,0,1-19.837-19.052L5029.934,671s9.4,18.27,33.733,19.9,35.953-10.113,35.953-10.113,5.544-5.024,5.674-10.244c0,0-1.3-5.415-19.769-4.828,0,0,5.678-5.351,22.183-8.482,0,0,.262,26.165,19.443,25.447,0,0,6.853-.391,10.115-6.329a15.065,15.065,0,0,0,13.11,6.59c8.878-.392,11.683-6.786,11.683-6.786s6.918,9.461,15.336,6.982,22.736-9.135,7.177-33.7" transform="translate(-4655.779 -539.787)" fill="#01458e"/>
    <path id="Path_6606" data-name="Path 6606" d="M5268.184,912.032l1.466,2.1,1.228-2.1Z" transform="translate(-4853.804 -758.046)" fill="#0091de"/>
    <path id="Path_6607" data-name="Path 6607" d="M5336.875,839.846l1.569,1.272s22.017-4.208,25.886-1.713c0,0-10.571,17.568-8.81,22.853s6.167,10.277,11.941,10.277,45.412-11.843,45.412-11.843,38.953-8.808,48.349-5.774c0,0-4.208-9.257-63.912.657,0,0-28.577,7.956-30.632,6.292s11.548-18.824,9.985-24.729-8.811-11.288-17.911-10.309a29.8,29.8,0,0,1-21.877,13.017" transform="translate(-4910.897 -687.133)" fill="#0091de"/>
    <path id="Path_6608" data-name="Path 6608" d="M5566.728,568.28l3.474,2.2s-8.957,2.691-5.921,4.355l5.677.832s3.621,3.915-5.433,6.312l-5.626-1.223s7.681-2.936,7.926-3.817c0,0-6.655.881-6.8-1.811-1.125-3.23,6.7-6.851,6.7-6.851" transform="translate(-5095.435 -472.333)" fill="#01458e"/>
    <path id="Path_6609" data-name="Path 6609" d="M5699.98,104.546s.293-6.849-9.1-6.457l-6.864.066-.767,23.422h4.694v-8.905s13.119,1.859,12.04-8.126m-11.267,4.73v-7.862s6.606-.766,6.606,3.572-6.606,4.29-6.606,4.29" transform="translate(-5198.79 -81.514)" fill="#01458e"/>
    <path id="Path_6610" data-name="Path 6610" d="M6167.994,686.39l.209,0-23.637-.775v4.7h8.907s-1.858,13.116,8.123,12.037c0,0,6.85.3,6.463-9.1Zm-6.837,11.3c-4.339,0-4.291-6.606-4.291-6.606h7.864s.764,6.606-3.574,6.606" transform="translate(-5582.219 -569.861)" fill="#01458e"/>
    <path id="Path_6611" data-name="Path 6611" d="M6040.6,279.888l-18.253,14.485L6032,306.656l2.688-2.251-6.7-8.27,5.724-4.208,4.849,6.215,2.591-2.2-4.844-6.166,5.086-4.584,6.364,8.083,2.447-2.325Z" transform="translate(-5480.64 -232.632)" fill="#01458e"/>
    <path id="Path_6612" data-name="Path 6612" d="M6140.066,473.1l-22.613,5.635,3.7,15.171,3.38-.936-2.677-10.3,6.951-1.462,1.839,7.663,3.271-.932-1.858-7.618,6.527-2.068,2.451,9.991,3.188-1.1Z" transform="translate(-5559.684 -393.224)" fill="#01458e"/>
    <path id="Path_6613" data-name="Path 6613" d="M5860.988,149.558l-19.121,17.551,3.456,1.568,5.028-4.765,8.613,4.633-.785,6.853,5.057,2.347,2.252-25.677Zm-1.631,15.657L5852.5,161.5l7.306-6.263Z" transform="translate(-5330.628 -124.307)" fill="#01458e"/>
    <path id="Path_6614" data-name="Path 6614" d="M5592.242,381.736s45.574-3.393,35.3,42.9l-9.546,2.74s-6.607,1.957,1.81,9.151c0,0-1.515,3.23-8.516,6.215,0,0-1.075-16.589-4.452-17.274,0,0-8.366,1.957-12.675,5.138a78.5,78.5,0,0,0,4.846,14.24s-10.448-1.632-13.264-4.159c0,0-.731-14.241-3.568-15.121,0,0-13.165,2.545-12.971,6.851l4.648,11.353s-9.785-9-10.029-15.268l5.772.343s3.816-.343,7.538-6.215l2.788-.538s2.789-2.4,2.74-5.04c0,0,8.663,2.006,10.425-4.7,0,0,1.958-6.693-2.792-6.185,0,0-2.349-4.19-5.625-4.679s-3.817-1.175-3.817-1.175l3.766-3.278s-.732-4.111-2-6.019c0,0,7.29-.294,8.808-3.475l.82-1.37Z" transform="translate(-5099.53 -317.238)" fill="#f7c300"/>
    <path id="Path_6615" data-name="Path 6615" d="M5707.777,761.7s6.134,4.176,10.309,3.458c0,0,0,3.589-3.458,3.785s-6.851-7.243-6.851-7.243" transform="translate(-5219.178 -633.097)" fill="#f7c300"/>
    <path id="Path_6616" data-name="Path 6616" d="M5856.176,735.693l2.871,4.046,6.916-4.7-1.7-5.415Z" transform="translate(-5342.521 -606.437)" fill="#f7c300"/>
    <path id="Path_6617" data-name="Path 6617" d="M5966.6,626.055l-2.216,4.372,1.7,2.806Z" transform="translate(-5432.458 -520.353)" fill="#f7c300"/>
  </g>
</svg>
