<svg xmlns="http://www.w3.org/2000/svg" xmlns:xlink="http://www.w3.org/1999/xlink" width="457.42" height="79.926" viewBox="0 0 457.42 79.926">
  <defs>
    <clipPath id="clip-path">
      <rect id="Rectangle_3331" data-name="Rectangle 3331" width="457.42" height="79.926" fill="#37a274"/>
    </clipPath>
  </defs>
  <g id="Group_8541" data-name="Group 8541" clip-path="url(#clip-path)">
    <path id="Path_6481" data-name="Path 6481" d="M5679.022,321.989l2.869-.45c18.958-13.614,7.079-50.45-24.087-46.23l2.091,1.507c19.8-1.519,38.872,20.59,19.127,45.174" transform="translate(-5246.003 -254.96)" fill="#f7c300"/>
    <path id="Path_6482" data-name="Path 6482" d="M5019.946,889.893a16.365,16.365,0,0,1-5.4-1.435s-7.876,3.263-9.733,5.372c0,0,.957.816.957.984s.113,1.632.113,1.632l1.435.112s10.237-2.841,11.5-3.713c0,0-.73-1.378,1.125-2.953" transform="translate(-4640.54 -823.792)" fill="#0091de"/>
    <path id="Path_6483" data-name="Path 6483" d="M5075.064,42.6c-.622-.047-.858.059-1.017.606a2.333,2.333,0,0,1-.4.853c-.4.486-.764,1.168-1.6.723a.737.737,0,0,0-.415-.583c-.06-.281-.532-.44-.089-.87.691-.672.592-1.282-.153-1.893-1.417-1.166-2.071-1.223-3.656-.317a6.452,6.452,0,0,0-.883.549c-.908.737-1.688,1.551-1.451,2.873a1.615,1.615,0,0,0,.3.391c.266.294.512.589-.049.862a2.492,2.492,0,0,1-.284.112c-.345.6-.636,1.314-1.469.459-.122-.123-.5-.082-.726,0a2.252,2.252,0,0,1-1.988-.262c-.173-.046-.347-.091-.521-.135v0l-.993-.258c.012-.019.021-.038.035-.057,0,0,0,0,0,0,.372-.634,1.065-1,1.461-1.618a1.76,1.76,0,0,0,.2-.4c.02-.218.051-.437.063-.655a2.987,2.987,0,0,0-2.091-3.093,2.938,2.938,0,0,0-3.5,1.678c-.135.268-.1.628-.439.826-.362-.467-.664-1-1.263-1.207a2.4,2.4,0,0,0-3.413.334s0,0,0,0c-.355.061-.476.363-.655.619A3.029,3.029,0,0,0,5053,46.644c.21-.072.418-.142.62-.224a2.487,2.487,0,0,0,1.7-1.646c.236-.228.073-.636.4-.856.168.158.339.317.509.478.227.608.892.761,1.268,1.211a.944.944,0,0,1,.074.1c-.429.076-.856.175-1.29.22-1.416.148-1.52.144-1.46,1.523,0,.108,0,.209,0,.306,0,.047-.006.095-.012.14s-.01.089-.018.131a.933.933,0,0,1-.022.123,1.018,1.018,0,0,1-.031.116c-.011.038-.021.074-.036.11a1.148,1.148,0,0,1-.126.245c-.014.021-.029.042-.044.061s-.044.053-.067.078a.738.738,0,0,1-.064.065.847.847,0,0,1-.076.066,1.369,1.369,0,0,1-.208.133,1.226,1.226,0,0,1-.123.061l-.014.006a1.332,1.332,0,0,1-.129.051c-.039.015-.079.027-.121.04-.025.008-.051.015-.08.021a.026.026,0,0,1-.011,0c-.034.01-.07.019-.107.027-.3.068-.59.19-.884.289l-1.638.731c-.4.177-.583.07-.58-.384.006-.851-.072-1.707-.006-2.552s-.246-1.217-1.084-1.221a3.7,3.7,0,0,1-1.952-.636,3.314,3.314,0,0,1-1.4-2.155c-.083-.325-.143-.727-.578-.773-.466-.047-.642.327-.793.678a2.886,2.886,0,0,1-.555.953.091.091,0,0,1-.013.015c-.118.11-.233.222-.352.332a.136.136,0,0,1-.026.01l-1.614.609h0c-.16.059-.317.12-.476.178a7.1,7.1,0,0,1-3.621-.418c-.367-.186-.8-.336-.97-.722-.315-.727-.637-1.223-1.607-1.025-.52.106-.522-.53-.515-.925.027-1.58.038-1.576-1.606-1.578a12.5,12.5,0,0,1-3.469-.346,2.9,2.9,0,0,1-2.4-3.076,5.948,5.948,0,0,1,.134-1.5c.424-1.769,1.1-2.332,2.892-2.341,1.073-.006,2.146.019,3.217-.021a3.157,3.157,0,0,0,2.248-1.927c.089-.376-.171-.357-.363-.387-1.655-.249-2.891-1.509-4.5-1.855a.068.068,0,0,0,.009-.019l-.013.009a1.143,1.143,0,0,1,.611-1.737,4.22,4.22,0,0,0,1.538-1.882,7.125,7.125,0,0,1,1.481-1.813l0-.006a10.012,10.012,0,0,1,2.413-.234c.907-.063,1.607-.321,1.755-1.418.13-.959.806-1.272,1.663-1.242.069,0,.14.008.209.013.154-.074.161-.218.165-.363a1.564,1.564,0,0,0-.32-.3c-.206-.161-.4-.328-.336-.625a.755.755,0,0,1,.075-.214,1.936,1.936,0,0,1-2.139-1.483,3.072,3.072,0,0,1-.082-.5,6.325,6.325,0,0,1,.614-2.65,5.906,5.906,0,0,0,.781-3.154,1.191,1.191,0,0,1,1.066-1.321c1.107-.23,2.217-.452,3.323-.682s1.523-1.13,1.91-2.041c.129-.3,0-.435-.311-.534-1.267-.4-1.269-.431-.573-1.517.07-.057.139-.112.207-.169a5.91,5.91,0,0,0,3.127-2.011,2.579,2.579,0,0,1,2.464-.826c1.249.186,1.494.011,2-1.173.625-1.447,1.357-1.663,2.69-.771a6.171,6.171,0,0,1,.773.691,22.558,22.558,0,0,1,2.166,3.091,2.836,2.836,0,0,0,2.407,1.422,2.791,2.791,0,0,1,1.927.678,8.112,8.112,0,0,0,1.9,1.228,1.528,1.528,0,0,1,.99,1.982c-.148.488.012.661.471.6.817-.106,1.051.355,1.074,1.048.006.127.017.252.015.38-.011.824.267,1.274,1.217,1.236a5.573,5.573,0,0,1,2.819.7,2.257,2.257,0,0,1,1.309,1.946,17,17,0,0,0,.472,2.985c.155.651.306,1.321-.45,1.861-.567.4-.083.591.334.666l.114.057,1.768.877a2.074,2.074,0,0,1,.506,1.483c0,.6.241.786.821.87,1.49.215,1.852.6,2.154,2.062.064.308.1.621.145.93-.008.473-.019.945-.021,1.418-.009,1.337-.272,1.684-1.6,2.049-.758.207-1.533.357-2.284.583-.456.139-.825.327-.348.925,1,1.263.955,1.631-.171,2.7-.988.94-.9,1.35.4,1.749.121.036.248.046.372.07a3.12,3.12,0,0,1,2.464,1.54,1,1,0,0,0,.928.566c.513-.011.592.336.637.754.241,2.335-1.449,3.083-3.6,2.922" transform="translate(-4661.472 0.001)" fill="#86c127"/>
    <path id="Path_6484" data-name="Path 6484" d="M5348.671,569.816a2.081,2.081,0,1,1-2.082-2.081,2.081,2.081,0,0,1,2.082,2.081" transform="translate(-4955.511 -526.412)" fill="#01458e"/>
    <path id="Path_6485" data-name="Path 6485" d="M5213.024,917.592a2.082,2.082,0,1,1-2.081-2.082,2.082,2.082,0,0,1,2.081,2.082" transform="translate(-4829.736 -848.875)" fill="#01458e"/>
    <path id="Path_6486" data-name="Path 6486" d="M5286.064,917.592a2.081,2.081,0,1,1-2.082-2.082,2.081,2.081,0,0,1,2.082,2.082" transform="translate(-4897.461 -848.875)" fill="#01458e"/>
    <path id="Path_6487" data-name="Path 6487" d="M5687.205,881.651a2.081,2.081,0,1,1-2.081-2.081,2.081,2.081,0,0,1,2.081,2.081" transform="translate(-5269.404 -815.55)" fill="#01458e"/>
    <path id="Path_6488" data-name="Path 6488" d="M5762.564,881.651a2.081,2.081,0,1,1-2.081-2.081,2.081,2.081,0,0,1,2.081,2.081" transform="translate(-5339.28 -815.55)" fill="#01458e"/>
    <path id="Path_6489" data-name="Path 6489" d="M5881.979,881.651a2.082,2.082,0,1,1-2.082-2.081,2.082,2.082,0,0,1,2.082,2.081" transform="translate(-5450.002 -815.55)" fill="#01458e"/>
    <path id="Path_6490" data-name="Path 6490" d="M5431.372,559.382a2.082,2.082,0,1,1-2.082-2.081,2.081,2.081,0,0,1,2.082,2.081" transform="translate(-5032.191 -516.737)" fill="#01458e"/>
    <path id="Path_6491" data-name="Path 6491" d="M5096.6,649.436l-4.347,1.434s6.161,8.734,1.225,10.675-6.393-11.518-6.393-11.518l-4.051,1.435s4.789,9.728-.485,10.275-6.224-11.963-6.224-11.963l-4.135,1.667s4.663,9.362-.484,10.314-5.865-12.318-5.865-12.318-14.81,3.27-17.172,7.594v2.447s10.251-1.076,11.095.654c0,0-4.906,7.236-17.34,2.988a16.325,16.325,0,0,1-8.551-8.213l-3.938,3.825a17.846,17.846,0,0,0,14.542,8.579c10.491.7,15.5-4.36,15.5-4.36s2.39-2.166,2.446-4.416c0,0-.562-2.335-8.522-2.081,0,0,2.448-2.307,9.563-3.657,0,0,.113,11.279,8.382,10.97a5.686,5.686,0,0,0,4.36-2.728,6.5,6.5,0,0,0,5.652,2.841,5.629,5.629,0,0,0,5.036-2.925s2.982,4.079,6.611,3.01,9.8-3.938,3.093-14.528" transform="translate(-4663.832 -602.167)" fill="#01458e"/>
    <path id="Path_6492" data-name="Path 6492" d="M5268.184,912.032l.632.907.529-.907Z" transform="translate(-4884.741 -845.65)" fill="#0091de"/>
    <path id="Path_6493" data-name="Path 6493" d="M5336.876,832.374l.676.548s9.492-1.814,11.16-.738c0,0-4.557,7.573-3.8,9.852s2.658,4.43,5.148,4.43,19.577-5.105,19.577-5.105,16.792-3.8,20.843-2.489c0,0-1.814-3.991-27.552.283,0,0-12.32,3.43-13.206,2.713s4.979-8.115,4.3-10.661-3.8-4.866-7.721-4.444a12.846,12.846,0,0,1-9.431,5.612" transform="translate(-4948.434 -766.541)" fill="#0091de"/>
    <path id="Path_6494" data-name="Path 6494" d="M5562.271,568.28l1.5.949s-3.861,1.16-2.553,1.878l2.447.359s1.561,1.688-2.342,2.721l-2.426-.527s3.311-1.266,3.417-1.645c0,0-2.869.38-2.932-.781-.485-1.392,2.89-2.953,2.89-2.953" transform="translate(-5154.293 -526.918)" fill="#01458e"/>
    <path id="Path_6495" data-name="Path 6495" d="M5690.458,100.863s.126-2.952-3.924-2.783l-2.959.029-.331,10.1h2.024v-3.839s5.655.8,5.19-3.5M5685.6,102.9V99.514s2.848-.33,2.848,1.54-2.848,1.849-2.848,1.849" transform="translate(-5269.591 -90.935)" fill="#01458e"/>
    <path id="Path_6496" data-name="Path 6496" d="M6154.666,685.951l.09,0-10.189-.334v2.026h3.839s-.8,5.654,3.5,5.189c0,0,2.953.127,2.787-3.924Zm-2.947,4.872c-1.871,0-1.85-2.848-1.85-2.848h3.39s.33,2.848-1.541,2.848" transform="translate(-5697.336 -635.716)" fill="#01458e"/>
    <path id="Path_6497" data-name="Path 6497" d="M6030.219,279.888l-7.869,6.244,4.157,5.3,1.159-.97-2.89-3.565,2.468-1.814,2.09,2.679,1.117-.949-2.088-2.658,2.192-1.976,2.744,3.485,1.055-1Z" transform="translate(-5584.016 -259.516)" fill="#01458e"/>
    <path id="Path_6498" data-name="Path 6498" d="M6127.2,473.1l-9.748,2.429,1.593,6.54,1.457-.4-1.154-4.442,3-.63.793,3.3,1.41-.4-.8-3.284,2.814-.891,1.057,4.307,1.375-.476Z" transform="translate(-5672.196 -438.667)" fill="#01458e"/>
    <path id="Path_6499" data-name="Path 6499" d="M5850.112,149.558l-8.243,7.566,1.489.676,2.168-2.054,3.713,2-.338,2.954,2.18,1.012.97-11.069Zm-.7,6.75-2.955-1.6,3.15-2.7Z" transform="translate(-5416.671 -138.672)" fill="#01458e"/>
    <path id="Path_6500" data-name="Path 6500" d="M5576.073,381.7s19.646-1.463,15.217,18.494l-4.115,1.181s-2.848.844.781,3.945c0,0-.654,1.392-3.671,2.679,0,0-.463-7.152-1.919-7.447a18.7,18.7,0,0,0-5.464,2.215,33.848,33.848,0,0,0,2.089,6.139s-4.5-.7-5.718-1.793c0,0-.315-6.139-1.538-6.519,0,0-5.675,1.1-5.592,2.954l2,4.894s-4.218-3.882-4.324-6.582l2.489.148s1.645-.148,3.249-2.679l1.2-.232a3.421,3.421,0,0,0,1.181-2.173s3.734.865,4.494-2.025c0,0,.844-2.885-1.2-2.666,0,0-1.012-1.806-2.425-2.017s-1.646-.506-1.646-.506l1.624-1.413a8.979,8.979,0,0,0-.864-2.595s3.142-.127,3.8-1.5l.354-.591Z" transform="translate(-5158.862 -353.9)" fill="#f7c300"/>
    <path id="Path_6501" data-name="Path 6501" d="M5707.776,761.7s2.644,1.8,4.444,1.491a1.6,1.6,0,0,1-1.49,1.632c-1.492.084-2.954-3.122-2.954-3.122" transform="translate(-5292.337 -706.261)" fill="#f7c300"/>
    <path id="Path_6502" data-name="Path 6502" d="M5856.175,732.241l1.237,1.744,2.981-2.025-.731-2.334Z" transform="translate(-5429.936 -676.52)" fill="#f7c300"/>
    <path id="Path_6503" data-name="Path 6503" d="M5965.338,626.055l-.956,1.885.732,1.209Z" transform="translate(-5530.267 -580.488)" fill="#f7c300"/>
    <path id="Path_6504" data-name="Path 6504" d="M8.624,322.012q-.145-.869-.272-1.694a11.143,11.143,0,0,1-.127-1.694l3.3-.67a12.974,12.974,0,0,0,.154,3.406,41.625,41.625,0,0,0,.842,4.149,11,11,0,0,0,1.649,3.642A4.064,4.064,0,0,0,16.559,331v1.5a6.709,6.709,0,0,1-5.326-2.464,5.53,5.53,0,0,1-3.406,2.346,5.036,5.036,0,0,1-4.457-.933,7.013,7.013,0,0,1-2.219-8.8,3.594,3.594,0,0,1,3.8-2.092,6.019,6.019,0,0,1,1.957.417,8.116,8.116,0,0,1,1.721,1.033m.689,3.587a5.064,5.064,0,0,0-1.259-2.464,2.968,2.968,0,0,0-2.636-.833,2.972,2.972,0,0,0-2.229,2.074,5.191,5.191,0,0,0,.3,3.225,4.6,4.6,0,0,0,2.174,2.509,3.571,3.571,0,0,0,2.672.435,4.214,4.214,0,0,0-.136-2.238,9.941,9.941,0,0,0-1.114-1.929Z" transform="translate(-0.394 -294.812)" fill="#01458e"/>
    <path id="Path_6505" data-name="Path 6505" d="M217.6,335.845a1.99,1.99,0,0,0,1.757-1.241,4.4,4.4,0,0,0-.145-3.524,12.615,12.615,0,0,0-1.105-2.609l3.026-1.123a28.373,28.373,0,0,0,.453,3.152,7.592,7.592,0,0,0,1.63,3.877,4.185,4.185,0,0,0,2.283,1.467v1.5a6.228,6.228,0,0,1-2.219-.38,6.065,6.065,0,0,1-2.219-1.776,2.909,2.909,0,0,1-1.368,1.567,4.15,4.15,0,0,1-2.093.589Zm2.083-10.671a2.755,2.755,0,0,1-.815.036,1.159,1.159,0,0,1-.761-.272q-.706-.724,1.449-1.757a3.736,3.736,0,0,1,.48.227q.444.226.444.335-1.576.254-1.576.87,0,.236,1.413.326.543.417-.344,1t-1.069.435l-1.178-.236a2.938,2.938,0,0,1,.951-.344q.951-.272,1.005-.616" transform="translate(-201.764 -299.658)" fill="#01458e"/>
    <path id="Path_6506" data-name="Path 6506" d="M317.916,393.619a1.392,1.392,0,0,1,.38-.951,1.326,1.326,0,0,1,1.939-.009,1.246,1.246,0,0,1,.417.96,1.33,1.33,0,0,1-.4.978,1.309,1.309,0,0,1-.96.4,1.361,1.361,0,0,1-1.377-1.377m.453-4.692a1.99,1.99,0,0,0,1.757-1.241,4.4,4.4,0,0,0-.145-3.524,12.607,12.607,0,0,0-1.105-2.609l3.026-1.123a28.377,28.377,0,0,0,.453,3.152,7.593,7.593,0,0,0,1.63,3.877,4.187,4.187,0,0,0,2.283,1.467v1.5a6.226,6.226,0,0,1-2.219-.38,6.06,6.06,0,0,1-2.219-1.776,2.911,2.911,0,0,1-1.368,1.567,4.149,4.149,0,0,1-2.092.589Zm2.464,4.692a1.333,1.333,0,0,1,.408-.96,1.325,1.325,0,0,1,1.929,0,1.245,1.245,0,0,1,.417.96,1.315,1.315,0,0,1-.408.978,1.378,1.378,0,0,1-1.939,0,1.315,1.315,0,0,1-.408-.978" transform="translate(-294.777 -352.741)" fill="#01458e"/>
    <path id="Path_6507" data-name="Path 6507" d="M423.95,388.926a1.99,1.99,0,0,0,1.757-1.241,4.4,4.4,0,0,0-.145-3.524,12.619,12.619,0,0,0-1.105-2.609l3.026-1.123a28.342,28.342,0,0,0,.453,3.152,7.591,7.591,0,0,0,1.63,3.877,4.186,4.186,0,0,0,2.283,1.467v1.5a6.227,6.227,0,0,1-2.219-.38,6.059,6.059,0,0,1-2.219-1.775,2.911,2.911,0,0,1-1.368,1.567,4.151,4.151,0,0,1-2.092.589Zm1.486,3.315a1.419,1.419,0,0,1,.67.172,1.264,1.264,0,0,1,.516.507,1.393,1.393,0,0,1,.19.7,1.368,1.368,0,0,1-.181.67,1.369,1.369,0,0,1-2.392,0,1.364,1.364,0,0,1-.181-.67,1.447,1.447,0,0,1,.181-.7,1.2,1.2,0,0,1,.516-.507,1.472,1.472,0,0,1,.68-.172" transform="translate(-393.093 -352.74)" fill="#01458e"/>
    <path id="Path_6508" data-name="Path 6508" d="M506.372,287.5v-1.431a1.729,1.729,0,0,0,1.6-.752,4.189,4.189,0,0,0,.29-2.491,25.827,25.827,0,0,0-.879-4.267,76.417,76.417,0,0,0-2.79-7.6l2.591-1.54A75.674,75.674,0,0,1,510,279.509a15.765,15.765,0,0,1,.245,4.647,3.5,3.5,0,0,1-1.323,2.364,3.239,3.239,0,0,1-2.554.978" transform="translate(-467.869 -249.808)" fill="#01458e"/>
    <path id="Path_6509" data-name="Path 6509" d="M593.579,286.013a42.15,42.15,0,0,1-2.817-8.37q-1.042-4.547-1.784-9.221l2.337.688a19.964,19.964,0,0,0,.571,3.189q.553,2.391,1.35,5.182t1.712,5.362a16.1,16.1,0,0,0,1.712,3.7Z" transform="translate(-546.109 -248.885)" fill="#01458e"/>
    <path id="Path_6510" data-name="Path 6510" d="M826.54,322.012q-.145-.869-.272-1.694a11.13,11.13,0,0,1-.127-1.694l3.3-.67a12.975,12.975,0,0,0,.154,3.406,41.589,41.589,0,0,0,.842,4.149,11,11,0,0,0,1.649,3.642A4.065,4.065,0,0,0,834.475,331v1.5a6.709,6.709,0,0,1-5.326-2.464,5.53,5.53,0,0,1-3.406,2.346,5.036,5.036,0,0,1-4.457-.933,7.013,7.013,0,0,1-2.219-8.8,3.594,3.594,0,0,1,3.8-2.092,6.018,6.018,0,0,1,1.957.417,8.111,8.111,0,0,1,1.721,1.033m.689,3.587a5.065,5.065,0,0,0-1.259-2.464,2.884,2.884,0,0,0-4.865,1.241,5.19,5.19,0,0,0,.3,3.225,4.6,4.6,0,0,0,2.174,2.509,3.571,3.571,0,0,0,2.672.435,4.213,4.213,0,0,0-.136-2.238A9.94,9.94,0,0,0,825,326.379Z" transform="translate(-758.779 -294.812)" fill="#01458e"/>
    <path id="Path_6511" data-name="Path 6511" d="M1031.784,389.464a1.393,1.393,0,0,1,.38-.951,1.273,1.273,0,0,1,1-.426,1.26,1.26,0,0,1,.942.417,1.244,1.244,0,0,1,.417.96,1.332,1.332,0,0,1-.4.978,1.31,1.31,0,0,1-.96.4,1.362,1.362,0,0,1-1.377-1.377m.2-3.189v-1.5a3.336,3.336,0,0,0,2.609-1.177,2.856,2.856,0,0,0,.417-2.246,8.042,8.042,0,0,0-1-2.5,10.033,10.033,0,0,0-1.449-1.957l3.007-.942a7.842,7.842,0,0,1,2.21,6.54q-.435,3.787-5.8,3.786m2.717,3.189a1.334,1.334,0,0,1,.407-.96,1.326,1.326,0,0,1,1.93,0,1.245,1.245,0,0,1,.417.96,1.316,1.316,0,0,1-.408.978,1.378,1.378,0,0,1-1.939,0,1.315,1.315,0,0,1-.407-.978" transform="translate(-956.686 -348.586)" fill="#01458e"/>
    <path id="Path_6512" data-name="Path 6512" d="M1127.275,269.821l2.7-1.649a22.046,22.046,0,0,0-.109,3.913,34.7,34.7,0,0,0,.562,4.728,21.41,21.41,0,0,0,1.3,4.42,6.45,6.45,0,0,0,2.029,2.835,3.883,3.883,0,0,0,2.2.842v1.431a12.442,12.442,0,0,1-1.286-.109,4.785,4.785,0,0,1-1.9-.715,9.374,9.374,0,0,1-2.382-2.591,14.79,14.79,0,0,1-2.119-4.883,31.568,31.568,0,0,1-.879-4.457,35.164,35.164,0,0,1-.109-3.768" transform="translate(-1045.22 -248.653)" fill="#01458e"/>
    <path id="Path_6513" data-name="Path 6513" d="M1257.03,379.578a4.921,4.921,0,0,1-2.881-.752,5.446,5.446,0,0,1-1.685-1.893,2.768,2.768,0,0,1-.761,1.975q-.779.852-2.817.58t-3.6-3.316q-1.7,3.606-4.421,3.406v-1.467h.163a2.648,2.648,0,0,0,.743-.227,3.045,3.045,0,0,0,1.214-1.359,12.98,12.98,0,0,0,1.177-3.261,8.428,8.428,0,0,1,1.585-3.406,3.776,3.776,0,0,1,3.379-1.114,6.193,6.193,0,0,1,2.772,3.261,27.275,27.275,0,0,0,2.2,4.1,4.3,4.3,0,0,0,2.926,1.965Zm-9.095-9.348q-1.142.272-1.739,3.479l1.141-.67a10.78,10.78,0,0,0,1.685,3.977,3.054,3.054,0,0,0,1.576,1.168,5.381,5.381,0,0,0-.009-4.42,6.732,6.732,0,0,0-2.654-3.533" transform="translate(-1150.553 -341.888)" fill="#01458e"/>
    <path id="Path_6514" data-name="Path 6514" d="M1441.607,285.763a5.374,5.374,0,0,0,1.712-.281,12.878,12.878,0,0,0,1.694-.706,14.036,14.036,0,0,0,1.613-.942,4.369,4.369,0,0,0,1.014-.861q-3.189-1.1-4.284-1.639a10.684,10.684,0,0,1-1.966-1.223,3.3,3.3,0,0,1-1.141-1.486,6.473,6.473,0,0,1,.833-1.766q.725-1.2,1.3-1.313a6,6,0,0,0,1.947,2.772,12.436,12.436,0,0,0,3.152,1.9,14.3,14.3,0,0,0,3.469.979,8.619,8.619,0,0,0,2.9.018l-.833,2.536a5.076,5.076,0,0,0-1.83-.163,8.188,8.188,0,0,0-1.74.38,9.212,9.212,0,0,0,3.3,1.585,6.388,6.388,0,0,0,3.533.1,8.694,8.694,0,0,0,.091-3.605,28.067,28.067,0,0,0-1.006-4.14,81.5,81.5,0,0,0-3.2-7.564l2.663-1.177q1.25,3.026,2.364,6.576a33.754,33.754,0,0,1,1.422,6.431,4.394,4.394,0,0,1-.951,3.56,5.042,5.042,0,0,1-2.953,1.558,8.806,8.806,0,0,1-7.256-2.328q-1.5.815-3.125,1.558a6.867,6.867,0,0,1-2.183.743l-.543.018Z" transform="translate(-1335.42 -249.577)" fill="#01458e"/>
    <path id="Path_6515" data-name="Path 6515" d="M1824.165,322.012q-.145-.869-.272-1.694a11.138,11.138,0,0,1-.127-1.694l3.3-.67a12.968,12.968,0,0,0,.154,3.406,41.641,41.641,0,0,0,.843,4.149,11.013,11.013,0,0,0,1.648,3.642A4.066,4.066,0,0,0,1832.1,331v1.5a6.71,6.71,0,0,1-5.326-2.464,5.53,5.53,0,0,1-3.406,2.346,5.036,5.036,0,0,1-4.457-.933,7.013,7.013,0,0,1-2.219-8.8,3.594,3.594,0,0,1,3.8-2.092,6.014,6.014,0,0,1,1.956.417,8.11,8.11,0,0,1,1.721,1.033m.688,3.587a5.063,5.063,0,0,0-1.259-2.464,2.884,2.884,0,0,0-4.865,1.241,5.193,5.193,0,0,0,.3,3.225,4.6,4.6,0,0,0,2.174,2.509,3.57,3.57,0,0,0,2.672.435,4.213,4.213,0,0,0-.136-2.238,9.951,9.951,0,0,0-1.114-1.929Z" transform="translate(-1683.792 -294.812)" fill="#01458e"/>
    <path id="Path_6516" data-name="Path 6516" d="M2029.414,389.464a1.392,1.392,0,0,1,.381-.951,1.326,1.326,0,0,1,1.939-.009,1.246,1.246,0,0,1,.417.96,1.332,1.332,0,0,1-.4.978,1.31,1.31,0,0,1-.96.4,1.361,1.361,0,0,1-1.377-1.377m.2-3.189v-1.5a3.335,3.335,0,0,0,2.608-1.177,2.854,2.854,0,0,0,.417-2.246,8.047,8.047,0,0,0-1-2.5,10.053,10.053,0,0,0-1.45-1.957l3.007-.942a7.841,7.841,0,0,1,2.21,6.54q-.435,3.787-5.8,3.786m2.717,3.189a1.334,1.334,0,0,1,.407-.96,1.326,1.326,0,0,1,1.93,0,1.245,1.245,0,0,1,.416.96,1.315,1.315,0,0,1-.407.978,1.378,1.378,0,0,1-1.939,0,1.316,1.316,0,0,1-.407-.978" transform="translate(-1881.704 -348.586)" fill="#01458e"/>
    <path id="Path_6517" data-name="Path 6517" d="M2131.438,392.349a2.322,2.322,0,0,1-1.278-.073,4.59,4.59,0,0,1-1.313-.707,5.5,5.5,0,0,1-2.708,3.614,8.741,8.741,0,0,1-5.625,1.3q1.793-.942,3.551-1.875a5.8,5.8,0,0,0,2.627-2.962V391.5a.091.091,0,0,0-.117.018.206.206,0,0,1-.136.054,3.042,3.042,0,0,1-2.093.208,3.528,3.528,0,0,1-1.631-1.024,5.312,5.312,0,0,1-1.059-1.784,6.061,6.061,0,0,1-.381-2.092,7.015,7.015,0,0,1,.843-2.781,3.094,3.094,0,0,1,2.364-1.585,3.3,3.3,0,0,1,2.527.725,5.293,5.293,0,0,1,1.413,2.074,15.917,15.917,0,0,1,.77,3.6,2.235,2.235,0,0,0,1.059,1.513,3.128,3.128,0,0,0,1.187.426Zm-4.584-6.522a2.443,2.443,0,0,0-.734-1.44,1.6,1.6,0,0,0-1.458-.607,3,3,0,0,0-1.232,1.621,4.652,4.652,0,0,0-.209,2.083,3.9,3.9,0,0,0,.735,1.848,2.143,2.143,0,0,0,1.594.9,4,4,0,0,0,.371-2.165,7.671,7.671,0,0,0-.553-2Z" transform="translate(-1966.173 -354.659)" fill="#01458e"/>
    <path id="Path_6518" data-name="Path 6518" d="M2264.883,386.276v-1.5q1.938-.181,2.247-1.177a4.52,4.52,0,0,0,.054-2.246,9.47,9.47,0,0,0-.906-2.5,7.982,7.982,0,0,0-1.359-1.957l3.008-.942a8.1,8.1,0,0,1,2.02,6.549q-.426,3.777-5.063,3.777m1.739,1.812a1.42,1.42,0,0,1,.67.172,1.262,1.262,0,0,1,.516.507,1.4,1.4,0,0,1,.191.7,1.367,1.367,0,0,1-.181.67,1.369,1.369,0,0,1-2.391,0,1.365,1.365,0,0,1-.181-.67,1.447,1.447,0,0,1,.181-.7,1.191,1.191,0,0,1,.517-.507,1.467,1.467,0,0,1,.679-.172" transform="translate(-2100.034 -348.586)" fill="#01458e"/>
    <path id="Path_6519" data-name="Path 6519" d="M2325.709,344.556a3.865,3.865,0,0,1,2.2-.435,1.861,1.861,0,0,1,1.648,1.531,22.605,22.605,0,0,0,1.025,2.736,1.956,1.956,0,0,0,1.875,1.3v1.5a3.393,3.393,0,0,1-2.591-.924,5.221,5.221,0,0,1-1.214-2.02q-.344-1.1-.534-1.7a.9.9,0,0,0-.843-.67q-.651-.063-1.213.833a21.791,21.791,0,0,0-1.314,2.582,32.819,32.819,0,0,1-1.721,3.325,10.9,10.9,0,0,1-2.772,3.034,12.807,12.807,0,0,1-4.646,2.138q-.217-.29,1.576-2.083a27.71,27.71,0,0,0,3.4-4.185q1.6-2.392,2.872-4.411a7.339,7.339,0,0,1,2.255-2.554m-3.016-5.064a1.393,1.393,0,0,1,.38-.951,1.325,1.325,0,0,1,1.938-.009,1.244,1.244,0,0,1,.416.96,1.328,1.328,0,0,1-.4.978,1.308,1.308,0,0,1-.96.4,1.361,1.361,0,0,1-1.377-1.377m2.917,0a1.333,1.333,0,0,1,.408-.96,1.325,1.325,0,0,1,1.929,0,1.245,1.245,0,0,1,.417.96,1.314,1.314,0,0,1-.408.978,1.377,1.377,0,0,1-1.938,0,1.314,1.314,0,0,1-.408-.978" transform="translate(-2147.047 -313.505)" fill="#01458e"/>
    <path id="Path_6520" data-name="Path 6520" d="M2520.546,287.5v-1.431a1.73,1.73,0,0,0,1.6-.752,4.2,4.2,0,0,0,.29-2.491,25.828,25.828,0,0,0-.879-4.267,76.488,76.488,0,0,0-2.79-7.6l2.591-1.54a75.708,75.708,0,0,1,2.817,10.091,15.761,15.761,0,0,1,.245,4.647,3.506,3.506,0,0,1-1.323,2.364,3.238,3.238,0,0,1-2.554.978" transform="translate(-2335.443 -249.808)" fill="#01458e"/>
    <path id="Path_6521" data-name="Path 6521" d="M2607.751,286.013a42.193,42.193,0,0,1-2.817-8.37q-1.042-4.547-1.785-9.221l2.338.688a19.924,19.924,0,0,0,.57,3.189q.553,2.391,1.35,5.182t1.712,5.362a16.1,16.1,0,0,0,1.712,3.7Z" transform="translate(-2413.681 -248.885)" fill="#01458e"/>
    <path id="Path_6522" data-name="Path 6522" d="M2844.512,354.012q.344,1.613-1.485,3.931a5.131,5.131,0,0,1-4.874,1.993,5.541,5.541,0,0,1-4.575-2.89,6.35,6.35,0,0,1-.118-5.951l3.841-.851a8.483,8.483,0,0,0-1.232,4.547,3.4,3.4,0,0,0,1.811,3.116,2.477,2.477,0,0,0,3.026-.236,4.4,4.4,0,0,0,1.531-2.772,7.1,7.1,0,0,0-.462-3.479,11.64,11.64,0,0,0-1.431-2.844l3.116-.942a24.851,24.851,0,0,0,1.069,3.949q1.54,2.845,3.352,2.953a2.007,2.007,0,0,0,1.649-1.232,4.422,4.422,0,0,0-.145-3.533,12.584,12.584,0,0,0-1.106-2.609l3.026-1.123a28.451,28.451,0,0,0,.452,3.152,7.6,7.6,0,0,0,1.63,3.877,4.188,4.188,0,0,0,2.284,1.467v1.5a6.231,6.231,0,0,1-2.22-.38,6.063,6.063,0,0,1-2.219-1.776,2.938,2.938,0,0,1-1.377,1.576,4.087,4.087,0,0,1-1.9.58,3.439,3.439,0,0,1-2.183-.58,4.835,4.835,0,0,1-1.459-1.449m-5.435-9.113a1.7,1.7,0,0,1-.417,1.141,1.3,1.3,0,0,1-1.032.489,1.484,1.484,0,0,1-1.133-.5,1.686,1.686,0,0,1-.462-1.187,1.414,1.414,0,0,1,.472-1.051,1.52,1.52,0,0,1,1.086-.453,2.237,2.237,0,0,1,.272.018,1.418,1.418,0,0,1,.888.534,1.608,1.608,0,0,1,.326,1.006m9.095,14.33a1.371,1.371,0,0,1,2.328-.988,1.308,1.308,0,0,1,.408.988,1.365,1.365,0,0,1-.39.96,1.273,1.273,0,0,1-.969.417,1.313,1.313,0,0,1-.978-.408,1.338,1.338,0,0,1-.4-.969m2.917,0a1.284,1.284,0,0,1,.426-.978,1.356,1.356,0,0,1,.951-.4,1.393,1.393,0,0,1,.951.38,1.273,1.273,0,0,1,.426,1,1.32,1.32,0,0,1-.417.96,1.245,1.245,0,0,1-.96.417,1.392,1.392,0,0,1-1.377-1.377" transform="translate(-2626.6 -318.351)" fill="#01458e"/>
    <path id="Path_6523" data-name="Path 6523" d="M3136.723,282.886a4.414,4.414,0,0,0,1.495,1.848,3.587,3.587,0,0,0,2.255.8v1.5a6.238,6.238,0,0,1-3.487-.815,8.3,8.3,0,0,1-2.075-1.757,10.154,10.154,0,0,1-5.833,2.717,10.541,10.541,0,0,0,.29,1.2q.2.67.471,1.34l-3.007.779a22.617,22.617,0,0,1-.616-3.46,4.576,4.576,0,0,1-1.286,0v-1.5h.126a7.609,7.609,0,0,0,1.1-.072,13.768,13.768,0,0,1,.01-2.292q.1-1.223.37-2.745a6.6,6.6,0,0,1,.326-1.314q.253-.734.6-1.495l-1.015.507-3.08-7.863,2.609-1.341,2.356,7.174a5.479,5.479,0,0,1,2.744-1.821,5.565,5.565,0,0,1,3.379.018,4.73,4.73,0,0,1,2.545,1.766,5.329,5.329,0,0,1,.8,3.279,6.575,6.575,0,0,1-1.078,3.551m-7.446-2.718a22.327,22.327,0,0,0-.38,2.772q-.091,1.3-.073,2.464a7.218,7.218,0,0,0,3.017-.815,7.578,7.578,0,0,0,2.256-1.975,5.982,5.982,0,0,0,1.512-4.122,3.052,3.052,0,0,0-1.458-2.573,2.556,2.556,0,0,0-2.7.163q-1.432.861-2.175,4.085" transform="translate(-2896.038 -249.345)" fill="#01458e"/>
    <path id="Path_6524" data-name="Path 6524" d="M3370.762,396.432a4.437,4.437,0,0,1-2.827-1.286l-.4.6a2.611,2.611,0,0,1-2.192.679,4.939,4.939,0,0,1-2.608-.77,4.221,4.221,0,0,1-3.987.417,3.2,3.2,0,0,1-1.575-1.142q-.581,1.4-3.316,1.5v-1.5h.054q1.576,0,1.7-1.766t-1.576-5.68l2.808-.344a13.277,13.277,0,0,0,1.648,5.354q1.359,2.383,1.812,2.382,1.123-.126.417-2.79a20.718,20.718,0,0,0-1.812-4.674l3.026-.344a18.731,18.731,0,0,0,.978,4.366,17.823,17.823,0,0,0,1.241,2.473q.661,1.078,1.386.969.58-.108.471-1.277a11.248,11.248,0,0,0-.571-2.536,20.653,20.653,0,0,0-1.024-2.509,5.819,5.819,0,0,1-.507-1.142l3.171-.507.815,3.823q.924,2.989,1.784,3.623t1.078.58Z" transform="translate(-3109.75 -358.742)" fill="#01458e"/>
    <path id="Path_6525" data-name="Path 6525" d="M3577.645,287.5a5.093,5.093,0,0,1-3.75-1.2,7.669,7.669,0,0,1-1.957-2.6,4.651,4.651,0,0,1-.643,1.957,3.029,3.029,0,0,1-1.485,1.513,4.786,4.786,0,0,1-1.749.335v-1.5a2.7,2.7,0,0,0,1.921-2.8,20.937,20.937,0,0,0-.535-4.656q-.553-2.509-2.02-7.491l2.628-1.63a54.881,54.881,0,0,0,2.092,9.991,16.916,16.916,0,0,0,2.554,4.919,3.872,3.872,0,0,0,2.98,1.739Z" transform="translate(-3307.772 -249.808)" fill="#01458e"/>
    <path id="Path_6526" data-name="Path 6526" d="M3681.314,256.475a1.569,1.569,0,0,1,1.15.48,1.606,1.606,0,0,1,0,2.292,1.626,1.626,0,0,1-2.781-1.16,1.624,1.624,0,0,1,1.63-1.612m-.181,17.519q3.479-.217,4.629-1.676a3.777,3.777,0,0,0,1.006-2.726,3.635,3.635,0,0,1-4.1.715q-2.057-.969-2.347-3.931a3.591,3.591,0,0,1,2.265-4.049,4.227,4.227,0,0,1,3.6.236q1.768.924,2.582,4.765a7.89,7.89,0,0,1-1.051,5.218,5.423,5.423,0,0,1-3.016,2.518,13.989,13.989,0,0,1-3.56.435Zm4.637-8.9a2.455,2.455,0,0,0-2.011-2.029q-1.757.471-1.213,3.478t2.555,2.863a4.211,4.211,0,0,0-.136-2.047,11.283,11.283,0,0,0-.879-1.938Z" transform="translate(-3411.859 -237.807)" fill="#01458e"/>
    <path id="Path_6527" data-name="Path 6527" d="M3937.406,322.012q-.145-.869-.272-1.694a11.2,11.2,0,0,1-.126-1.694l3.3-.67a12.992,12.992,0,0,0,.154,3.406,41.745,41.745,0,0,0,.843,4.149,11,11,0,0,0,1.649,3.642,4.063,4.063,0,0,0,2.391,1.848v1.5a6.71,6.71,0,0,1-5.326-2.464,5.53,5.53,0,0,1-3.406,2.346,5.035,5.035,0,0,1-4.456-.933,7.013,7.013,0,0,1-2.22-8.8,3.594,3.594,0,0,1,3.8-2.092,6.024,6.024,0,0,1,1.958.417,8.124,8.124,0,0,1,1.72,1.033m.689,3.587a5.067,5.067,0,0,0-1.26-2.464,2.884,2.884,0,0,0-4.864,1.241,5.194,5.194,0,0,0,.3,3.225,4.6,4.6,0,0,0,2.174,2.509,3.571,3.571,0,0,0,2.672.435,4.213,4.213,0,0,0-.136-2.238,9.977,9.977,0,0,0-1.114-1.929Z" transform="translate(-3643.223 -294.812)" fill="#01458e"/>
    <path id="Path_6528" data-name="Path 6528" d="M4141.412,393.619a1.4,1.4,0,0,1,.38-.951,1.275,1.275,0,0,1,1-.426,1.261,1.261,0,0,1,.942.417,1.245,1.245,0,0,1,.417.96,1.327,1.327,0,0,1-.4.978,1.306,1.306,0,0,1-.959.4,1.362,1.362,0,0,1-1.377-1.377m.454-4.692a1.991,1.991,0,0,0,1.757-1.241,4.407,4.407,0,0,0-.146-3.524,12.518,12.518,0,0,0-1.106-2.609l3.026-1.123a28.147,28.147,0,0,0,.454,3.152,7.6,7.6,0,0,0,1.629,3.877,4.191,4.191,0,0,0,2.283,1.467v1.5a6.228,6.228,0,0,1-2.219-.38,6.05,6.05,0,0,1-2.219-1.776,2.912,2.912,0,0,1-1.368,1.567,4.151,4.151,0,0,1-2.092.589Zm2.463,4.692a1.332,1.332,0,0,1,.407-.96,1.326,1.326,0,0,1,1.93,0,1.245,1.245,0,0,1,.417.96,1.316,1.316,0,0,1-.408.978,1.378,1.378,0,0,1-1.938,0,1.314,1.314,0,0,1-.407-.978" transform="translate(-3839.98 -352.741)" fill="#01458e"/>
    <path id="Path_6529" data-name="Path 6529" d="M4231.015,355.972a12.492,12.492,0,0,1,2.292-1.875,22.51,22.51,0,0,1,3.614-2.011,12.911,12.911,0,0,1,3.723-1.069,2.67,2.67,0,0,1,2.635.915q.889,1.5-.479,3.379a17.881,17.881,0,0,1-2.346,2.745,11.288,11.288,0,0,0,3.2,3.017,5.951,5.951,0,0,0,2.546.552v1.5a6.629,6.629,0,0,1-4.33-1.268,21.849,21.849,0,0,1-2.555-2.428,18.046,18.046,0,0,1-2.9,2.446,7.641,7.641,0,0,1-3.714,1.25h-.688v-1.5a6.818,6.818,0,0,0,2.789-.724,11.54,11.54,0,0,0,3.37-2.609,15.28,15.28,0,0,0-2.028-1.585q-.907-.571-1.342-.39l-.715.679a4.885,4.885,0,0,1-.752.589Zm5.489-.815a10.345,10.345,0,0,1,2.682,1.721q.235-.2,1.558-1.613a5.522,5.522,0,0,0,1.4-1.9q-.073-.779-2.4,0a7.572,7.572,0,0,0-3.234,1.793" transform="translate(-3923.062 -325.438)" fill="#01458e"/>
    <path id="Path_6530" data-name="Path 6530" d="M4458.491,346.89a7.279,7.279,0,0,0-3.859.272,29.54,29.54,0,0,0-3.623,1.594,32.735,32.735,0,0,1-3.66,1.631,7.061,7.061,0,0,1-2.972.58,4.726,4.726,0,0,1-2.446-.743,5.522,5.522,0,0,1-1.685-1.9,2.764,2.764,0,0,1-.761,1.975q-.78.852-2.818.58t-3.6-3.316q-1.7,3.606-4.42,3.406V349.5h.182a2.71,2.71,0,0,0,.724-.227,3.034,3.034,0,0,0,1.214-1.359,12.93,12.93,0,0,0,1.178-3.261,8.41,8.41,0,0,1,1.586-3.406,3.774,3.774,0,0,1,3.378-1.114,6.2,6.2,0,0,1,2.772,3.261,28.272,28.272,0,0,0,2.192,4.113,4.288,4.288,0,0,0,2.845,1.939,12.617,12.617,0,0,0,1.558-.29,10.744,10.744,0,0,0,2.653-1.024q1.333-.716,2.283-1.241a2.811,2.811,0,0,0,1.1-.833q-.906-.235-2.165-.67a20.961,20.961,0,0,1-2.482-1.042,12.925,12.925,0,0,1-2.2-1.368,3.665,3.665,0,0,1-1.287-1.649,7.264,7.264,0,0,1,.941-2q.819-1.349,1.45-1.458a6.788,6.788,0,0,0,2.183,3.107,14.01,14.01,0,0,0,3.523,2.129,16.13,16.13,0,0,0,3.9,1.105,9.5,9.5,0,0,0,3.261.018Zm-22.774-5.272q-1.141.272-1.738,3.479l1.142-.67a10.758,10.758,0,0,0,1.684,3.977,3.053,3.053,0,0,0,1.576,1.169,5.381,5.381,0,0,0-.009-4.42,6.724,6.724,0,0,0-2.655-3.533m11.959,12.537a1.328,1.328,0,0,1,.4-.978,1.309,1.309,0,0,1,.961-.4,1.36,1.36,0,0,1,1.376,1.377,1.361,1.361,0,0,1-.389.96,1.345,1.345,0,0,1-1.938.009,1.326,1.326,0,0,1-.407-.969" transform="translate(-4106.314 -313.276)" fill="#01458e"/>
    <path id="Path_6531" data-name="Path 6531" d="M58.445,680.3h2.6c2.042,0,3.42.869,3.42,3.4,0,2.427-1.371,3.562-3.364,3.562H59.6v4.575h-1.16Zm2.512,5.767c1.593,0,2.354-.731,2.354-2.372,0-1.663-.809-2.205-2.409-2.205H59.6v4.577Z" transform="translate(-54.191 -630.782)" fill="#01458e"/>
    <path id="Path_6532" data-name="Path 6532" d="M146.4,725.028c0-1.861,1.269-2.791,4.145-3.187,0-1.1-.291-2.157-1.393-2.157a3.28,3.28,0,0,0-2.013.916l-.447-.991a4.32,4.32,0,0,1,2.651-1.115c1.647,0,2.344,1.386,2.344,3.512v5.24h-.944l-.1-1.021h-.038a3.278,3.278,0,0,1-2.232,1.232c-1.129,0-1.977-.888-1.977-2.428m4.145.134v-2.372c-2.262.344-3.026,1.045-3.026,2.137,0,.971.521,1.366,1.183,1.366a2.587,2.587,0,0,0,1.844-1.13" transform="translate(-135.748 -666.198)" fill="#01458e"/>
    <path id="Path_6533" data-name="Path 6533" d="M244.836,677.552v-10.8h1.142v10.908c0,.442.152.617.319.617a.792.792,0,0,0,.25-.035l.155,1.1a1.5,1.5,0,0,1-.657.135c-.856,0-1.208-.691-1.208-1.926" transform="translate(-227.016 -618.22)" fill="#01458e"/>
    <path id="Path_6534" data-name="Path 6534" d="M281.813,722.987c0-2.78,1.48-4.493,3.034-4.493,1.721,0,2.694,1.565,2.694,4.008a5.755,5.755,0,0,1-.053.821h-4.545c.082,1.809.956,2.982,2.243,2.982a2.556,2.556,0,0,0,1.679-.682l.409.948a3.433,3.433,0,0,1-2.229.886c-1.8,0-3.231-1.665-3.231-4.47m4.718-.7c0-1.712-.608-2.642-1.664-2.642-.949,0-1.8.964-1.936,2.642Z" transform="translate(-261.301 -666.199)" fill="#01458e"/>
    <path id="Path_6535" data-name="Path 6535" d="M369.581,726.271l.564-.952a2.74,2.74,0,0,0,1.992,1.012A1.24,1.24,0,0,0,373.464,725c0-.879-.8-1.267-1.544-1.619-.946-.438-2.013-1.026-2.013-2.467a2.257,2.257,0,0,1,2.328-2.425,3.028,3.028,0,0,1,2.1.96l-.546.926a2.272,2.272,0,0,0-1.539-.76,1.153,1.153,0,0,0-1.243,1.225c0,.812.734,1.121,1.5,1.482.973.464,2.058.966,2.058,2.591a2.373,2.373,0,0,1-2.462,2.539,3.6,3.6,0,0,1-2.518-1.186" transform="translate(-342.681 -666.199)" fill="#01458e"/>
    <path id="Path_6536" data-name="Path 6536" d="M442.3,696.778v-4.723h-1V690.96l1.055-.083.137-2.395h.954v2.395h1.829v1.177h-1.829V696.8c0,1.044.266,1.649,1.044,1.649a1.876,1.876,0,0,0,.769-.229l.221,1.09a3.337,3.337,0,0,1-1.252.316c-1.436,0-1.923-1.152-1.923-2.851" transform="translate(-409.176 -638.371)" fill="#01458e"/>
    <path id="Path_6537" data-name="Path 6537" d="M507.063,672.549a.8.8,0,1,1,1.578,0,.8.8,0,1,1-1.578,0m.209,2.689h1.142v8.541h-1.142Z" transform="translate(-470.157 -622.732)" fill="#01458e"/>
    <path id="Path_6538" data-name="Path 6538" d="M552.27,718.7h.943l.1,1.232h.038a3.05,3.05,0,0,1,2.264-1.443c1.422,0,2.061,1.162,2.061,3.34v5.412h-1.142v-5.225c0-1.591-.38-2.272-1.274-2.272-.69,0-1.168.446-1.845,1.312v6.185H552.27Z" transform="translate(-512.073 -666.199)" fill="#01458e"/>
    <path id="Path_6539" data-name="Path 6539" d="M645.7,722.987c0-2.78,1.48-4.493,3.034-4.493,1.721,0,2.694,1.565,2.694,4.008a5.774,5.774,0,0,1-.053.821H646.83c.082,1.809.956,2.982,2.243,2.982a2.556,2.556,0,0,0,1.679-.682l.409.948a3.433,3.433,0,0,1-2.228.886c-1.8,0-3.231-1.665-3.231-4.47m4.718-.7c0-1.712-.608-2.642-1.664-2.642-.949,0-1.8.964-1.936,2.642Z" transform="translate(-598.704 -666.199)" fill="#01458e"/>
    <path id="Path_6540" data-name="Path 6540" d="M769.84,680.3h1.309l3.083,11.532H773l-1.589-6.441c-.328-1.289-.62-2.555-.912-3.886h-.056c-.282,1.338-.574,2.6-.9,3.886l-1.607,6.441h-1.18Zm-1.462,6.848h4.2v1.171h-4.2Z" transform="translate(-710.949 -630.782)" fill="#01458e"/>
    <path id="Path_6541" data-name="Path 6541" d="M875.17,726.271l.564-.952a2.74,2.74,0,0,0,1.992,1.012A1.24,1.24,0,0,0,879.052,725c0-.879-.8-1.267-1.544-1.619-.946-.438-2.013-1.026-2.013-2.467a2.257,2.257,0,0,1,2.328-2.425,3.028,3.028,0,0,1,2.1.96l-.546.926a2.271,2.271,0,0,0-1.539-.76,1.153,1.153,0,0,0-1.243,1.225c0,.812.734,1.121,1.5,1.482.973.464,2.058.966,2.058,2.591a2.373,2.373,0,0,1-2.462,2.539,3.6,3.6,0,0,1-2.518-1.186" transform="translate(-811.471 -666.199)" fill="#01458e"/>
    <path id="Path_6542" data-name="Path 6542" d="M951.459,726.271l.564-.952a2.741,2.741,0,0,0,1.992,1.012A1.24,1.24,0,0,0,955.342,725c0-.879-.8-1.267-1.544-1.619-.946-.438-2.013-1.026-2.013-2.467a2.257,2.257,0,0,1,2.328-2.425,3.028,3.028,0,0,1,2.1.96l-.546.926a2.271,2.271,0,0,0-1.539-.76,1.153,1.153,0,0,0-1.243,1.225c0,.812.734,1.121,1.5,1.482.973.464,2.058.966,2.058,2.591a2.373,2.373,0,0,1-2.462,2.539,3.6,3.6,0,0,1-2.518-1.186" transform="translate(-882.208 -666.199)" fill="#01458e"/>
    <path id="Path_6543" data-name="Path 6543" d="M1031.141,722.987c0-2.85,1.473-4.493,3.128-4.493s3.128,1.642,3.128,4.493c0,2.828-1.473,4.47-3.128,4.47s-3.128-1.642-3.128-4.47m5.075,0c0-1.957-.786-3.289-1.947-3.289s-1.948,1.332-1.948,3.289.787,3.267,1.948,3.267,1.947-1.31,1.947-3.267" transform="translate(-956.09 -666.199)" fill="#01458e"/>
    <path id="Path_6544" data-name="Path 6544" d="M1132.6,722.987c0-2.85,1.522-4.493,3.247-4.493a2.57,2.57,0,0,1,1.974,1l-.584.956a1.8,1.8,0,0,0-1.339-.755c-1.222,0-2.118,1.332-2.118,3.289s.846,3.267,2.088,3.267a2.215,2.215,0,0,0,1.584-.851l.5.969a2.944,2.944,0,0,1-2.182,1.086c-1.8,0-3.166-1.642-3.166-4.47" transform="translate(-1050.167 -666.199)" fill="#01458e"/>
    <path id="Path_6545" data-name="Path 6545" d="M1221.682,672.549a.8.8,0,1,1,1.578,0,.8.8,0,1,1-1.578,0m.209,2.689h1.142v8.541h-1.142Z" transform="translate(-1132.763 -622.732)" fill="#01458e"/>
    <path id="Path_6546" data-name="Path 6546" d="M1261.145,725.028c0-1.861,1.269-2.791,4.145-3.187,0-1.1-.291-2.157-1.393-2.157a3.28,3.28,0,0,0-2.013.916l-.447-.991a4.32,4.32,0,0,1,2.651-1.115c1.647,0,2.344,1.386,2.344,3.512v5.24h-.943l-.1-1.021h-.038a3.278,3.278,0,0,1-2.232,1.232c-1.13,0-1.978-.888-1.978-2.428m4.145.134v-2.372c-2.262.344-3.026,1.045-3.026,2.137,0,.971.52,1.366,1.183,1.366a2.587,2.587,0,0,0,1.844-1.13" transform="translate(-1169.353 -666.198)" fill="#01458e"/>
    <path id="Path_6547" data-name="Path 6547" d="M1346.866,696.778v-4.723h-1V690.96l1.056-.083.137-2.395h.954v2.395h1.828v1.177h-1.828V696.8c0,1.044.266,1.649,1.044,1.649a1.878,1.878,0,0,0,.769-.229l.22,1.09a3.337,3.337,0,0,1-1.252.316c-1.436,0-1.923-1.152-1.923-2.851" transform="translate(-1247.904 -638.371)" fill="#01458e"/>
    <path id="Path_6548" data-name="Path 6548" d="M1411.631,672.549a.8.8,0,1,1,1.578,0,.8.8,0,1,1-1.578,0m.209,2.689h1.142v8.541h-1.142Z" transform="translate(-1308.886 -622.732)" fill="#01458e"/>
    <path id="Path_6549" data-name="Path 6549" d="M1449.955,722.987c0-2.85,1.473-4.493,3.127-4.493s3.128,1.642,3.128,4.493c0,2.828-1.473,4.47-3.128,4.47s-3.127-1.642-3.127-4.47m5.075,0c0-1.957-.786-3.289-1.947-3.289s-1.948,1.332-1.948,3.289.787,3.267,1.948,3.267,1.947-1.31,1.947-3.267" transform="translate(-1344.421 -666.199)" fill="#01458e"/>
    <path id="Path_6550" data-name="Path 6550" d="M1558.3,718.7h.943l.1,1.232h.038a3.049,3.049,0,0,1,2.264-1.443c1.422,0,2.061,1.162,2.061,3.34v5.412h-1.142v-5.225c0-1.591-.38-2.272-1.274-2.272-.69,0-1.168.446-1.845,1.312v6.185H1558.3Z" transform="translate(-1444.884 -666.199)" fill="#01458e"/>
    <path id="Path_6551" data-name="Path 6551" d="M1686.763,668.125l.967-.083h2.521v1.178h-3.488Zm.916-1.432c0-1.736.624-2.839,1.977-2.839a2.463,2.463,0,0,1,1.121.294l-.241,1.1a1.538,1.538,0,0,0-.765-.22c-.638,0-.95.563-.95,1.667v9.885h-1.142Z" transform="translate(-1563.993 -615.536)" fill="#01458e"/>
    <path id="Path_6552" data-name="Path 6552" d="M1736.032,722.987c0-2.85,1.473-4.493,3.127-4.493s3.128,1.642,3.128,4.493c0,2.828-1.473,4.47-3.128,4.47s-3.127-1.642-3.127-4.47m5.075,0c0-1.957-.787-3.289-1.947-3.289s-1.948,1.332-1.948,3.289.787,3.267,1.948,3.267,1.947-1.31,1.947-3.267" transform="translate(-1609.676 -666.199)" fill="#01458e"/>
    <path id="Path_6553" data-name="Path 6553" d="M1844.382,718.7h.944l.1,1.555h.038c.47-1.084,1.16-1.766,1.919-1.766a1.291,1.291,0,0,1,.721.176l-.213,1.268a1.538,1.538,0,0,0-.655-.141c-.57,0-1.251.52-1.708,1.964v5.484h-1.142Z" transform="translate(-1710.14 -666.199)" fill="#01458e"/>
    <path id="Path_6554" data-name="Path 6554" d="M1942.353,680.3h5.253v1.242h-4.093v3.613h3.453v1.242h-3.453v4.193h4.232v1.242h-5.391Z" transform="translate(-1800.98 -630.782)" fill="#01458e"/>
    <path id="Path_6555" data-name="Path 6555" d="M2029.64,675.009c0-2.77,1.381-4.493,2.92-4.493a2.506,2.506,0,0,1,1.891.99l-.048-1.465V666.75h1.142v12.518h-.943l-.1-1.008h-.038a2.785,2.785,0,0,1-2.048,1.219c-1.687,0-2.78-1.624-2.78-4.47m4.763,2.088V672.62a2.155,2.155,0,0,0-1.646-.888c-1.079,0-1.937,1.317-1.937,3.264,0,2.048.669,3.267,1.853,3.267a2.224,2.224,0,0,0,1.73-1.166" transform="translate(-1881.914 -618.221)" fill="#01458e"/>
    <path id="Path_6556" data-name="Path 6556" d="M2137.99,726.8v-5.412h1.143v5.225c0,1.591.38,2.272,1.273,2.272.689,0,1.168-.433,1.807-1.439v-6.058h1.142v8.541h-.943l-.1-1.337h-.038a2.776,2.776,0,0,1-2.227,1.548c-1.422,0-2.061-1.161-2.061-3.34" transform="translate(-1982.377 -668.883)" fill="#01458e"/>
    <path id="Path_6557" data-name="Path 6557" d="M2232.283,722.987c0-2.85,1.521-4.493,3.247-4.493a2.57,2.57,0,0,1,1.974,1l-.584.956a1.8,1.8,0,0,0-1.339-.755c-1.222,0-2.118,1.332-2.118,3.289s.846,3.267,2.087,3.267a2.216,2.216,0,0,0,1.585-.851l.5.969a2.944,2.944,0,0,1-2.182,1.086c-1.8,0-3.166-1.642-3.166-4.47" transform="translate(-2069.807 -666.199)" fill="#01458e"/>
    <path id="Path_6558" data-name="Path 6558" d="M2316.581,725.028c0-1.861,1.269-2.791,4.145-3.187,0-1.1-.291-2.157-1.393-2.157a3.278,3.278,0,0,0-2.012.916l-.448-.991a4.319,4.319,0,0,1,2.651-1.115c1.647,0,2.344,1.386,2.344,3.512v5.24h-.943l-.1-1.021h-.038a3.278,3.278,0,0,1-2.232,1.232c-1.13,0-1.977-.888-1.977-2.428m4.145.134v-2.372c-2.262.344-3.027,1.045-3.027,2.137,0,.971.521,1.366,1.183,1.366a2.587,2.587,0,0,0,1.844-1.13" transform="translate(-2147.969 -666.198)" fill="#01458e"/>
    <path id="Path_6559" data-name="Path 6559" d="M2402.3,696.778v-4.723h-1V690.96l1.055-.083.137-2.395h.954v2.395h1.828v1.177h-1.828V696.8c0,1.044.265,1.649,1.043,1.649a1.878,1.878,0,0,0,.769-.229l.22,1.09a3.338,3.338,0,0,1-1.252.316c-1.437,0-1.923-1.152-1.923-2.851" transform="translate(-2226.52 -638.371)" fill="#01458e"/>
    <path id="Path_6560" data-name="Path 6560" d="M2467.067,672.549a.8.8,0,1,1,1.577,0,.8.8,0,1,1-1.577,0m.209,2.689h1.141v8.541h-1.141Z" transform="translate(-2287.502 -622.732)" fill="#01458e"/>
    <path id="Path_6561" data-name="Path 6561" d="M2505.389,722.987c0-2.85,1.473-4.493,3.127-4.493s3.128,1.642,3.128,4.493c0,2.828-1.473,4.47-3.128,4.47s-3.127-1.642-3.127-4.47m5.075,0c0-1.957-.787-3.289-1.948-3.289s-1.948,1.332-1.948,3.289.787,3.267,1.948,3.267,1.948-1.31,1.948-3.267" transform="translate(-2323.035 -666.199)" fill="#01458e"/>
    <path id="Path_6562" data-name="Path 6562" d="M2613.74,718.7h.944l.1,1.232h.038a3.051,3.051,0,0,1,2.264-1.443c1.422,0,2.06,1.162,2.06,3.34v5.412H2618v-5.225c0-1.591-.38-2.272-1.273-2.272-.69,0-1.168.446-1.845,1.312v6.185h-1.142Z" transform="translate(-2423.5 -666.199)" fill="#01458e"/>
    <path id="Path_6563" data-name="Path 6563" d="M2742.678,686.164c0-3.422,4.161-3.979,4.161-6.455,0-.67-.241-1.271-.861-1.271-.682,0-1.12.72-1.12,1.68,0,2.153,1.871,5.028,3.619,6.668a6.184,6.184,0,0,0,2.005,1.368l-.309,1.2a6.746,6.746,0,0,1-2.38-1.606c-2-1.958-3.919-5.168-3.919-7.61,0-1.541.842-2.737,2.1-2.737,1.128,0,1.792.943,1.792,2.284,0,2.959-3.98,3.858-3.98,6.391a1.914,1.914,0,0,0,1.8,2.128,2.845,2.845,0,0,0,2.086-1.356,10.3,10.3,0,0,0,1.635-3.92h1.06a13.662,13.662,0,0,1-1.9,4.611,3.7,3.7,0,0,1-3.012,1.816c-1.649,0-2.777-1.337-2.777-3.192" transform="translate(-2543.054 -628.098)" fill="#01458e"/>
    <path id="Path_6564" data-name="Path 6564" d="M2898.994,680.3h5.253v1.242h-4.093v3.613h3.453v1.242h-3.453v4.193h4.231v1.242h-5.391Z" transform="translate(-2687.992 -630.782)" fill="#01458e"/>
    <path id="Path_6565" data-name="Path 6565" d="M2994.793,718.7h.944l.1,1.232h.038a3.049,3.049,0,0,1,2.264-1.443c1.423,0,2.061,1.162,2.061,3.34v5.412h-1.142v-5.225c0-1.591-.38-2.272-1.273-2.272-.69,0-1.168.446-1.846,1.312v6.185h-1.142Z" transform="translate(-2776.818 -666.199)" fill="#01458e"/>
    <path id="Path_6566" data-name="Path 6566" d="M3081.755,721.389h1.177l1.277,4.852c.2.834.421,1.7.623,2.519h.056c.2-.815.421-1.685.623-2.519l1.277-4.852h1.119l-2.388,8.541h-1.327Z" transform="translate(-2857.45 -668.883)" fill="#01458e"/>
    <path id="Path_6567" data-name="Path 6567" d="M3172.72,672.549a.8.8,0,1,1,1.578,0,.8.8,0,1,1-1.578,0m.209,2.689h1.142v8.541h-1.142Z" transform="translate(-2941.795 -622.732)" fill="#01458e"/>
    <path id="Path_6568" data-name="Path 6568" d="M3217.931,718.7h.943l.1,1.555h.037c.47-1.084,1.16-1.766,1.919-1.766a1.29,1.29,0,0,1,.721.176l-.213,1.268a1.537,1.537,0,0,0-.655-.141c-.57,0-1.251.52-1.707,1.964v5.484h-1.142Z" transform="translate(-2983.715 -666.199)" fill="#01458e"/>
    <path id="Path_6569" data-name="Path 6569" d="M3267.5,722.987c0-2.85,1.473-4.493,3.127-4.493s3.128,1.642,3.128,4.493c0,2.828-1.473,4.47-3.128,4.47s-3.127-1.642-3.127-4.47m5.074,0c0-1.957-.786-3.289-1.947-3.289s-1.948,1.332-1.948,3.289.787,3.267,1.948,3.267,1.947-1.31,1.947-3.267" transform="translate(-3029.675 -666.199)" fill="#01458e"/>
    <path id="Path_6570" data-name="Path 6570" d="M3375.847,718.7h.944l.1,1.232h.038a3.05,3.05,0,0,1,2.264-1.443c1.422,0,2.06,1.162,2.06,3.34v5.412h-1.142v-5.225c0-1.591-.38-2.272-1.273-2.272-.69,0-1.168.446-1.845,1.312v6.185h-1.142Z" transform="translate(-3130.138 -666.199)" fill="#01458e"/>
    <path id="Path_6571" data-name="Path 6571" d="M3476.163,718.7h.943l.1,1.238h.038a2.894,2.894,0,0,1,2.1-1.449,1.866,1.866,0,0,1,1.863,1.628c.7-.96,1.4-1.628,2.226-1.628,1.386,0,2.053,1.162,2.053,3.34v5.412h-1.142v-5.225c0-1.591-.4-2.272-1.256-2.272-.524,0-1.068.433-1.691,1.312v6.185h-1.143v-5.225c0-1.591-.4-2.272-1.256-2.272-.505,0-1.066.433-1.691,1.312v6.185h-1.142Z" transform="translate(-3223.152 -666.199)" fill="#01458e"/>
    <path id="Path_6572" data-name="Path 6572" d="M3623,722.987c0-2.78,1.48-4.493,3.034-4.493,1.722,0,2.694,1.565,2.694,4.008a5.787,5.787,0,0,1-.054.821h-4.544c.081,1.809.955,2.982,2.242,2.982a2.558,2.558,0,0,0,1.679-.682l.409.948a3.434,3.434,0,0,1-2.229.886c-1.8,0-3.232-1.665-3.232-4.47m4.719-.7c0-1.712-.608-2.642-1.664-2.642-.948,0-1.8.964-1.936,2.642Z" transform="translate(-3359.299 -666.199)" fill="#01458e"/>
    <path id="Path_6573" data-name="Path 6573" d="M3721.049,718.7h.944l.1,1.232h.038a3.051,3.051,0,0,1,2.264-1.443c1.422,0,2.06,1.162,2.06,3.34v5.412h-1.141v-5.225c0-1.591-.38-2.272-1.273-2.272-.69,0-1.168.446-1.845,1.312v6.185h-1.142Z" transform="translate(-3450.214 -666.199)" fill="#01458e"/>
    <path id="Path_6574" data-name="Path 6574" d="M3811.323,696.778v-4.723h-1V690.96l1.055-.083.137-2.395h.954v2.395h1.828v1.177h-1.828V696.8c0,1.044.265,1.649,1.043,1.649a1.876,1.876,0,0,0,.769-.229l.221,1.09a3.339,3.339,0,0,1-1.253.316c-1.436,0-1.923-1.152-1.923-2.851" transform="translate(-3532.987 -638.371)" fill="#01458e"/>
    <path id="Path_6575" data-name="Path 6575" d="M3869.212,725.028c0-1.861,1.268-2.791,4.145-3.187,0-1.1-.291-2.157-1.394-2.157a3.281,3.281,0,0,0-2.012.916l-.447-.991a4.321,4.321,0,0,1,2.651-1.115c1.647,0,2.344,1.386,2.344,3.512v5.24h-.943l-.1-1.021h-.038a3.277,3.277,0,0,1-2.232,1.232c-1.129,0-1.977-.888-1.977-2.428m4.145.134v-2.372c-2.262.344-3.026,1.045-3.026,2.137,0,.971.521,1.366,1.183,1.366a2.586,2.586,0,0,0,1.844-1.13" transform="translate(-3587.593 -666.198)" fill="#01458e"/>
    <path id="Path_6576" data-name="Path 6576" d="M3967.644,677.552v-10.8h1.142v10.908c0,.442.152.617.319.617a.79.79,0,0,0,.25-.035l.155,1.1a1.5,1.5,0,0,1-.658.135c-.856,0-1.208-.691-1.208-1.926" transform="translate(-3678.861 -618.22)" fill="#01458e"/>
    <path id="Path_6577" data-name="Path 6577" d="M4051.119,680.3h2.6c2.042,0,3.42.869,3.42,3.4,0,2.427-1.371,3.562-3.364,3.562h-1.5v4.575h-1.16Zm2.511,5.767c1.594,0,2.355-.731,2.355-2.372,0-1.663-.81-2.205-2.409-2.205h-1.3v4.577Z" transform="translate(-3756.26 -630.782)" fill="#01458e"/>
    <path id="Path_6578" data-name="Path 6578" d="M4153.021,718.7h.943l.1,1.555h.038c.47-1.084,1.16-1.766,1.919-1.766a1.289,1.289,0,0,1,.72.176l-.213,1.268a1.539,1.539,0,0,0-.655-.141c-.57,0-1.251.52-1.707,1.964v5.484h-1.143Z" transform="translate(-3850.745 -666.199)" fill="#01458e"/>
    <path id="Path_6579" data-name="Path 6579" d="M4202.588,722.987c0-2.85,1.474-4.493,3.127-4.493s3.128,1.642,3.128,4.493c0,2.828-1.473,4.47-3.128,4.47s-3.127-1.642-3.127-4.47m5.074,0c0-1.957-.787-3.289-1.947-3.289s-1.947,1.332-1.947,3.289.786,3.267,1.947,3.267,1.947-1.31,1.947-3.267" transform="translate(-3896.705 -666.199)" fill="#01458e"/>
    <path id="Path_6580" data-name="Path 6580" d="M4297.656,696.778v-4.723h-1V690.96l1.055-.083.137-2.395h.955v2.395h1.828v1.177H4298.8V696.8c0,1.044.266,1.649,1.043,1.649a1.874,1.874,0,0,0,.768-.229l.222,1.09a3.346,3.346,0,0,1-1.254.316c-1.436,0-1.922-1.152-1.922-2.851" transform="translate(-3983.921 -638.371)" fill="#01458e"/>
    <path id="Path_6581" data-name="Path 6581" d="M4355.735,722.987c0-2.78,1.481-4.493,3.034-4.493,1.721,0,2.693,1.565,2.693,4.008a5.577,5.577,0,0,1-.054.821h-4.545c.083,1.809.956,2.982,2.242,2.982a2.557,2.557,0,0,0,1.68-.682l.409.948a3.429,3.429,0,0,1-2.228.886c-1.8,0-3.231-1.665-3.231-4.47m4.718-.7c0-1.712-.608-2.642-1.663-2.642-.949,0-1.8.964-1.936,2.642Z" transform="translate(-4038.705 -666.199)" fill="#01458e"/>
    <path id="Path_6582" data-name="Path 6582" d="M4446.9,722.987c0-2.85,1.521-4.493,3.247-4.493a2.57,2.57,0,0,1,1.975,1l-.584.956a1.8,1.8,0,0,0-1.339-.755c-1.223,0-2.119,1.332-2.119,3.289s.847,3.267,2.088,3.267a2.216,2.216,0,0,0,1.585-.851l.5.969a2.945,2.945,0,0,1-2.183,1.086c-1.8,0-3.165-1.642-3.165-4.47" transform="translate(-4123.233 -666.199)" fill="#01458e"/>
    <path id="Path_6583" data-name="Path 6583" d="M4526.9,696.778v-4.723h-1V690.96l1.056-.083.137-2.395h.953v2.395h1.829v1.177h-1.829V696.8c0,1.044.266,1.649,1.044,1.649a1.878,1.878,0,0,0,.769-.229l.22,1.09a3.334,3.334,0,0,1-1.252.316c-1.437,0-1.924-1.152-1.924-2.851" transform="translate(-4196.481 -638.371)" fill="#01458e"/>
    <path id="Path_6584" data-name="Path 6584" d="M4591.667,672.549a.8.8,0,1,1,1.578,0,.8.8,0,1,1-1.578,0m.209,2.689h1.143v8.541h-1.143Z" transform="translate(-4257.463 -622.732)" fill="#01458e"/>
    <path id="Path_6585" data-name="Path 6585" d="M4629.986,722.987c0-2.85,1.473-4.493,3.127-4.493s3.128,1.642,3.128,4.493c0,2.828-1.473,4.47-3.128,4.47s-3.127-1.642-3.127-4.47m5.074,0c0-1.957-.786-3.289-1.947-3.289s-1.947,1.332-1.947,3.289.785,3.267,1.947,3.267,1.947-1.31,1.947-3.267" transform="translate(-4292.995 -666.199)" fill="#01458e"/>
    <path id="Path_6586" data-name="Path 6586" d="M4738.339,718.7h.943l.1,1.232h.037a3.055,3.055,0,0,1,2.265-1.443c1.423,0,2.06,1.162,2.06,3.34v5.412H4742.6v-5.225c0-1.591-.38-2.272-1.274-2.272-.69,0-1.168.446-1.844,1.312v6.185h-1.143Z" transform="translate(-4393.46 -666.199)" fill="#01458e"/>
    <path id="Path_6587" data-name="Path 6587" d="M3914.667,226.5a1.974,1.974,0,1,1-1.973-1.973,1.974,1.974,0,0,1,1.973,1.973" transform="translate(-3626.08 -208.183)" fill="#01458e"/>
    <path id="Path_6588" data-name="Path 6588" d="M3977.33,221.076a1.974,1.974,0,1,1-1.974-1.973,1.974,1.974,0,0,1,1.974,1.973" transform="translate(-3684.181 -203.155)" fill="#01458e"/>
    <path id="Path_6589" data-name="Path 6589" d="M1806.413,238.157a1.973,1.973,0,1,1-1.974-1.973,1.973,1.973,0,0,1,1.974,1.973" transform="translate(-1671.275 -218.992)" fill="#01458e"/>
    <path id="Path_6590" data-name="Path 6590" d="M1869.077,232.735a1.974,1.974,0,1,1-1.974-1.973,1.974,1.974,0,0,1,1.974,1.973" transform="translate(-1729.376 -213.965)" fill="#01458e"/>
    <path id="Path_6591" data-name="Path 6591" d="M814.944,246.99a1.974,1.974,0,1,1-1.974-1.974,1.973,1.973,0,0,1,1.974,1.974" transform="translate(-751.969 -227.183)" fill="#01458e"/>
    <path id="Path_6592" data-name="Path 6592" d="M877.607,241.567a1.973,1.973,0,1,1-1.973-1.973,1.973,1.973,0,0,1,1.973,1.973" transform="translate(-810.071 -222.155)" fill="#01458e"/>
    <path id="Path_6593" data-name="Path 6593" d="M3.947,240.868A1.973,1.973,0,1,1,1.973,238.9a1.973,1.973,0,0,1,1.973,1.973" transform="translate(0 -221.507)" fill="#01458e"/>
    <path id="Path_6594" data-name="Path 6594" d="M66.61,235.445a1.973,1.973,0,1,1-1.973-1.973,1.973,1.973,0,0,1,1.973,1.973" transform="translate(-58.102 -216.479)" fill="#01458e"/>
  </g>
</svg>
