<svg id="Group_7815" data-name="Group 7815" xmlns="http://www.w3.org/2000/svg" width="118.527" height="110.527" viewBox="0 0 118.527 110.527">
  <path id="Path_128" data-name="Path 128" d="M118.484,33.342a40.844,40.844,0,0,1-.988,10.277c-.559,2.779-2.362,3.341-4.425,1.39-1.787-1.689-3.484-3.471-5.233-5.2-2.549-2.52-4.6-2.859-6.377-1.07-1.634,1.646-1.257,3.8,1.108,6.179,3.091,3.1,6.208,6.183,9.29,9.3,1.118,1.129,2.288,2.439.742,3.936-1.479,1.431-2.8.433-3.968-.734q-7.984-7.994-15.978-15.977c-.543-.543-1.085-1.093-1.678-1.578a3.263,3.263,0,0,0-4.6.094,3.429,3.429,0,0,0-.635,4.6,11.214,11.214,0,0,0,1.934,2.269q8.95,8.984,17.926,17.942a18.78,18.78,0,0,1,1.571,1.683A1.9,1.9,0,0,1,107.213,69a2.064,2.064,0,0,1-2.7.592A8.345,8.345,0,0,1,102.565,68q-7.763-7.726-15.5-15.479a13.224,13.224,0,0,0-1.69-1.561,3.462,3.462,0,0,0-4.652.2c-1.439,1.321-1.4,3.022-.507,4.641a9.337,9.337,0,0,0,1.66,1.9Q90.18,66.03,98.5,74.342a13.152,13.152,0,0,1,1.537,1.709,1.988,1.988,0,0,1-.2,2.73,1.962,1.962,0,0,1-2.719.261A12.793,12.793,0,0,1,95.4,77.517q-6.289-6.265-12.562-12.545a10.471,10.471,0,0,0-1.522-1.4c-1.651-1.088-3.37-1.215-4.826.265a3.456,3.456,0,0,0-.194,4.823,24.1,24.1,0,0,0,2.534,2.672c4.015,4.028,8.058,8.029,12.05,12.08,1.867,1.894,1.767,3.043-.224,4.8a215.659,215.659,0,0,1-29.033,21.539,3.847,3.847,0,0,1-4.636,0A215.725,215.725,0,0,1,27.95,88.213c-1.993-1.763-2.1-2.911-.23-4.8,4.155-4.214,8.358-8.38,12.541-12.567.489-.489.991-.967,1.459-1.475,1.718-1.871,1.877-4.068.416-5.553-1.475-1.5-3.712-1.408-5.539.354-2.489,2.4-4.906,4.876-7.353,7.32q-3.426,3.422-6.854,6.842c-1.08,1.072-2.321,1.753-3.6.455s-.6-2.53.478-3.608Q27.9,66.532,36.542,57.891a17.75,17.75,0,0,0,1.582-1.674,3.873,3.873,0,0,0-.2-5.058,3.667,3.667,0,0,0-5.029.068c-.874.748-1.656,1.6-2.472,2.417q-7.179,7.168-14.358,14.337A10.021,10.021,0,0,1,14.34,69.5a2.1,2.1,0,0,1-2.908-.4,1.956,1.956,0,0,1,.05-2.728,19.591,19.591,0,0,1,1.425-1.506q8.963-8.972,17.925-17.943A12.562,12.562,0,0,0,32.8,44.672a3.417,3.417,0,0,0-.487-4.619,3.317,3.317,0,0,0-4.621-.207A37.068,37.068,0,0,0,24.685,42.7q-6.938,6.92-13.861,13.855-.571.571-1.145,1.138c-1.092,1.073-2.342,1.694-3.645.507-1.367-1.243-.693-2.514.346-3.605,1.272-1.336,2.593-2.623,3.9-3.93,2.171-2.177,4.379-4.318,6.5-6.54,1.7-1.778,1.8-3.863.4-5.346-1.557-1.643-3.551-1.642-5.507.181C9.532,40.95,7.55,43.1,5.426,45.106c-1.869,1.764-3.784,1.277-4.251-1.183-1.839-9.7-1.93-19.28,2.735-28.342C8.539,6.593,16.271,1.736,26,.429,39.371-1.368,50.019,3.82,58.06,14.471c1.185,1.57,1.614,1.135,2.551-.136C67.5,4.992,76.851.095,88.4,0a29.6,29.6,0,0,1,29.632,25.747,45.422,45.422,0,0,1,.447,7.594M5.136,38.941c1.658-1.5,2.976-2.88,4.474-4.021a7.811,7.811,0,0,1,11.662,1.905c.967,1.513,1.466,1.343,2.654.309,3.318-2.89,6.639-3.345,9.95-1.458,3.448,1.965,4.528,5.052,3.824,8.831a1.43,1.43,0,0,0,.827,1.817c4.7,2.691,5.919,5.709,4.284,10.694a1.668,1.668,0,0,0,.773,2.261c5.2,3.708,5.6,8.863,1.064,13.458-3.779,3.828-7.569,7.647-11.427,11.394-1.132,1.1-1.281,1.73.052,2.851A236.016,236.016,0,0,0,57,104.491a3.653,3.653,0,0,0,4.583.018A235.576,235.576,0,0,0,85.3,87c1.295-1.091,1.264-1.716.1-2.849-4.077-3.964-8.129-7.957-12.058-12.067-3.809-3.984-3.249-9.535,1.268-12.522,1.421-.939,1.474-1.69.95-3.167a7.682,7.682,0,0,1,3.865-9.746,2.15,2.15,0,0,0,1.393-2.8,7.677,7.677,0,0,1,4.662-8.605c3.656-1.63,6.715-.445,9.494,2.057.546.492.938,1.485,1.91.2,4.148-5.474,9.073-5.766,13.974-.981a6.98,6.98,0,0,0,2.689,2.179,34.951,34.951,0,0,0,.052-11.858C111.391,10.2,97.028,2.413,82.472,5.113,73.269,6.82,66.807,12.487,62.014,20.3c-1.9,3.091-3.542,3.124-5.382.05a36.573,36.573,0,0,0-7.879-9.26C34.153-1.211,8.747,4.034,5.2,25.643a34.162,34.162,0,0,0-.065,13.3" transform="translate(0 0)" fill="#f4f4f4"/>
</svg>
