<svg id="Group_7816" data-name="Group 7816" xmlns="http://www.w3.org/2000/svg" width="118.527" height="118.557" viewBox="0 0 118.527 118.557">
  <path id="Path_3105" data-name="Path 3105" d="M118.527,61.356A57.248,57.248,0,0,1,4.637,69.592,56.774,56.774,0,0,1,9.465,37.033a2.488,2.488,0,0,0-.6-3.391c-2.515-2.373-4.946-4.839-7.346-7.33-2.462-2.555-1.877-5.405,1.43-6.748,3.274-1.329,6.584-2.588,9.94-3.687a4.326,4.326,0,0,0,3.022-3.091c1.069-3.206,2.283-6.365,3.524-9.51C20.9-.449,23.716-1.046,26.558,1.734c2.363,2.312,4.735,4.618,6.995,7.029a2.625,2.625,0,0,0,3.574.66A56.909,56.909,0,0,1,102.49,21.554a55.89,55.89,0,0,1,16.037,39.8M42.478,27.967C63,17.389,82.754,25.88,92.135,38.818A38.149,38.149,0,0,1,44.907,95.735,37.427,37.427,0,0,1,24.991,72.946c-3.4-10.427-2.144-20.539,3.058-30.49-2.4.428-4.362.759-6.313,1.13a4.03,4.03,0,0,1-4.03-1.125c-1.635-1.872-2.171-.917-2.831.795A48.9,48.9,0,0,0,12.017,68.6,49.773,49.773,0,0,0,110.925,58.1C109.844,42.917,103.3,30.6,91.2,21.6c-14.721-10.946-30.96-12.988-48.221-6.6-1.725.638-2.113,1.252-.61,2.589a4.2,4.2,0,0,1,1.21,4.223c-.381,1.941-.7,3.895-1.1,6.161m18.983,2.755a30.039,30.039,0,0,0-16.807,4.789c-1.694,1.085-2.172,1.912-.449,3.419a69.291,69.291,0,0,1,5.059,5.043,2.23,2.23,0,0,0,3.168.542,18.811,18.811,0,0,1,11.584-2.036A19.021,19.021,0,1,1,44.409,52.657c.769-1.552.635-2.446-.577-3.545a59.449,59.449,0,0,1-4.883-4.893c-1.477-1.694-2.36-1.351-3.412.42-6.671,11.227-6.91,22.6.242,33.487C42.888,88.949,53.412,93.456,66.22,91.477c16.192-2.5,27.119-16.954,25.63-33.267A30.516,30.516,0,0,0,61.462,30.722m-.08,19.057A12.735,12.735,0,0,0,60,49.79a9.531,9.531,0,0,0-1.347.29c-2.211.578-2.3.905-.657,2.584,1.775,1.808,3.6,3.563,5.362,5.387,1.96,2.034,2.106,4.3.453,5.879-1.592,1.523-3.754,1.353-5.714-.533-1.88-1.81-3.683-3.7-5.553-5.521-1.552-1.511-1.88-1.4-2.45.717-1.751,6.5,2.581,12.823,9.686,14.132,6.347,1.169,12.526-3.932,13.122-10.833.537-6.221-5-12.062-11.521-12.112M34.389,28.961c.843-1.83.737-3.5,1.209-5.022a3.536,3.536,0,0,0-1.288-4.019C32,17.8,29.842,15.507,27.62,13.286c-2.857-2.857-2.882-2.867-4.263.879-.426,1.157-1.442,2.373-.211,3.608,3.666,3.681,7.362,7.332,11.243,11.189m-5.041,5.592c-3.3-3.258-6.108-6.065-8.954-8.834-4.228-4.115-2.489-3.635-8.175-1.667-.072.025-.139.066-.213.086-1.415.383-1.24.987-.346,1.865,3.06,3.006,6.079,6.056,9.113,9.089a1.881,1.881,0,0,0,1.812.73c2.014-.41,4.038-.763,6.762-1.269" transform="translate(-0.001 0)" fill="#f4f4f4"/>
</svg>
